<?xml version="1.0" encoding="UTF-8"?>
<svg xmlns="http://www.w3.org/2000/svg" xmlns:xlink="http://www.w3.org/1999/xlink" viewBox="0 0 1920 1080">
  <defs>
    <style>
      .cls-1 {
        fill: #323949;
      }

      .cls-2 {
        fill: #212129;
        opacity: .5;
      }

      .cls-3 {
        fill: #303042;
      }

      .cls-4 {
        fill: url(#linear-gradient);
      }
    </style>
    <linearGradient id="linear-gradient" x1="962.32" y1="1084.39" x2="962.32" y2="477.3" gradientUnits="userSpaceOnUse">
      <stop offset="0" stop-color="#323949"/>
      <stop offset=".57" stop-color="#313747"/>
      <stop offset=".77" stop-color="#2d3240"/>
      <stop offset=".91" stop-color="#272934"/>
      <stop offset="1" stop-color="#212129"/>
    </linearGradient>
  </defs>
  <g id="bg">
    <rect class="cls-1" x="-37.45" y="-21.32" width="1994.9" height="531.55"/>
    <rect class="cls-4" x="-35.13" y="477.3" width="1994.9" height="607.09"/>
  </g>
  <g id="Layer_11" data-name="Layer 11">
    <polygon class="cls-3" points="84.57 9.93 264.15 9.93 264.15 -37.34 85.92 -37.34 84.57 9.93"/>
    <path class="cls-3" d="M378.5-17.39v63.97l15.57-3.47,59.75,1.06,18.42-2.59s31.03-6.54,41.8.49,13.33,25.29,13.33,25.29l5.64,32.84,28.99-2.34.5-124.9-184.01,9.64Z"/>
    <polygon class="cls-3" points="379.22 339.14 572.02 339.14 572.02 478.33 380.75 478.33 379.22 339.14"/>
    <polygon class="cls-3" points="782.55 84.15 947.86 84.15 947.86 -31.8 785.74 -31.8 782.55 84.15"/>
    <polygon class="cls-3" points="785.74 160.35 785.74 281.42 945.82 281.42 945.82 166.27 785.74 160.35"/>
    <path class="cls-3" d="M1244.8,47.04l-2.72,143.94,13.21,3.27,1.79-22.54,126.83-5.43s-6.62-44.78,3.73-54.5,45.46-3.74,45.46-3.74l-6.25-55.51-182.05-5.5Z"/>
    <polygon class="cls-3" points="1244.8 280.92 1428.39 281.85 1430.91 477.95 1244.43 481.36 1244.8 280.92"/>
    <polygon class="cls-3" points="1846.02 386.98 1846.02 -27.04 1961.83 -31.41 1957.45 382.22 1846.02 386.98"/>
    <polygon class="cls-3" points="83.33 81.47 205.91 80.47 205.21 361.25 155.67 375.48 121.46 267.36 83.2 264.51 83.33 81.47"/>
    <polygon class="cls-3" points="1842.09 415.09 1842.09 481.36 1939.14 481.36 1946.04 408.91 1842.09 415.09"/>
    <path d="M348.93,373.17c-11.82,1.31-23.57-.97-34.86-4.32-11.56-3.43-22.77-7.92-34.39-11.17-5.76-1.61-11.62-2.91-17.57-3.6-6.72-.77-13.51-.73-20.24-.12-12.44,1.12-24.61,4.07-36.65,7.29V87.39c0-.64-1-.64-1,0v274.12c-.83.22-1.67.45-2.5.67-13.56,3.67-27.11,7.37-40.67,11.05-1.56.43-3.13.85-4.69,1.28-.63-2.48-1.26-4.96-1.91-7.44-4-15.3-8.28-30.53-12.83-45.68-4.55-15.15-9.38-30.22-14.47-45.19-.62-1.82-1.25-3.65-1.87-5.47-.6-1.73-1.13-3.51-1.85-5.2-.61-1.43-1.52-2.7-2.99-3.33-1.4-.6-2.98-.57-4.47-.46-8.17.63-16.32,1.48-24.48,2.23-1.99.18-3.98.36-5.97.54-.64.06-.64,1.06,0,1,8.13-.74,16.26-1.48,24.39-2.22,1.95-.18,3.91-.37,5.86-.53,1.6-.13,3.41-.24,4.83.65,1.37.86,1.94,2.5,2.45,3.95.66,1.89,1.32,3.79,1.97,5.69,5.09,14.81,9.91,29.71,14.46,44.69s8.84,30.04,12.85,45.18c4.01,15.13,7.75,30.34,11.22,45.61,3.47,15.27,6.66,30.6,9.58,45.98.1.54.2,1.08.3,1.61-.21.09-.38.29-.33.57,0,.03.01.06.02.09-.14-.17-.37-.27-.62-.12-10.29,6.12-21.77,10.16-33.62,11.86-3.33.48-6.69.76-10.05.86-.64.02-.64,1.02,0,1,12.1-.36,24.08-3.15,35.11-8.13,3.11-1.4,6.13-2.98,9.06-4.73.11-.07.17-.16.2-.25,1.27,7.26,3.01,14.44,5.23,21.47.19.61,1.16.35.96-.27-1.86-5.91-3.38-11.91-4.57-17.99.21-.09.38-.29.32-.57-2.9-15.63-6.07-31.21-9.53-46.73-2.81-12.61-5.82-25.18-9.01-37.71,13.46-3.66,26.92-7.32,40.38-10.98,13.24-3.6,26.54-7.32,40.19-9.04,6.74-.85,13.56-1.21,20.35-.79,6.15.38,12.22,1.47,18.19,2.98,11.7,2.96,22.94,7.4,34.44,11.04,11.1,3.51,22.65,6.3,34.38,5.82,1.47-.06,2.94-.18,4.4-.34.63-.07.64-1.07,0-1Z"/>
    <path d="M116.18,448.32c-2.12-10.3-4.43-20.55-6.88-30.77-2.44-10.19-5.01-20.35-7.65-30.48-2.64-10.14-5.35-20.26-8.08-30.38-2.78-10.32-5.57-20.64-8.35-30.95-.35-1.29-.69-2.57-1.04-3.86-.17-.62-1.13-.36-.96.27,2.79,10.34,5.58,20.69,8.37,31.03,2.74,10.15,5.47,20.31,8.14,30.49,2.66,10.13,5.25,20.28,7.72,30.47,2.47,10.18,4.81,20.38,6.97,30.63,2.17,10.28,4.15,20.61,5.87,30.97.21,1.29.43,2.57.63,3.86.1.63,1.07.36.96-.27-1.67-10.38-3.59-20.71-5.71-31Z"/>
    <path d="M117.77,298.83c-5.18,1.34-10.29,2.89-15.33,4.67-2.5.88-4.98,1.82-7.44,2.81-2.17.88-4.52,1.66-6.48,2.96-1.71,1.13-3.2,2.8-2.8,4.98.12.63,1.08.36.96-.27-.35-1.91,1.41-3.33,2.88-4.18,1.98-1.16,4.24-1.94,6.37-2.79,4.6-1.83,9.27-3.47,14-4.93,2.69-.83,5.39-1.59,8.12-2.29.62-.16.36-1.13-.27-.96Z"/>
    <path d="M112.47,265.03c-3.54,7.83-11.2,13.39-19.63,14.79-2.38.4-4.83.44-7.22.11-.63-.09-.9.88-.27.96,8.86,1.23,18.06-2.42,23.93-9.12,1.64-1.87,3.01-3.97,4.04-6.24.26-.58-.6-1.09-.86-.5Z"/>
    <path d="M127.88,291.72c-3.43,1.86-6.85,3.71-10.28,5.57-.57.31-.06,1.17.5.86,3.43-1.86,6.85-3.71,10.28-5.57.57-.31.06-1.17-.5-.86Z"/>
    <path d="M136.28,321.45c-12.24,2.89-23.98,7.86-34.56,14.66-1.28.82-2.66,1.6-3.55,2.87-.69.99-.99,2.29-.03,3.21.47.44,1.17-.26.71-.71-.92-.87.25-2.21.94-2.83,1.01-.92,2.31-1.61,3.47-2.33,2.48-1.56,5.02-3.01,7.62-4.37,5.19-2.71,10.59-5,16.15-6.84,3.13-1.04,6.31-1.94,9.52-2.7.63-.15.36-1.11-.27-.96Z"/>
    <path d="M154.83,385.56c-11.68,5.05-23.8,9.09-36.16,12.08-3.5.85-7.03,1.61-10.56,2.29-.63.12-.36,1.09.27.96,12.62-2.42,25.03-5.91,37.05-10.45,3.34-1.26,6.65-2.6,9.92-4.02.59-.25.08-1.12-.5-.86Z"/>
    <path d="M169.09,469.74c-7.02,3.22-14.33,5.79-21.82,7.67-.62.16-.36,1.12.27.96,7.58-1.91,14.96-4.52,22.06-7.77.58-.27.08-1.13-.5-.86Z"/>
    <path d="M101.99,270.97c-5.84.32-11.71-.67-17.1-2.95-.59-.25-1.1.61-.5.86,5.56,2.35,11.58,3.42,17.61,3.08.64-.04.64-1.04,0-1Z"/>
    <path d="M91.88,276.68c-2.41-1.35-4.61-3.03-6.55-5-.45-.46-1.16.25-.71.71,1.99,2.03,4.27,3.77,6.75,5.16.56.31,1.07-.55.5-.86Z"/>
    <path d="M357.13,374.42c-12.2,3.59-24.39,7.21-36.57,10.87-12.1,3.64-24.19,7.31-36.27,11.03-6.49,2-12.98,4.03-19.47,6.05,0,0-.01-.01-.02-.02-.34-.28-.78-.03-.86.29-5.29,1.64-10.58,3.27-15.86,4.93-12.13,3.81-24.25,7.66-36.36,11.55-12.03,3.86-24.05,7.76-36.06,11.69-1.49.49-2.98.98-4.47,1.47-.61.2-.35,1.17.27.96,12.08-3.97,24.18-7.9,36.28-11.8,1.04-.33,2.08-.66,3.12-.99v35.42c0,.64,1,.64,1,0v-35.74c10.66-3.42,21.32-6.82,32-10.19,6.89-2.17,13.8-4.3,20.7-6.45,3.1,3,3.35,7.78,3.38,11.86.04,5.98,0,11.96.01,17.94,0,3.4,0,6.79,0,10.19,0,.64,1,.64,1,0,0-6.21,0-12.43-.01-18.64,0-3.1,0-6.21,0-9.31,0-2.29-.1-4.61-.59-6.85-.45-2.04-1.3-4-2.71-5.53,4.81-1.49,9.6-3.01,14.41-4.49,12.15-3.75,24.32-7.46,36.49-11.13,7.55-2.28,15.11-4.51,22.67-6.76,0,.02,0,.03,0,.06.59,7.88,4.38,15.08,5.13,22.92.21,2.2.14,4.41-.32,6.57-.13.63.83.9.96.27,1.68-7.86-1.69-15.48-3.59-22.97-.57-2.23-1.02-4.49-1.19-6.78,0-.13-.07-.23-.14-.31,4.27-1.27,8.53-2.56,12.81-3.82,1.51-.44,3.01-.89,4.52-1.33.62-.18.35-1.15-.27-.96Z"/>
    <path d="M356.99,405.42c-7.28,7.92-15.89,14.48-25.2,19.84-6.88,3.97-14.11,7.3-21.51,10.19-.19-.03-.39.06-.51.2-2.56,1-5.14,1.94-7.73,2.84-10.39,3.61-21.01,6.53-31.66,9.27-4.94,1.27-9.9,2.5-14.86,3.71,0,0,0-.02,0-.03.03-.64-.97-.64-1,0,0,.09,0,.18,0,.27-7.59,1.84-15.21,3.62-22.83,5.31-11.64,2.58-23.31,4.97-35.02,7.19,3.34-1.01,6.67-2.05,9.99-3.13.61-.2.35-1.16-.27-.96-4.08,1.33-8.19,2.6-12.3,3.83-.3-.3-.7-.08-.8.24-4.31,1.28-8.64,2.5-12.99,3.66-.62.17-.36,1.13.27.96,2.44-.65,4.88-1.33,7.31-2.02.08.03.16.04.26.02,2.05-.37,4.1-.76,6.15-1.15,2.58,2.98,4.7,6.34,6.29,9.95.26.59,1.12.08.86-.5-1.54-3.49-3.58-6.74-6.02-9.66,2.05-.39,4.09-.78,6.14-1.18,0,.05,0,.1.03.16l5.03,13.02c.23.59,1.2.34.96-.27-1.68-4.34-3.35-8.68-5.03-13.02-.01-.03-.03-.05-.05-.07,8.31-1.62,16.61-3.32,24.89-5.12,9.07-1.97,18.12-4.06,27.14-6.25.22,3.3,1.9,6.29,3.77,8.97,2.17,3.12,4.77,6.03,6.33,9.53.84,1.89,1.24,3.92.97,5.98-.08.64.92.63,1,0,.5-3.75-1.2-7.2-3.24-10.22-2.15-3.18-4.76-6.08-6.46-9.54-.77-1.56-1.28-3.23-1.37-4.96,3.62-.88,7.23-1.77,10.84-2.69,10.98-2.78,21.94-5.68,32.69-9.26,3.68-1.22,7.33-2.53,10.94-3.93,4.74,8.03,8.01,16.87,9.63,26.05.11.63,1.08.36.96-.27-1.3-7.34-3.64-14.48-6.94-21.16-.84-1.7-1.75-3.36-2.72-5,6.2-2.44,12.29-5.19,18.15-8.36,9.42-5.09,18.27-11.32,25.84-18.9.94-.94,1.86-1.9,2.76-2.88.43-.47-.27-1.18-.71-.71Z"/>
    <path d="M201.97,428.39c-.06-.64-1.06-.64-1,0,.76,8.25,1.51,16.5,2.27,24.75.06.64,1.06.64,1,0-.76-8.25-1.51-16.5-2.27-24.75Z"/>
    <path d="M274.16,401.54v43.34c0,.64,1,.64,1,0v-43.34c0-.64-1-.64-1,0Z"/>
    <path d="M333.84,390.77c-.66-2.22-1.38-4.43-2.17-6.61-.22-.6-1.18-.34-.96.27,2.71,7.55,4.67,15.36,5.82,23.3.33,2.29.59,4.59.79,6.89.05.64,1.05.64,1,0-.69-8.07-2.18-16.08-4.48-23.85Z"/>
    <path d="M237.49,360.25c-3.17,2.79-6.35,5.58-9.52,8.37-1.31,1.15-2.77,2.74-4.59,2.94-1.29.14-3.21-1.26-2.27-2.65.36-.53-.5-1.03-.86-.5-.95,1.39.05,3.15,1.4,3.83,1.8.91,3.74-.17,5.15-1.29,1.94-1.54,3.75-3.27,5.61-4.9,1.93-1.69,3.86-3.39,5.79-5.08.48-.43-.23-1.13-.71-.71Z"/>
    <path d="M258.02,377.02c-1.43.55-2.37,1.68-3.24,2.9-.93,1.29-1.85,2.78-3.44,3.31-1.99.67-4.18-.29-5.92-1.22-2.06-1.1-4.04-2.34-6.05-3.52-2.37-1.39-4.73-2.77-7.1-4.16-.56-.33-1.06.54-.5.86,4.28,2.51,8.52,5.14,12.87,7.53,1.74.95,3.75,1.88,5.78,1.71,1.8-.15,3.12-1.18,4.19-2.56,1.06-1.38,1.96-3.21,3.68-3.87.59-.23.34-1.2-.27-.96Z"/>
    <path d="M277.79,379.21c-.55-2-2.03-3.25-3.93-3.93-1.09-.39-2.24-.64-3.35-.96-1.19-.34-2.36-.7-3.54-1.08-2.38-.78-4.73-1.65-7.04-2.61-2.66-1.11-5.27-2.34-7.83-3.68-.57-.3-1.08.56-.5.86,4.13,2.17,8.41,4.05,12.81,5.61,2.25.8,4.53,1.51,6.84,2.14,1.9.52,4.09.95,5.14,2.81,1.09,1.92.71,4.4.35,6.47-.11.63.86.9.96.27.33-1.93.62-3.98.09-5.9Z"/>
    <path d="M269.43,395.06c-2.28-2.53-4.56-5.06-6.85-7.6-.43-.48-1.14.23-.71.71,2.28,2.53,4.56,5.06,6.85,7.6.43.48,1.14-.23.71-.71Z"/>
    <path d="M299.45,387.6c-8.48.76-17.02.61-25.47-.45-.64-.08-.63.92,0,1,8.45,1.06,16.99,1.21,25.47.45.64-.06.64-1.06,0-1Z"/>
    <path d="M253,373.93c-.68-1.83-1.68-3.51-2.98-4.98-1.27-1.44-2.89-2.84-4.71-3.5-1.64-.59-3.56-.24-4.41,1.41-.7,1.35-.58,3.09.18,4.39,1.11,1.89,3.22,2.88,5.14,3.74.58.26,1.09-.6.5-.86-2.46-1.1-6.08-2.9-5.17-6.22.44-1.62,2.01-2.03,3.48-1.48,1.55.57,2.93,1.79,4.04,2.99,1.28,1.39,2.29,3.02,2.95,4.79.22.6,1.19.34.96-.27Z"/>
    <path d="M235.91,394.67c-4.68-3.58-9.36-7.16-14.04-10.74-2.34-1.79-4.68-3.58-7.02-5.37-2.23-1.71-4.41-3.54-6.78-5.07-2.31-1.49-5.01-2.62-7.78-1.9-.28.07-.37.3-.34.52-9.11,2.58-18.12,5.49-27,8.76-2.69.99-5.37,2.01-8.04,3.07-.59.23-.33,1.2.27.96,9.35-3.69,18.85-7.01,28.48-9.92,2.74-.83,5.5-1.63,8.26-2.4.13-.04.22-.11.28-.21,1.96.04,3.83.97,5.47,2.04,2.29,1.5,4.41,3.27,6.58,4.93,4.48,3.43,8.96,6.86,13.44,10.28,2.57,1.97,5.14,3.93,7.71,5.9.51.39,1.01-.48.5-.86Z"/>
    <path d="M234,397.28c-15.2,2.84-30.13,7.08-44.54,12.67-4.04,1.57-8.05,3.24-12,5.02-.59.26-.08,1.12.5.86,14.07-6.3,28.72-11.3,43.71-14.9,4.18-1,8.38-1.9,12.6-2.69.63-.12.36-1.08-.27-.96Z"/>
    <path d="M181.1,409.16c-5.25-6.22-10.32-12.58-15.19-19.09-1.39-1.86-2.77-3.73-4.13-5.62-.37-.52-1.24-.02-.86.5,4.79,6.63,9.78,13.12,14.95,19.46,1.5,1.83,3.01,3.65,4.53,5.46.42.49,1.12-.22.71-.71Z"/>
    <path d="M209.06,398.55c-.63-1.07-1.71-1.61-2.84-2.02-1.13-.41-2.46-.69-3.32-1.59-1.17-1.21-.78-3.06-.12-4.43.72-1.5,1.89-2.73,2.65-4.21.54-1.05,1.31-2.92.4-3.97-.48-.55-1.21-.55-1.89-.55-1.08,0-2.15,0-3.23,0-4.05,0-8.11,0-12.16,0-4.55,0-9.1,0-13.65,0-.64,0-.64,1,0,1,7.86,0,15.72,0,23.57-.01,1.95,0,3.94-.1,5.89,0,.5.03.81.15.85.7.03.36-.06.74-.15,1.08-.22.82-.65,1.57-1.11,2.28-1.47,2.26-3.86,5.12-2.38,7.98.65,1.25,1.96,1.84,3.22,2.28,1.22.43,2.69.77,3.4,1.97.33.55,1.19.05.86-.5Z"/>
    <path d="M354.07,462.87c-9.43,1.63-18.84,3.35-28.23,5.18-9.43,1.83-18.85,3.76-28.24,5.79-5.28,1.14-10.56,2.31-15.82,3.51-.63.14-.36,1.11.27.96,9.33-2.13,18.68-4.16,28.05-6.1,9.41-1.94,18.84-3.79,28.29-5.53,5.31-.98,10.63-1.93,15.96-2.85.63-.11.36-1.07-.27-.96Z"/>
    <path d="M256.64,473.22c-2.37-4.93-4.75-9.85-7.12-14.78-.28-.58-1.14-.07-.86.5,2.37,4.93,4.75,9.85,7.12,14.78.28.58,1.14.07.86-.5Z"/>
    <path d="M320.04,436.46c-.31-.56-1.18-.06-.86.5,4.46,8.05,6.58,17.29,6.09,26.48-.03.64.97.64,1,0,.5-9.36-1.68-18.78-6.22-26.98Z"/>
    <path d="M263.84-65.94V11.87c0,.42,1,.42,1,0v-77.81c0-.42-1-.42-1,0Z"/>
    <path d="M383.58,210.72h-4.6c-.64,0-.64,1,0,1h4.68c-.04-.33-.07-.66-.08-1Z"/>
    <path d="M477.73,288.25c-1.02,0-2.05,0-3.07,0-.75,0-1.51-.01-2.26-.02,1.02-1.94,1.38-4.2,1.48-6.37.14-3.04-.18-6.09-.37-9.12l-.41-6.56c.6-.22,1.21-.44,1.8-.68.59-.24.33-1.21-.27-.96-.53.22-1.07.41-1.6.61l-.04-.63c1.13-.15,2.27-.29,3.4-.47.63-.1.36-1.06-.27-.96-1.06.16-2.13.3-3.2.45-.7-11.3-1.4-22.6-2.1-33.9l-1.11-17.91h3.72c-.03-.33-.04-.67-.04-1h-3.74c-.27-4.29-.53-8.58-.8-12.88.07-.06.15-.11.22-.18.35-.31.08-.75-.28-.82-.22-3.53-.44-7.05-.66-10.58-.89-14.37-1.78-28.74-2.68-43.11-.89-14.34-1.78-28.68-2.84-43.01,0-.09-.01-.19-.02-.28-.15-.45-.29-.9-.44-1.35-.8-2.39-.77-4.53-.16-6.35-.92-11.66-1.98-23.31-3.28-34.93-.22-1.94-.35-4.29-.8-6.51.15.04.3.08.45.11-.06-.22-.12-.43-.15-.66-.02-.14-.03-.28-.04-.42-.17-.04-.34-.08-.51-.13-.78-2.92-2.28-5.4-5.59-6.04-1.55-.3-3.15-.31-4.72-.36-1.25-.04-2.51-.05-3.77-.05.05-.28-.1-.6-.47-.6-9.15-.09-18.3-.17-27.46-.26-4.58-.04-9.15-.09-13.73-.13-2.29-.02-4.58-.04-6.86-.06-2.26-.02-4.54-.1-6.8,0-2.34.12-4.61.58-6.81,1.41-2.19.83-4.27,1.92-6.33,3.03-.57.31-.06,1.17.5.86,3.67-1.99,7.44-3.88,11.66-4.25,2.25-.19,4.52-.11,6.77-.08,2.25.02,4.49.04,6.74.06,9.03.09,18.06.17,27.08.26,2.41.02,4.82.05,7.23.07-1.07.08-2.15.14-3.22.25-6.84.67-13.62,1.93-20.24,3.76-5.01,1.39-10.56,3.18-13.88,7.46-.28.36-.52.73-.75,1.11-6.94-2.09-12.83-6.64-19.77-8.71-.62-.18-.88.78-.27.96,6.87,2.05,12.71,6.52,19.55,8.64-.92,1.88-1.35,3.97-1.47,6.09-.17,3.19.16,6.42.4,9.6-.29.18-.27.7.07.88.52,6.94,1.23,13.87,2.12,20.77.36,2.76.75,5.52,1.17,8.27-6.45-3.59-13.12-6.78-19.96-9.56-.6-.24-.86.73-.27.96,5.87,2.38,11.59,5.09,17.18,8.07-4.67-1.14-9.93-.12-14.41,1.22-1.64.49-3.25,1.05-4.85,1.64-.6.22-.34,1.19.27.96,3.19-1.18,6.45-2.24,9.81-2.85,3.23-.58,6.65-.75,9.81.23.99.31,1.89.74,2.73,1.26.07.2.24.28.42.27,1.83,1.23,3.3,2.94,4.38,4.96,1.85,3.48,2.85,7.48,3.73,11.3,1.3,5.66,2.03,11.43,2.58,17.21-.06,0-.12,0-.19.03-8.22,2.94-16.78,4.94-25.46,5.91-2.46.28-4.94.47-7.41.58-.64.03-.64,1.03,0,1,8.77-.41,17.5-1.82,25.95-4.22,2.42-.69,4.82-1.46,7.19-2.31,0,0,.01,0,.02-.01.22,2.4.41,4.8.59,7.2.68,8.86,1.36,17.73,2.03,26.59.67,8.91,1.33,17.83,1.99,26.74.27,3.64.53,7.29.79,10.93h-1.8c-.05.34-.12.67-.21,1h2.08c.36,4.9.72,9.79,1.07,14.69.64,8.92,1.27,17.83,1.9,26.75.28,3.93.54,7.87.82,11.8-9.67,1.11-19.49,1-29.13-.39-2.78-.4-5.54-.9-8.28-1.51-.63-.14-.9.83-.27.96,9.67,2.13,19.61,3,29.51,2.58,2.75-.12,5.5-.34,8.23-.66.32,4.61.64,9.22.96,13.83.15,2.24.31,4.48.46,6.72.12,1.78.27,3.56.21,5.35-.04,1.02-.18,2.06-.45,3.03-2.64-.19-5.27-.43-7.9-.74-.64-.08-.63.92,0,1,2.52.3,5.05.53,7.58.71-.66,1.73-1.82,3.18-3.8,3.87-1.75.61-3.63.63-5.46.66-2.2.03-4.41.06-6.61.08-4.49.06-8.98.11-13.47.17-2.16.03-4.32.05-6.48.08-.64,0-.64,1.01,0,1,9.09-.12,18.19-.16,27.29-.35,3.42-.07,7.08-.64,8.94-3.88.28-.5.5-1.02.68-1.55,11.18.76,22.44.43,33.56-1.03,3.26-.43,6.57-.85,9.78-1.6,2.68-.63,5.21-1.77,6.84-4.08,0,0,.01-.02.02-.03,2.17.02,4.35.02,6.52.03-.25-.29-.44-.63-.59-.99ZM471.24,288.21c-2.02-.01-4.03-.03-6.05-.05-.64,0-.64.99,0,1,1.78.02,3.56.02,5.35.03-1.66,1.96-4.17,2.81-6.65,3.32-6.68,1.37-13.54,2.1-20.34,2.51-6.88.42-13.79.43-20.67.01-.33-.02-.65-.05-.98-.07.54-2.22.44-4.63.29-6.85-.62-9.13-1.25-18.25-1.88-27.38-.64-9.12-1.28-18.25-1.93-27.37-.52-7.22-1.04-14.44-1.57-21.66h1.18c-.08-.33-.14-.66-.19-1h-1.06c-.11-1.53-.22-3.06-.33-4.59-.67-9.12-1.34-18.24-2.03-27.37-.68-9.08-1.37-18.16-2.07-27.24-.67-8.72-1.2-17.48-2.74-26.09-.75-4.19-1.72-8.37-3.14-12.38-1.2-3.4-2.92-6.68-5.9-8.84-.16-.12-.33-.22-.5-.32-.01-.07-.02-.14-.03-.21.05-.15.04-.31-.07-.44-1.01-6.62-1.86-13.27-2.53-19.93-.32-3.21-.6-6.43-.84-9.65,15.77,1.19,31.66.6,47.29-1.77,4.46-.68,8.9-1.5,13.31-2.46.63-.14.36-1.1-.27-.96-15.63,3.41-31.63,5.02-47.62,4.78-4.27-.06-8.53-.27-12.79-.59-.23-3.17-.57-6.4-.4-9.58.16-2.92.95-5.75,2.9-7.98,1.73-1.98,4.04-3.36,6.43-4.41,2.61-1.14,5.38-1.91,8.13-2.63,3.3-.87,6.64-1.59,10-2.17,6.64-1.14,13.39-1.71,20.13-1.7,1.71,0,3.41.04,5.12.11,1.54.07,3.2.08,4.61.76,1.91.92,2.8,2.85,3.29,4.82-.06.19-.03.41.13.54.06.28.12.56.16.84.57,3.28.81,6.64,1.17,9.94.37,3.46.72,6.92,1.06,10.38.68,7.01,1.28,14.02,1.84,21.03,1.11,13.99,2.01,28,2.89,42.01.88,14.07,1.75,28.13,2.62,42.2.43,6.86.85,13.73,1.28,20.59-2.15,1.69-4.74,2.69-7.39,3.36-3.14.8-6.37,1.26-9.59,1.61-6.67.74-13.42.78-20.1.13-3.85-.38-7.68-.99-11.46-1.83-.63-.14-.89.83-.27.96,6.83,1.51,13.82,2.3,20.82,2.32,6.75.02,13.67-.53,20.25-2.09,2.77-.65,5.48-1.64,7.8-3.29l.75,12.14h-2.15c-.05.34-.11.67-.19,1h2.4c.01.24.03.48.04.71-.04,0-.08-.02-.14-.02-12.34.67-24.76.14-36.99-1.62-3.45-.5-6.89-1.09-10.31-1.78-.63-.13-.9.84-.27.96,12.17,2.45,24.57,3.7,36.99,3.72,3.53,0,7.06-.09,10.58-.28.07,0,.14-.02.19-.05.12,1.93.24,3.86.36,5.8.87,14.08,1.75,28.16,2.62,42.24.05.76.09,1.51.14,2.27-11.49,1.48-23.12,1.78-34.67.88-1.79-.14-3.57-.31-5.35-.51-.69-.08-3.69-.65-2.82-1.91.37-.53-.5-1.03-.86-.5-.67.97-.04,1.96.81,2.54,1.17.81,2.6.84,3.97.99,3.52.37,7.06.62,10.6.77,7,.28,14.02.13,21-.46,2.47-.21,4.93-.49,7.39-.81.02.28.04.57.05.85-11.84,4.11-24.65,3.95-37.01,2.84-3.75-.34-7.49-.77-11.24-1.21-.64-.07-.63.93,0,1,13.3,1.56,26.95,3.09,40.23.55,2.74-.52,5.44-1.24,8.08-2.14.11,1.82.23,3.63.34,5.45.19,3.03.5,6.08.44,9.12-.05,2.43-.38,4.99-1.66,7.11Z"/>
    <path d="M750.72,92.66c-.02-.64-1.02-.64-1,0,.21,7.5-1.07,14.9-3,22.12-1.31-2.52-3.05-4.78-5.02-6.84-2.55-2.68-5.4-5.13-8.27-7.45-2.91-2.36-6.03-4.44-9.59-5.7-3.35-1.18-6.95-1.67-10.49-1.46-3.97.23-7.87,1.33-11.35,3.25-.56.31-.06,1.18.5.86,6.05-3.34,13.4-4.05,20-2.04,3.44,1.05,6.51,2.9,9.33,5.09,2.81,2.18,5.53,4.55,8.06,7.04,2.57,2.54,4.91,5.38,6.42,8.69-.44,1.58-.92,3.15-1.42,4.72-6.44-10.66-15.78-20.49-28.49-22.93-3.5-.67-7.09-.71-10.59-.03-.63.12-.36,1.09.27.96,6.14-1.2,12.55.02,18.13,2.74,5.54,2.7,10.23,6.85,14.12,11.59,2.19,2.67,4.13,5.54,5.9,8.5.08.14.2.21.33.23-2.86,8.87-6.15,17.61-9.59,26.27-3.4,8.54-7.02,17-10.86,25.35-3.83,8.33-7.88,16.55-12.14,24.67-4.26,8.11-8.73,16.12-13.41,24-4.66,7.85-9.52,15.58-14.58,23.18-5.08,7.63-10.36,15.12-15.83,22.47-.04.06-.09.12-.13.17-1.51-.75-3.02-1.49-4.53-2.23-.11.31-.24.62-.37.93,1.43.71,2.87,1.4,4.3,2.11-5.26,7.04-10.7,13.94-16.31,20.7-1.46,1.76-2.93,3.51-4.42,5.25-1.5,1.76-3.08,3.39-5.42,3.94-1.16.27-2.35.32-3.54.37-1.31.06-2.62.1-3.93.14-2.58.07-5.17.11-7.75.1-10.29-.03-20.59-.68-30.8-1.97-2.56-.32-5.11-.69-7.66-1.09-.63-.1-.9.86-.27.96,10.3,1.62,20.69,2.61,31.1,2.95,5.21.17,10.42.18,15.62.03,2.43-.07,5,.01,7.39-.51,2.24-.49,3.93-1.9,5.41-3.58,3.05-3.45,5.95-7.04,8.85-10.61,2.89-3.56,5.73-7.17,8.53-10.81,1.38-1.8,2.75-3.61,4.11-5.43.07.04.15.07.22.11,12.63,6.32,25.12,12.92,37.52,19.66,12.48,6.78,24.89,13.71,37.28,20.66,1.53.86,3.06,1.72,4.59,2.58.56.32,1.07-.55.5-.86-12.39-6.95-24.78-13.9-37.25-20.71-12.39-6.78-24.85-13.43-37.45-19.82-1.61-.81-3.22-1.61-4.83-2.42,3.96-5.32,7.83-10.71,11.58-16.18,5.25-7.64,10.3-15.42,15.15-23.33,4.84-7.91,9.48-15.95,13.89-24.1,4.4-8.12,8.59-16.36,12.56-24.7,3.97-8.35,7.72-16.8,11.25-25.34,3.53-8.55,6.83-17.19,9.89-25.91,1.36-3.88,2.67-7.8,3.81-11.76.34.04.7-.19.54-.59-.07-.17-.15-.34-.23-.51,1.48-5.31,2.63-10.7,3.12-16.2.22-2.42.29-4.85.23-7.28Z"/>
    <path d="M572.02,339.62v133.91c0,.64,1,.64,1,0v-133.91c0-.64-1-.64-1,0Z"/>
    <path d="M946.23,84.34c.34-.02.67,0,1,.07V-31.8c0-.69-1-.69-1,0v114.88h-163.68c-.64,0-.64,1.08,0,1.08h163.68v.19Z"/>
    <path d="M948.15,282.62v-1.15c.08.13.2.23.39.25,8.5.87,16.99,1.78,25.48,2.71,8.49.93,16.98,1.89,25.47,2.87,8.49.99,16.97,2,25.45,3.04,8.52,1.05,17.04,2.12,25.55,3.23,8.51,1.1,17.01,2.23,25.52,3.39,8.46,1.15,16.92,2.34,25.38,3.55,8.46,1.21,16.91,2.45,25.36,3.72s16.89,2.56,25.33,3.88c8.44,1.32,16.87,2.67,25.31,4.05,8.43,1.38,16.86,2.78,25.28,4.22,2.07.35,4.15.71,6.22,1.06.63.11.9-.86.27-.96-8.46-1.45-16.92-2.88-25.39-4.28-8.43-1.39-16.86-2.75-25.3-4.09-8.48-1.34-16.96-2.66-25.45-3.94-8.45-1.28-16.9-2.53-25.35-3.76-8.5-1.23-16.99-2.43-25.5-3.6-8.42-1.16-16.85-2.3-25.29-3.41-8.51-1.12-17.03-2.21-25.54-3.27-8.48-1.06-16.96-2.08-25.44-3.09-8.52-1.01-17.05-1.98-25.58-2.93-8.49-.94-16.98-1.86-25.48-2.75-2.09-.22-4.19-.44-6.28-.65-.18-.02-.31.06-.39.17v-114.61c0-.64-1-.64-1,0v115.83c.36.12.69.3,1,.52Z"/>
    <path d="M1214.55,321.27c-14.07,0-28.15-.03-42.22-.05-14.08-.02-28.15-.06-42.22-.1s-28.15-.09-42.22-.14c-13.99-.06-27.98-.12-41.97-.19-14.07-.07-28.15-.15-42.22-.24-14.07-.09-28.15-.18-42.22-.28-3.96-.03-7.93-.06-11.89-.09v.14h-7.5v-.2c-7.61-.06-15.22-.11-22.83-.18-14.03-.12-28.07-.24-42.1-.38-14.03-.13-28.07-.27-42.1-.42-14.07-.15-28.15-.31-42.22-.47-3.41-.04-6.83-.08-10.24-.12-.64,0-.64.99,0,1,14.07.17,28.15.33,42.22.48,14.07.15,28.15.3,42.22.44,14.07.14,28.15.27,42.22.39,10.07.09,20.14.17,30.22.24.08.13.21.22.4.22h19.72c.1,0,.17-.03.24-.06,11.21.08,22.42.16,33.62.23,14.07.09,28.15.17,42.22.25,14.07.07,28.15.14,42.22.2,14.03.06,28.07.11,42.1.15,14.03.04,28.07.08,42.1.11,14.08.03,28.15.05,42.22.06,3.41,0,6.83,0,10.24,0,.64,0,.64-1,0-1Z"/>
    <path d="M1218.22,444.6h-270.07v-2.27c-.33.03-.67.06-1,.1v2.18h-160.93c-.64,0-.64,1,0,1h160.93v13.26c0,.64,1,.64,1,0v-13.26h270.07c.64,0,.64-1,0-1Z"/>
    <path d="M1001.83,478.74c-13.9-5.08-27.96-9.75-42.14-13.98-3.97-1.19-7.96-2.34-11.95-3.45-.62-.17-.89.79-.27.96,14.25,3.99,28.39,8.41,42.37,13.26,3.92,1.36,7.83,2.75,11.72,4.18.61.22.87-.74.27-.96Z"/>
    <path d="M946.75,459.55c-10.49.54-20.99,1-31.49,1.4-10.5.39-21,.72-31.51.97-10.5.25-21.01.43-31.52.54s-21.02.14-31.52.11c-10.51-.04-21.02-.14-31.52-.32-1.29-.02-2.57-.04-3.86-.07-.64-.01-.64.99,0,1,10.51.2,21.01.32,31.52.37s21.02.03,31.52-.06c10.51-.09,21.01-.25,31.52-.49,10.51-.23,21.01-.54,31.51-.92,10.5-.38,21-.83,31.49-1.35,1.29-.06,2.57-.13,3.86-.19.64-.03.64-1.03,0-1Z"/>
    <path d="M1809.14,26.85c-10.16-2.44-20.33-4.84-30.51-7.19-10.18-2.35-20.37-4.66-30.57-6.92-10.16-2.25-20.33-4.46-30.51-6.63-10.22-2.17-20.45-4.3-30.69-6.38s-20.48-4.12-30.74-6.11c-10.26-1.99-20.52-3.94-30.79-5.84-10.27-1.9-20.55-3.76-30.84-5.57-10.25-1.81-20.51-3.57-30.77-5.28-10.3-1.72-20.62-3.4-30.94-5.03-10.32-1.63-20.65-3.22-30.98-4.76-2.51-.37-5.03-.75-7.54-1.12-.63-.09-.9.87-.27.96,10.34,1.52,20.67,3.08,30.99,4.69,10.32,1.61,20.64,3.27,30.95,4.97,10.27,1.69,20.53,3.43,30.78,5.22,10.29,1.79,20.58,3.63,30.85,5.51s20.55,3.81,30.8,5.78c10.26,1.97,20.51,3.99,30.75,6.05,10.24,2.06,20.48,4.17,30.7,6.32,10.18,2.14,20.36,4.33,30.52,6.56,10.2,2.24,20.4,4.53,30.58,6.86,10.18,2.33,20.36,4.7,30.52,7.12,2.47.59,4.94,1.18,7.41,1.77.63.15.89-.81.27-.96Z"/>
    <path d="M1799.97,250.38c-11.68-1.84-23.37-3.68-35.05-5.52l-34.81-5.48c-11.68-1.84-23.37-3.68-35.05-5.52l-34.81-5.48c-8.59-1.35-17.18-2.71-25.78-4.06,1.9-2.48,3.08-5.67,2.66-8.81-.21-1.55-.82-2.96-1.79-4.18-.4-.5-1.1.21-.71.71,2.1,2.64,1.91,6.3.55,9.23-.5,1.08-1.14,2.02-1.88,2.88-1.88-.3-3.77-.59-5.65-.89-.14.33-.32.64-.54.92l5.35.84c-1.49,1.41-3.3,2.48-5.3,3.2-3.88,1.4-8.06,1.65-12.14,1.83-4.92.22-9.83.42-14.75.62-1.44.06-2.88.11-4.33.16,2.55-12.75,1.97-26.09-1.67-38.58-1.07-3.66-2.4-7.24-3.98-10.71-.27-.59-1.13-.08-.86.5,5.5,12.12,7.84,25.6,6.87,38.86-.24,3.35-.72,6.68-1.39,9.97-8.1.32-16.21.63-24.32.91-9.85.34-19.7.65-29.55.93-9.89.28-19.79.53-29.68.75-9.9.22-19.79.41-29.69.56-8.8.14-17.61.25-26.41.34.05-.04.1-.1.13-.17,1.35-2.87,2.7-5.75,3.71-8.76,1.04-3.1,1.57-6.27,1.7-9.54.13-3.35.06-6.72.06-10.07,0-3.38,0-6.75,0-10.13,0-3.48-.04-7.04-1.3-10.34-.23-.59-1.2-.34-.96.27,1.1,2.86,1.25,5.91,1.27,8.94.02,3.3,0,6.6,0,9.9,0,3.28.04,6.57-.01,9.85-.05,3.28-.38,6.49-1.33,9.65-1.01,3.37-2.5,6.55-3.99,9.73-.14.29,0,.56.22.68-.88,0-1.77.03-2.65.03-.19,0-.39,0-.58,0,0-.02.02-.02.03-.04,5.79-11.77,8.14-25.16,6.75-38.19-.39-3.64-1.06-7.24-2.02-10.78-.17-.62-1.13-.36-.96.27,3.38,12.42,3.12,25.74-.62,38.05-1.06,3.49-2.4,6.88-4.01,10.15-.1.21-.05.41.07.55-9.45.09-18.9.15-28.35.19-9.86.03-19.71.04-29.57.01-9.9-.03-19.8-.08-29.69-.17-2.41-.02-4.82-.04-7.24-.07-.64,0-.64.99,0,1,10.02.1,20.04.18,30.07.22,10.02.04,20.05.05,30.07.03,10.06-.02,20.13-.08,30.19-.16,9.98-.09,19.96-.2,29.94-.35,10.06-.15,20.13-.33,30.19-.54,10.02-.21,20.04-.45,30.06-.73,10.02-.27,20.04-.58,30.05-.92,9.41-.32,18.82-.67,28.23-1.04-.02.09-.04.19-.06.28-.14.63.82.89.96.27.04-.2.08-.39.12-.59.27-.01.53-.02.8-.03,5.03-.2,10.06-.41,15.08-.63,4.29-.18,8.65-.23,12.86-1.17,3.42-.76,6.84-2.22,9.24-4.82l17.75,2.8c11.64,1.83,23.29,3.67,34.93,5.5,11.64,1.83,23.29,3.67,34.93,5.5l34.93,5.5c11.64,1.83,23.29,3.67,34.93,5.5,2.84.45,5.68.89,8.52,1.34.63.1.9-.86.27-.96Z"/>
    <path d="M1355.67,194.32c-.11-1.53-.22-3.05-.35-4.58.43,0,.86,0,1.29-.01-.06-.33-.07-.66-.05-1-1.62.02-3.25.04-4.87.05l-3.74.04c.01.34-.02.67-.08,1,2.15-.02,4.3-.05,6.45-.07,1.03,12.36,1.42,24.79,1.07,37.19-.07,2.31-.4,4.97-3.07,5.54-1.37.29-2.86.17-4.25.14-1.53-.03-3.06-.11-4.59-.21-6.08-.43-12.11-1.41-18.08-2.64-5.98-1.23-11.91-2.69-17.84-4.12-6.11-1.47-12.22-2.95-18.33-4.42-6.01-1.45-12.03-2.86-18.03-4.35-4.44-1.1-9.44-2.52-12.3-6.38-1.6-2.15-2.29-4.8-2.72-7.41-.48-2.92-.74-5.89-.89-8.85-.06-1.14-.08-2.28-.09-3.42,1.31-.01,2.62-.03,3.93-.04-.12-.28-.22-.53-.25-.64-.04-.12-.07-.24-.1-.36l-3.58.04c0-4.6.36-9.21,1.09-13.75.23-1.46.5-2.92.81-4.37.13-.63-.83-.9-.96-.27-1.27,6.05-1.92,12.22-1.93,18.4-2.58.03-5.16.06-7.74.08-1.46.02-2.91.03-4.37.05-.64,0-.64,1.01,0,1,4.04-.04,8.08-.09,12.12-.13.03,2.82.18,5.63.48,8.43.29,2.79.61,5.65,1.57,8.31.85,2.37,2.26,4.41,4.26,5.95,1.88,1.45,4.07,2.42,6.31,3.16,2.56.85,5.2,1.42,7.81,2.05,3.12.75,6.23,1.5,9.35,2.25l18.94,4.57c6.21,1.5,12.41,3.04,18.65,4.41,6.09,1.34,12.22,2.48,18.42,3.12,3.13.32,6.27.52,9.42.54,2.41.02,5.09-.08,6.25-2.57.49-1.06.64-2.25.71-3.4.08-1.47.08-2.95.1-4.43.05-3.21.05-6.43,0-9.64-.08-6.43-.35-12.85-.8-19.27Z"/>
    <path d="M1431.77,477.44c-2.68-5.08-3.22-10.89-3.32-16.54-.11-6.28.03-12.57.07-18.86.07-12.91.14-25.82.21-38.74.07-13,.14-25.99.21-38.99.07-12.91.14-25.82.21-38.74.07-13,.14-25.99.21-38.99,0-1.58.02-3.17.03-4.75,0-.64-1-.64-1,0l-.21,39.11c-.07,13.04-.14,26.07-.21,39.11-.07,13-.14,25.99-.21,38.99-.07,13.04-.14,26.07-.21,39.11-.04,6.45-.08,12.9-.1,19.35-.02,5.61.07,11.39,1.89,16.76.43,1.26.96,2.49,1.58,3.67.3.57,1.16.06.86-.5Z"/>
    <path d="M713.64,73.37c-10.83,1-21.58-1.09-32.19-3.06-10.77-2-21.54-4-32.3-6-5.4-1-10.81-2.01-16.21-3.01-5.27-.98-10.61-2.04-16-1.84-9.04.34-17.44,4.55-24.26,10.3-7.47,6.29-13.09,14.42-18.39,22.53-.66,1-1.31,2.01-1.96,3.01-.35.54.51,1.04.86.5,5.29-8.15,10.64-16.42,17.74-23.14,6.45-6.11,14.6-11,23.56-12.02,5.28-.6,10.56.22,15.75,1.17,5.32.97,10.63,1.97,15.95,2.96l31.93,5.93c10.42,1.93,20.95,4.21,31.61,3.9,1.31-.04,2.61-.12,3.91-.24.64-.06.64-1.06,0-1Z"/>
    <path d="M673.91,257.29c-13.31-6.04-27.74-9.52-42.34-10.2-4.1-.19-8.21-.16-12.31.09-.64.04-.64,1.04,0,1,14.46-.88,29.04,1.01,42.8,5.54,3.86,1.27,7.64,2.75,11.34,4.43.58.26,1.09-.6.5-.86Z"/>
    <path d="M667.25,264.55c-6.11-4.23-12.81-7.58-19.84-9.97-7-2.39-14.32-3.82-21.7-4.25-4.2-.25-8.41-.15-12.59.27-.63.06-.64,1.06,0,1,7.3-.73,14.7-.45,21.93.83,7.26,1.29,14.35,3.56,21,6.76,3.72,1.79,7.3,3.88,10.7,6.23.53.37,1.03-.5.5-.86Z"/>
    <path d="M701.2,213.01c-2.54-4.06-5.11-8.16-8.47-11.6-3.08-3.15-6.79-5.54-10.85-7.23-4.06-1.69-8.39-2.64-12.76-3.08-4.13-.42-8.41-.5-12.51.24-4.12.74-8.25,2.53-10.47,6.25-.05.08-.07.16-.07.24-1.26.96-2.24,2.26-2.68,3.98-.16.62.8.89.96.27,1.05-4.08,5.54-5.46,9.26-5.69,4.29-.27,8.69-.05,12.96.46,7.98.96,15.93,3.56,22.14,8.81,3.13,2.65,5.72,5.88,7.42,9.62.27.58,1.13.08.86-.5-3.2-7-9.44-12.24-16.4-15.29-4.16-1.82-8.6-2.91-13.09-3.52-4.5-.61-9.13-.85-13.67-.6-1.91.11-3.97.49-5.78,1.29,2.01-2.29,4.95-3.55,7.93-4.19,3.85-.83,7.9-.79,11.81-.49,8.35.64,16.87,3.27,23.11,9.06,3.85,3.57,6.65,8.05,9.41,12.47.34.54,1.21.04.86-.5Z"/>
    <path d="M726.27,162.66c-2.98-6.62-7.7-12.41-13.51-16.73-5.78-4.3-12.72-7.09-19.93-7.52-5.13-.31-10.21.69-15.22,1.67-.63.12-.36,1.09.27.96,4.48-.88,8.99-1.77,13.58-1.69,3.53.06,7.02.72,10.35,1.87,6.66,2.3,12.59,6.54,17.18,11.86,2.61,3.03,4.78,6.44,6.43,10.09.26.59,1.13.08.86-.5Z"/>
    <path d="M616.07,109c-.27-.59-1.13-.08-.86.5.79,1.75-.73,3.55-2.26,4.23-2.01.89-4.29-.06-6.04-1.1-.93-.56-1.83-1.19-2.7-1.83-.88-.64-1.78-1.4-2.13-2.46-.38-1.13-.2-2.39-.01-3.54.18-1.14.43-2.27.74-3.39.71-2.55,1.76-4.99,3.11-7.27.33-.56-.54-1.06-.86-.5-1.4,2.38-2.5,4.95-3.24,7.62-.37,1.33-.64,2.68-.83,4.05-.17,1.25-.23,2.55.29,3.73.48,1.1,1.4,1.88,2.35,2.57,1.07.79,2.17,1.57,3.33,2.2,2.03,1.1,4.48,1.79,6.66.71,2.02-1,3.46-3.33,2.47-5.52Z"/>
    <path d="M629.48,112.28c-1.66-2.97-.63-6.69-2.24-9.67-.91-1.69-2.64-2.41-4.5-2.41-1.28,0-2.56.17-3.83.29-1.36.12-2.72.24-4.08.36-3.09.27-6.18.54-9.26.82-.64.06-.64,1.06,0,1,5.19-.46,10.37-.92,15.56-1.37,1.91-.17,4.05-.2,5.15,1.65.79,1.33.89,3,1.04,4.51.19,1.82.38,3.7,1.29,5.33.31.56,1.18.06.86-.5Z"/>
    <path d="M664.72,121.85c-.87,1.41-1.74,2.83-2.62,4.24-.44.71-.87,1.41-1.31,2.12-.34.55-.69,1.34-1.37,1.52-.68.18-1.56-.08-2.24-.18-.76-.11-1.52-.23-2.28-.37-1.45-.25-2.89-.55-4.32-.88-5.79-1.35-11.43-3.33-16.78-5.91-2.98-1.44-5.86-3.06-8.64-4.85-.54-.35-1.04.52-.5.86,5.22,3.37,10.83,6.13,16.68,8.23,2.97,1.07,6.01,1.96,9.08,2.67,1.5.35,3.02.65,4.54.91.72.12,1.45.24,2.18.34.72.1,1.5.29,2.23.2,1.59-.18,2.34-2.12,3.08-3.31,1.05-1.7,2.09-3.39,3.14-5.09.34-.55-.53-1.05-.86-.5Z"/>
    <path d="M665.72,113.09c-1,1.97-2.01,3.94-3.01,5.92-.4.78-.79,2.04-1.55,2.56-.88.61-2.26-.38-3.07-.76-4.05-1.93-8.1-3.85-12.14-5.78-.58-.28-1.09.59-.5.86,4.49,2.14,8.96,4.33,13.47,6.41.85.39,1.81.71,2.68.18.8-.49,1.19-1.4,1.59-2.2,1.13-2.23,2.27-4.46,3.4-6.68.29-.57-.57-1.08-.86-.5Z"/>
    <path d="M683.72,110.91c-.17-1.26-.91-2.04-2.08-2.48-1.44-.54-2.98-.89-4.48-1.27-6.31-1.59-12.8-2.47-19.3-2.65-3.7-.1-7.41.04-11.09.41-.63.06-.64,1.06,0,1,6.16-.61,12.37-.58,18.52.1,3.09.34,6.16.86,9.19,1.53,1.5.33,2.99.7,4.47,1.12.69.19,1.39.39,2.08.61.68.22,1.33.51,1.59,1.23.25.7.16,1.54.16,2.26,0,.86,0,1.72,0,2.58,0,1.84,0,3.68-.01,5.53,0,.64,1,.64,1,0,0-1.72,0-3.44.01-5.16,0-1.58.16-3.24-.05-4.81Z"/>
    <path d="M596.91,226.21c-.85-.4-1.7-.81-2.54-1.21-1-.48-2-.96-3.01-1.43-.58-.28-1.09.59-.5.86,2,.95,4,1.91,6,2.86,0-.36.03-.72.05-1.08Z"/>
    <path d="M623.81,149.64c.98.36,2.01.67,2.95,1.13.22.11.41.23.57.37.37-.16.77-.24,1.17-.26-.13-.17-.27-.33-.44-.47-.72-.59-1.66-.86-2.52-1.19-1.05-.39-2.1-.78-3.16-1.15-8.41-3-16.99-5.53-25.69-7.56-1.09-.26-2.19-.5-3.28-.74-.63-.14-.9.83-.27.96,8.33,1.83,16.56,4.1,24.65,6.81,2.01.67,4.02,1.38,6.01,2.1Z"/>
    <path d="M585.46,119.09c-6.23,1.41-12.56,2.39-18.93,2.9-3.15.25-6.3.39-9.46.42-2.95.03-5.9-.11-8.85.04-3.11.16-6.2.67-9.02,2.04-.58.28-.07,1.14.5.86,5.26-2.55,11.34-1.91,17-1.94,6.2-.04,12.39-.52,18.52-1.4,3.53-.51,7.03-1.17,10.5-1.95.63-.14.36-1.11-.27-.96Z"/>
    <path d="M588.01,183.87c-10.69,4.17-21.91,7-33.3,8.36-3.22.38-6.45.65-9.69.81-.64.03-.64,1.03,0,1,11.51-.55,22.95-2.55,33.97-5.96,3.13-.97,6.23-2.05,9.29-3.25.59-.23.34-1.2-.27-.96Z"/>
    <path d="M585.74,189.47c-8.98,5.69-18.89,9.85-29.25,12.26-2.91.68-5.85,1.21-8.82,1.62-.63.09-.36,1.05.27.96,10.58-1.43,20.9-4.65,30.42-9.48,2.7-1.37,5.33-2.87,7.89-4.49.54-.34.04-1.21-.5-.86Z"/>
    <path d="M585.48,255.32c-9.32,2.87-19.29,3.6-28.93,2.09-2.74-.43-5.44-1.04-8.1-1.81-.62-.18-.88.78-.27.96,9.51,2.77,19.61,3.33,29.37,1.67,2.77-.47,5.5-1.13,8.18-1.95.61-.19.35-1.15-.27-.96Z"/>
    <path d="M749.54,78.04c-4.44-1.28-8.97-2.28-13.54-2.97-4.41-.66-9-1.26-13.47-1.03-3.93.2-7.54,1.45-10.54,4.03-2.75,2.37-4.79,5.46-6.6,8.57-2.19,3.76-4.23,7.62-6.34,11.43-2.27,4.1-4.55,8.2-6.85,12.29-4.58,8.18-9.2,16.34-13.85,24.49-4.63,8.11-9.3,16.19-14,24.26-4.7,8.07-9.43,16.11-14.2,24.14-4.79,8.06-9.61,16.1-14.47,24.12-4.84,7.99-9.71,15.95-14.61,23.9-2.51,4.07-5.06,8.11-7.58,12.17-.86-.36-1.72-.72-2.57-1.08-.17.29-.35.57-.55.84.87.36,1.73.72,2.6,1.08-2.24,3.59-4.46,7.18-6.71,10.76-4.99,7.94-10.02,15.85-15.08,23.75-.62.97-1.25,1.95-1.88,2.92,0-.33,0-.67,0-1,.05-4.86.1-9.72.15-14.58.36-.1.72-.19,1.08-.29.62-.18.35-1.14-.27-.96-.27.08-.53.14-.8.22,0-.04,0-.08,0-.11.11-10.29.22-20.59.33-30.88.66.32,1.33.63,1.99.95.04-.35.09-.69.16-1.03-.71-.34-1.43-.68-2.14-1.02.11-10.39.22-20.78.33-31.17.11-10.53.22-21.05.33-31.58.11-10.52.24-21.04.33-31.56.04-5.27.07-10.55.02-15.82-.02-2.62-.06-5.23-.13-7.84-.06-2.38-.06-4.79-.3-7.16-.21-2.07-.65-4.18-1.75-5.97-.97-1.57-2.41-2.79-4.08-3.56-3.51-1.64-7.54-1.59-11.33-1.56-3.74.03-7.48.07-11.22.1V-13.5c0-.64-1-.64-1,0v110.36c-6.43.06-12.86.11-19.28.17-2.57.02-5.15.05-7.72.07-.64,0-.64,1.01,0,1,9-.08,18-.16,27.01-.24v4.47c.34.04.67.1,1,.17v-4.65c.96,0,1.92-.02,2.88-.03,2.57-.02,5.15-.05,7.72-.07,2.02-.02,4.05-.05,6.07.13,3.76.34,7.67,1.59,9.48,5.19.96,1.91,1.22,4.1,1.34,6.21.14,2.45.17,4.9.22,7.35.09,4.46.11,8.92.11,13.38-.05,0-.1-.02-.16,0-12.95,1.94-26.07,2.73-39.16,2.36-3.67-.1-7.34-.3-11-.59-.64-.05-.64.95,0,1,13.1,1.02,26.29.89,39.36-.42,3.66-.37,7.32-.83,10.96-1.37,0,.36,0,.73,0,1.09-.03,10.31-.18,20.62-.29,30.92-.11,10.32-.22,20.64-.33,30.96-.11,10.32-.22,20.64-.33,30.96-.03,2.53-.05,5.05-.08,7.58-1.38-.69-2.74-1.39-4.1-2.12,0,.37,0,.75,0,1.12,1.36.72,2.72,1.42,4.1,2.1-.08,7.42-.16,14.85-.23,22.27-.03,3.17-.07,6.33-.1,9.5-8.43,2.29-17.13,3.55-25.87,3.69-2.66.04-5.32-.02-7.97-.17-.64-.04-.64.96,0,1,9.39.55,18.85-.15,28.06-2.08,1.94-.41,3.86-.89,5.77-1.4-.06,5.63-.11,11.27-.18,16.9-.26.4-.51.8-.77,1.2-.32.49.36.94.75.62,0,.56-.01,1.11-.02,1.67-.03,2.07-.31,4.06-2.03,5.42-1.38,1.09-3.17,1.56-4.87,1.85-2.14.35-4.35.41-6.51.49-2.45.1-4.9.12-7.36.08-7.14-.12-14.27-.82-21.31-2.08.97-2.25,1.12-4.85.97-7.25-.11-1.84-.41-3.67-.76-5.47-.12-.63-1.09-.36-.96.27.73,3.67,1.44,8.66-.25,12.28-2.32-.44-4.63-.93-6.93-1.49-.99-.24-1.98-.5-2.97-.77-.7.16-1.4.31-2.1.45,3.79,1.07,7.64,1.97,11.51,2.71-.32.52-.71,1-1.16,1.43-1.29-.63-2.52-1.39-3.64-2.32-.49-.41-1.2.29-.71.71.32.27.64.52.97.76,0,.15.06.31.21.42.67.48.64,1.43.36,2.12-1.49.52-3.1.66-4.67.65-.64,0-.64,1,0,1,1.09,0,2.19-.09,3.25-.29-.26.12-.54.22-.82.29-1.03.26-2.12.26-3.17.3-1.29.05-2.58.09-3.86.12-4.97.13-9.94.14-14.91.1-.08-.07-.19-.11-.33-.1-3.15.37-5.91-1.87-7.26-4.57-1.46-2.91-1.43-6.3-1.27-9.51.07,0,.14,0,.21.01-.06-.21-.12-.43-.18-.64,0-.19.02-.39.03-.58.01-.22-.1-.36-.25-.43-.2-1.06-.31-2.13-.4-3.21-.18-1.95-.35-3.9-.53-5.85-.7-7.76-1.4-15.51-2.11-23.27-1.4-15.43-2.79-30.86-4.19-46.29l-4.19-46.29c-1.4-15.43-2.79-30.86-4.19-46.29-.22-2.46-.45-4.93-.67-7.39,1.95.02,3.91.04,5.85.05,7.9.03,15.97-.35,23.47-3.06,4-1.44,7.73-3.56,10.84-6.47.05-.04.07-.09.1-.14.33,3.43.64,6.86.95,10.28.59,6.53,1.19,13.06,1.77,19.58,1.17,13.02,2.31,26.04,3.38,39.06.08,1.03.16,2.06.25,3.09-6.05,3.59-13.13,5.11-20.06,6.08-6.27.88-12.59,1.46-18.93,1.81.05.32.1.64.15.96,1.08-.06,2.17-.1,3.25-.18,4.82-.34,9.63-.81,14.41-1.44,4.09-.54,8.18-1.21,12.15-2.35,3.17-.91,6.25-2.13,9.1-3.77.95,11.63,1.84,23.26,2.64,34.89.19,2.72.35,5.44.52,8.15h-.87c.03.33.04.67.04,1h.89c.64,9.95,1.24,19.89,1.73,29.85.32,6.54.6,13.09.84,19.64.24,6.5.5,13,.57,19.51.01,1.32-.02,2.7-.53,3.93-.33.78-.86,1.4-1.52,1.88-.2.66-.59,1.26-1.18,1.72.35-.12.7-.26,1.03-.44,2.33-1.21,3.11-3.6,3.19-6.08.1-3.18-.12-6.4-.21-9.57-.19-6.63-.43-13.27-.71-19.9-.56-13.26-1.29-26.51-2.14-39.76-.02-.26-.04-.52-.05-.78h2.24c-.04-.33-.09-.67-.13-1h-2.18c-.82-12.65-1.75-25.3-2.76-37.94-.15-1.89-.31-3.79-.47-5.68.81-.5,1.6-1.04,2.37-1.62.51-.38,0-1.25-.5-.86-.64.48-1.29.93-1.96,1.36-.9-10.96-1.83-21.93-2.8-32.89-1.16-13.13-2.3-26.27-3.57-39.39-.09-.93-.19-1.85-.28-2.77.37-.26.22-.77-.09-.91-.54-5.09-1.18-10.16-2.07-15.2-1.03-5.79-2.33-11.62-4.41-17.14-1.75-4.65-4.15-9.19-7.73-12.69-3.9-3.81-8.93-5.73-14.28-6.39-5.96-.73-12.12-.23-18.08.3-6.37.57-12.71,1.48-18.98,2.75-3.07.62-6.13,1.33-9.16,2.11-.62.16-.36,1.13.27.96,12.27-3.17,24.91-5.05,37.58-5.41,5.57-.16,11.44.08,16.55,2.56,3.87,1.88,6.87,4.97,9.17,8.54-.11,0-.23.03-.33.12-3.34,2.88-6.79,5.88-10.95,7.5-4.6,1.8-9.72,1.54-14.57,1.42-2.91-.07-5.82-.21-8.72-.41-.28-.02-.43.16-.47.38-8.58-.4-16.92-3.26-25.56-2.9-.64.03-.64,1.03,0,1,8.78-.37,17.25,2.6,25.98,2.92,1.11,12.3,2.22,24.59,3.34,36.89-.36-.03-.71-.06-1.07-.09-.01.34-.02.68-.03,1.02.4.03.79.06,1.19.09.15,1.61.29,3.21.44,4.82-.55,0-1.11,0-1.66,0,0,.33.01.66.02.99.58,0,1.16,0,1.73.01.07.81.15,1.61.22,2.42,1.41,15.6,2.82,31.19,4.23,46.79,1.41,15.6,2.82,31.19,4.23,46.79,1.41,15.6,2.82,31.19,4.23,46.79.71,7.8,1.41,15.6,2.12,23.39.34,3.71.56,7.46,1.03,11.15.1.77.24,1.56.43,2.35-.18,3.67-.26,7.6,1.55,10.89.83,1.52,2.1,2.88,3.61,3.75-8.81-.16-17.61-.5-26.41-.87-2.51-.1-5.2,0-7.59-.92-1.36-.52-2.61-1.52-3.26-2.8.07-.33.1-.68.07-1.03-.02-.31-.27-.47-.52-.48-.02-.28-.02-.56.01-.85.08-.64-.92-.63-1,0-.11.86.05,1.69.38,2.46-.29.97-1.03,1.79-1.93,2.31-1.4.81-3.08.93-4.66,1-3.54.17-7.07.28-10.61.38-7.2.2-14.41.28-21.62.25-4.06-.02-8.12-.08-12.18-.17-.64-.01-.64.99,0,1,7.62.18,15.24.22,22.86.14,3.81-.04,7.62-.12,11.43-.23,3.65-.1,7.33-.15,10.97-.42,1.72-.12,3.52-.43,4.92-1.51.58-.45,1.08-1.01,1.43-1.64.43.61.97,1.15,1.58,1.58,1.9,1.39,4.36,1.67,6.64,1.79,5.55.3,11.11.47,16.66.66,11.25.39,22.52.61,33.78.28,1.47-.04,2.96-.04,4.43-.18,1.15-.11,2.33-.34,3.28-1.05.38-.28.69-.65.92-1.06.79-.32,1.54-.74,2.22-1.27,3.69,1.65,7.83,2.28,11.87,2.59,3.11.24,6.23.36,9.35.42,3.13.06,6.26-.03,9.36-.46,3.53-.49,6.99-1.49,10.12-3.23.37-.21.27-.65,0-.84.83-.31,1.62-.71,2.33-1.25,1.56-1.17,2.31-2.85,2.48-4.77.14-1.58.14-3.19.13-4.79,4.71-7.33,9.41-14.68,14.06-22.04,3.54-5.59,7.03-11.21,10.54-16.83,1.51.62,3.01,1.24,4.52,1.87.14-.29.29-.58.46-.86-1.48-.61-2.97-1.23-4.45-1.84,1.22-1.96,2.46-3.91,3.68-5.87,4.88-7.87,9.72-15.75,14.54-23.66,4.83-7.94,9.63-15.9,14.4-23.88,4.75-7.95,9.46-15.91,14.14-23.9,4.47-7.63,8.9-15.28,13.31-22.94,7.77-.77,15.8-.65,23.3,1.69,3.7,1.16,7.23,2.88,10.32,5.24,3.18,2.43,5.86,5.48,8.16,8.73,2.59,3.65,4.77,7.58,6.94,11.49.31.56,1.17.06.86-.5-3.88-7.03-7.92-14.31-14.16-19.55-6.15-5.16-13.95-7.58-21.84-8.28-4.32-.39-8.66-.27-12.98.13,0,0,.01-.02.02-.03,4.63-8.06,9.23-16.14,13.79-24.24,4.54-8.06,9.05-16.15,13.53-24.25,1.92-3.48,3.74-7.06,6-10.34,2.01-2.92,4.5-5.64,7.75-7.18,4-1.9,8.62-1.59,12.91-1.23,4.6.39,9.18,1.09,13.69,2.09,2.18.48,4.34,1.04,6.49,1.66.62.18.88-.79.27-.96ZM487.69,65.26c-.15-1.64-.3-3.28-.44-4.91.08-.06.13-.15.15-.24,4.9.33,9.86.57,14.77.34,2.44-.11,4.88-.44,7.19-1.27,2.1-.75,4.05-1.85,5.88-3.12,2.11-1.47,4.07-3.14,6.01-4.82.04-.03.05-.07.08-.1.24.39.48.79.7,1.19,2.58,4.69,4.12,9.87,5.37,15.04,1.48,6.16,2.46,12.43,3.2,18.71.17,1.44.33,2.89.48,4.34-6.83,4.59-14.85,7.35-23.08,7.8-4.77.26-9.58-.22-14.34-.57-1.02-.07-2.03-.16-3.05-.25-.97-10.71-1.94-21.42-2.91-32.13ZM490.69,98.41c.53.04,1.06.09,1.6.12,4.82.36,9.68.86,14.51.72,4.23-.12,8.45-.83,12.49-2.09,4.21-1.31,8.22-3.21,11.9-5.63.09.84.16,1.69.24,2.53-.16-.23-.5-.35-.76-.1-5.62,5.26-13.2,7.64-20.7,8.61-6.26.8-12.56.63-18.85.58-.14-1.58-.29-3.16-.43-4.75ZM541.85,295.91c.04-.33.04-.65-.03-.97.28.16.58.3.87.45-.26.19-.54.36-.84.52ZM565.96,297.89c-3.01-.02-6.02-.15-9.03-.34-2.85-.17-5.7-.45-8.49-1.11-1.36-.32-2.7-.75-3.98-1.29.27-.28.53-.57.76-.89.18-.25.33-.51.48-.78,4.88.89,9.81,1.52,14.77,1.86,5.01.35,10.04.41,15.06.18,2.34-.1,5-.13,7.42-.73-5.24,2.62-11.21,3.14-17,3.1Z"/>
    <path d="M457.54,72.99c-7.46,1.63-14.94,3.16-22.45,4.56-7.4,1.39-14.83,2.76-22.29,3.83-4.23.6-8.54.97-12.79.36-.63-.09-.9.87-.27.96,7.51,1.06,15.14-.6,22.52-1.85,7.61-1.29,15.2-2.7,22.77-4.22,4.27-.86,8.52-1.75,12.78-2.68.63-.14.36-1.1-.27-.96Z"/>
    <path d="M458.14,132.27c-10.35,5.1-21.37,8.82-32.7,11.03-3.22.63-6.46,1.13-9.72,1.52-.63.07-.64,1.08,0,1,11.63-1.37,23.06-4.26,33.91-8.65,3.05-1.23,6.06-2.58,9.01-4.03.58-.28.07-1.15-.5-.86Z"/>
    <path d="M458.02,135.71c-9.25,7.35-20.18,12.51-31.7,15.06-3.27.72-6.59,1.23-9.93,1.52-.64.06-.64,1.06,0,1,12.01-1.05,23.74-4.87,34.05-11.11,2.88-1.74,5.65-3.67,8.28-5.77.5-.4-.21-1.1-.71-.71Z"/>
    <path d="M534.19,160.77c.03.93-1.16,1.34-1.87,1.62-.95.38-1.91.75-2.87,1.1-1.95.71-3.93,1.34-5.93,1.92-3.99,1.14-8.06,2.03-12.15,2.72-4.42.74-8.86,1.25-13.33,1.61.06.33.11.66.17.99.02,0,.04,0,.06,0,8.64-.71,17.28-1.97,25.62-4.38,2.32-.67,4.62-1.43,6.88-2.28,1.01-.38,2.11-.72,3.05-1.27.75-.44,1.39-1.1,1.35-2.02-.02-.64-1.02-.64-1,0Z"/>
    <path d="M537.19,225.23c-8.45,2.23-17.16,3.36-25.9,3.36-2.25,0-4.51-.07-6.76-.21.01.33.03.65.05.98,6.07.4,12.16.27,18.21-.41,4.95-.56,9.86-1.48,14.67-2.75.62-.16.36-1.13-.27-.96Z"/>
    <path d="M538.04,230.68c-8.48,1.79-17.13,2.74-25.79,2.86-2.51.03-5.02,0-7.53-.11,0,.33.02.67.03,1,6.34.26,12.71.09,19.03-.54,4.88-.49,9.73-1.24,14.53-2.25.63-.13.36-1.1-.27-.96Z"/>
    <path d="M404.96,145.66c-6.37,4.02-13.4,6.92-20.76,8.54-2.11.46-4.24.82-6.38,1.07-.63.07-.64,1.07,0,1,7.61-.89,15.03-3.08,21.89-6.5,1.97-.98,3.89-2.07,5.75-3.24.54-.34.04-1.21-.5-.86Z"/>
    <path d="M413.55,196.27c-8.52,3.58-17.8,5.23-27.03,4.78-1.25-.06-2.5-.16-3.75-.3-1.24-.14-2.54-.25-3.59-1-.52-.38-1.02.49-.5.86.87.63,1.91.86,2.96,1,1.13.15,2.26.26,3.4.35,2.39.17,4.78.21,7.18.11,4.71-.2,9.41-.93,13.96-2.18,2.6-.71,5.15-1.6,7.64-2.65.58-.25.33-1.21-.27-.96Z"/>
    <path d="M412.93,205.38c-7.81,2.83-16.13,4.17-24.44,3.9-2.38-.08-4.75-.28-7.1-.62-.63-.09-.9.87-.27.96,8.36,1.19,16.91.8,25.12-1.18,2.36-.57,4.68-1.28,6.95-2.1.6-.22.34-1.18-.27-.96Z"/>
    <path d="M415.72,252.3c-9.41.26-18.97.52-28.23-1.44-2.6-.55-5.16-1.28-7.66-2.22-.6-.23-.86.74-.27.96,8.92,3.34,18.54,3.93,27.98,3.86,2.73-.02,5.45-.09,8.17-.17.64-.02.64-1.02,0-1Z"/>
    <path d="M472.23,102.9c-1.18-4.39.7-9.1-1.09-13.38-.7-1.68-1.93-2.98-3.65-3.63-1.56-.58-3.28-.43-4.59.62-.5.4.21,1.11.71.71,1.23-.98,2.95-.78,4.25-.06,1.57.87,2.41,2.47,2.8,4.17.89,3.9-.45,7.95.59,11.84.17.62,1.13.36.96-.27Z"/>
    <path d="M474.63,111.8c-.08-.28-.35-.39-.62-.35-1.96.31-3.98-.82-4.84-2.58-.28-.58-1.15-.07-.86.5,1.08,2.19,3.59,3.41,5.97,3.03.27-.04.42-.38.35-.62Z"/>
    <path d="M1037.75,383.97c-.93-1.5-3.11-1.7-4.69-1.71-11.23-.03-22.47-.05-33.7-.04s-22.47.03-33.7.08c-1.41,0-2.83.01-4.24.02-.64,0-.64,1,0,1,10.82-.05,21.64-.08,32.46-.09,10.86-.01,21.72,0,32.58.02,1.37,0,2.75,0,4.12.01,1.19,0,2.42-.08,3.6.04.8.08,1.72.29,2.36.8.8.64.5,1.55-.28,2.07-.96.64-2.17.99-3.24,1.36-1.13.39-2.28.74-3.44,1.05-2.39.63-4.83,1.08-7.28,1.4-4.89.63-9.84.75-14.77.77-5.13.02-10.27,0-15.41-.11-10.3-.22-20.65-.91-30.69-3.34-1.23-.3-2.45-.62-3.66-.97-.62-.18-.88.79-.27.96,10.28,2.95,20.99,3.93,31.65,4.26,5.33.17,10.66.18,15.99.19,5.12.01,10.26-.03,15.36-.56,5.01-.52,10-1.51,14.69-3.4.89-.36,1.89-.74,2.46-1.57.45-.66.53-1.55.1-2.24Z"/>
    <path d="M945.82,280.42h-165.1c-.64,0-.64,1,0,1h165.1c.64,0,.64-1,0-1Z"/>
    <path d="M1353.38,185.93c-11.79-2.04-23.6-4.01-35.42-5.91-11.82-1.89-23.65-3.71-35.49-5.46-6.64-.98-13.28-1.93-19.92-2.86-.63-.09-.9.88-.27.96,11.85,1.66,23.7,3.39,35.53,5.2,11.83,1.81,23.65,3.7,35.46,5.66,3.33.55,6.66,1.13,9.99,1.7.36,0,.72,0,1.08,0,.75,0,1.37.2,1.88.5,2.3.39,4.6.77,6.89,1.17.63.11.9-.85.27-.96Z"/>
    <path d="M1632.93,195.13c-.26-2.79-.65-5.58-1.18-8.34-.41-2.13-.97-4.25-1.87-6.23-.98-2.15-2.44-4.06-4.48-5.3-.55-.34-1.05.53-.5.86,3.68,2.24,5.05,6.68,5.84,10.67,1.06,5.33,1.56,10.79,1.58,16.22.01,3.12-.15,6.23-.47,9.33-.07.64.93.63,1,0,.59-5.72.62-11.49.09-17.22Z"/>
    <path d="M1634.63,208.42c-.64,0-.64,1,0,1s.64-1,0-1Z"/>
    <path d="M348.53,55.75c-11.15-5.35-22.22-10.87-33.2-16.58-10.98-5.7-21.86-11.58-32.64-17.64-6.04-3.39-12.05-6.84-18.04-10.34-.56-.33-1.06.54-.5.86,10.68,6.25,21.45,12.33,32.32,18.23,10.87,5.9,21.84,11.63,32.89,17.17,6.19,3.11,12.42,6.16,18.67,9.16.58.28,1.09-.59.5-.86Z"/>
    <path d="M263.42,8.93H84.57c-.64,0-.64,1,0,1h178.85c.64,0,.64-1,0-1Z"/>
    <path d="M1617.46,176.38c-8.41.27-16.81.54-25.22.81-8.41.27-16.81.54-25.22.81-8.45.27-16.9.54-25.35.81-8.41.27-16.81.54-25.22.81-8.41.27-16.81.54-25.22.81-8.41.27-16.81.54-25.22.81-8.45.27-16.9.54-25.35.81-4.27.14-8.54.27-12.82.41v-1.49c-.33.04-.67.08-1,.13v1.39c-3.8.12-7.6.24-11.41.37-8.41.27-16.81.54-25.22.81-8.41.27-16.81.54-25.22.81-2.08.07-4.16.13-6.24.2-.54.02-.62.71-.26.93.47-.23,1.02-.37,1.67-.37,2.9,0,5.8,0,8.7.12l15.12-.48c4.05-.13,8.11-.26,12.16-.39-.01.04-.02.09-.02.14.82,12.5,1.65,25.29-1.12,37.62-.77,3.42-1.81,6.78-3.19,10.01-.25.59.61,1.1.86.5,5.03-11.76,5.57-24.73,5.06-37.34-.15-3.6-.38-7.2-.61-10.79,0-.07-.02-.12-.05-.17l12.13-.39c3.67-.12,7.33-.23,11-.35.52-.31,1.13-.52,1.88-.54,3.38-.07,6.75-.01,10.11.15.79-.03,1.58-.05,2.37-.08,8.41-.27,16.81-.54,25.22-.81,8.41-.27,16.81-.54,25.22-.81,8.41-.27,16.81-.54,25.22-.81,8.45-.27,16.9-.54,25.35-.81,8.41-.27,16.81-.54,25.22-.81,8.41-.27,16.81-.54,25.22-.81,8.41-.27,16.81-.54,25.22-.81,2.08-.07,4.16-.13,6.24-.2.64-.02.64-1.02,0-1Z"/>
    <path d="M1466.65,134.67c-3.33,1.36-4.93,4.77-5.91,8.03-1.06,3.54-1.73,7.79-4.99,10.05-3.18,2.2-7.41,1.89-11.07,1.59-4.27-.35-8.58-.93-12.08-3.6-3.15-2.4-6.18-6.1-10.54-5.9-3.33.16-5.38,2.86-7.23,5.3-.96,1.26-1.94,2.56-3.22,3.52-1.5,1.12-3.34,1.55-5.2,1.41-4.09-.32-7.24-3.23-9.21-6.63-1-1.73-1.71-3.57-2.36-5.45-.65-1.86-1.29-3.76-2.33-5.44-1.7-2.76-5.09-5.02-8.45-3.95-.71.23-1.34.61-1.88,1.13.53-3.44,1.21-6.87,1.94-10.27.91-4.22,1.77-8.62,4.38-12.17.38-.52-.49-1.02-.86-.5-2.3,3.14-3.28,6.96-4.1,10.7-.96,4.32-1.85,8.66-2.48,13.05-1.18,8.18-1.41,16.59.71,24.65.46,1.74,1.03,3.45,1.72,5.11-3.26,0-6.52,0-9.78-.01-12.38-.05-24.77-.21-37.15-.3-12.3-.09-24.59-.12-36.89.08-12.33.2-24.65.64-36.95,1.48-1.52.1-3.04.21-4.57.33-.64.05-.64,1.05,0,1,12.33-.94,24.7-1.46,37.06-1.73,12.29-.26,24.59-.27,36.88-.19,12.38.08,24.77.24,37.15.31,4.89.03,9.77.04,14.66.03.9,2.02,1.97,3.96,3.24,5.78.36.52,1.23.03.86-.5-1.16-1.67-2.15-3.44-2.99-5.28.52,0,1.05,0,1.57,0-.29-.29-.52-.63-.69-1-.43,0-.87,0-1.3,0-2.06-4.85-3.12-10.13-3.38-15.4-.24-4.86.16-9.71.87-14.51.16.23.5.36.76.1,1.24-1.21,3.01-1.33,4.6-.84,1.76.53,3.11,1.73,4.09,3.25,1.1,1.71,1.74,3.66,2.41,5.56.64,1.83,1.34,3.63,2.3,5.32,1.86,3.28,4.68,6.13,8.44,7.03,1.73.42,3.59.43,5.29-.15,1.55-.53,2.84-1.54,3.93-2.75,1.97-2.18,3.45-5.29,6.23-6.57,4.21-1.93,8.04,2.05,10.97,4.49,1.57,1.3,3.25,2.37,5.18,3.05,1.92.68,3.94,1.02,5.96,1.25,3.72.42,7.84.91,11.48-.27,1.74-.56,3.3-1.56,4.44-2.99,1.13-1.42,1.84-3.1,2.39-4.82,1.09-3.39,1.62-7.29,4.23-9.94.61-.62,1.33-1.13,2.14-1.46.59-.24.33-1.21-.27-.96Z"/>
    <path d="M1619.46,173.08c-11.12-.96-22.25-1.86-33.38-2.71s-22.27-1.64-33.41-2.38c-11.14-.74-22.28-1.42-33.43-2.05s-22.3-1.2-33.45-1.72c-5.4-.25-10.8-.49-16.2-.71.64-3.09.71-6.36.67-9.49.07.01.16.01.25-.02,5.26-2.05,9.67-6.44,11.11-11.98.74-2.83.7-5.88-.14-8.68-.82-2.75-2.45-5.54-4.95-7.08-2.76-1.7-6.21-1.79-9.31-1.2-.63.12-.36,1.08.27.96,2.6-.49,5.47-.47,7.88.74,2.46,1.23,4.1,3.73,4.97,6.28,1.76,5.15.52,10.87-3,14.98-1.91,2.22-4.37,3.96-7.09,5.02-.01-.48-.02-.96-.03-1.43-.22-8.42-1.29-16.82-3.18-25.03-.67-2.93-1.47-5.82-2.35-8.69,8.58.03,18.99.9,23.35,9.51,1.93,3.82,2.25,8.36,1.42,12.52-.91,4.49-3.24,8.51-6.29,11.9-3.61,4.01-8.09,7.13-12.74,9.81-.56.32-.05,1.19.5.86,8.26-4.76,16.7-11.42,19.21-21.07,1.11-4.28,1.06-9-.61-13.13-1.71-4.24-5.04-7.37-9.23-9.12-4.99-2.08-10.57-2.27-15.91-2.28-.44-1.38-.89-2.76-1.37-4.12-.06-.16-.17-.26-.29-.3-.02-.13-.09-.26-.23-.36-3.74-2.4-8.09-3.58-12.46-4.2-4.9-.69-9.87-.8-14.81-.84-2.45-.02-4.9-.01-7.36-.02v-54.5c0-.64-1-.64-1,0v54.5c-7.53-.01-15.07,0-22.6,0-4.91,0-10.05.11-14.44,2.57-.18.1-.25.27-.24.43-.11-.05-.23-.08-.35-.13-.59-.25-.85.72-.27.96,4.11,1.73,8.6,2.15,13.01,2.44,4.86.33,9.73.57,14.61.72,1.6.05,3.2.07,4.8.1-.02.26.13.55.47.57,3.16.13,6.32.25,9.47.38.51.02.61-.61.3-.88,4.71-.01,9.41-.08,14.11-.25,5.44-.2,10.87-.52,16.3-.93,2.74,7.75,4.73,15.76,5.92,23.89.6,4.12.99,8.27,1.18,12.44.17,3.73.27,7.51-.12,11.23-.1.96-.25,1.92-.45,2.88-.71-.03-1.42-.05-2.13-.08.01.34-.02.67-.09,1,.66.03,1.32.05,1.98.08-.63,2.45-1.68,4.78-3.41,6.68-.43.47.27,1.18.71.71,1.93-2.12,3.07-4.64,3.75-7.34,4.11.17,8.22.34,12.33.53,11.15.51,22.3,1.07,33.45,1.68s22.29,1.28,33.43,2.01,22.28,1.5,33.41,2.34c11.13.83,22.26,1.72,33.39,2.67,1.36.12,2.73.23,4.09.35.64.06.64-.95,0-1ZM1433.2,113.24c-.74,0-1.48,0-2.22,0,.02.28.05.56.07.84-2.51-.1-5.02-.2-7.53-.3-.02-.2-.03-.39-.05-.59-6.44-.1-12.87-.33-19.3-.73-4.6-.28-9.31-.53-13.68-2.07,3.87-2.1,8.36-2.32,12.67-2.34,4.95-.03,9.91,0,14.86,0,2.29,0,4.59,0,6.89,0,1.01-.48,2.32-.48,3.45,0,1.57,0,3.15,0,4.72,0,4.92,0,9.85.06,14.74.58,4.39.46,8.82,1.4,12.72,3.51-9.1.66-18.22,1.04-27.35,1.11Z"/>
    <path d="M1462.17,173.34c-8.85,3.66-18.62,3.34-28.01,3.21-5.12-.07-10.24-.14-15.36-.21-4.68-.06-9.37-.05-14.04-.49-5.09-.47-10.18-1.55-14.72-3.97-.57-.3-1.07.56-.5.86,8.2,4.37,17.73,4.43,26.79,4.56,5.29.07,10.57.15,15.86.22,4.9.07,9.81.21,14.7-.06,5.31-.29,10.62-1.12,15.56-3.16.59-.24.33-1.21-.27-.96Z"/>
    <path d="M1349.41,194.75c-12.08-1.36-24.1-3.21-36.04-5.53-11.93-2.33-23.76-5.15-35.48-8.4-6.44-1.79-13.04-3.62-19.79-3.21-.64.04-.64,1.04,0,1,6.06-.37,11.99,1.09,17.79,2.69,5.84,1.61,11.68,3.18,17.56,4.6,11.82,2.85,23.76,5.23,35.77,7.13,6.71,1.06,13.44,1.97,20.19,2.73.64.07.63-.93,0-1Z"/>
    <path d="M1344.91,202.15c-11.55-1.69-23.08-3.54-34.57-5.57-11.42-2.01-22.8-4.18-34.16-6.52-6.44-1.33-12.87-2.7-19.29-4.13-.63-.14-.89.82-.27.96,11.39,2.54,22.83,4.91,34.29,7.12,11.38,2.19,22.8,4.22,34.24,6.08,6.49,1.06,12.99,2.06,19.5,3.01.63.09.9-.87.27-.96Z"/>
    <path d="M1349.42,210.08c-11.64-.79-23.25-2.02-34.79-3.71-11.43-1.67-22.79-3.79-34.05-6.34-6.38-1.44-12.73-3.03-19.04-4.75-.62-.17-.89.79-.27.96,11.26,3.07,22.63,5.7,34.1,7.89,11.43,2.18,22.94,3.91,34.5,5.2,6.5.72,13.02,1.31,19.54,1.75.64.04.64-.96,0-1Z"/>
    <path d="M1340.21,220.65c-10.46-1.99-20.87-4.28-31.24-6.69-10.4-2.41-20.78-4.94-31.17-7.43-5.89-1.41-11.77-2.83-17.66-4.24-.63-.15-.89.81-.27.96,10.43,2.51,20.87,5.02,31.3,7.52,10.36,2.49,20.72,4.95,31.13,7.22,5.87,1.28,11.75,2.5,17.64,3.62.63.12.9-.84.27-.96Z"/>
    <path d="M1395.08,196.79c-.31-2.85-.61-5.89-2.49-8.2-.41-.5-1.11.21-.71.71,1.65,2.04,1.9,4.87,2.18,7.38.31,2.81.46,5.64.46,8.46,0,5.69-.61,11.37-1.83,16.93-.68,3.1-1.56,6.16-2.61,9.16-.21.61.75.87.96.27,3.88-11.08,5.28-23.02,4.02-34.7Z"/>
    <path d="M1505.72,196.03c-.24-3.69-.64-7.36-1.1-11.03-.08-.63-1.08-.64-1,0,1.52,12.22,2.48,24.95-1.53,36.82-.92,2.73-2.12,5.35-3.59,7.83-.11-.59-.13-1.18-.02-1.79.11-.63-.85-.9-.96-.27-.21,1.18-.11,2.34.35,3.45.16.39.67.51.91.12,6.57-10.42,7.72-23.11,6.94-35.14Z"/>
    <path d="M1213.99,124c-8.71-.95-17.42-1.93-26.12-2.94-8.74-1.02-17.48-2.07-26.21-3.16-8.69-1.08-17.37-2.19-26.05-3.34-8.72-1.15-17.43-2.34-26.13-3.55-8.66-1.21-17.32-2.46-25.97-3.73-8.65-1.28-17.29-2.59-25.92-3.93-8.67-1.35-17.34-2.73-25.99-4.15-8.62-1.41-17.22-2.85-25.82-4.32-8.64-1.48-17.27-2.99-25.89-4.54-8.58-1.54-17.15-3.11-25.71-4.71-2.1-.39-4.2-.79-6.3-1.19-.63-.12-.9.66-.27.78,8.56,1.62,17.12,3.21,25.7,4.76,8.62,1.56,17.24,3.09,25.88,4.59,8.59,1.49,17.2,2.95,25.81,4.37,8.65,1.43,17.31,2.83,25.98,4.2,8.63,1.36,17.26,2.69,25.91,3.98,8.64,1.29,17.3,2.55,25.95,3.78,8.7,1.23,17.41,2.44,26.12,3.6,8.67,1.16,17.35,2.29,26.04,3.39,8.73,1.1,17.46,2.17,26.2,3.21,8.7,1.03,17.4,2.03,26.12,2.99,2.14.24,4.27.47,6.41.7.64.07.91-.71.27-.78Z"/>
    <path d="M1508.35,194.95c-.55-3.63-1.29-7.24-2.02-10.84-.13-.63-1.09-.36-.96.27,1.26,6.19,2.53,12.4,2.85,18.72.3,5.93-.34,11.86-1.95,17.58-.91,3.23-2.13,6.36-3.63,9.36-.29.57.58,1.08.86.5,2.68-5.38,4.48-11.17,5.29-17.12.84-6.16.49-12.34-.44-18.47Z"/>
    <path d="M1551.19,191.02c-.49-3.46-1.19-6.88-2.09-10.26-.16-.62-1.13-.36-.96.27,3.14,11.88,3.8,24.41,1.91,36.55-.53,3.41-1.27,6.79-2.19,10.12-.17.62.79.89.96.27,3.33-11.99,4.12-24.63,2.36-36.95Z"/>
    <path d="M1554.5,190.53c-.58-3.47-1.44-6.9-3.03-10.04-.29-.57-1.15-.07-.86.5,1.42,2.8,2.22,5.84,2.78,8.91.56,3.08.91,6.19,1.09,9.32.37,6.32.01,12.69-1.07,18.93-.61,3.53-1.46,7.01-2.52,10.42-.19.62.77.88.96.27,3.83-12.34,4.77-25.56,2.65-38.31Z"/>
    <path d="M1597.33,189.78c-.91-3.68-2.01-7.31-3.29-10.87-.22-.6-1.18-.34-.96.27,4.49,12.52,6.71,25.82,6.55,39.12-.05,3.75-.29,7.5-.71,11.22-.07.64.93.63,1,0,1.51-13.26.62-26.78-2.58-39.73Z"/>
    <path d="M630.5,147.22c2.83,1.08,5.66,2.16,8.48,3.25-.15.64-.31,1.28-.47,1.91.34.03.67.08.98.18.14-.58.29-1.16.43-1.74.25.1.5.19.75.29.6.23.86-.73.27-.96-.26-.1-.53-.2-.79-.3.2-.87.42-1.73.62-2.6.14-.63-.82-.89-.96-.27-.19.84-.4,1.67-.59,2.51-5.47-2.11-10.95-4.2-16.43-6.27-6-2.26-11.98-4.58-18.03-6.7-3.28-1.14-6.61-2.14-10.04-2.71-.63-.1-.9.86-.27.96,6.18,1.02,12.03,3.41,17.87,5.59,6.07,2.26,12.13,4.54,18.19,6.85Z"/>
    <path d="M629.95,154.58c-.26,4.84-2.24,9.36-4.13,13.75-1.95,4.53-3.96,9.03-6.04,13.5-4.12,8.87-8.5,17.62-13.12,26.25-2.06,3.85-4.19,7.67-6.35,11.47-.18-.16-.44-.21-.64.03-.8.96-1.22,2.1-1.2,3.35,0,.49.68.69.93.25,4.97-8.61,9.7-17.36,14.17-26.23,4.49-8.91,8.72-17.96,12.68-27.12,2.11-4.88,4.4-9.85,4.69-15.24.03-.64-.97-.64-1,0Z"/>
    <path d="M641.14,151.14c-4.55,11.12-9.53,22.07-14.92,32.82-5.34,10.64-11.07,21.09-17.19,31.3-3.46,5.77-7.04,11.46-10.74,17.08-.36.54.51,1.04.86.5,6.61-10.04,12.85-20.33,18.68-30.85,5.81-10.48,11.23-21.18,16.23-32.07,2.81-6.12,5.49-12.29,8.04-18.52.24-.6-.72-.85-.96-.27Z"/>
    <rect class="cls-2" x="-52.1" y="-31.41" width="2013.93" height="511.15"/>
  </g>
  <g id="Layer_8" data-name="Layer 8">
    <path d="M1931.8,500.97H-38.34c-.64,0-.64,1,0,1h1970.14c.64,0,.64-1,0-1Z"/>
    <path d="M62.05-30.92v504.46c0,.64,1,.64,1,0V-30.92c0-.64-1-.64-1,0Z"/>
    <path d="M355.56-40.1V54.79H88.24c-.64,0-.64,1,0,1h267.32v419.58c0,.64,1,.64,1,0V-40.1c0-.64-1-.64-1,0Z"/>
    <path d="M350.55,80.47H86.4c-.64,0-.64,1,0,1h264.15c.64,0,.64-1,0-1Z"/>
    <path d="M375.74-27.25v498.96c0,.64,1,.64,1,0V-27.25c0-.64-1-.64-1,0Z"/>
    <path d="M784.64,337.29h-2.5V-19.92c0-.64-1-.64-1,0v337.03h-1.59v1h1.59v19.18h-1.59v1h1.59v129.74c0,.64,1,.64,1,0v-129.74h2.5v-1Z"/>
    <path d="M1805.23,257.95h-559.95c-.64,0-.64,1,0,1h559.95c.64,0,.64-1,0-1Z"/>
    <path d="M2032.69,478.54h-218.71v-201.7h6.38c.64,0,.64-1,0-1h-6.38V51.21h11.88c.64,0,.64-1,0-1h-11.88v-15.51h9.13c.64,0,.64-1,0-1h-9.13V-23.59c0-.64-1-.64-1,0v57.28h-570.41V-32.76c0-.64-1-.64-1,0v309.97h-.42c-.64,0-.64,1,0,1h.42v193.49c0,.64,1,.64,1,0v-193.49h495.25c.64,0,.64-1,0-1h-495.25V34.7h570.41v15.51h-562.2c-.64,0-.64,1,0,1h562.2v224.63h-88.93c-.64,0-.64,1,0,1h88.93v201.7h-592.43V160.35h14.18c.64,0,.64-1,0-1h-14.18v-32.02h3.17c.64,0,.64-1,0-1h-3.17V-43.76c0-.64-1-.64-1,0V126.33h-434.25c-.64,0-.64,1,0,1h434.25v32.02h-436.09c-.64,0-.64,1,0,1h436.09v318.18h-1.33c-.29,0-.44.2-.47.42h-463.13v-140.67h.67v-1h-.67v-19.18h.67v-1h-.67V-45.6c0-.64-1-.64-1,0v362.71h-371.88c-.64,0-.64,1,0,1h371.88v19.18h-375.55c-.64,0-.64,1,0,1h375.55v140.67H83.23V-29.09c0-.64-1-.64-1,0v508.04H-29.17c-.64,0-.64,1,0,1h782.79v.92c0,.64,1,.64,1,0v-.92h464.94v.92c0,.64,1,.64,1,0v-.92h592.43c0,.64,1,.64,1,0h117.82c.29,0,.44-.2.47-.42h100.42c.64,0,.64-1,0-1Z"/>
    <path d="M1839.12-27.71v504.92c0,.64,1,.64,1,0V-27.71c0-.64-1-.64-1,0Z"/>
    <path d="M1945.56,388.65h-99.06c-.64,0-.64,1,0,1h99.06c.64,0,.64-1,0-1Z"/>
    <path d="M1985.46,407.91h-140.33c-.64,0-.64,1,0,1h140.33c.64,0,.64-1,0-1Z"/>
  </g>
  <g id="Layer_6" data-name="Layer 6">
    <path d="M418.75,545.35c0-.17,0-.33-.01-.5h-157.71c.03.33.04.67.03,1h157.76c-.02-.17-.04-.33-.07-.5Z"/>
    <path d="M132.82,544.85H-124.55c-.64,0-.64,1,0,1H132.79c-.01-.33,0-.67.03-1Z"/>
    <path d="M2689.65,544.85h-936.08c.02.33.02.67,0,1h936.08c.64,0,.64-1,0-1Z"/>
    <path d="M117.13,554.02H-10.82c-.64,0-.64,1,0,1h127.95c.64,0,.64-1,0-1Z"/>
    <path d="M2186.57,551.27h-347.63c.18.32.34.66.49,1h347.14c.64,0,.64-1,0-1Z"/>
    <path d="M2172.81,595.29h-313.68c-.64,0-.64,1,0,1h313.68c.64,0,.64-1,0-1Z"/>
    <path d="M425.99,596.67h-41.96c-.64,0-.64,1,0,1h42.26c-.1-.33-.2-.67-.3-1Z"/>
    <path d="M104.75,591.17H-2.57c-.64,0-.64,1,0,1h107.31c.64,0,.64-1,0-1Z"/>
    <path d="M52.46,628.31H-2.57c-.64,0-.64,1,0,1h55.03c.64,0,.64-1,0-1Z"/>
    <path d="M357.89,795.89H-64.48c-.64,0-.64,1,0,1h422.37c.64,0,.64-1,0-1Z"/>
    <path d="M381.28,596.67h-18.12c.25.32.49.65.7,1h17.42c.64,0,.64-1,0-1Z"/>
    <path d="M1853.63,648.68h-97.68c-.64,0-.64,1,0,1h97.68c.64,0,.64-1,0-1Z"/>
    <path d="M233.78,877.06h-71.25c-.64,0-.64,1,0,1h71.99c-.27-.32-.51-.65-.74-1Z"/>
    <path d="M1469.54,539.99H503.73c-.64,0-.64,1,0,1h965.81c.64,0,.64-1,0-1Z"/>
    <path d="M956.94,560.25h290.78c-.09-.33-.17-.66-.23-1h-291.65c.4.3.76.64,1.1,1Z"/>
    <path d="M1843.75,559.25h-3.58c-.06.34-.14.67-.23,1h3.81c.64,0,.64-1,0-1Z"/>
    <path d="M1252.16,584.02h-7.2c-.16.34-.34.68-.53,1h7.73c.64,0,.64-1,0-1Z"/>
    <path d="M1298.09,614.28h-272.38c-.34.36-.7.7-1.1,1h272.38c.34-.36.7-.7,1.1-1Z"/>
    <path d="M1912.54,614.28h-197.27c.4.3.76.64,1.1,1h196.17c.64,0,.64-1,0-1Z"/>
    <path d="M949.48,754.61h-250.39c-.64,0-.64,1,0,1h250.39c.64,0,.64-1,0-1Z"/>
    <path d="M1263.17,955.48h-75.99c-.12.27-.25.53-.4.78.63.03,1.24.1,1.81.22h74.58c.64,0,.64-1,0-1Z"/>
    <path d="M1070.55,666.56H330.38c-.64,0-.64,1,0,1h740.18c.64,0,.64-1,0-1Z"/>
    <path d="M1714.43,754.61h-426.5c-.64,0-.64,1,0,1h426.5c.64,0,.64-1,0-1Z"/>
    <path d="M2176.69,889.44h-665.89c-.64,0-.64,1,0,1h665.89c.64,0,.64-1,0-1Z"/>
  </g>
</svg>