<?xml version="1.0" encoding="UTF-8"?>
<svg xmlns="http://www.w3.org/2000/svg" viewBox="0 0 407.19 513.22">
  <defs>
    <style>
      .cls-1 {
        fill: #0c1316;
      }

      .cls-2 {
        fill: #7a756f;
      }

      .cls-3 {
        fill: #33281b;
      }

      .cls-4 {
        fill: #262b38;
      }

      .cls-5 {
        fill: #1a202d;
      }

      .cls-6 {
        fill: #35302a;
      }

      .cls-7 {
        fill: #343e4c;
      }

      .cls-8 {
        fill: #283649;
      }

      .cls-9 {
        fill: #96928f;
      }
    </style>
  </defs>
  <g id="Layer_10" data-name="Layer 10">
    <path class="cls-3" d="M33.48,444.36s-27.49,7.65-26.97,23.76,10.37,42.85,118.7,41.16,163.2-2.97,190.3-13.5,50.27-24.57,49.42-38.06-271.45-23.93-331.44-13.36Z"/>
    <path class="cls-5" d="M34.51,489.72s-41.9-42.79,14.19-56.26,173.68-25.12,229.45-14.81c32.13,5.94,62.85,12.73,78.15,22.46,11.25,7.16,14.17,15.92,3.16,27.1-25.97,26.4-164.86,58.36-324.94,21.51Z"/>
    <path class="cls-1" d="M137.65,440.02s-89.78,11.98-67.79,25.46c68.74,42.13,247.01,16.48,247.58-2.3s-62.6-24.92-116.6-23.47-63.19.31-63.19.31Z"/>
    <path class="cls-7" d="M120.21,115.94s46.41-17.31,90.37-10.65,53.6,14.78,53.6,14.78l-9.7,349.92s-91.74,17.35-114.33,3.77-19.93-357.82-19.93-357.82Z"/>
    <path class="cls-6" d="M189.36,106.51s-3.11-14.04,0-16.14,2.71,14.82,2.78,16.03"/>
    <path class="cls-8" d="M209.67,182.29c.38,3.12,4.08,70.09-3.21,74.75s-13.61,9.17-14.6-9.17,3.06-70.09-5.85-78.84-13.95,14.64-13.03,21.06-12.97,11.79-10.55,4.13,2.08-22.65-1.94-23.48-7.16,17.83-7.23,35.4.48,23.85-8.7,23.62-3.32-25.83-5.79-32.75-8.91-4.41-11.65-1.08-13.56,1.76-9.07-14.19c0,0,2.36-66.6,3.93-66.76s44.21-14.56,61.81-13.63,78.4,5.47,79.98,15.47,7.53,61.53,1.26,64.42-5.81-2.16-7.19-9.96-9.17-5.96-8.25,5.04,10.67,35.95-2.23,41.82-11.5-6.61-10.36-24.9-6.02-29.02-15.52-22.51-11.78,11.55-11.78,11.55Z"/>
    <path class="cls-5" d="M384.7,433.61c17.02,3.63,22.39,35.96,17.77,43.08s-9.35,8.13-10.66.87-18.93-21.89-28.62-13.66-10.93-24.18-10.93-24.18c0,0,5.22-11.92,32.43-6.11Z"/>
    <path class="cls-3" d="M395.14,481.91s10.97-21.93,0-26.98-28.28-6.71-31.21-2.78-.73,11.75-.73,11.75c0,0,18.01-12.34,31.94,18.02Z"/>
    <path class="cls-2" d="M189.95,95.39s-8.28-10.4-.58-25.27,31.41-22.46,30.22-36.2.41-31.17-6.47-33.92c0,0,13.07,7.8,12.15,27.29s4.36,40.36-6.42,49.53-29.54,14.23-28.89,18.57Z"/>
    <path class="cls-9" d="M199.83,69.52s-13.01,9.81-11.45,17.84,1.69,11,1.69,11c0,0,4.23-11.54,10.77-19.4,6.92-8.32,8.94-8.92,13.41-18.76l-14.43,9.33Z"/>
    <path class="cls-4" d="M127.11,195.93s39.12,260.43,124.24,270.72l3.01,8.1s-113.65,4.72-124.64-5.41-2.61-273.41-2.61-273.41Z"/>
  </g>
  <g id="Layer_4" data-name="Layer 4">
    <path d="M406.81,461.84c-.17-.93-.38-1.85-.63-2.75-.03-.9-.11-1.81-.23-2.7.2-1.57.34-3.14.41-4.71.23-5.36-.47-11.05-3.49-15.62-2.94-4.44-7.8-7.17-12.89-8.42-6.16-1.51-12.57-.88-18.77-.03-.83.11-1.66.23-2.49.35-.3.04-.34.33-.22.54-4.67-.99-9.57-.96-13.94,1.18-.46.22-.06.9.4.68,4.31-2.11,9.21-2.05,13.8-1,4.68,1.07,9.1,3.05,13.36,5.22,8,4.06,15.99,9.67,19.12,18.47.04.12.07.24.11.35-.24,0-.47.19-.37.48,1.07,2.94,1.47,6.07,1.28,9.17-.17,1.03-.43,2.05-.8,3.04-.71-2.65-2.03-5.04-3.76-7.12.22.03.47-.11.45-.38-.56-8.69-4.33-17.72-12.59-21.64-3.46-1.65-7.38-2.14-11.09-1.17-.09-.07-.22-.12-.35-.09-5.44.99-10.89,1.98-16.33,2.97-.23.04-.31.23-.27.41-5.27-1.26-9.97-4.12-14.53-6.98-3.03-1.9-6.06-3.82-9.28-5.39-.28-.14-.71.09-.58.45.23.62.49,1.23.78,1.82-1.87-.66-3.77-1.26-5.68-1.78-6.3-1.72-12.77-2.74-19.24-3.59-5.09-.67-10.18-1.27-15.28-1.81-6.45-1.41-12.92-2.69-19.42-3.82-5.33-.93-10.67-1.75-16.03-2.49v-236.04c.37,1.27,1.01,2.42,2.12,3.18,1.08.74,2.55.85,3.74.3,1.26-.59,2.09-1.85,2.62-3.08.6-1.38.91-2.88,1.04-4.38.19-2.24.22-4.5.28-6.75.12-4.66.09-9.33-.07-13.99-.33-9.33-1.21-18.63-2.65-27.86-.35-2.26-.74-4.51-1.15-6.75-.09-.5-.85-.29-.76.21,1.72,9.27,2.88,18.63,3.46,28.04.29,4.66.44,9.32.45,13.98,0,2.35-.02,4.7-.09,7.04-.06,2.14-.06,4.31-.29,6.44-.26,2.39-1.3,6.63-4.37,6.66-3.26.03-3.97-4.15-4.04-6.64-.04-1.38-.02-2.96-.28-4.45v-3.77c-.28-.08-.55-.19-.79-.32v1.68c-.28-.52-.64-.99-1.1-1.4-.99-.88-2.44-1.25-3.72-.85-1.26.39-2.19,1.44-2.8,2.57-1.71,3.17-1.34,6.79-.88,10.22.59,4.47,1.66,8.85,2.43,13.28,1.25,7.2,1.55,15.09-2.25,21.64-.83,1.43-1.85,2.73-3.07,3.85-1.28,1.18-3.15,2.72-5.01,2.41-1.91-.32-3.23-2.1-4.07-3.71-.9-1.73-1.4-3.65-1.6-5.57-.44-4.03.22-8.08.8-12.06.68-4.61,1.16-9.24,1.38-13.9.11-2.31.17-4.62.15-6.93-.02-1.91-.27-3.83-1.56-5.33-1.12-1.3-2.75-2.06-4.37-2.54-1.79-.53-3.69-.81-5.55-.92-3.85-.23-7.93.44-11.18,2.63-2.79,1.87-4.89,4.93-5.42,8.27-.26,1.61-.14,3.25.41,4.79.17.48.93.27.76-.21-1.19-3.34-.15-7.03,2.02-9.73,2.44-3.03,6.17-4.56,9.98-4.91,1.98-.18,3.99-.09,5.95.22,1.79.28,3.62.69,5.2,1.61,1.74,1.01,2.69,2.6,2.9,4.6.22,2.2.07,4.48,0,6.69-.16,4.77-.57,9.52-1.24,14.25-.56,3.95-1.28,7.93-1.12,11.93.08,1.92.37,3.84,1.02,5.66.61,1.71,1.52,3.44,2.9,4.65,1.41,1.23,3.17,1.7,4.92.93,1.57-.68,3-1.89,4.16-3.14,4.65-4.99,5.93-12.41,5.47-19-.31-4.49-1.29-8.89-2.16-13.3-.44-2.26-.87-4.53-1.15-6.82-.23-1.88-.48-3.84-.22-5.73.33-2.38,1.71-6.25,4.78-5.74,1.98.33,2.85,2.14,3.23,4.07v240.29c.06.3.09.61.09.95v27.16c0,.34-.03.66-.09.95v12.72c-.05.11-.05.24,0,.36v11.21c-.79,1.74-1.83,3.38-2.99,4.9.5-1.32.76-2.71.68-4.13-.03-.59-.13-1.17-.28-1.74.76-.73,1.5-1.48,2.2-2.27.34-.38-.22-.94-.56-.56-.61.69-1.25,1.34-1.91,1.97-.03-.07-.05-.15-.08-.22-.03-.08-.09-.14-.15-.18.59-1,1.09-2.05,1.46-3.15.28-.83.48-1.69.61-2.56.07-.5-.69-.71-.76-.21-.69,4.6-3.41,8.31-6.98,11.02-2.25,1.47-4.63,2.72-7.11,3.79-.27.09-.53.19-.8.28-4.1,1.31-8.4,1.84-12.68,2.17-.29.02-.58.04-.86.06,4.02-1.05,7.95-2.53,11.59-4.51,2.2-.68,4.39-1.42,6.55-2.23,1-.37,2-.76,2.99-1.16.47-.19.26-.95-.21-.76-2.05.83-4.13,1.6-6.23,2.31,1.48-.98,2.9-2.06,4.24-3.24.71-.63,1.4-1.29,2.06-1.98.35-.37-.2-.92-.56-.56-2.68,2.77-5.76,5.04-9.1,6.87-4.98,1.54-10.05,2.79-15.18,3.75-4.22.79-8.47,1.4-12.73,1.86-7.57-.21-15.12-.9-22.61-2.02-6.84-1.02-13.63-2.4-20.35-4.06v-37.9c0-.51-.79-.51-.79,0v37.71c-.46-.11-.92-.22-1.38-.34v-54.76c0-.51-.79-.51-.79,0v54.55c-.96-.25-1.92-.5-2.88-.76-2.41-.66-4.8-1.36-7.19-2.09v-103.12c0-.51-.79-.51-.79,0v102.87c-4.36-1.35-8.68-2.79-12.97-4.34v-75.36c0-.51-.79-.51-.79,0v75.08c-.33-.12-.66-.23-.99-.35v.6c0,.09,0,.17-.01.25.33.12.67.24,1.01.36v8.67c-2.69-.93-5.33-2.01-7.9-3.23v-75.57c0-.51-.79-.51-.79,0v75.21c-1-.49-1.99-1-2.96-1.53-.93-.51-1.84-1.04-2.75-1.59-.43-.27-.83.42-.4.68,1.98,1.21,4.02,2.31,6.11,3.31v2.93c-1.62-.49-3.23-.98-4.84-1.5-.93-1.05-1.62-2.3-1.92-3.77-.18-.88-.17-1.78.03-2.66.11-.49-.65-.71-.76-.21-.51,2.21.12,4.4,1.35,6.22-1.11-.36-2.21-.74-3.31-1.12-.74-2.26-1.03-4.62-.73-7.06.38-3.16,1.62-6.31,3.67-8.76.65-.77,1.38-1.45,2.18-2.03v13.59c0,.51.79.51.79,0v-14.08c.09-.04.18-.08.27-.12v-.99c-.09.05-.18.08-.27.13v-4.64c.09-.01.18-.03.27-.04v-.79c-.09.01-.18.03-.27.04v-17.37c.09-.01.18-.02.27-.04v-.79c-.09.01-.18.02-.27.03v-7.62c.09-.01.18-.02.27-.04v-.79c-.09.01-.18.02-.27.04v-220.67c.53-.95.88-2,1.12-3.09.02,0,.04-.01.06-.02,2.16-1.39,4.98-.45,6.67,1.25,2.05,2.06,2.58,5.2,2.87,7.97.35,3.4.52,6.82.54,10.24.01,1.69-.02,3.38-.08,5.07-.05,1.6-.1,3.2.05,4.8.26,2.75,1.14,5.46,3.22,7.37,1.81,1.67,4.33,2.4,6.67,1.46,2.31-.93,4.01-3.08,4.78-5.4,1.02-3.07.68-6.37.43-9.52-.54-6.87-.65-13.77-.32-20.65.16-3.46.43-6.91.81-10.35.19-1.71.4-3.42.65-5.12.21-1.44.47-2.93,1.12-4.25.6-1.23,1.54-2.25,2.85-2.73,1.15-.42,2.48-.35,3.4.53.9.86,1.19,2.16,1.3,3.35.13,1.48.06,2.98.05,4.46l-.05,10.43c-.01,2.36-.29,5.74,2.35,6.88,2.36,1.02,4.94-.46,6.07-2.55,1.43-2.63,1.29-5.9,1.1-8.79-.2-3.12-.65-6.31-.09-9.43.44-2.42,1.44-4.88,3.37-6.49,4.06-3.39,9.91-.87,12.71,2.91,1.74,2.35,2.52,5.33,2.85,8.2.35,3.06.22,6.15.13,9.22-.2,7.02-.39,14.05-.59,21.07-.2,6.99-.39,13.98-.59,20.97-.1,3.48-.19,6.96-.29,10.44-.09,3.34-.3,6.7-.25,10.04.03,2.54.46,5.33,2.44,7.13,1.6,1.46,3.82,1.86,5.92,1.56,2.2-.32,4.33-1.4,5.9-2.97,1.87-1.87,2.97-4.47,3.57-7,.65-2.74.78-5.57.81-8.38.03-3.38,0-6.75-.01-10.13-.01-6.99-.03-13.99-.04-20.98l-.04-20.98c0-3.38-.01-6.76-.02-10.14,0-.51-.79-.51-.79,0,.01,6.96.03,13.92.04,20.88.01,6.99.03,13.99.04,20.98.01,6.82.1,13.64.03,20.45-.03,2.84-.16,5.71-.87,8.47-.65,2.52-1.81,5.08-3.83,6.79-3.35,2.86-9.52,3.62-11.58-1.15-1.15-2.66-.76-5.84-.68-8.66.1-3.51.2-7.02.29-10.54.19-6.96.39-13.92.58-20.87.19-6.96.39-13.92.58-20.87.09-3.34.23-6.68.26-10.02.03-2.98-.1-6-.88-8.89-.69-2.56-1.91-4.97-3.88-6.78-1.75-1.61-3.96-2.78-6.34-3.07-2.34-.28-4.66.46-6.38,2.09-1.78,1.68-2.76,4.08-3.2,6.45-.56,3.02-.21,6.1,0,9.14.21,2.94.5,6.43-1.03,9.1-.66,1.15-1.69,2.01-3.01,2.27-1.24.24-2.54-.14-3.22-1.26-.69-1.15-.65-2.6-.65-3.9,0-1.72.02-3.44.02-5.16,0-1.72.02-3.44.02-5.16,0-1.62.06-3.25,0-4.87-.08-2.24-.68-5.02-3.2-5.66-2.47-.62-4.84,1.14-5.88,3.26-.63,1.29-.93,2.7-1.15,4.12-.25,1.62-.45,3.25-.64,4.88-.78,6.81-1.14,13.67-1.07,20.53.03,3.43.18,6.86.42,10.28.24,3.24.72,6.61-.18,9.8-.68,2.43-2.45,4.82-4.96,5.54-2.61.75-5.12-.78-6.56-2.9-1.73-2.55-1.89-5.73-1.84-8.72.06-3.38.17-6.74.04-10.12-.12-3.16-.24-6.41-.88-9.52-.53-2.59-1.65-5.19-3.94-6.67-1.72-1.12-3.98-1.53-5.85-.63.03-.18.04-.35.06-.53-.25.12-.52.22-.8.3-.12.83-.29,1.66-.57,2.44v-2.32c-.25.04-.51.07-.79.07v3.93c-.84,1.36-2.11,2.56-3.66,3.02-1.59.47-3.22.01-4.41-1.11-2.96-2.81-2.28-7.13-1.31-10.65,1.12-4.07,2.22-8.12,3.09-12.25,1.73-8.24,2.78-16.62,3.15-25.03.37-8.4.06-16.84-.95-25.19-.05-.44-.11-.87-.17-1.31-.02-.59-.08-1.18-.23-1.76-.13-.51-.83-.28-.76.21.08.54.14,1.08.21,1.62.05,1.74-.49,3.48-1.54,4.88-.05-1.75-.1-3.5-.15-5.26.81-1.87,1.93-3.53,3.25-5.02.01-.04.03-.08.05-.12.81-.64,1.69-1.18,2.6-1.61,7.94-1.82,15.94-3.35,23.99-4.54,8.82-1.3,17.71-2.22,26.61-2.76,3.95-.24,7.9-.39,11.85-.48.21.46.42.92.64,1.38.22.46.9.06.68-.4-.16-.33-.32-.67-.47-1,.87-.02,1.75-.02,2.62-.03,0,.16.02.31.03.47.03.51.82.51.79,0,0-.16-.02-.32-.03-.48,3.55-.03,7.1-.02,10.64.07,3.67.09,7.33.27,10.99.49.54.2,1.08.4,1.63.58,7.58,2.55,15.52,3.72,23.43,4.73.98.13,1.96.25,2.95.37.5.06.5-.73,0-.79-7.99-1-16.04-2.01-23.78-4.32-.41-.12-.81-.26-1.21-.39,4.24.3,8.48.68,12.7,1.15,3.31.37,6.6.81,9.9,1.29,5.28,1.32,10.52,2.83,15.69,4.55.54.38,1.06.79,1.56,1.22v.75c.27.11.53.22.79.35v-.36c.23.22.46.44.68.68.03.03.05.06.08.09.96.58,1.81,1.31,2.52,2.21.01-.08,0-.17-.05-.26-.92-1.45-2.01-2.71-3.22-3.81v-.08c.63.22,1.26.43,1.89.66.05.02.1.04.16.06.09.08.19.16.28.24.97.86,1.92,1.74,2.85,2.65.36.36.92-.2.56-.56-.56-.54-1.12-1.07-1.69-1.59.41.15.83.3,1.24.45.48.18.68-.58.21-.76-1.01-.38-2.03-.75-3.06-1.12-.92-.79-1.87-1.56-2.83-2.3.74.15,1.47.3,2.21.46.5.11.71-.66.21-.76-1.29-.27-2.58-.52-3.87-.78-5.66-4.15-11.9-7.45-18.58-9.79-9.48-3.32-19.52-4.79-29.52-5.29-5.3-.26-10.6-.25-15.9-.09l-.24-4.23c-.02-.41-.05-.85-.12-1.28,2.46-3.81,6.26-6.44,10.1-8.76,4.21-2.54,8.67-4.86,12.23-8.33,3.99-3.88,6.12-9.07,7.08-14.48,1.04-5.88.88-11.88.82-17.82-.06-5.8-.17-11.6-.57-17.38.02-1.61-.07-3.21-.28-4.8-.1-.72-.21-1.43-.35-2.14-.09-.43-.83-.34-.78.1.27,2.3.47,4.61.63,6.92-.05,3.69-.71,7.36-1.93,10.85-1,2.83-2.38,5.52-4.11,7.98-1.62,2.29-3.53,4.37-5.55,6.3-4.03,3.86-8.53,7.2-12.58,11.04-4.12,3.89-7.63,8.34-9.61,13.7-2.05,5.56-2.48,11.71-1.19,17.5.16.71.35,1.42.56,2.12.03.1.09.16.16.21-.21.9-.31,1.83-.32,2.76-2.92.15-5.83.33-8.74.53-5.46.38-10.93.76-16.37,1.33-5.65.6-11.29,1.45-16.76,3-9.11,2.57-18.02,7.26-23.99,14.79-.07.09-.14.19-.21.28-.01-.47-.03-.94-.04-1.41-.01-.51-.8-.51-.79,0,.02.81.04,1.62.07,2.42-.35.49-.69.98-1.01,1.49-.28.43.41.83.68.4.12-.18.25-.36.37-.54l.04,1.37c-.1.36-.18.72-.23,1.09-.16.41-.31.83-.44,1.25-.12.41.39.62.65.38.03,0,.06.01.1.02.04,1.4.08,2.79.12,4.19,0,.34.43.53.67.28.92-.93,1.57-2.05,1.98-3.27.78,7.13,1.06,14.31.84,21.47-.27,8.69-1.26,17.35-2.99,25.87-.86,4.25-1.93,8.45-3.12,12.62-1.02,3.6-1.91,7.76.46,11.05.91,1.26,2.21,2.25,3.77,2.49,1.59.25,3.15-.3,4.41-1.27.51-.4.95-.84,1.33-1.31v219.6c-9.76,1.36-19.48,3.01-29.14,4.99-11.62,2.38-23.14,5.19-34.54,8.45-5.67,1.62-11.31,3.35-16.92,5.19-2.75.9-5.5,1.81-8.22,2.79-1.29.46-2.58.97-3.83,1.54.16-.1.33-.19.49-.29.44-.25.04-.94-.4-.68-5.55,3.22-11.26,6.57-15.56,11.42.12-.43.28-.85.47-1.25.61-1.22,1.62-2.18,2.69-3,2.37-1.79,5-3.26,7.71-4.47.46-.21.06-.89-.4-.68-2.52,1.13-4.93,2.49-7.18,4.09-.98.7-1.94,1.46-2.69,2.41-.77.97-1.25,2.1-1.53,3.3-.06.28-.11.56-.16.85-.11.13-.21.27-.31.41-1.41.86-2.79,1.77-4.11,2.75-3.92,2.9-7.41,6.38-10.04,10.51-1.28,2.01-2.33,4.16-3.16,6.39-.18.48.59.68.76.21,1.7-4.6,4.46-8.73,7.92-12.2,2.25-2.25,4.76-4.2,7.41-5.94-3.14,4.79-4.85,10.4-5.62,16.07-.38,2.81-.54,5.65-.54,8.49-1.56-.45-3.11-.93-4.65-1.45-2.16-.73-4.3-1.54-6.41-2.43-.47-.2-.67.57-.21.76,3.68,1.55,7.44,2.83,11.27,3.93,0,.27,0,.54,0,.81.04,1.82.14,3.65.53,5.43.03.11.06.23.09.34-2.39-.52-4.77-1.04-7.15-1.59-2.92-.67-5.83-1.37-8.73-2.09-.49-.12-.7.64-.21.76,5.42,1.34,10.86,2.59,16.32,3.77.42,1.34,1.02,2.61,1.82,3.78,1.84,2.7,4.38,4.96,7.05,6.83,2.62,1.84,5.48,3.3,8.46,4.46,4.39,1.71,9,2.75,13.66,3.39,2.75,1.14,5.59,2.08,8.48,2.84,8.59,2.24,17.49,2.95,26.33,3.48,9.46.56,18.93,1.02,28.41,1.43,9.57.41,19.14.76,28.72,1.04,9.54.28,19.09.49,28.63.63,9.58.14,19.16.22,28.74.22,9.58,0,19.16-.06,28.74-.19,8.74-.12,17.5-.21,26.21-1.04,8.41-.8,16.8-2.3,24.74-5.27,1.91-.72,3.8-1.52,5.64-2.4.13-.06.19-.17.2-.28.54-.08,1.08-.16,1.62-.25,6.22-.98,12.41-2.13,18.56-3.45,6.18-1.33,12.33-2.85,18.42-4.56,6.01-1.69,11.97-3.55,17.85-5.66,4.57-1.64,9.07-3.6,13.16-6.23,3.88-2.49,7.48-5.65,9.73-9.72.86-1.56,1.49-3.22,1.89-4.95.23-.18.46-.35.68-.53.7.55,1.57.87,2.49.85.17,0,.33-.12.38-.29.29-1.09.52-2.19.68-3.3,4.58-3.49,9.27-6.85,14.34-9.58,1.34-.72,2.7-1.39,4.09-2.01.46-.21.06-.89-.4-.68-5.68,2.54-10.89,5.98-15.88,9.67-.67.5-1.34,1.01-2.01,1.51.14-1.26.2-2.53.19-3.79.28-.16.56-.31.84-.46.17-.1.21-.27.18-.45-.02-.11-.04-.22-.06-.33,0-.07-.01-.13-.03-.19-.3-1.83-.79-3.61-1.41-5.35,1.65-1.41,3.42-2.68,5.44-3.48,2.38-.33,4.76-.53,7.16-.54,1.1.23,2.18.58,3.21,1.05,3.27,1.5,5.93,3.95,8.05,6.83,0,0,0,.01.01.02-.26.15-.3.62.08.73.2.06.38.14.58.2,2.13,3.12,3.73,6.57,5.32,9.99.21.46.89.06.68-.4-1.41-3.05-2.9-6.2-4.73-9.09,2.96,1.33,5.47,3.61,7.1,6.43,1.97,3.43,2.41,7.51,1.41,11.32-.32.37-.64.73-.98,1.08-.94-.94-1.73-2.04-2.32-3.26-.22-.46-.9-.06-.68.4.61,1.27,1.43,2.43,2.42,3.42-.14.13-.28.27-.42.4-1.83-1.54-3.18-3.68-3.7-6-.31-1.41-.28-2.86.1-4.26.14-.49-.63-.7-.76-.21-1.12,4.04.65,8.29,3.74,10.98-.2.17-.39.34-.6.5-.4.31,0,.99.4.68.28-.22.55-.45.82-.68.2.15.4.29.6.43-.58,1.07-1.29,2.07-2.12,2.97-.29.31.09.89.48.62.82-.57,1.6-1.21,2.36-1.86-.36.59-.73,1.19-1.11,1.77-.19.29.12.68.45.58,1.71-.51,3.24-1.32,4.59-2.36.68.07,1.37.08,2.05,0,.4-.05.59-.69.1-.78-.33-.06-.65-.13-.97-.21,2.84-2.64,4.74-6.31,5.63-10.11.74-3.16.81-6.43.23-9.62ZM192.69,102.09c.09,0,.18,0,.27,0,3.72.12,7.38.58,10.94,1.61-1.18-.09-2.36-.16-3.55-.23-2.53-.22-5.07-.4-7.61-.56-.02-.28-.03-.55-.05-.83ZM206.91,106.53c-4.66-.17-9.32-.23-13.98-.19-.05-.79-.09-1.58-.14-2.37,2.48.05,4.96.15,7.43.29.44.04.88.07,1.32.11,1.99.18,3.98.38,5.96.59,1.55.58,3.09,1.21,4.63,1.81-1.75-.09-3.49-.18-5.24-.25ZM214.82,106.93c-1.42-.52-2.82-1.08-4.23-1.64,4.43.49,8.86,1.05,13.28,1.63,2.78.47,5.56.97,8.32,1.55.05,0,.09.02.14.03-5.82-.69-11.65-1.22-17.5-1.58ZM240.37,109.55c-1.13-.28-2.27-.56-3.4-.82,2.8.41,5.59.89,8.33,1.59-1.64-.27-3.29-.53-4.93-.77ZM247.67,111.51c.95.16,1.9.31,2.85.48.82.33,1.62.69,2.41,1.09-1.74-.55-3.5-1.07-5.26-1.57ZM258.61,114.98c-.79-.27-1.58-.55-2.37-.81-.84-.59-1.73-1.1-2.64-1.58.84.16,1.68.31,2.51.48.84.62,1.68,1.26,2.49,1.92ZM204.55,97.9c9.95.26,19.95,1.38,29.51,4.25,7.32,2.19,14.24,5.47,20.48,9.8-1.27-.24-2.53-.47-3.8-.7-3.63-1.46-7.57-2.32-11.32-2.94-4.9-.81-9.83-1.43-14.75-2.07-5.8-.99-11.64-1.75-17.5-2.27-3.72-1.36-7.5-2.22-11.46-2.52-1.02-.08-2.04-.13-3.06-.16-.06-1.11-.13-2.23-.19-3.34,4.03-.12,8.06-.16,12.1-.06ZM192.15,106.36c-.97.01-1.95.03-2.92.05-.35-.81-.68-1.64-.97-2.49,1.25,0,2.5.01,3.76.04l.14,2.4ZM191.39,92.67c.01.32.01.61.03.85.07,1.23.14,2.45.21,3.68-1.51.05-3.01.12-4.52.19.02-.68.08-1.36.2-2.04.19-1.03.53-2.02,1.04-2.94.35-.62,1.44-2.58,2.35-1.89.28.21.45.55.54.93-.14.23-.3.46-.44.7-.22.39.29.75.58.51ZM191.67,97.99c.06,1.1.13,2.2.19,3.3-1.45-.03-2.9-.03-4.35-.01-.22-1.03-.36-2.06-.4-3.1,1.52-.07,3.04-.14,4.56-.19ZM191.9,102.08c.02.26.03.53.05.79-1.36-.08-2.73-.16-4.09-.22-.06-.2-.11-.4-.16-.6,1.4-.02,2.81,0,4.21.02ZM187.37,76.58c1.73-5.6,5.15-10.27,9.32-14.32,4.01-3.89,8.5-7.23,12.58-11.04,2.02-1.89,3.93-3.9,5.6-6.11,1.76-2.33,3.19-4.88,4.29-7.58.95-2.33,1.62-4.76,2.04-7.24.13,3.04.2,6.09.24,9.13.09,6.09.33,12.26-.43,18.31-.7,5.55-2.43,11.12-6.27,15.32-3.33,3.65-7.74,6.04-11.94,8.53-4.1,2.43-8.28,5.07-11.05,9.05-.11-.22-.24-.42-.42-.6-1.79-1.8-3.7,1.81-4.3,3.35-1.47-5.5-1.35-11.37.34-16.81ZM177.47,102.4c1.29-.07,2.59-.13,3.89-.18,1.85-.07,3.71-.13,5.57-.15.05.19.09.37.14.56-3.2-.13-6.39-.22-9.59-.22ZM181.61,103.23c-1.55.05-3.1.1-4.65.18-9.7.5-19.41,1.63-28.94,3.5-.26.05-.53.11-.79.16.32-.09.64-.19.96-.28,5.23-1.43,10.55-2.45,15.92-3.17,1.08-.08,2.17-.15,3.25-.21,4.75-.24,9.5-.29,14.25-.19ZM141.57,104c10.53-3.56,21.77-4.21,32.78-5.02,4-.29,8-.56,12-.77.03.79.12,1.58.26,2.36.04.24.09.48.14.71-.99.02-1.98.04-2.97.07-3.75.1-7.5.28-11.23.59-2.87.23-5.73.53-8.58.92-3.4.24-6.79.57-10.17,1.02-4.91.66-9.83,1.48-14.58,2.92-2.88.87-5.82,2-8.57,3.48.7-.14,1.46-.22,2.26-.22,1.4-.66,2.83-1.25,4.25-1.75,4.24-1.49,8.64-2.39,13.07-3.1.92-.15,1.85-.27,2.78-.4-.88.2-1.75.4-2.62.62-5.05,1.26-10.02,2.89-14.8,4.96.51.12.98.28,1.44.47,2.91-1.18,5.97-2.03,8.96-2.69,4.45-.98,8.96-1.69,13.47-2.31,4.86-.66,9.74-1.15,14.63-1.47,4.45-.29,8.91-.44,13.37-.45.27.85.59,1.68.93,2.5-2.78.06-5.55.15-8.33.29-8.92.45-17.81,1.28-26.66,2.48-3.82.52-7.62,1.13-11.41,1.79,1.73-.37,3.46-.74,5.19-1.11.5-.11.29-.87-.21-.76-4.85,1.04-9.7,2.06-14.54,3.13-2.12.47-4.32,1.03-6.31,1.95-.5.11-1,.23-1.49.35.01-.02.02-.04.03-.05-.02.02-.04.04-.06.06-.3.07-.61.14-.91.21-.06.01-.1.04-.14.06,4.95-5.02,11.37-8.56,18.03-10.81ZM120.29,118.61c.98-1.33,2.05-2.59,3.2-3.76-.18.19-.09.53.15.63-.13.13-.26.25-.39.39-.69.53-1.33,1.13-1.89,1.83-.4.5-.76,1.03-1.06,1.59,0-.23-.01-.46-.02-.69ZM395.5,480.12c-.12-.08-.24-.16-.36-.24.13-.12.25-.24.38-.36.06.05.12.1.19.15-.07.15-.13.3-.2.45ZM383.68,437c3.91,1.42,7.21,4.24,9.45,7.72,1.57,2.43,2.64,5.13,3.32,7.94-.42-1.25-.88-2.49-1.42-3.69-1.27-2.85-2.97-5.61-5.41-7.61-2.83-2.33-6.39-3.29-10.03-2.93-4.25.43-8.21,2.27-12.01,4.13-1.23.6-2.45,1.22-3.67,1.86.04-.06.08-.11.13-.17,1.27-1.62,2.71-3.15,4.32-4.44,2.11-.61,4.07-1.64,5.72-3.1,3.13-.94,6.47-.81,9.57.32ZM371.21,437c-1.12.57-2.18,1.28-3.17,2.06-2.85.79-5.95.82-8.87.33-.18-.03-.36-.07-.54-.1,4.2-.76,8.39-1.52,12.59-2.29ZM350.29,437.21c5.02,2.49,10.7,3.98,16.32,3,.03,0,.06-.01.09-.02-.74.68-1.44,1.4-2.1,2.15-.82.94-1.57,1.92-2.29,2.93-1.21.65-2.4,1.32-3.59,2-.41-.63-.84-1.25-1.29-1.86-3.01-4.05-6.78-7.49-10.96-10.29,1.25.73,2.52,1.44,3.82,2.09ZM356.93,461.71c0-.93.08-1.86.19-2.78.65-.6,1.3-1.19,1.96-1.79.71-.65,1.42-1.31,2.14-1.96.35,1.56.59,3.14.67,4.73-1.65.6-3.31,1.2-4.96,1.8ZM361.25,460.98c-1.41.77-2.84,1.49-4.28,2.18-.01-.2-.03-.41-.03-.61,1.44-.52,2.87-1.05,4.31-1.57ZM360.06,455.17c-.93.84-1.85,1.7-2.78,2.54.23-1.31.56-2.6,1-3.85.23-.47.48-.93.71-1.4.46-.11.92-.21,1.38-.31.24.71.45,1.44.63,2.17-.32.28-.64.57-.96.86ZM359.46,451.55c.14-.26.26-.52.4-.78.05.1.11.19.16.29.04.11.07.23.11.34-.22.05-.45.1-.67.15ZM359.86,449.15c-.23-.41-.48-.8-.72-1.2.74-.42,1.48-.84,2.22-1.25-.52.8-1.02,1.62-1.5,2.45ZM342.87,432.93c-2.53-1.4-5.17-2.59-7.87-3.6-.27-.48-.52-.98-.74-1.48,2.97,1.52,5.78,3.31,8.61,5.08ZM317.96,425.72c5.6.98,11.16,2.29,16.5,4.26.72,1.26,1.6,2.42,2.59,3.47-9.24-2.98-18.57-5.69-27.98-8.08-2.76-.7-5.54-1.38-8.31-2.03,5.75.66,11.51,1.37,17.21,2.37ZM258.26,416.24c2.63.37,5.26.75,7.88,1.16,6.76,1.06,13.5,2.28,20.21,3.63-6.26-.6-12.53-1.13-18.8-1.57-3.1-.21-6.19-.4-9.29-.57v-2.66ZM258.26,431.84c8.61-.07,17.22,0,25.82.19,8.64.19,17.28.51,25.92.97,2.11.11,4.22.23,6.33.36.51.03.51-.76,0-.79-8.73-.52-17.46-.91-26.2-1.17-8.74-.26-17.48-.38-26.22-.37-1.88,0-3.77.01-5.65.03v-11.37c6.4.36,12.79.79,19.18,1.32,5.45.45,10.88.99,16.32,1.57,2.32.51,4.63,1.02,6.94,1.56,11.49,2.7,22.87,5.83,34.11,9.4,1.18.37,2.35.77,3.53,1.16,1.8,1.58,3.9,2.82,6.19,3.6.48.17.69-.6.21-.76-1.49-.51-2.89-1.23-4.19-2.11.8.27,1.61.52,2.41.79.48.16.69-.6.21-.76-1.48-.5-2.96-.97-4.44-1.45-1.17-1.05-2.21-2.24-3.07-3.56.32.13.65.25.97.38,5.35,2.19,10.38,5.16,14.68,9.05,2.55,2.3,4.83,4.92,6.71,7.8-1.28.75-2.56,1.51-3.82,2.3-.43.27-.03.95.4.68,1.27-.79,2.56-1.56,3.85-2.32.28.45.56.91.82,1.38-.39.69-.73,1.4-1.04,2.12-1.49.34-2.97.7-4.45,1.06-.49.12-.28.88.21.76,1.28-.31,2.58-.63,3.87-.93-.1.27-.21.53-.3.8-.01.02-.02.05-.03.07-.01.03-.02.06-.02.09-.55,1.58-.93,3.21-1.15,4.87-1.99,1.82-3.99,3.64-5.98,5.47.15-.23.31-.45.45-.68,1.16-1.81,2.18-3.71,3.05-5.67.2-.46-.48-.86-.68-.4-1.15,2.59-2.57,5.03-4.19,7.31-6.63,2.39-13.28,4.75-19.94,7.04-1.43.49-2.86.97-4.29,1.45-4.25.73-8.53,1.31-12.82,1.76-8.98.95-18,1.38-27.03,1.69-1.84.06-3.68.11-5.52.17.3-.26.61-.52.89-.8,2.57-2.49,4.42-5.92,4.6-9.53.16-3.08-1.08-6.14-3.37-8.22-2.11-1.91-4.87-2.92-7.63-3.42-3.09-.56-6.27-.56-9.39-.3-.25.02-.5.06-.75.08-1.82-.52-3.69-.85-5.52-1.1v-21.57ZM356.15,461.99c-1.32.48-2.63.96-3.95,1.43l4.03-3.69c-.06.75-.09,1.5-.09,2.26ZM356.21,463.53c-2.58,1.22-5.21,2.34-7.89,3.34.28-.36.55-.73.82-1.1.14.11.34.14.51-.01.34-.32.69-.63,1.03-.95,1.48-.53,2.96-1.06,4.43-1.59.35-.13.7-.26,1.05-.38.01.23.02.46.04.7ZM59.11,494.63c9.78,1.84,19.69,2.9,29.62,3.56,3.42.23,6.84.4,10.27.55,5.75,1.03,11.5,2.01,17.27,2.91,6.6,1.03,13.22,1.97,19.85,2.83,6.66.86,13.32,1.63,20,2.32,2.84.29,5.68.56,8.52.82-3.49-.13-6.99-.27-10.48-.43-6.31-.28-12.63-.6-18.94-.93-5.66-.3-11.33-.62-16.99-1-5.68-.39-11.36-.85-17.03-1.43-5.68-.58-11.35-1.27-16.99-2.14-5.58-.86-11.14-1.88-16.65-3.13-5.45-1.23-10.86-2.68-16.18-4.4-2.85-.92-5.67-1.93-8.46-3.01,1.05.17,2.09.35,3.14.51,4.31,1.17,8.66,2.16,13.05,2.99ZM54.97,492.99c4.11.59,8.22,1.16,12.33,1.68,7.79.98,15.61,1.82,23.43,2.54.83.16,1.65.31,2.48.47-8.77-.49-17.53-1.24-26.23-2.53-4.02-.6-8.03-1.31-12.01-2.16ZM90.73,496.42c-3.07-.59-6.13-1.19-9.19-1.81-6.58-1.34-13.13-2.77-19.67-4.29-6.51-1.51-12.99-3.1-19.46-4.78-1.6-.42-3.2-.84-4.8-1.26-.49-.13-.7.63-.21.76,6.48,1.73,12.99,3.38,19.52,4.93,6.53,1.56,13.08,3.03,19.64,4.41,2.04.43,4.08.84,6.12,1.25-2.16-.22-4.32-.45-6.48-.69-10.01-1.13-19.99-2.48-29.94-4.05-2.71-.74-5.4-1.54-8.06-2.43-2.2-.74-4.38-1.54-6.53-2.4-1.72-1.5-3.45-3.01-5.01-4.65,9.34,1.65,18.77,2.85,28.17,4.1,9.9,1.32,19.82,2.57,29.74,3.73,5.36.63,10.72,1.22,16.09,1.79,11.15,2.59,22.29,5.33,33.54,7.48.66.13,1.32.24,1.97.36-2.83-.04-5.65-.08-8.48-.13-2.64-.05-5.28-.1-7.93-.15-2.27-.13-4.55-.26-6.82-.41-7.41-.48-14.82-1.08-22.22-1.77ZM25.68,483.02c-1.54-.86-3.06-1.76-4.56-2.69,1.08.22,2.16.44,3.24.65.42.69.86,1.37,1.31,2.04ZM25.45,481.23c1.17,1.31,2.46,2.52,3.77,3.7-.66-.34-1.32-.69-1.97-1.05-.63-.86-1.23-1.75-1.8-2.65ZM27.08,484.97c.43.57.87,1.14,1.33,1.69.38.46.78.92,1.18,1.37-2.58-.47-5.15-.96-7.72-1.47-.52-.81-1.01-1.64-1.46-2.5-.64-1.22-1.18-2.49-1.65-3.79,2.59,1.84,5.43,3.37,8.33,4.7ZM28.61,485.66c.53.23,1.05.45,1.58.66.45.23.91.45,1.36.67.65.57,1.29,1.15,1.92,1.74-.87-.15-1.73-.31-2.59-.46-.79-.84-1.54-1.71-2.27-2.61ZM34.51,489.72c1.58,1.55,3.04,3.22,4.17,5.13-2.47-1.63-4.76-3.51-6.84-5.6.89.16,1.78.31,2.67.46ZM34.08,488.21c.74.35,1.48.69,2.23,1.03-.47-.08-.94-.17-1.4-.25-.27-.26-.55-.52-.82-.78ZM107.55,491.81c-.19-.04-.38-.09-.57-.13,2.47.25,4.94.52,7.41.76,6.62.64,13.24,1.23,19.86,1.77,8.09,1.21,16.21,2.24,24.35,3.02,8.83.85,17.7,1.43,26.57,1.68,9.07.25,18.15.11,27.22-.23,1.05-.04,2.1-.09,3.16-.14-3.86.34-7.72.59-11.58.81-3.89-.01-7.78-.03-11.68-.04-10.77-.03-21.53-.07-32.3-.15-6.25-.05-12.51-.12-18.76-.2-11.33-1.81-22.5-4.56-33.68-7.14ZM147.62,495.23c8.88.63,17.76,1.17,26.65,1.59,10,.47,20.01.81,30.01.98,2.53.04,5.06.08,7.6.1-6.7.25-13.41.4-20.11.34-8.85-.08-17.69-.5-26.51-1.21-5.89-.47-11.77-1.09-17.64-1.8ZM264.08,496.84s0,0,0,0c-4.07.55-8.16.98-12.26,1.32-9.64.79-19.32,1.06-28.99,1.16-2.48.02-4.95.04-7.43.04.08,0,.16-.01.25-.02,4.32-.38,8.63-.86,12.94-1.42.05,0,.11,0,.17,0,1.82-.02,3.63-.03,5.45-.06,9.97-.16,19.93-.48,29.88-1ZM256.06,496.42c3.73-.2,7.47-.4,11.21-.61,1.71-.09,3.43-.19,5.14-.28-.08.01-.16.03-.24.04-.24.02-.48.03-.71.05-5.13.32-10.26.58-15.39.79ZM179.26,500.05c-8.14.06-16.27,0-24.41-.16,8.14.07,16.27.12,24.41.16ZM177.82,500.85c8.87-.04,17.75-.23,26.62-.72,3.83,0,7.67.01,11.5,0,9.73-.02,19.47-.15,29.19-.72,9.09-.53,18.16-1.46,27.13-3.05,4.84-.31,9.67-.67,14.51-1.07-1.89.37-3.77.72-5.66,1.05-11.31,1.97-22.73,3.22-34.17,4.02-11.44.8-22.9,1.14-34.36,1.29-11.6.15-23.21.2-34.8.03-7.35-.11-14.7-.37-22.03-.98,7.36.13,14.72.18,22.09.15ZM282.59,494.2c6.46-1.57,12.82-3.55,18.98-6.05,2.14-.87,4.26-1.8,6.34-2.79.46-.22.06-.9-.4-.68-8.66,4.1-17.81,7.11-27.15,9.25-.8.18-1.61.35-2.42.53-1.37.07-2.74.15-4.11.22-9.11.49-18.22.99-27.32,1.48-3.02.16-6.04.32-9.06.49,4.61-.72,9.2-1.53,13.77-2.42,11.81-2.3,23.5-5.14,35.09-8.36,11.63-3.23,23.15-6.83,34.6-10.65,1.36-.46,2.72-.92,4.09-1.39,2.55-.44,5.1-.94,7.63-1.5,4.45-1,8.85-2.22,13.16-3.7-2.77,3.11-5.93,5.89-9.34,8.31-7.33,5.21-15.65,8.93-24.15,11.79-5.63,1.89-11.38,3.46-17.17,4.79-4.18.23-8.36.45-12.54.68ZM338.49,470.05c-2.68.73-5.38,1.37-8.09,1.94,5.95-2.05,11.88-4.16,17.81-6.29-.44.58-.9,1.15-1.37,1.71-2.75.98-5.53,1.86-8.35,2.63ZM271.62,476.9c1.85-2.33,3.17-5.1,3.56-8.04.54-4.03-.94-7.95-4.02-10.61-1.6-1.38-3.46-2.38-5.43-3.11,1.25-.08,2.49-.11,3.74-.08,2.91.09,5.92.5,8.58,1.73,2.48,1.15,4.52,3.05,5.49,5.64,1.29,3.43.38,7.19-1.55,10.19-1.04,1.62-2.38,2.97-3.89,4.11-2.16.07-4.32.11-6.48.18ZM276.92,477.55c-1.22.8-2.53,1.47-3.86,2.06-2.93,1.28-6.04,2.19-9.14,3.03,2-.83,3.88-1.93,5.52-3.41.52-.47,1.01-.99,1.48-1.52,2-.06,4-.11,6-.17ZM257.48,466.86c.04.47.78.46.78-.03v-1.55c.34-.76.64-1.55.87-2.35.25-.85.41-1.72.52-2.6.06-.5-.73-.5-.79,0-.11.94-.32,1.85-.6,2.74v-8.86c1.1.15,2.21.33,3.32.57-.51.07-1.03.14-1.54.23-.5.08-.29.84.21.76,1.15-.19,2.3-.34,3.46-.46,2.08.61,4.07,1.45,5.84,2.69,3.23,2.26,5.17,5.83,4.95,9.8-.19,3.37-1.74,6.58-3.92,9.14-5.28.15-10.55.3-15.83.43-2.14.05-4.29.1-6.43.14,1.03-.86,2.01-1.78,2.96-2.73.06-.06.12-.12.18-.18.75-.75,1.48-1.52,2.17-2.32,1.44-1.67,2.78-3.47,3.84-5.41ZM241.96,472.47c2.62-.93,5.1-2.19,7.31-3.9,1.73-1.14,3.38-2.41,4.93-3.82.68,3.5-1.02,7.15-3.58,9.58-1.57,1.49-3.46,2.52-5.49,3.25-7.21.15-14.42.29-21.63.39-2.67.04-5.35.05-8.02.08,5.02-.33,10.02-.92,14.95-1.97,3.93-.84,7.83-2.01,11.53-3.6ZM242.27,478.42c-1.48.35-2.98.6-4.44.79-4.99.66-10.03,1.04-15.05,1.33-5.13.3-10.27.45-15.41.44-10.25,0-20.5-.61-30.68-1.81-1.27-.15-2.54-.31-3.8-.47,4.05.08,8.11.14,12.16.17,10.35.08,20.7.06,31.06-.05,8.72-.08,17.44-.23,26.16-.41ZM219.99,474.14c4.82-.79,9.61-1.81,14.33-3.09-2.01.84-4.07,1.56-6.17,2.15-1.88.53-3.78.96-5.69,1.32-1.95.08-3.89.12-5.84.13,1.13-.16,2.25-.33,3.38-.51ZM210.7,475.38c.58.02,1.16.04,1.74.05,1.25.02,2.49.03,3.74.02-3.81.43-7.65.64-11.48.74-1.78.04-3.56.06-5.35.06,3.79-.18,7.57-.47,11.34-.87ZM167.73,469.34c5.87,1.44,11.79,2.67,17.76,3.63,6.41,1.03,12.86,1.76,19.34,2.15-2.39.18-4.78.32-7.17.42-8.69.36-17.39.21-26.08-.21-1.19-.06-2.38-.13-3.57-.2-.1,0-.19-.02-.29-.03v-5.77ZM167.73,476.97v-1.05c.18,0,.37.02.55.03,2.63.23,5.27.42,7.91.55,8.6.45,17.25.63,25.86.53,6.82-.08,13.68-.46,20.4-1.72,1.19-.05,2.38-.11,3.57-.19,2.74-.17,5.48-.39,8.2-.8-.29.08-.58.16-.87.24-9.09,2.37-18.55,2.94-27.9,3.05-5.58.06-11.17-.02-16.75-.09-6.22-.07-12.44-.17-18.67-.3-.79-.02-1.57-.03-2.36-.05.04-.06.06-.12.06-.21ZM167,477.16c-1.62-.03-3.23-.07-4.85-.1-4.13-.72-8.25-1.54-12.34-2.45,5.71.48,11.41.93,17.13,1.27v1.09c0,.08.02.14.05.19ZM140.94,461.2c4.29,1.54,8.61,2.99,12.97,4.33v4.92c0,.51.79.51.79,0v-4.68c1.37.42,2.74.82,4.12,1.22,1.98.56,3.96,1.1,5.95,1.61v1.12c0,.51.79.51.79,0v-.92c.46.12.92.22,1.38.34v5.88c-4.64-.44-9.26-1.06-13.84-1.97-4.12-.82-8.19-1.87-12.17-3.21v-8.65ZM140.94,470.68c2.88.96,5.82,1.78,8.78,2.46,1.86.43,3.73.79,5.6,1.12-3.27-.26-6.55-.53-9.82-.82-.32-.03-.65-.06-.97-.09-1.2-.29-2.4-.6-3.59-.92v-1.76ZM132.24,467.23c2.57,1.2,5.21,2.26,7.9,3.19v1.82c-2.65-.7-5.28-1.44-7.9-2.22v-2.79ZM132.24,470.84c2.44.72,4.88,1.42,7.34,2.08-.21-.02-.43-.04-.64-.06-2.07-.19-4.16-.42-6.17-.97-.18-.05-.35-.11-.53-.17v-.87ZM132.24,472.57c2.55.74,5.29.96,7.9,1.19v1.03c0,.51.79.51.79,0v-.96c1.14.1,2.29.2,3.43.31,4.21,1.03,8.45,1.96,12.7,2.78-1.58-.05-3.16-.08-4.74-.14-4.58-.17-9.16-.48-13.69-1.16-2.13-.32-4.28-.74-6.39-1.27v-1.77ZM132.24,475.16c.82.2,1.64.39,2.47.56.97.2,1.95.37,2.93.53-1.36-.11-2.73-.22-4.09-.34-.44-.04-.88-.09-1.32-.13v-.62ZM131.54,476.48c.14.16.4.18.56.05,7.86.75,15.73,1.29,23.62,1.64,3.54.16,7.08.27,10.63.37,2.48.39,4.96.75,7.44,1.07,10.35,1.33,20.77,2.05,31.2,2.15,10.4.1,20.82-.39,31.16-1.56,3.04-.34,6.17-.8,9.08-1.84.25,0,.5,0,.75-.01-4.92,3.75-10.53,6.56-16.4,8.51-6.4,2.13-13.12,3.27-19.85,3.55-8.19.34-16.4-.53-24.45-2.03-8.21-1.53-16.27-3.72-24.29-6.03-.97-.28-1.95-.56-2.92-.85-.49-.14-.7.62-.21.76,8.16,2.38,16.36,4.69,24.69,6.38,8.26,1.68,16.67,2.75,25.11,2.61,6.88-.11,13.77-1.1,20.37-3.08,6.51-1.96,12.77-4.92,18.21-9.03.35-.27.69-.55,1.04-.83.05,0,.11,0,.16,0,7.46-.17,14.92-.36,22.37-.57-.07.07-.13.15-.2.22-3.21,3.24-7.5,4.89-11.94,5.57-5.59.87-11.31.26-16.89-.34-.5-.05-.5.74,0,.79,5.24.57,10.55,1.11,15.81.49.24-.03.48-.07.72-.1-7.28,1.85-14.62,3.44-22.02,4.73-8.74,1.52-17.55,2.64-26.39,3.36-8.78.72-17.6,1.04-26.41.97-8.81-.07-17.62-.54-26.39-1.41-8.83-.87-17.61-2.15-26.32-3.83-4.12-.8-8.24-1.64-12.31-2.68-3.41-.88-6.83-1.97-9.87-3.79-3.05-1.82-5.57-4.42-6.85-7.78-.25-.65-.43-1.3-.59-1.97,3.73.74,7.47,1.4,11.22,1.99,4.52,4.36,9.89,7.82,15.74,10.09,3.42,1.32,7,2.2,10.64,2.63.02,0,.03,0,.05,0,0,0,0,0,0,0,.04,0,.07.01.1.02.13.02.23-.05.3-.14.63.1,1.26.18,1.89.23.42.03.49-.53.2-.74-4.31-2.95-8.82-6.07-12.44-9.94,1.22.13,2.45.24,3.67.36ZM99.97,471.13c-.55-2.86-.43-5.84-.08-8.72.18-1.5.44-2.98.71-4.47,2.21,5.63,5.58,10.76,9.8,15.07-1.94-.31-3.87-.64-5.8-.99-1.55-.28-3.1-.58-4.65-.89ZM118.57,469.31c.51,1.83,1.25,3.57,2.18,5.2-.11-.01-.22-.03-.34-.04-.3-.5-.58-1.01-.83-1.53-.61-1.25-1.07-2.55-1.39-3.89.13.09.25.18.38.26ZM117.96,467.91c-.11-.61-.18-1.23-.23-1.85.06.02.12.05.19.07.09.68.2,1.35.35,2.02-.11-.08-.21-.16-.31-.24ZM123.78,477.53c-.55-.65-1.06-1.33-1.52-2.04,1.38.17,2.76.33,4.14.49.11.01.22.02.33.03.61.68,1.25,1.34,1.9,1.98,3.04,2.95,6.48,5.44,9.96,7.85-5.74-.83-11.08-3.88-14.82-8.31ZM125.06,480.02c-1.57-1.37-2.96-2.95-4.11-4.69.1.01.21.03.31.04,1.07,1.7,2.34,3.26,3.8,4.65ZM125.21,472.89c2.03.84,4.12,1.51,6.25,2.06v.75c-1.46-.14-2.91-.28-4.37-.44-.67-.76-1.29-1.55-1.88-2.37ZM125.98,475.14c-1.42-.16-2.84-.33-4.26-.51-.87-1.46-1.57-3.01-2.09-4.62.77.49,1.56.96,2.38,1.39.61.32,1.23.61,1.85.9.65.99,1.36,1.93,2.12,2.84ZM119.94,475.2c1.43,2.31,3.27,4.37,5.39,6.08,1.36,1.09,2.84,2.05,4.39,2.85-3.5-1.13-6.86-2.68-9.98-4.62-2.49-1.54-4.82-3.33-6.98-5.32,2.39.37,4.78.7,7.18,1.01ZM131.45,470.6v.85c-1.24-.46-2.44-1.1-3.47-1.91,1.15.36,2.32.7,3.47,1.05ZM126.18,468.97c.64.72,1.38,1.35,2.17,1.87.97.64,2.02,1.11,3.11,1.49v1.82c-2.42-.65-4.8-1.45-7.07-2.48-.44-.68-.85-1.39-1.22-2.12-.31-.62-.58-1.24-.83-1.88,1.28.44,2.56.88,3.85,1.3ZM121.36,467.35c.09.25.17.49.27.73.42,1.03.91,2.02,1.47,2.97-1.32-.65-2.59-1.39-3.81-2.21-.21-.79-.38-1.6-.51-2.41.86.31,1.73.61,2.59.91ZM120.75,457.99c-.6,2.83-.49,5.69.31,8.43-.81-.28-1.61-.57-2.41-.86-.25-2.1-.23-4.25.09-6.36.02-.12.04-.23.06-.34.9-2.5,2.3-4.82,4.11-6.75.21-.22.43-.43.65-.64-1.37,1.95-2.33,4.24-2.81,6.52ZM127.11,447.92c-3.03,1.6-5.58,4.13-7.37,7.12.74-2.18,1.79-4.26,3.14-6.14.3-.41-.39-.81-.68-.4-2.16,3-3.55,6.49-4.16,10.12-.19.51-.36,1.03-.5,1.56-.42,1.57-.62,3.18-.62,4.78-1.17-.43-2.34-.87-3.5-1.31-.29-.35-.59-.7-.86-1.06-.3-.4-.99,0-.68.4,1.55,2.03,3.36,3.81,5.36,5.36.21,1.14.52,2.27.95,3.37.35.91.77,1.78,1.24,2.63-2.56-.34-5.12-.7-7.68-1.1-2.22-2.16-4.23-4.54-5.96-7.1-2.04-3.02-3.71-6.29-4.93-9.73-.12-.33-.68-.41-.76,0-.9,4.67-1.75,9.84-.93,14.57-7.71-1.57-15.35-3.47-22.86-5.79-2.16-.67-4.31-1.37-6.45-2.11-.06-5.85,5.78-9.19,10.64-10.93,3.28-1.17,6.71-1.8,10.11-2.51,4.23-.88,8.47-1.72,12.72-2.53,7.91-1.51,15.84-2.91,23.78-4.19v5.01ZM117.06,467.21c-.82-.67-1.62-1.39-2.37-2.17-.04-.04-.08-.09-.12-.13.79.3,1.58.57,2.37.86.02.48.06.96.12,1.44ZM127.11,442.11c-6.41,1.04-12.8,2.15-19.18,3.33-4.31.8-8.62,1.63-12.92,2.5-2.13.43-4.27.87-6.4,1.31-1.75.36-3.5.71-5.22,1.17-2.89.77-5.76,1.83-8.31,3.4-2.26,1.39-4.35,3.26-5.38,5.76-.49,1.2-.69,2.48-.64,3.77,0,.18.12.32.29.38,9.22,3.18,18.66,5.72,28.2,7.72.6.13,1.2.24,1.8.36.56,2.53,1.62,4.92,3.48,7.03,2.31,2.62,5.44,4.36,8.67,5.62,3.56,1.39,7.31,2.22,11.03,3.04,8.85,1.94,17.8,3.46,26.79,4.57,8.99,1.1,18.03,1.78,27.09,2.05,9.06.26,18.12.11,27.16-.46,9.05-.57,18.07-1.56,27.02-2.96,8.95-1.4,17.84-3.21,26.62-5.44,4.24-1.07,8.5-2.16,12.64-3.56,2.99-1.01,5.97-2.29,8.53-4.16.14,0,.28,0,.42-.01,9.08-.27,18.16-.58,27.21-1.33,4.8-.39,9.59-.91,14.36-1.61-8.55,2.85-17.13,5.58-25.78,8.11-11.52,3.38-23.14,6.43-34.87,8.98-10.27,2.23-20.62,4.09-31.04,5.45-.02,0-.04,0-.06,0-5.65.05-11.3.05-16.95,0-9.98-.1-19.95-.35-29.92-.75-10.01-.4-20.01-.95-30.01-1.62-5.81-.39-11.62-.83-17.43-1.31-7.29-1.09-14.56-2.33-21.81-3.69-8.76-1.65-17.48-3.47-26.17-5.42-8.68-1.94-17.33-4-25.96-6.13-8.63-2.13-17.24-4.32-25.84-6.53-2.1-.54-4.2-1.08-6.31-1.62-.49-.13-.7.63-.21.76,8.63,2.22,17.26,4.43,25.91,6.6,8.66,2.16,17.33,4.27,26.02,6.28,8.69,2,17.4,3.89,26.14,5.62,5.79,1.15,11.6,2.21,17.43,3.2-.55-.05-1.1-.1-1.66-.15-7.04-.64-14.08-1.36-21.11-2.11-9.46-2.18-18.92-4.37-28.38-6.55-11.73-2.71-23.46-5.41-35.19-8.12-2.82-.65-5.64-1.3-8.46-1.95-.49-.11-.71.65-.21.76,11.79,2.72,23.59,5.44,35.38,8.16,10.1,2.33,20.2,4.66,30.3,6.99-.72-.08-1.44-.15-2.16-.23-9.93-1.11-19.85-2.32-29.76-3.61-9.75-1.26-19.51-2.53-29.22-4.03-2.42-.37-4.84-.78-7.25-1.22-.43-.49-.85-1-1.24-1.53-4.94-6.67-4.93-15.5-2.17-23.05.59-1.62,1.32-3.19,2.16-4.7-.02.13-.04.27-.05.4-.52,4.78.31,9.62-.38,14.39-.32,2.22-1.01,4.36-2.31,6.2-.29.42.39.81.68.4,2.74-3.9,2.75-8.84,2.66-13.41-.06-3.23-.22-6.67.52-9.87.62-1,1.41-2.24,2.39-3.04.69-.29,1.39-.57,2.09-.84.12,0,.24,0,.36.02.23.03.35-.12.37-.3,1.44-.55,2.9-1.06,4.36-1.55,5.18-1.73,10.47-3.11,15.77-4.42,6.72-1.67,13.46-3.23,20.23-4.7,6.77-1.47,13.55-2.83,20.36-4.09,6.78-1.26,13.57-2.41,20.38-3.47,5.04-.78,10.08-1.49,15.13-2.16v17.39ZM19.83,468.47c-1.47-5.38-1.98-11.01-1.36-16.56.04-.32.08-.65.12-.98.77-.46,1.55-.91,2.35-1.33,1.45-.78,2.94-1.51,4.44-2.19-.18.52-.32,1.05-.45,1.58-.9,1.4-1.69,2.86-2.37,4.38-1.72,3.83-2.77,8-2.85,12.21-.02.97.02,1.93.12,2.9ZM39.49,437.37c5.55-1.94,11.15-3.75,16.77-5.46,11.23-3.42,22.59-6.4,34.05-8.95,11.52-2.56,23.13-4.69,34.8-6.37.66-.1,1.33-.18,1.99-.27v7.61c-1.85.24-3.69.48-5.54.74-6.92.97-13.82,2.05-20.71,3.23-6.85,1.17-13.69,2.45-20.51,3.83-6.85,1.38-13.67,2.87-20.48,4.46-6.12,1.43-12.25,2.88-18.3,4.6-3.9,1.11-7.76,2.36-11.55,3.82-.88.02-1.65.4-2.33.94-.27.11-.54.21-.8.32.11-.2.21-.4.33-.59,2.63-4.35,7.7-6.32,12.27-7.91ZM29.72,441.33c-1.28,1.03-2.41,2.25-3.25,3.67-.26.44-.48.89-.68,1.35-2.12.94-4.2,1.97-6.22,3.1,2.89-3.24,6.45-5.82,10.15-8.13ZM17.34,452.29c.11-.16.22-.31.33-.46-.17,1.48-.24,2.98-.25,4.45-.02,2.17.13,4.34.43,6.49.84,6.09,2.9,11.99,5.98,17.31-1.52-.29-3.04-.6-4.55-.93-1.24-.81-2.47-1.64-3.69-2.49-.21-.2-.43-.39-.63-.59-1.43-1.45-2.68-3.06-3.71-4.81.01-.17.02-.34.04-.51.61-6.49,2.34-13.02,6.05-18.45ZM11.15,472.57c.8,1.21,1.69,2.34,2.67,3.39-.07.17-.05.37.13.51.38.27.76.53,1.14.79.45.43.91.85,1.38,1.25-1.83-.44-3.65-.9-5.47-1.42,0-1.51.04-3.02.15-4.52ZM11.13,480.83c-.07-.97-.11-1.94-.12-2.92,2.2.62,4.42,1.18,6.65,1.69.79,2.38,1.86,4.64,3.16,6.76-3.04-.61-6.07-1.24-9.09-1.89-.32-1.19-.5-2.41-.59-3.64ZM31.18,500.33c-5.98-1.95-11.71-5.09-15.97-9.8-1.17-1.29-2.21-2.73-2.9-4.34-.12-.29-.22-.59-.32-.88,3.13.67,6.27,1.33,9.42,1.96,2.31,3.52,5.25,6.64,8.57,9.27,2.9,2.3,6.05,4.21,9.36,5.8-2.76-.49-5.49-1.14-8.15-2.01ZM251.99,510.54c-8.42,1.17-16.93,1.45-25.42,1.6-9.4.17-18.8.25-28.21.28-9.48.03-18.96-.01-28.44-.12s-18.96-.28-28.44-.52c-9.48-.24-18.95-.55-28.43-.92s-18.94-.82-28.41-1.32c-8.94-.48-17.93-.85-26.76-2.36-4.27-.73-8.5-1.76-12.58-3.21.76.08,1.53.15,2.29.21.8.06,1.61.11,2.41.16.51.03.51-.76,0-.79-2.57-.14-5.14-.38-7.69-.73-2.47-1.02-4.87-2.2-7.16-3.61-4.93-3.02-9.39-6.95-12.68-11.72,2.67.53,5.35,1.03,8.02,1.52,2.68,2.82,5.72,5.3,9.05,7.33.36.22.7-.2.54-.54-1.07-2.23-2.55-4.12-4.22-5.84,1.17.2,2.33.41,3.5.61,1.35.56,2.7,1.1,4.06,1.62,5.22,2,10.56,3.7,15.95,5.16,5.48,1.48,11.02,2.71,16.6,3.75,5.59,1.04,11.21,1.88,16.84,2.58,5.71.71,11.44,1.28,17.17,1.75,5.69.47,11.39.85,17.09,1.18,6.06.35,12.12.66,18.18.96,6.35.31,12.71.6,19.07.84,5.47.21,10.95.38,16.43.51,5.19.36,10.39.69,15.59.94,6.7.33,13.41.57,20.12.72s13.42.21,20.13.18c1.65,0,3.31-.02,4.96-.04.51,0,.51-.8,0-.79-6.71.07-13.42.05-20.13-.05-6.71-.11-13.42-.3-20.13-.59-.89-.04-1.78-.09-2.68-.13,1.34,0,2.68.02,4.02.02,6.36-.01,12.73-.11,19.08-.3,6.37-.2,12.74-.5,19.1-.92,6.31-.42,12.61-.96,18.9-1.65,4.98-.54,9.94-1.18,14.9-1.91-7.18,3.19-14.88,5.08-22.66,6.16ZM351.07,479.41c-3.52,3.29-7.8,5.69-12.18,7.65-5.11,2.29-10.5,3.99-15.84,5.66-5.99,1.87-12.04,3.53-18.13,5.01-6.09,1.48-12.22,2.77-18.38,3.9-6.19,1.13-12.41,2.09-18.66,2.9-6.26.81-12.55,1.47-18.84,2-6.28.53-12.58.93-18.88,1.22-6.32.29-12.64.47-18.97.56-6.34.09-12.68.09-19.02.02-3.89-.04-7.77-.12-11.66-.22-6.43-.45-12.86-.98-19.29-1.59-6.68-.64-13.35-1.37-20.02-2.18-6.69-.82-13.37-1.73-20.04-2.72-5.45-.81-10.88-1.7-16.31-2.63,4.78.16,9.56.28,14.34.38.12,0,.24,0,.37,0,7.07.4,14.15.73,21.23.96,1.86.06,3.73.11,5.59.16,1.79.23,3.57.45,5.37.64,5.92.6,11.87.95,17.82,1.15,11.71.39,23.43.31,35.14.24,11.56-.07,23.12-.29,34.67-.9,11.48-.61,22.94-1.63,34.31-3.29,1.88-.28,3.75-.58,5.63-.89-2.91.58-5.81,1.15-8.72,1.7-7.27,1.37-14.57,2.63-21.89,3.71-7.32,1.09-14.68,1.99-22.05,2.64-7.32.65-14.66,1.05-22,1.12-7.34.07-14.69-.18-22-.83-1.79-.16-3.59-.34-5.38-.55-.5-.06-.5.73,0,.79,7.33.85,14.71,1.29,22.09,1.37,7.37.09,14.75-.17,22.1-.7,7.35-.53,14.68-1.33,21.99-2.31,7.33-.99,14.63-2.18,21.91-3.49,7.32-1.32,14.62-2.76,21.91-4.25,3.94-.81,7.89-1.63,11.83-2.45.71-.07,1.42-.13,2.13-.21.2-.02.32-.17.36-.32,2.34-.5,4.68-.99,7.01-1.5,6.68-1.46,13.34-3.07,19.78-5.34,6.24-2.2,12.14-5.09,17.66-8.74,3.79-2.51,7.41-5.26,11.01-8.05-1.08,3.62-3.24,6.78-6.03,9.38ZM361.01,468.74c-.56-.04-1.1-.23-1.55-.53.58-.45,1.17-.9,1.75-1.35.09-.07.18-.13.26-.2-.13.7-.28,1.4-.46,2.09ZM361.65,465.53c-.93.71-1.86,1.43-2.79,2.15-.24-.27-.44-.59-.58-.94-.18-.47-.94-.27-.76.21.07.2.16.39.26.57-.07.04-.13.12-.15.24-.06.35-.14.7-.22,1.05-2.58,2-5.17,4-7.83,5.91-5.26,3.79-10.8,7.11-16.8,9.6-6.31,2.62-12.91,4.45-19.54,6.01-4.51,1.06-9.05,2.02-13.59,2.96-.1,0-.2.01-.3.02,2.54-.64,5.06-1.32,7.57-2.05,8.65-2.52,17.17-5.79,24.94-10.39,5.78-3.42,11.16-7.64,15.48-12.78,3.04-1.09,6.02-2.31,8.95-3.68.05.48.11.96.19,1.43.08.5.85.29.76-.21-.09-.52-.15-1.05-.2-1.57.23-.11.46-.21.69-.32,1.42-.7,2.82-1.44,4.2-2.21,0,1.34-.09,2.69-.28,4.02ZM361.93,453.53c-.21-.53-.42-1.06-.65-1.57,1.27-.27,2.55-.52,3.83-.74-1.12.68-2.17,1.47-3.18,2.31ZM369.32,449.46c-.66.15-1.29.36-1.91.61-2.17.31-4.33.71-6.48,1.16-.06-.12-.11-.23-.17-.35-.13-.34-.27-.68-.41-1.02.77-1.37,1.6-2.71,2.5-4,1.04-.56,2.08-1.11,3.13-1.64,3.77-1.91,7.65-3.89,11.82-4.74,3.64-.74,7.4-.32,10.49,1.83,2.5,1.74,4.27,4.35,5.6,7.05,1.58,3.22,2.58,6.7,3.44,10.17-1.97-2.26-4.42-4.14-7.08-5.56-4.76-2.53-10.01-3.48-15.3-3.49-1.85-.39-3.76-.46-5.63-.04ZM392.4,461.51c-1.53-1.35-3.29-2.4-5.19-3.09-2.05-2.95-4.54-5.54-7.8-7.28-.53-.28-1.09-.53-1.65-.76.37.02.74.04,1.11.07,6.45.61,12.84,3.23,17.34,7.99,2.38,2.52,4.09,5.61,4.75,9.02.05.24.34.34.55.25-.74,2.85-1.98,5.57-3.69,7.98-.07.09-.14.18-.21.28.2-1.2.27-2.41.19-3.63-.27-4.17-2.27-8.08-5.4-10.83ZM397.22,477.71c3.47-4.11,5.53-9.37,5.83-14.75.43-2.77.22-5.63-.52-8.36-1.2-4.46-3.69-8.42-6.92-11.68-3.35-3.38-7.39-6.01-11.58-8.24-4.32-2.31-8.85-4.42-13.59-5.72-.39-.11-.79-.21-1.19-.3,6.16-.88,12.49-1.76,18.68-.66,5.02.89,9.99,3.13,13.28,7.14,3.44,4.19,4.44,9.79,4.39,15.08-.01,1.13-.07,2.26-.16,3.39-.34-1.48-.78-2.93-1.34-4.34-1.41-3.56-3.47-6.83-6.11-9.6-.35-.37-.91.19-.56.56,4.05,4.25,6.72,9.76,7.63,15.55-.7-1.8-1.53-3.56-2.45-5.26-2.2-4.05-4.88-7.82-7.56-11.56-.29-.41-.98-.02-.68.4,4.11,5.73,8.36,11.68,10.58,18.44-.47,3.05-1.18,6.07-2.05,9-1.37,4.57-3.23,8.98-5.53,13.15-.25-.17-.49-.34-.73-.53.22-.56.42-1.13.58-1.71ZM405.41,459.79c.07,5.76-1.65,11.45-4.84,16.27-.33.5-.68.99-1.05,1.46,1.39-2.82,2.59-5.73,3.57-8.71.97-2.94,1.75-5.96,2.32-9.02ZM396.33,480.19c.18.13.36.26.54.39-.08.08-.15.15-.23.22-.16-.08-.32-.17-.48-.26.06-.12.12-.23.17-.35ZM396.01,483.79c.39-.62.77-1.25,1.14-1.88.04.02.09.04.13.06.45.18.92.3,1.39.41-.83.56-1.72,1.04-2.67,1.41ZM402.79,478.28c-.77,1.12-1.68,2.14-2.7,3.03-.68-.24-1.34-.53-1.96-.89,3.05-3.26,5.37-7.19,6.73-11.45.67-2.1,1.08-4.27,1.26-6.45.81,5.45-.16,11.16-3.32,15.77Z"/>
    <path d="M137.97,251.73v191.92c0,.51.79.51.79,0v-191.92c0-.51-.79-.51-.79,0Z"/>
    <path d="M148.84,337.19v119.5c0,.51.79.51.79,0v-119.5c0-.51-.79-.51-.79,0Z"/>
    <path d="M159.7,392.23v68.8c0,.51.79.51.79,0v-68.8c0-.51-.79-.51-.79,0Z"/>
    <path d="M143.77,309.67v84.74c0,.51.79.51.79,0v-84.74c0-.51-.79-.51-.79,0Z"/>
    <path d="M250.95,243.77v81.11c0,.51.79.51.79,0v-81.11c0-.51-.79-.51-.79,0Z"/>
    <path d="M247.33,272.73v94.87c0,.51.79.51.79,0v-94.87c0-.51-.79-.51-.79,0Z"/>
    <path d="M243.71,308.22v97.05c0,.51.79.51.79,0v-97.05c0-.51-.79-.51-.79,0Z"/>
    <path d="M210.37,65.21c-8.52,3.12-15.82,9.3-20.4,17.13-1.28,2.2-2.35,4.52-3.17,6.92-.1.29.13.47.37.48-.04.05-.07.09-.11.14-.31.4.38.8.68.4,5.29-6.93,10.63-13.92,17.15-19.76,1.83-1.64,3.75-3.18,5.77-4.59.34-.24.15-.89-.3-.72ZM191.63,83.97c-1.31,1.67-2.6,3.36-3.89,5.05,2.93-8.19,8.77-15.27,16.18-19.81,1.2-.74,2.45-1.4,3.72-1.99-6.1,4.78-11.22,10.68-16.01,16.76Z"/>
  </g>
</svg>