<?xml version="1.0" encoding="UTF-8"?>
<svg id="tabeltop" xmlns="http://www.w3.org/2000/svg" xmlns:xlink="http://www.w3.org/1999/xlink" viewBox="0 0 1920 454.9">
  <defs>
    <style>
      .cls-1 {
        fill: #b2a2a1;
      }

      .cls-1, .cls-2 {
        opacity: .57;
      }

      .cls-3 {
        opacity: .76;
      }

      .cls-3, .cls-4 {
        fill: #6b5d51;
      }

      .cls-5 {
        fill: #d3cccb;
      }

      .cls-5, .cls-6 {
        opacity: .44;
      }

      .cls-7 {
        fill: #512f18;
        opacity: .47;
      }

      .cls-4, .cls-8 {
        opacity: .42;
      }

      .cls-9 {
        fill: #705c5a;
        opacity: .45;
      }

      .cls-6 {
        fill: #77615a;
      }

      .cls-8 {
        fill: #877163;
      }

      .cls-10 {
        fill: url(#linear-gradient);
      }
    </style>
    <linearGradient id="linear-gradient" x1="948.87" y1="476.94" x2="948.87" y2="117.4" gradientUnits="userSpaceOnUse">
      <stop offset="0" stop-color="#a4a090"/>
      <stop offset=".23" stop-color="#9f9a8a"/>
      <stop offset=".53" stop-color="#92897b"/>
      <stop offset=".87" stop-color="#7c6f62"/>
      <stop offset="1" stop-color="#736357"/>
    </linearGradient>
  </defs>
  <rect class="cls-10" x="-84.81" y="117.4" width="2067.36" height="359.54"/>
  <path class="cls-3" d="M-84.81,146.13l168.76-28.73s93.55,33.61,122.9,28.73,174.27,11.63,207.29,11.63,242.14-12.84,267.82-20.18,144.92,4.25,170.6,8.55,152.25-12.22,168.76-8.55,91.72,0,91.72,0l-1197.86,8.55Z"/>
  <path class="cls-4" d="M-155.76,212.61l381.55-5.95s280.66,7.34,291.67,0,210.96,16.51,240.31,16.51,225.63-33.02,238.47-33.02,220.13,7.34,225.63,7.34-1377.63,15.12-1377.63,15.12Z"/>
  <path class="cls-3" d="M365.53,168.76l608.1-11.01s88.97,25.51,116.48,21.01,392.56-21.01,392.56-21.01c0,0,166.93,25.51,172.43,21.01s221.96-10.24,221.96-10.24h80.71l-1592.25.24Z"/>
  <path class="cls-8" d="M-251.74,320.15l259.77-14.68s217.17,23.85,224.51,23.85,208.43-22.98,219.44-22.98,233.2-3.22,233.2-3.22l174.73,7.85-1111.64,9.17Z"/>
  <polygon class="cls-8" points="1274.06 236.93 1474.01 224.71 1726.54 224.71 1910.59 224.71 1972.96 209.41 2028 224.71 1274.06 236.93"/>
  <path class="cls-8" d="M786.1,381.21s343.03-4.54,348.54,0,317.35-3.06,357.71-2.02,229.47,12.05,229.47,12.05l-935.71-10.04Z"/>
  <path class="cls-8" d="M287.53,267s254.98,4.59,260.48,0,249.48,1.32,262.32,2.04,254.98,2.55,265.99,2.55,130.41-2.65,137.66-3.16-926.45-1.43-926.45-1.43Z"/>
  <path class="cls-9" d="M128.9,179.3c-4.01-6.8-15.52-2.13-18.34,2.92-7.75,13.84-7.59,11-16.49,10.62-12.46-.53-40.38,15.53-37.23,23.2,3.15,7.67,39.39,32.92,39.24,39.19-1.24,51.51,38.5,4.43,42-5.3,1.6-4.43-4.84-17.23,11.28-23.57,16.12-6.33,35.99-35.38,32.39-47.23s-12.03-2.58-22.58-3.96c-7.26-.95-26.38,10.71-30.27,4.11Z"/>
  <path class="cls-9" d="M1644.57,340.12s70.17,1.38,74.29-19.26,16.51-71.54,26.14-64.66-9.63,28.43,8.25,43.11,76.13-6.48,84.38,16.91-42.65,29.1-44.03,41.48,46.32,19.56,20.18,37.45-48.15,15.13-70.17-9.63-34.39-17.89-56.41-5.5-70.17-20.64-42.65-39.9Z"/>
  <rect class="cls-7" x="-59.13" y="117.4" width="1997.66" height="359.54"/>
  <g class="cls-2">
    <path class="cls-5" d="M334.12,17.01h0c-79.7-9.64-161.97,0-161.97,0,0,0,0,0,0,0,.06.02,70.74,17.99,161.96,0Z"/>
    <path class="cls-5" d="M258.63,82.92l75.49-65.91s-76.7,23.57-161.96,0h0s73.71,64.35,73.71,64.35l1.81,105.32s-40.17,18.64-42.74,19.28c-2.57.64,18,8.24,48.2,8.24s48.87-9.35,48.87-9.35l-43.09-18.81-.3-103.13Z"/>
  </g>
  <path class="cls-1" d="M254.47,72.25l50.73-42.62c-58.67,11.57-104.12,0-104.12,0l48.67,42.49,1.24,116.06s-26.62,13.01-28.24,13.41c-1.63.41,11.38,5.21,30.48,5.21s30.9-5.91,30.9-5.91l-28.18-12.83-1.47-115.81Z"/>
  <path class="cls-6" d="M173.56,267.26c85.1-7.58,161.96-.35,161.96-.35l-75.95-20.52-.41-32.36,42.96-6s-18.73-2.89-48.93-2.83c-30.2.07-50.72,2.49-48.15,2.69,2.58.2,42.87,5.96,42.87,5.96l-1.08,33.05-73.27,20.35s82.33,2.85,161.96-.35c-91.35-5.45-161.9.34-161.96.35Z"/>
</svg>