<?xml version="1.0" encoding="UTF-8"?>
<svg id="sketches" xmlns="http://www.w3.org/2000/svg" viewBox="0 0 647.86 577.8">
  <defs>
    <style>
      .cls-1 {
        fill: #4c4c4c;
      }

      .cls-2 {
        fill: #a0a0a0;
      }

      .cls-3 {
        fill: #aaa7a7;
      }

      .cls-4 {
        fill: #7a7a7a;
      }

      .cls-5 {
        fill: #c6c2c2;
      }
    </style>
  </defs>
  <g id="unknonw">
    <path class="cls-5" d="M125.55,327.49c-1.06-.24-2.13-.37-3.2-.4-.94,1.21-1.95,2.28-3.06,3.16-4.45,3.51-8.26,6.16-12.4,8.46-.06.21-.12.43-.18.64-.21.41-.54,1.06-.79,1.29-.51.48-.5.49-.3.33-.59.59-1.12,1.28-1.71,1.85-1.09,1.05-2.24,2.03-3.41,2.98-.22.17-.45.35-.57.44-1.08.78-2.16,1.58-3.23,2.36-8.27,6.05-15.8,12.17-20.91,21.25-4.55,8.09-7.73,16.65-12.93,24.41-5.07,7.57-10.83,14.64-16,22.14-5.34,7.73-9.92,16.06-12.75,25.06-3.53,11.23-2.08,22.64-3.37,34.11-1.03,9.19-6.04,19.7-8.49,29.29-2.76,10.78-4.44,21.9-5.26,32.99-1.1,14.78-.28,29.8,2.32,44.49,10.18-.66,20.38-.5,30.57.18-2.71-12.49-3.75-24.93-3.25-38.43.39-10.51,1.44-18.32,3.9-28.65,2.44-10.23,6.87-19.98,8.89-30.29,2.03-10.33.35-21.89,2.47-31.45.48-2.15,1.1-4.26,1.85-6.33.06-.17.4-1,.62-1.55.26-.53.67-1.41.75-1.57,2.09-4.21,4.58-8.2,7.22-12.07,4.85-7.1,10.26-13.8,15.15-20.87,5.29-7.67,8.87-15.84,13.06-24.11.5-.98,1.01-1.95,1.56-2.89.28-.49,1.61-2.41,1.97-3,.36-.38.95-1,1.07-1.12.79-.76,1.56-1.53,2.38-2.25.42-.38.86-.73,1.3-1.09-.68.59,1.5-1.19,1.94-1.51,1.79-1.32,3.6-2.61,5.38-3.95,8.98-6.76,16.83-14.16,19.9-25.41,2.07-7.56-2.57-16.65-10.48-18.45Z"/>
    <path class="cls-5" d="M257.97,23.56c-4.21-7.19-13.37-9.25-20.52-5.38-18.75,10.15-37.66,20.06-56.26,30.5-18.52,10.4-34.2,25.2-35.79,47.5-.56,7.84,7.3,15.35,15,15,8.6-.39,14.4-6.6,15-15,.12-1.86.14-2.07.06-.61.22-1.01.5-2,.83-2.97.6-1.71.7-1.94.29-.7l.74-1.37c.33-.48,2.85-4.04,2.36-3.56.96-1.11,1.99-2.17,3.06-3.18,5.15-4.87,12.91-8.87,19.89-12.66,16.65-9.02,33.3-18.03,49.95-27.05,7.12-3.86,9.38-13.69,5.38-20.52Z"/>
    <path class="cls-4" d="M42.15,575.44c4.38.53,8.76,1.1,13.13,1.68,3.45-1.23,7.09-1.9,10.76-1.9,35.4.01,70.8.58,106.19,1.48-2.73-3.12-6.36-5.56-10.74-6.95-6.12-1.94-12.13-4.14-18.09-6.51-.08-.04-.16-.08-.26-.12-1.32-.62-2.66-1.19-3.99-1.8-3.17-1.47-6.31-3.01-9.42-4.63-11.06-5.75-23.08-12.25-32.48-20.54,4.16,3.67-.23-.2-.96-.79-.83-.67-1.66-1.35-2.46-2.05-.85-.74-1.64-1.52-2.43-2.3.02-.08.03-.16.05-.25.4-1.85.74-3.71,1.17-5.55,1.06-4.59,2.35-9.12,3.82-13.6.74-2.24,1.52-4.45,2.35-6.66.5-1.32,1.01-2.64,1.54-3.95.08-.2.16-.39.24-.58,17.56-38.26,44.23-71.18,62.96-108.77,6.03-12.1,11.08-24.49,14.72-37.25,4.69,5.9,9.7,11.55,14.76,17.08,4.26,4.66,8.58,9.27,12.78,13.98,1.86,2.09,3.71,4.2,5.51,6.34,1.05,1.24,2.06,2.51,3.1,3.76.07.08.13.15.19.22.04.05.07.1.12.16,3.75,5.04,7.19,10.33,10.05,15.94.38.75,2.48,3.91,2.22,4.65,0,0-1.53-3.93-.61-1.43.3.8.63,1.59.93,2.4,1.41,3.75,2.62,7.57,3.72,11.41,4.2,14.71,6.61,29.87,10.64,44.63,4.11,15.06,10.17,29.83,18.77,42.9,16.62,25.24,40.2,45.43,66.55,60,3.6,1.99,7.25,3.88,10.93,5.69,43.27,1.53,86.54,3.11,129.81,4.81,2.6-11.73-3.61-24.36-15.74-27.54-14.1-3.69-27.96-8.21-41.5-13.61-.69-.28-4.26-1.3-4.67-1.9,2.79,1.19,3.03,1.29.73.3-.51-.22-1.03-.45-1.54-.67-3.59-1.57-7.16-3.21-10.7-4.9-6.32-3.02-12.55-6.23-18.67-9.63-12.5-6.92-24.58-14.59-36.15-22.98-1.36-.99-2.71-1.98-4.06-2.99-.78-.58-1.55-1.15-1.99-1.47-2.71-2.08-5.35-4.28-7.98-6.46-5.6-4.66-11.04-9.51-16.34-14.5-5.28-4.97-12.94-7.28-20.01-6.19-.08-.17-.15-.34-.2-.47-.68-1.89-1.32-3.8-1.92-5.72-4.42-14.06-6.87-28.63-10.38-42.92-3.71-15.13-8.93-30.28-17.21-43.56-7-11.23-15.72-21.44-24.6-31.22-4.4-4.84-8.87-9.6-13.24-14.47-2.31-2.57-4.59-5.17-6.81-7.82-.86-1.03-1.7-2.08-2.55-3.12-.22-.28-.44-.57-.65-.86-.77-1.05-1.52-2.12-2.26-3.19,10.96-.8,23.23-10.15,21.9-22.46-1.74-16.11-2.46-32.3-2.07-48.49.2-8.09.67-16.18,1.4-24.24.35-3.88.79-7.76,1.25-11.63.05-.37.09-.68.12-.94.05-.37.1-.74.16-1.11.3-2.08.62-4.15.96-6.22,2.61-15.98,6.28-31.79,10.97-47.29,2.26-7.46,4.76-14.85,7.5-22.15,1.46-3.91,2.88-7.92,4.63-11.71-.64,1.39-.9,1.96-.95,2.06.09-.2,1.3-2.83,1.51-3.3.96-2.2,1.96-4.38,2.96-6.56,3.48-7.55,3.72-16.8-.49-23.71-1.38-4.56-4.67-9.36-8.74-12.11.63-1.61,1.17-3.27,1.62-4.97.87-3.35.9-6.89.2-10.28,1.7-2.09,3.02-4.47,3.85-7.47,1.48-5.39.81-12.56-2.27-17.34-5.94-9.22-20.78-15.71-30.78-8.07-32.56,24.84-73.65,50.22-83.53,93.07-1.5,6.5-.15,13.65,3.52,19.13,0,2.71.03,5.42.04,8.14.01,7.2-.06,14.41-.22,21.61-.23,1.84-.43,3.68-.61,5.53-2.88,2.61-5,6.02-5.79,10.15-5.07,26.43-3.73,52.59-.4,78.73-1.39,11.41-3.03,22.79-5.08,34.08-3.32,18.27-8.16,36.08-17.5,52.24-9.25,15.99-21.09,30.25-31.23,45.65-10.03,15.24-18.15,31.6-24.79,48.58-14.92,38.13-20.62,80.18-16.36,120.89.17,1.6.55,3.14,1.12,4.57Z"/>
    <path class="cls-3" d="M196.33,341.36c11.34,11.9,22.69,23.8,34.03,35.71,5.21,5.46,10.45,10.9,15.61,16.4,2.24,2.39,4.47,4.79,6.61,7.26,1.07,1.23,2.1,2.5,3.16,3.74.47.64.94,1.28,1.4,1.93,1.84,2.64,3.54,5.38,5.03,8.24.24.48.48.95.73,1.43.44.94.67,1.43.7,1.47.21.79.39,1.58.55,2.14.51,1.73.81,3.5,1.26,5.24.07.27.13.49.19.69,0,.14.02.28.03.44.33,4.22.59,8.42.79,12.65.78,17.04,2.87,33.79,12.12,48.55,15.86,25.31,43.65,40.53,69.15,54.47,27.5,15.03,56.17,27.98,85.49,39.03,5,1.88,10.03,3.68,15.07,5.43,30.73,1.18,61.46,2.42,92.18,3.74,32.15,1.38,64.3,2.83,96.45,4.28-1.02-2.09-2.37-4.02-4.12-5.62-4.7-4.31-9.64-5.8-15.91-6.59-.22-.03-.42-.05-.59-.07-.06,0-.11-.02-.17-.03-1.68-.26-3.36-.5-5.04-.77-3.36-.54-6.7-1.13-10.04-1.77-6.67-1.28-13.3-2.77-19.88-4.45-13.17-3.35-26.13-7.48-38.85-12.27-3.18-1.2-6.35-2.44-9.5-3.72-.21-.08-.63-.25-1.1-.43-1.52-.59-3-1.3-4.49-1.95-5.13-2.27-10.2-4.64-15.23-7.11-.8-1.18-1.74-2.29-2.83-3.33-31.81-30.29-63.06-61.16-93.72-92.62-15.12-15.51-30.14-31.13-44.92-46.96-6.22-6.66-12.35-13.42-18.21-20.4-1.6-1.91-3.19-3.83-4.75-5.78-.12-.15-.43-.5-.78-.89-.17-.24-.43-.59-.8-1.09-2.79-3.75-5.53-7.53-8.11-11.42-2.85-4.3-5.54-8.71-7.99-13.24-1.28-2.36-2.5-4.76-3.65-7.19-.42-.88-.82-1.78-1.23-2.67,0-.02,0-.03-.02-.04-.56-1.58-1.11-3.15-1.66-4.73,12.63,6.13,26.45,10.37,39.25,15.1,11.63,4.29,23.26,8.59,34.9,12.88,11.74,4.33,23.45,8.78,35.79,11.13,9.1,1.73,17.79-.47,23.65-8.06.63-.82,1.19-1.66,1.68-2.5-6.06-6.33-9.88-14.9-9.89-23.66,0-3.27-.05-6.54-.11-9.81-1.89-3.2-3.73-6.42-5.56-9.6-1.07-1.86-2.19-3.69-3.34-5.51-.1,0-.21.02-.31.02-17.13.77-32.03-14.19-33.65-30.7-18.24-11.08-38.67-19.15-58.86-25.18-1.01-2.1-2.33-4.12-3.97-6.01-2.52-2.91-5.03-5.83-7.5-8.78-1.76-2.11-4.39-4.52-6.14-7.02-.02-.23-.29-.87-.73-1.47-.49-.67-.99-1.34-1.48-2.01-.46-.63-.9-1.28-1.35-1.92.04-8.94.63-17.88,1.64-26.77.13-1.19.28-2.38.43-3.57.52-4.36-.12-.05-.09.62-.12-2.24.73-4.95,1.09-7.16.83-5.08,1.76-10.15,2.78-15.2,3.64-18.08,8.45-35.85,13.04-53.7-3.32-8.46-6.25-17.06-8.48-25.83-2.89-11.38-4.55-22.68-4.78-34.05-2.93-2.85-6.01-5.54-8.96-8.13-4.85-4.25-9.84-8.33-14.97-12.23-1.44-.79-2.89-1.59-4.32-2.4-3.14-1.78-5.83-3.99-8.07-6.5-9.4-6.35-19.22-12.08-29.41-17.1-10.55-5.19-24.83-3.19-30.78,8.07-1.48,2.81-2.37,6-2.67,9.26-5.89,9.02-4.66,19.98,2.62,28.43,2.51,2.92,5.02,5.84,7.49,8.79,1.25,1.49,2.48,2.99,3.71,4.5.18.22.43.49.7.77-.36.92-.65,1.88-.87,2.89-7.7,36.24-15.45,72.83-20.57,109.69-3.37,1.94-6.6,4.27-9.69,6.98-10.1,8.86-17.16,22.19-19.81,35.27-2.87,14.14-2.39,28.95,2.88,42.5,3.08,7.93,7.04,15.13,11.54,22.07-5.2.42-10.22,2.52-13.78,6.4-8.41,9.16-8.68,22.71,0,31.82ZM362.24,498.37c-6.86-3.86-13.65-7.87-20.28-12.09-2.63-1.68-5.23-3.4-7.78-5.2-.92-.65-2.09-1.32-3.03-2.08-.38-.4-.78-.8-1.06-1.03-2.36-1.98-4.63-4.05-6.79-6.24-1.07-1.08-2.1-2.19-3.11-3.34-.37-.42-.72-.86-1.08-1.29-.02-.03-.03-.05-.05-.07-1.34-2.13-2.73-4.16-3.89-6.4-.23-.45-.45-.89-.68-1.34-.18-.39-.32-.7-.43-.93-.3-1.08-.55-2.2-.62-2.45-.48-1.74-.78-3.49-1.19-5.25-.04-.18-.08-.34-.12-.49,0-.19-.02-.4-.03-.65-.07-1.12-.14-2.25-.21-3.37,15.98,18.16,32.69,35.66,50.36,52.21Z"/>
    <path class="cls-3" d="M106.25,575.47c43.28.49,86.55,1.68,129.8,3.15,23.08.79,46.15,1.57,69.23,2.37-.88-.57-1.75-1.16-2.61-1.76-.41-.29-1.23-.78-1.88-1.16-2.54-1.85-4.89-4.42-7.04-6.53-7.57-7.44-20.6-8.78-29.16-2.39-1.82-1.47-3.63-2.93-5.41-4.45-3.86-3.29-7.6-6.73-11.22-10.28,1.6-15.7,3.2-31.4,4.8-47.11,1.77-17.39,4.28-35.01,3.2-52.53-1.18-19.19-6.34-37.37-16.48-53.8-9.15-14.83-21.11-27.8-33.03-40.41-6.33-6.69-17.24-8.26-25.57-4.46-3.27-.65-6.65-.61-9.87.43-5.95,1.93-9.67,5.42-13.45,10.34-27.28,35.58-51.25,73.66-71.39,113.72-6.31,12.56-12.4,25.13-13.64,39.33-1.25,14.38,4.37,27.24,13.4,38.07,5.7,6.84,13.05,12.24,20.31,17.46Z"/>
    <g>
      <path class="cls-5" d="M413.45,361.7c-.06-.03-.13-.06-.2-.1.05.02.09.05.13.07l.06.02Z"/>
      <g>
        <path class="cls-5" d="M314.41,367.07c.85,1.48,1.84,2.93,3,4.31,63.57,75.82,130.17,153.95,220.28,198.96,17.22,8.61,35.1,16.04,53.48,21.81,15.33.68,30.67,1.37,46,2.07,2.49-2.01,4.53-4.57,5.85-7.62.03-.04.07-.08.1-.12,6.27-8.11,6.95-22.45-1.76-29.54-3.03-2.47-6.06-4.93-9.09-7.4-.68-.55-1.35-1.08-2.04-1.57-.25-.25-.5-.49-.74-.74-1.12-1.16-2.38-3.3-3.7-4.34-.16-.23-.33-.45-.48-.68-.85-1.28-1.66-2.59-2.42-3.93-.76-1.34-1.43-2.72-2.14-4.08-.02-.04-.05-.09-.07-.15-.14-.36-.27-.7-.32-.86-2.45-6.86-3.18-14.19-5.64-21.04-3.16-8.84-7.9-16.69-14.55-23.38-10.08-10.14-22.92-16.52-35.72-22.45-12.54-5.81-25.18-11.45-37.3-18.11-6.57-3.61-12.99-7.53-19.08-11.92-.19-.14-.44-.35-.72-.58.07.13-.19-.02-1.07-.76-.18-.15-.37-.31-.55-.46-.08-.04-.16-.08-.23-.1.06.02.13.04.2.07-1.23-1.03-2.47-2.07-3.67-3.14-.7-.62-1.38-1.25-2.06-1.89,4.58-3.95,8.61-8.43,11.01-14.13,5.35-12.68-.22-27.83-12.83-33.74-5.15-2.41-9.42-3.16-14.82-3.87-.3.02-.59.05-.89.06-3.8.17-7.48-.44-10.93-1.65-5.69-.85-11.37-1.8-17.02-2.9-13.32-2.59-26.53-5.98-39.23-10.79-.61-.23-1.22-.47-1.83-.71.17.09.34.18.48.27-.17-.11-.36-.19-.55-.29-.12-.05-.24-.1-.37-.14-2.23-.85-.95-.5.23.07-1.41-.74-3.03-1.27-4.44-1.94-3.38-1.59-6.7-3.3-9.95-5.14-3.25-1.84-6.42-3.81-9.5-5.92-.91-.62-3.23-2.97-4.39-3.25-.64-.52-1.27-1.05-1.9-1.58-5.99-5.11-14.33-7.6-21.79-5.87-.69-.41-1.38-.81-2.06-1.23-11.92-7.3-24.17-14.28-38.65-13.85-11.75.35-23.06,10.1-22.5,22.5.44,9.85,6.95,19.08,16.35,21.74Z"/>
        <path class="cls-5" d="M507.34,435.7c-.11-.19-.97-.97-1.65-1.25.01,0,.02.02.03.03.45.23,1.08.76,1.62,1.22Z"/>
      </g>
    </g>
    <path class="cls-3" d="M390.14,366.38c1.64.25,3.23.43,4.79.51,10,4.08,20.38,7.22,30.93,9.25,11.39,2.19,24.52-3.11,27.57-15.29-3.01-5.12-4.77-10.97-4.78-16.9,0-1.56-.02-3.11-.04-4.67-2.69-3.25-6.31-5.67-10.79-6.53-8.91-1.72-17.64-4.16-26.11-7.44-.43-.16-.85-.34-1.28-.51-.18-.08-.39-.17-.62-.27-2.11-1.01-4.24-1.97-6.32-3.04-4.17-2.13-8.21-4.48-12.17-6.97-7.75-4.89-18.7-3.64-25.8,2.09-5.82-1.16-11.63-2.39-17.43-3.7-18.73-4.23-38.35-11.37-57.78-9.2-6.15.69-11.37,2.05-15.91,6.59-3.9,3.9-6.84,10.31-6.59,15.91.18,4.01,1.54,8.24,3.79,11.96,1.47,19.74,11.88,35.18,23.29,50.74,11.29,15.38,23.07,30.42,35.4,44.97,22.77,26.9,47.46,52.12,73.78,75.55,8.79,7.82,23.27,9.31,31.82,0,7.85-8.55,9.39-23.46,0-31.82-24.97-22.22-48.48-46.07-70.27-71.43-5.3-6.17-10.49-12.42-15.59-18.76-2.57-3.2-5.15-6.4-7.64-9.67-.64-.85-1.38-1.83-1.63-2.15-1.27-1.68-2.54-3.36-3.8-5.05-4.16-5.58-8.35-11.18-12.24-16.97,4.41,1.08,8.83,2.15,13.27,3.14,17.26,3.85,34.65,7.05,52.13,9.66Z"/>
    <path class="cls-5" d="M229.24,541.22c7.57,14.14,17.63,27.12,29.47,38.17,28.06.96,56.13,1.93,84.19,2.92-.8-6.63-4.54-12.74-10.78-16.83-7.95-5.21-15.92-10.43-23.58-16.06-.87-.64-1.73-1.28-2.59-1.93-1.36-1.11-2.73-2.2-4.07-3.32-3.59-3.02-7.07-6.18-10.37-9.51-2.64-2.67-5.92-5.62-8.07-8.82-.36-.62-.77-1.3-.99-1.6-1.25-1.78-2.43-3.59-3.56-5.45-1.12-1.85-2.18-3.74-3.16-5.66-.49-.96-.96-1.93-1.42-2.91-1.01-2.27-.9-1.96.36.92-2.28-2.73-2.95-8.98-3.68-12.39-2.46-11.53-16.58-19.3-27.68-15.71-12.16,3.93-18.35,15.33-15.71,27.68.55,2.6,1.22,5.13,1.96,7.62-4.06,6.76-4.43,15.24-.34,22.88Z"/>
    <path class="cls-1" d="M303.91,567.36c7.65,5.06,15.54,9.77,23.47,14.41,21.69.76,43.38,1.53,65.08,2.33-10.26-5.08-20.16-10.83-30.03-16.62-12.52-7.34-25.15-14.54-37.46-22.22-11.14-6.96-20.38-13.45-29.16-23.36-3.2-3.62-6.1-7.71-8.97-13.26-1.65-3.18-1.41-2.42-2.73-6.59-.4-1.25-.75-2.51-1.06-3.79-.13-.54-1.01-5.38-.71-3-.97-7.76-6.2-15.39-15-15-7.29.33-16.04,6.66-15,15,4.02,32.08,25.49,54.89,51.56,72.11Z"/>
    <path class="cls-3" d="M227.56,578.34c2.83.09,5.67.18,8.5.28,10.16.35,20.32.69,30.48,1.04-1.04-1.11-2.08-2.23-3.09-3.36-4.39-4.9-7.46-8.73-10.99-14.17-1.53-2.35-2.97-4.76-4.32-7.23-.81-1.48-1.58-2.97-2.31-4.49.04.09-1.46-3.27-1.3-2.83-4.6-11.28-6.01-21.64-4.55-32.35,1.89-13.9,7.35-27.26,12.43-40.22,2.87-7.32-3.15-16.78-10.48-18.45-8.62-1.96-15.38,2.64-18.45,10.48-11.29,28.78-19.69,58.69-7.77,88.8,3.19,8.06,7.22,15.51,11.85,22.51Z"/>
    <path class="cls-2" d="M370.41,474.83c-16.38-9.25-29.35-20.42-41.43-35.64-5.04-6.35-15.95-5.27-21.21,0-6.27,6.27-5.05,14.85,0,21.21,12.99,16.37,29.31,30.07,47.5,40.33,7.05,3.98,16.39,1.68,20.52-5.38,4.06-6.93,1.7-16.53-5.38-20.52Z"/>
    <path class="cls-3" d="M422.18,471.82c-36.38-11.57-69.41-32.33-96.16-60.44-5.58-5.87-15.59-5.63-21.21,0-4.12,4.12-5.2,10.01-3.55,15.19-2.38,4.45-2.23,10,.09,14.92,8.21,17.46,26.35,30.41,42.07,40.68,16.18,10.57,34.06,18.65,52.53,24.28,6.02,1.84,13.12-1.04,16.6-6.24.56.18,1.11.37,1.67.54,7.48,2.38,16.7-2.79,18.45-10.48,1.86-8.19-2.47-15.91-10.48-18.45Z"/>
    <path class="cls-5" d="M405.54,285.25c0-.25,0-.51.01-.76,0-.05,0-.1-.01-.15-.04-.99-.01-1.98.06-2.97.32-14.01,1.95-27.86,4.16-41.63-.44-1.18-.91-2.35-1.43-3.48.41-.89.72-1.82.94-2.76-3.13-2.43-5.59-5.45-7.43-8.83-9.16-9.85-17.62-20.36-25.35-31.36-8.63-12.28-15.08-25.43-21.42-38.98-7.53-16.09-14.61-32.72-18.99-49.97-1.91-7.51-3.29-14.99-4.06-22.48-7.35-12.9-17.14-24.02-28.13-33.87-.27-.15-.55-.3-.83-.46-3.79-2.15-6.92-4.92-9.4-8.1-.61-.48-1.21-.96-1.83-1.43-6.42-4.95-16.8-.98-20.52,5.38-4.53,7.74-1.06,15.56,5.38,20.52,11.82,9.11,23.41,21.76,30.88,35.72,7.26,13.56,10.8,30.8,8.22,45.05-1.39,7.69,2.09,16.54,10.48,18.45.95.22,1.94.34,2.95.37-2.35,10.77-4.03,21.69-5.07,32.67-1.25,13.16-2.15,27.16,2.98,39.64,4.82,11.71,13.68,21.85,22.32,30.96,8.7,9.18,18.49,17.24,28.82,24.52,1.31.92,2.76,1.52,4.26,1.84,1.47,4.36,4.61,7.97,9.72,9.14,5.21,1.19,11.99-.53,15.75-4.78-1.58-3.89-2.46-8.04-2.44-12.23Z"/>
    <path class="cls-3" d="M406.11,291.21c-10.04-11.06-21.49-20.74-32.35-30.99-6.31-5.95-12.46-12.13-17.85-18.93-.01-.01-.02-.02-.03-.04-.07-.1-.16-.23-.3-.43-.57-.79-1.15-1.59-1.7-2.39-1.25-1.81-2.44-3.66-3.56-5.56-2.51-4.24-3.88-7.11-5.13-10.63-7.2-20.33-6.45-40.22-10.81-61.51-4.19-20.47-11.76-40.15-20.82-58.94-10.12-21-22.53-40.79-35.52-60.12-4.52-6.71-13.22-9.65-20.52-5.38-6.66,3.9-9.92,13.77-5.38,20.52,23.01,34.22,43.99,69.21,52.76,109.31,4.4,20.09,3.99,41.8,10.78,62.41,6.11,18.55,17.74,34.05,31.47,47.69,14.26,14.17,30.23,26.61,42.98,42.25,5.12,6.28,15.89,5.32,21.21,0,2.78-2.78,4.09-6.05,4.24-9.39-4.78-4.9-8.19-11.19-9.47-17.87Z"/>
    <path class="cls-4" d="M256.65,17.47c-4.09-3.06-9.91-3.79-14.44-1.02-25.38,15.54-51.32,31.68-70.56,54.81-3.54,4.26-4.77,9.96-2.53,14.77-4.84,1.99-9.67,3.99-14.51,5.98-6.49,2.67-11.1,8.63-9.08,15.99,1.69,6.13,9.46,11.77,15.99,9.08,21.57-8.9,43.19-17.69,64.72-26.69,5.81-2.43,10.94-5.22,14.45-10.7,3.09-4.83,4.87-10.86,7.08-16.14l13.55-32.42c1.94-4.65-.99-10.92-4.66-13.66ZM218.61,65.62c-2.04,1.02-4.29,1.77-6.4,2.64-.17.07-.35.14-.52.22,3.11-2.54,6.3-4.99,9.55-7.36-.57,1.37-1.21,2.66-1.98,3.76.15-.35-1.26,1.05-.65.74Z"/>
    <g id="Layer_14" data-name="Layer 14">
      <path d="M234.68,320.18c-1.08.08-2.15.12-3.23.15.67,1.45,1.34,2.89,2.02,4.34.82,1.75,3.4.23,2.59-1.51-.46-.99-.92-1.98-1.38-2.97Z"/>
      <path d="M218.05,24.89c-18.04,9.67-36.57,19.73-50.75,34.8-3.96,4.2-7.51,8.78-10.54,13.7-1.02,1.65,1.58,3.16,2.59,1.51,10.67-17.33,27.76-29.16,45.11-39.11,4.99-2.86,10.04-5.59,15.11-8.31,1.7-.91.19-3.5-1.51-2.59Z"/>
      <path d="M311.55,51.2c-16.63-10.77-33.38-21.35-50.26-31.72-4.74-2.92-9.5-5.81-14.26-8.7-1.66-1-3.17,1.59-1.51,2.59,16.95,10.26,33.77,20.73,50.47,31.39,4.69,3,9.37,6.01,14.05,9.03,1.63,1.05,3.13-1.54,1.51-2.59Z"/>
      <path d="M345.1,136.25c1.28,5.03,2.53,10.07,3.75,15.12,1.39.97,2.67,2.01,3.83,3.12-3.45-14.46-7.15-28.87-11.13-43.19-2.9-10.45-5.94-20.86-9.12-31.22-.56-1.84-3.46-1.06-2.89.8,5.62,18.34,10.81,36.8,15.56,55.39Z"/>
      <path d="M185.85,97.91c-12.63,2.4-25.27,4.8-37.9,7.2.63-6.89,1.32-13.76,2.08-20.64.21-1.92-2.79-1.9-3,0-.79,7.06-1.49,14.14-2.13,21.21-.73.14-1.45.28-2.18.41-1.89.36-1.09,3.25.8,2.89.37-.07.74-.14,1.11-.21-1.5,17.16-2.57,34.35-3.19,51.56-.91,25.27-.89,50.57.08,75.83.55,14.24,1.39,28.46,2.53,42.66.15,1.91,3.15,1.93,3,0-2.03-25.29-3.12-50.64-3.26-76.01-.14-25.28.66-50.57,2.41-75.8.43-6.28.94-12.56,1.49-18.84l38.97-7.4c1.89-.36,1.09-3.25-.8-2.89Z"/>
      <path d="M143.33,296.67c-3.57,12.67-12.14,23.13-21.84,31.72-5.57,4.93-11.56,9.34-17.58,13.71-3,2.18-6.01,4.34-8.98,6.56-2.6,1.94-5.44,3.82-7.44,6.42-4.47,5.8-3.2,13.64-1.87,20.3.38,1.89,3.27,1.09,2.89-.8-1.14-5.65-2.48-12.67,1.31-17.65,2.05-2.7,5.23-4.65,7.92-6.64,2.92-2.16,5.87-4.28,8.81-6.41,10.96-7.97,21.83-16.3,30-27.26,4.3-5.77,7.71-12.21,9.67-19.15.53-1.86-2.37-2.66-2.89-.8Z"/>
      <path d="M72.63,392.04c.09-.17.18-.33.27-.5,3.47-6.59,6.78-13.26,10.08-19.93.85-1.72-1.73-3.25-2.59-1.51-4.79,9.66-9.59,19.32-14.87,28.72,2.18-2.42,4.55-4.69,7.11-6.78Z"/>
      <path d="M42.67,453.79c-1.73-4.13-1.42-8.9.02-13.17,1.88-5.57,5.62-10.33,9.13-14.99.42-1.42.83-2.84,1.22-4.26.45-1.64.99-3.23,1.58-4.79-1.53,2.24-3.09,4.47-4.71,6.65-3.8,5.09-7.82,10.17-9.98,16.23-2.09,5.89-2.15,12.94,1.47,18.25.42-1.31.85-2.61,1.28-3.92Z"/>
      <path d="M501.75,399.41c-3.26-2.75-6.36-5.67-9.33-8.72-.13-1.27-.28-2.53-.45-3.75-.36-2.61-1.08-5.17-2.81-7.22-1.54-1.82-3.77-2.91-6.09-3.31-.93-.16-1.86-.24-2.79-.26-1.4-1.96-2.76-3.96-4.05-6,1.67.99,3.38,1.93,5.13,2.79,1.73.85,3.25-1.74,1.51-2.59-3.55-1.75-6.94-3.78-10.15-6.06-2.04-3.65-3.9-7.4-5.57-11.23-.77-1.77-3.36-.24-2.59,1.51.76,1.74,1.56,3.45,2.39,5.15-4.82-4.24-9.08-9.12-12.62-14.52-.69-1.05-2.03-.77-2.59,0-.86-2.72-1.72-5.44-2.59-8.16-1.11-3.48-2.26-6.99-4.06-10.18-3.09-5.47-7.92-9.66-12.98-13.27-5.96-4.26-12.25-8.09-18.4-12.08-5.34-3.46-10.67-6.92-16.01-10.38.47-.21.83-.64.84-1.3.28-10.91.31-21.82.08-32.73-.11-5.45-.29-10.91-.53-16.36-.23-5.18-.53-10.37-1.5-15.47-1.91-10.11-7.14-19.11-11.94-28.07-5.19-9.69-10.38-19.38-15.56-29.07-5.82-10.86-11.63-21.73-17.45-32.59-.91-1.7-3.5-.19-2.59,1.51l30.66,57.25c4.8,8.96,10.39,17.93,13.09,27.8,1.38,5.06,1.86,10.29,2.15,15.51.29,5.33.46,10.67.6,16.01.31,12.03.31,24.07,0,36.09l-4.26-2.76c-.31-.2-.61-.27-.89-.24.02,1.09.05,2.18.07,3.27,12.39,8.03,24.87,15.91,37.14,24.12,5.17,3.46,10.37,7.31,13.85,12.56,1.92,2.9,3.16,6.12,4.24,9.41,1.17,3.56,2.27,7.14,3.4,10.71l7.95,25.08c.37,1.16,1.65,1.27,2.41.74.83.67,1.65,1.35,2.48,2.02-4.36-1.47-8.67-3.17-13.37-2.76-1.91.17-1.93,3.17,0,3,5.29-.46,10.13,1.98,15.08,3.45,1.29.38,2.59.69,3.92.89l4.91,4c.63.51,1.51.61,2.12,0,.53-.53.63-1.61,0-2.12-.66-.54-1.32-1.07-1.98-1.61,1.82-.07,3.63-.25,5.45-.32.21,0,.43-.02.65-.02,3.29,4.5,6.88,8.78,10.73,12.81,0,.15.02.31.03.46.19,2.97.32,6.01-.15,8.96-.81,5.11-3.71,10.45-9.13,11.68-1.05.24-1.27,1.25-.92,2.02-.68-.12-1.4.17-1.6,1.04-1.65,7.12-.38,14.12,2.35,20.63,1.2.27,2.41.57,3.61.91-.29-.61-.57-1.22-.83-1.83-2.52-5.92-3.7-12.57-2.23-18.91.08-.36.04-.68-.07-.94.16.01.32.01.5-.03,5.12-1.17,8.76-5.54,10.39-10.35,1.1-3.23,1.41-6.79,1.33-10.33,2.23,2.17,4.54,4.26,6.92,6.27,1.47,1.24,3.6-.88,2.12-2.12ZM468.81,376.39l-7.88-6.42c-.42-.35-.96-.5-1.46-.37-2.24-7.07-4.48-14.15-6.73-21.22-.03-.11-.07-.22-.1-.33,4.86,7.08,10.9,13.29,17.82,18.32,1.92,3.38,3.98,6.68,6.19,9.88-2.62.17-5.24.43-7.84.14ZM482.64,379.37c.63.12,1.25.29,1.84.54,2.06.88,3.35,2.68,3.99,4.77.23.76.39,1.54.52,2.33-2.21-2.47-4.33-5.02-6.34-7.65Z"/>
      <path d="M206.32,265.02c-6.42,6.19-10.05,14.98-9.87,23.9.04,1.93,3.04,1.93,3,0-.17-8.16,3.11-16.11,8.99-21.78,1.39-1.34-.73-3.46-2.12-2.12Z"/>
      <path d="M206.29,273.02c-1.86,9.37-1.9,18.95-.14,28.34.36,1.89,3.25,1.09,2.89-.8-1.66-8.83-1.61-17.93.14-26.74.37-1.89-2.52-2.69-2.89-.8Z"/>
      <path d="M217.06,289.5c-1.79,6.36-2.51,13-2.09,19.6.12,1.92,3.12,1.93,3,0-.4-6.35.26-12.68,1.99-18.8.52-1.86-2.37-2.66-2.89-.8Z"/>
      <path d="M57.28,569.1c-8.45-9.81-12.43-23.12-11.02-35.96.78-7.13,3.64-13.72,5.99-20.42,2.42-6.91,3.81-13.93,3.26-21.28-.61-8.08-3.08-15.89-6.7-23.11-.86-1.73-3.45-.21-2.59,1.51,3.3,6.6,5.64,13.79,6.26,21.16.46,5.46-.2,10.67-1.56,15.82-.13-.24-.31-.46-.55-.59-.91-.47-1.83-.93-2.74-1.4-.36-.18-.76-.26-1.16-.15-.35.1-.72.36-.9.69-.18.35-.28.77-.15,1.16.12.36.34.72.69.9.91.47,1.83.93,2.74,1.4.36.18.76.26,1.16.15.11-.03.23-.09.34-.15-.35,1.17-.72,2.34-1.14,3.51-2.38,6.72-5.06,13.27-5.9,20.41-.75,6.39-.18,12.96,1.54,19.16,1.98,7.11,5.5,13.72,10.32,19.31,1.26,1.47,3.38-.66,2.12-2.12Z"/>
      <path d="M441.72,547.56c-.22-.11-.43-.22-.65-.33-13.21-6.55-26.76-12.46-40.18-18.57-13.77-6.27-27.55-12.54-41.32-18.82-10.82-4.93-21.66-9.93-31.76-16.22-9.77-6.09-18.95-13.52-25.59-23.02-7.49-10.72-10.89-23.38-13.38-36.06-1.27-6.44-2.33-12.92-3.66-19.35-1.4-6.78-3.13-13.5-5.18-20.12-4.05-13.09-9.35-25.81-15.8-37.9-1.56-2.93-3.19-5.82-4.88-8.67-.98-1.66-3.58-.15-2.59,1.51,7.05,11.9,12.97,24.45,17.6,37.48,4.59,12.93,7.63,26.18,10.09,39.66,2.36,12.9,4.78,26.03,10.87,37.78,5.4,10.42,13.65,18.94,23.03,25.87,9.5,7.02,20.07,12.46,30.73,17.47,12.92,6.08,25.98,11.88,38.98,17.8,13.61,6.2,27.25,12.32,40.81,18.62,5.28,2.45,10.51,5,15.67,7.69-1.03-1.54-1.96-3.15-2.78-4.82Z"/>
      <path d="M266.1,437.56c-.16-1.91-3.16-1.93-3,0,.25,2.97-2.77,4.89-5.48,4.89-3.35,0-5.78-3.15-6.82-6.03-2.3-6.36-.48-14.77,5.64-18.33,1.67-.97.16-3.56-1.51-2.59-6.18,3.6-8.81,11.23-7.88,18.08.86,6.34,5.93,13.71,13.23,11.46,3.27-1.01,6.13-3.87,5.83-7.49Z"/>
      <path d="M323.34,514.18c-.75-1.77-3.34-.24-2.59,1.51,2.14,5.04-2.56,11.58-7.96,11.31-3.73-.19-6.96-2.83-9.73-5.08-1.58-1.28-2.89-2.52-3.37-4.57-.45-1.9-.36-3.98-.22-5.91.34-4.55,1.76-8.96,4.02-12.91.96-1.68-1.63-3.19-2.59-1.51-2.43,4.23-3.92,8.9-4.38,13.76-.23,2.42-.29,4.99.27,7.37.53,2.28,1.88,4.01,3.64,5.49,3.5,2.92,7.41,6.03,12.14,6.35,3.6.25,6.96-1.7,9.11-4.49,2.51-3.27,3.28-7.49,1.65-11.32Z"/>
      <path d="M262.34,415.51c-.78-.07-1.53.74-1.5,1.5.04.87.66,1.43,1.5,1.5.04,0,.09,0,.13.01.1.03.22.04.32.07.23.05.45.13.67.21.03.01.05.02.08.04.1.05.2.1.3.16.2.11.38.24.57.36.02.01.03.02.05.03.01.01.03.03.05.05.09.08.17.15.26.22.18.17.35.35.52.53.08.09.15.18.22.26-.23-.29,0,.02.04.06.14.2.27.42.39.63.06.1.11.2.16.31.02.04.07.16.1.22.07.18.14.36.19.54.07.22.12.44.17.66.01.06.02.11.03.17,0,.02.03.22.03.28.02.24.02.49,0,.73,0,.11-.02.22-.03.34.02-.39,0-.04-.01.05-.04.22-.1.44-.17.66-.02.07-.05.14-.07.21.03-.11-.1.22-.13.28-.36.7-.2,1.66.54,2.05.69.36,1.67.21,2.05-.54,2.48-4.83-1.08-11.13-6.47-11.58Z"/>
      <path d="M310.02,503.58c-.79-.03-1.54.71-1.5,1.5.04.84.66,1.47,1.5,1.5.14,0,.28.01.42.03.03,0,.06,0,.09,0,.25.05.5.09.75.16.23.06.46.14.68.22.06.02.13.05.16.07.08.04.16.07.24.11.43.22.84.48,1.23.76.05.04.14.11.16.12.09.08.18.16.27.24.19.18.38.36.55.55.08.09.16.18.24.27.03.03.12.16.16.21.12.17.24.33.34.5.13.2.25.41.36.62.05.11.1.22.16.32.01.02.02.04.03.05,0,.02.02.05.03.09.18.46.32.94.4,1.43.01.07.04.45.02.07,0,.12.02.24.03.36.02.28.02.56,0,.84-.04.78.72,1.54,1.5,1.5.84-.04,1.46-.66,1.5-1.5.23-5.16-4.21-9.82-9.32-10.03Z"/>
      <path d="M311.52,514.58l-3.74-6.38c-.4-.68-1.37-.98-2.05-.54-.68.44-.96,1.33-.54,2.05,1.25,2.13,2.5,4.25,3.74,6.38.4.68,1.37.98,2.05.54.68-.44.96-1.33.54-2.05Z"/>
      <path d="M260.97,423.01c-.18-.31-.54-.61-.9-.69-.73-.17-1.7.22-1.85,1.05-.33,1.83-.66,3.66-.99,5.49-.07.4-.06.79.15,1.16.18.31.54.61.9.69.73.17,1.7-.22,1.85-1.05.33-1.83.66-3.66.99-5.49.07-.4.06-.79-.15-1.16Z"/>
      <g>
        <path d="M366.12,548s0,0,0,.01c.05.13.16.2,0-.01Z"/>
        <path d="M381.6,553.56c-.91-1.87-2.4-3.26-3.77-4.79-1.27-1.4-2.88-3.25-2.53-5.29.32-1.89-2.57-2.7-2.89-.8-.62,3.65,1.63,6.43,3.98,8.94,1.06,1.14,2.09,2.21,2.73,3.66.44,1.01.84,2.39.4,3.46-1.29,3.17-6.8-.55-8.41-1.67-1.07-.75-2.08-1.6-3.02-2.52.29-.05.55-.18.76-.41.55-.6.59-1.53,0-2.12-.21-.21-.42-.43-.62-.65-.1-.12-.21-.24-.31-.36-.04-.05-.09-.11-.13-.16,0,0,0,0,0,0-.38-.43-.69-.98-.98-1.48-.15-.26-.29-.52-.42-.79-.06-.13-.12-.25-.18-.38-.03-.06-.05-.14-.09-.19,0,0,0,0,0,0-.23-.57-.42-1.15-.57-1.74-.2-.76-1.08-1.29-1.85-1.05-.59.19-1.01.69-1.08,1.27-.96-2.27-1.59-4.68-1.79-7.15-.16-1.91-3.16-1.93-3,0,.65,7.78,4.66,14.96,10.86,19.68,2.86,2.17,7.38,5.08,11.07,3.44,3.59-1.6,3.3-5.89,1.84-8.89Z"/>
      </g>
      <path d="M489.18,579.36c-7.16-17.06-20.03-30.83-34.94-41.5-16.83-12.05-36.15-19.96-55.33-27.45-10.29-4.02-20.59-7.99-30.75-12.33-10.08-4.3-20.22-8.69-29.89-13.85-8.66-4.62-16.48-10.34-22.59-18.1-5.54-7.04-9.56-15.21-12.7-23.55-3.25-8.63-5.64-17.54-7.88-26.47-2.77-11.04-5.5-22.09-8.25-33.14-.68-2.74-1.36-5.48-2.05-8.23-.47-1.87-3.36-1.08-2.89.8l8.43,33.87c2.31,9.27,4.55,18.57,7.53,27.65,2.81,8.55,6.27,16.99,11.06,24.63,4.96,7.9,11.33,14.66,19.06,19.9,8.82,5.98,18.76,10.27,28.44,14.61,10.18,4.56,20.48,8.83,30.87,12.89,19.72,7.71,39.81,15.04,57.86,26.3,15.5,9.67,29.63,22.43,38.27,38.74,1.04,1.96,2,3.97,2.86,6.02.32.75.99,1.27,1.85,1.05.71-.19,1.36-1.1,1.05-1.85Z"/>
      <path d="M604.63,579.48c-12.46-3.17-24.74-7.02-36.79-11.52.6-.27,1.01-.87.74-1.68-2.45-7.35-10.86-8.85-17.29-11.08-4.04-1.4-7.55-3.59-10.66-6.52-3.35-3.15-6.17-6.79-8.97-10.42-12.06-15.61-24.14-31.36-33.75-48.64-5.35-9.62-9.87-19.7-13.04-30.26-.56-1.84-3.45-1.06-2.89.8,5.68,18.86,15.53,36.09,26.7,52.2,5.62,8.11,11.58,15.97,17.6,23.78,5.51,7.16,10.94,15.26,19.05,19.72,3.74,2.06,7.93,3.01,11.92,4.45,3.47,1.24,7.21,3.02,8.46,6.76.01.03.03.06.04.09-2.14-.82-4.27-1.65-6.4-2.5-4.26-1.72-8.48-3.53-12.67-5.42-1.75-.79-3.27,1.8-1.51,2.59,14.68,6.62,29.8,12.27,45.24,16.84,4.45,1.32,8.93,2.55,13.43,3.69,1.87.48,2.67-2.42.8-2.89Z"/>
      <path d="M211.56,73.56c-.23-.86-1.05-1.16-1.85-1.05-16.74,2.4-33.22,6.54-49.1,12.37-3.51,1.29-8,2.43-9.88,6-.9,1.71,1.69,3.22,2.59,1.51,1.51-2.87,5.73-3.76,8.53-4.78,3.84-1.4,7.72-2.71,11.63-3.91,7.67-2.36,15.45-4.34,23.31-5.93,4.55-.92,9.12-1.7,13.72-2.36.81-.12,1.24-1.13,1.05-1.85Z"/>
      <path d="M197.2,85.95c-15.24.14-30.4,2.9-44.7,8.17-1.8.66-1.02,3.56.8,2.89,14.06-5.18,28.92-7.92,43.9-8.06,1.93-.02,1.93-3.02,0-3Z"/>
      <path d="M173.34,110.29c-4.75.48-9.32,1.82-13.57,4.01-1.72.88-.2,3.47,1.51,2.59,3.75-1.93,7.86-3.17,12.06-3.6.81-.08,1.5-.63,1.5-1.5,0-.75-.69-1.58-1.5-1.5Z"/>
      <path d="M172.94,117.75l-15.6,3.63c-1.88.44-1.08,3.33.8,2.89l15.6-3.63c1.88-.44,1.08-3.33-.8-2.89Z"/>
      <path d="M171.07,137.75c-.23-.85-1.04-1.18-1.85-1.05-4.86.79-9.73,1.58-14.59,2.36-.8.13-1.25,1.12-1.05,1.85.23.85,1.04,1.18,1.85,1.05,4.86-.79,9.73-1.58,14.59-2.36.8-.13,1.25-1.12,1.05-1.85Z"/>
      <path d="M360.62,173.32c-.11-1.92-3.11-1.93-3,0,.62,11,.73,22.03.34,33.04-.07,1.93,2.93,1.93,3,0,.39-11.01.28-22.04-.34-33.04Z"/>
      <path d="M371.25,191.72c-.87,12.23-2.07,24.44-3.62,36.6-.24,1.91,2.76,1.89,3,0,1.55-12.16,2.75-24.37,3.62-36.6.14-1.93-2.86-1.92-3,0Z"/>
      <path d="M378.81,208.8c-1.81,12.23-4.01,24.4-6.59,36.49-.4,1.88,2.49,2.69,2.89.8,2.58-12.09,4.77-24.26,6.59-36.49.28-1.89-2.61-2.7-2.89-.8Z"/>
      <path d="M385.74,225.64c-.31,7.28-1.38,14.47-3.19,21.53-.48,1.87,2.41,2.67,2.89.8,1.88-7.3,2.98-14.79,3.29-22.32.08-1.93-2.92-1.93-3,0Z"/>
      <path d="M391.06,252.23v11.01c0,1.93,3,1.93,3,0v-11.01c0-1.93-3-1.93-3,0Z"/>
      <path d="M90.73,475.23c-11.5-9.32-23-18.63-34.5-27.95-1.49-1.2-3.62.91-2.12,2.12,11.5,9.32,23,18.63,34.5,27.95,1.49,1.2,3.62-.91,2.12-2.12Z"/>
      <path d="M113.56,472.58c-12.65-10.86-24.93-22.17-36.79-33.89-1.37-1.36-3.5.76-2.12,2.12,11.86,11.72,24.13,23.03,36.79,33.89,1.46,1.25,3.59-.86,2.12-2.12Z"/>
      <path d="M105.64,431.84c-6.43-5.48-13.67-9.82-21.52-12.93-.76-.3-1.64.33-1.85,1.05-.24.85.3,1.55,1.05,1.85,7.34,2.9,14.19,7.04,20.2,12.16,1.46,1.25,3.59-.87,2.12-2.12Z"/>
      <path d="M117.29,404.94c-5.8-3.38-11.6-6.75-17.4-10.13-1.67-.97-3.18,1.62-1.51,2.59,5.8,3.38,11.6,6.75,17.4,10.13,1.67.97,3.18-1.62,1.51-2.59Z"/>
      <path d="M114.81,383.22c-5.07-4.52-11.71-7.04-18.51-6.92-1.93.03-1.93,3.03,0,3,5.99-.11,11.91,2.04,16.39,6.04,1.44,1.28,3.57-.83,2.12-2.12Z"/>
      <path d="M108.23,359.88h-4.59c-.78,0-1.54.69-1.5,1.5.04.81.66,1.5,1.5,1.5h4.59c.78,0,1.54-.69,1.5-1.5-.04-.81-.66-1.5-1.5-1.5Z"/>
      <path d="M105.34,447.81c-9.59-7.59-19.91-14.19-30.85-19.65-1.72-.86-3.24,1.73-1.51,2.59,10.7,5.34,20.86,11.76,30.24,19.18,1.5,1.19,3.64-.92,2.12-2.12Z"/>
      <path d="M112.7,412.9c-5.42-4.51-11.77-7.77-18.63-9.45-1.87-.46-2.67,2.43-.8,2.89,6.34,1.56,12.28,4.51,17.3,8.68.62.52,1.51.61,2.12,0,.53-.53.63-1.6,0-2.12Z"/>
      <path d="M123.04,394.47c-6.27-3.93-13-7.11-20.01-9.5-1.83-.62-2.62,2.27-.8,2.89,6.77,2.3,13.23,5.4,19.29,9.2,1.64,1.03,3.15-1.57,1.51-2.59Z"/>
      <path d="M136.62,558.3c-17.36-2.17-34.64-4.93-51.82-8.27-4.91-.95-9.81-1.96-14.7-3.01-1.88-.4-2.69,2.49-.8,2.89,17.32,3.71,34.76,6.84,52.29,9.36,5,.72,10.01,1.39,15.03,2.02,1.91.24,1.89-2.76,0-3Z"/>
      <path d="M151.82,569.34c-11.12-1.55-22.29-2.62-33.5-3.17-1.93-.09-1.92,2.91,0,3,10.94.54,21.86,1.55,32.71,3.06,1.89.26,2.7-2.63.8-2.89Z"/>
      <path d="M420.44,357.31c-9.12-2.34-18.24-4.68-27.36-7.02-1.87-.48-2.67,2.41-.8,2.89,9.12,2.34,18.24,4.68,27.36,7.02,1.87.48,2.67-2.41.8-2.89Z"/>
      <path d="M415.84,347.21c-7.99-3.18-16.52-4.83-25.11-4.92-1.93-.02-1.93,2.98,0,3,8.35.08,16.56,1.72,24.32,4.81,1.79.71,2.57-2.19.8-2.89Z"/>
      <path d="M406.34,331.29c-4.09-2.03-8.77-2.55-13.21-1.42-1.87.48-1.08,3.37.8,2.89,3.62-.93,7.54-.55,10.89,1.11.73.36,1.62.19,2.05-.54.39-.66.19-1.69-.54-2.05Z"/>
      <path d="M307.45,206.36c-1.56,15.15-5.75,29.95-11.63,43.98-5.97,14.26-13.68,27.76-22.21,40.63-4.81,7.26-9.9,14.33-15.17,21.26-1.17,1.54,1.44,3.03,2.59,1.51,9.49-12.5,18.44-25.45,26.15-39.13,7.59-13.46,14.01-27.68,18.28-42.55,2.41-8.4,4.1-17,4.99-25.69.2-1.92-2.8-1.9-3,0Z"/>
      <path d="M304.31,192.6c-.1-1.92-3.1-1.93-3,0,.35,6.6-1.97,12.86-4.5,18.84-2.49,5.9-5.04,11.78-7.63,17.64-3.84,8.7-7.84,17.33-12.24,25.77-.05,1.9-.08,3.78-.09,5.63,0,.32-.02.63-.03.94,8.4-15.36,15.35-31.53,22.21-47.61,2.87-6.74,5.67-13.75,5.27-21.21Z"/>
      <path d="M316.28,201.65c-.67-7.35-3.46-13.86-8.45-19.31-.73-.8-1.49-1.56-2.26-2.32.34,1.42.58,2.86.72,4.3-1.79-1.86-3.77-3.56-5.78-5.22.2-.88-.25-1.86-1.38-1.73-.22.03-.43.05-.64.08-2.65-2.16-5.28-4.36-7.53-6.94-2.3-2.64-4.16-5.62-5.97-8.61.97-.34,1.94-.68,2.92-1.01,1.81-.62,1.08-3.43-.8-2.89-1.24.35-2.48.73-3.73,1.08-.03,0-.06,0-.09,0-4.96-8.23-9.93-16.46-14.89-24.7-4.36-7.23-8.65-14.53-13.56-21.41-.44-.62-.9-1.22-1.35-1.83-.57-1.06-1.13-2.12-1.7-3.18-.31-.59-.83-.79-1.33-.73-1.26-1.55-2.57-3.07-3.92-4.53.46-.51.92-1.02,1.38-1.53,1.3-1.42-.81-3.55-2.12-2.12-.44.49-.88.98-1.32,1.47-1.41-3.56-2.83-7.13-4.24-10.69-.7-1.77-3.61-1-2.89.8.48,1.22.97,2.44,1.45,3.65-.31,0-.63.11-.92.37-.57-.45-1.14-.89-1.73-1.32-1.56-1.14-3.06,1.46-1.51,2.59.4.29.79.6,1.18.9-.35.37-.7.74-1.06,1.12-.36-.95-1.97-1.45-2.8-.33-3.53,4.72-6.84,9.6-9.92,14.63-1.97,2.35-3.9,4.74-5.8,7.14,6.46-12,13.79-23.54,21.5-34.77,5.56-8.1,11.34-16.05,17.17-23.96,1.15-1.55-1.46-3.05-2.59-1.51-10.42,14.12-20.66,28.41-29.83,43.38-3.83,6.25-7.46,12.63-10.84,19.14-.34-1.04-2-1.59-2.76-.36-8.82,14.18-16.34,29.13-22.53,44.64-3.42,8.58-6.39,17.34-8.96,26.21-2.72.02-5.44.04-8.17.07,3.83-11.05,8.2-21.9,13.13-32.5,6.27-13.48,13.39-26.56,21.31-39.15,7.89-12.53,16.57-24.57,26-35.99,1.19-1.44,2.39-2.87,3.6-4.29,1.25-1.46-.87-3.59-2.12-2.12-9.77,11.47-18.82,23.55-27.05,36.17-8.28,12.69-15.73,25.92-22.3,39.58-5.99,12.45-11.25,25.26-15.75,38.33-3.37.03-6.75.06-10.12.08-1.93.02-1.93,3.02,0,3l9.09-.07c-.06.18-.12.36-.18.53-.61,1.84-1.22,3.7-1.82,5.56-.45.19-.91.37-1.37.56-1.55.65-1.2,2.93.26,2.97-3.82,12.44-6.79,25.35-5.52,38.33,1.5,15.37,8.19,29.65,16.19,42.66.63,1.03,1.29,2.04,1.94,3.06.52,1.84,1.2,3.64,2.09,5.35.89,1.71,3.48.2,2.59-1.51-.36-.7-.67-1.4-.96-2.12.27-.4.33-.93-.02-1.48-.32-.5-.64-1-.97-1.5-.67-2.54-.94-5.16-.9-7.79,1.15,1.04,2.31,2.07,3.45,3.11,6.67,6.09,13.4,12.11,20.2,18.05,13.66,11.93,27.59,23.56,41.78,34.86,1.75,1.39,3.5,2.78,5.26,4.17,1.5,1.18,3.64-.93,2.12-2.12-1.88-1.48-3.74-2.98-5.6-4.46,7.13.25,14.13,1.8,20.72,4.52.54.76,1.9,1.06,2.64.05,4.99-6.86,9.02-14.35,12.04-22.26-.75.5-1.52.98-2.34,1.42-.6.32-1.21.61-1.82.9-2.57,6-5.77,11.72-9.52,17.08-7.05-2.94-14.59-4.53-22.22-4.73-.97-.03-1.45.72-1.45,1.47-11.4-9.13-22.64-18.45-33.7-27.98-6.72-5.79-13.37-11.66-19.96-17.6-1.37-1.23-2.72-2.49-4.09-3.73,3.6-11.55,9.96-22.11,18.48-30.71,1.36-1.37-.76-3.5-2.12-2.12-8.53,8.61-14.96,19.13-18.79,30.62-1.13-1.04-2.27-2.06-3.4-3.1-.46-.43-.93-.86-1.41-1.3.49-3.93,1.58-7.83,2.99-11.48,1.81-4.67,4.18-9.11,6.57-13.51,2.34-4.3,4.71-8.59,7.3-12.75,2.98-4.79,6.27-9.39,10.08-13.56,1.3-1.42-.81-3.55-2.12-2.12-7.07,7.72-12.33,16.79-17.31,25.93-4.28,7.85-8.58,16.01-10.17,24.86-.16-.18-.33-.35-.49-.53-1.64-10.29,1.73-20.6,6.11-29.8,4.5-9.47,9.95-18.55,15.79-27.25.7-1.04,1.43-2.06,2.14-3.09,20.1-6.89,40.48-12.98,61.07-18.22,2.62-.02,5.24-.04,7.85-.06,6.21-.05,12.42-.1,18.63-.15-2.03,5.79-4.68,11.34-7.95,16.57.05.57.09,1.14.14,1.72.62.65,1.81.82,2.43-.17,3.56-5.69,6.42-11.79,8.55-18.14l9.39-.08c1.93-.02,1.93-2.99,0-3-1.99-.01-3.98-.02-5.97-.04-.19,0-.36.03-.52.09-.65,0-1.3.01-1.95.02.62-2.1,1.17-4.22,1.63-6.36.4-1.88-2.49-2.69-2.89-.8-.05.25-.12.49-.17.74-.26-.1-.55-.14-.88-.07-9.6,2.07-19.16,4.32-28.68,6.74-5.32.04-10.63.09-15.95.13l-13.47.11c14.27-3.54,28.79-5.99,43.35-7.99,8.48-1.17,16.98-2.18,25.48-3.18,4.73,3.79,9.58,7.77,11.59,13.57.44,1.25,1.96,1.27,2.64.55.19.55.36,1.12.51,1.7,1.84,7.04,1.13,14.52-.03,21.61-1.24,7.58-2.81,15.13-4.34,22.65-1.54,7.58-3.2,15.15-5.1,22.65-1.97,7.74-4.22,15.43-6.89,22.96-1.14,3.63-2.4,7.22-3.83,10.75-1.47,3.65-3.12,7.23-5.23,10.47-.75,1.47-1.52,2.94-2.32,4.39-.93,1.69,1.66,3.21,2.59,1.51,7.57-13.73,12.94-28.54,17.07-43.63,4.14-15.12,7.13-30.53,10.04-45.92,1.38-7.27,2.64-14.74,1.96-22.16ZM287.06,187.76c-.3,1.17-.63,2.33-.99,3.48-4.95.04-9.89.08-14.84.12,5.26-1.25,10.54-2.46,15.83-3.6ZM283.38,165.02c.91,1.45,1.84,2.89,2.84,4.28.23.32.48.61.71.92-.27-.13-.6-.19-.97-.11-1.66.34-3.31.69-4.97,1.03.8-2.04,1.6-4.08,2.4-6.12ZM209.04,126.81c-.94,1.92-1.86,3.85-2.75,5.8-1.01,1.42-2.02,2.83-3,4.27,1.61-2.96,3.26-5.89,4.97-8.79.25-.43.52-.85.78-1.28ZM187.02,172.48c1.68-4.5,3.49-8.95,5.4-13.35.24-.11.45-.3.62-.59,2.42-4.12,4.93-8.18,7.52-12.19-.36.95-.73,1.89-1.07,2.84-2.15,6.02-3.99,12.14-5.48,18.35,1.53-2.15,3.14-4.25,4.77-6.32,2.65-9.27,6.08-18.31,10.08-27.1,1.48-2.07,2.97-4.12,4.5-6.16-1.59,3.24-3.1,6.53-4.51,9.86-1.7,4.03-3.27,8.11-4.7,12.24-.12.36-.11.68,0,.94-.95,1.36-1.91,2.71-2.84,4.08-.61.89-.07,1.75.71,2.06.45-.57.9-1.13,1.35-1.7,1.75-2.21,3.59-4.29,5.67-6.19.15-.21.31-.42.47-.64-.08-1.58-.02-3.15.12-4.71,4.06-10.38,9.01-20.41,14.82-29.92,1.3-1.55,2.6-3.09,3.93-4.61,3.17-3.64,6.45-7.19,9.78-10.69,1.31,1.11,2.57,2.27,3.79,3.48.11.27.21.53.32.8-3.46,3.87-6.86,7.79-10.21,11.76,1.59-.52,3.25-.92,4.93-1.21.18-.21.35-.42.53-.63,1.97-2.29,3.97-4.56,5.98-6.82.94,2.36,1.87,4.72,2.81,7.07,1.16.1,2.29.25,3.39.46l-2.07-5.21c1.11,1.35,2.18,2.73,3.23,4.14.27.5.54,1,.8,1.51.12.03.24.06.36.09,4.44,6.17,8.37,12.75,12.25,19.19,4.91,8.14,9.82,16.28,14.73,24.42.44.73.87,1.46,1.31,2.19-.86.25-1.72.5-2.58.75-.31-.23-.73-.34-1.22-.19-14.49,4.21-28.88,8.79-43.14,13.74-7.05,2.45-14.07,4.99-21.06,7.62-3.53,1.33-7.11,2.63-10.62,4.06,1.09-6.93,4.23-13.63,9.22-19.06.96-1.05,1.99-2,3.07-2.87-.03-.06-.07-.13-.1-.19-.52-.94-.99-1.9-1.42-2.86-4.95,8.94-10.05,17.79-15.02,26.71-2.74,1.04-5.49,2.07-8.22,3.13,2.33-5.99,4.8-11.93,7.45-17.79,2.06-4.56,4.22-9.08,6.46-13.55.86-1.72-1.72-3.24-2.59-1.51-5.58,11.11-10.58,22.51-15.01,34.13-1.67.01-3.34.03-5,.04,1.93-6.62,4.09-13.17,6.5-19.62ZM280.84,163.33c-1.11,2.84-2.23,5.69-3.34,8.53-13.5,2.83-26.96,5.86-40.37,9.13-6.12,1.49-12.22,3.04-18.32,4.63.4-.16.81-.31,1.21-.47,14.29-5.47,28.71-10.64,43.15-15.69,5.88-2.06,11.77-4.09,17.66-6.12ZM201.76,190.16c-.9.25-1.79.5-2.69.75.16-.28.31-.57.47-.85,2.81-1.06,5.62-2.1,8.44-3.13-1.65.77-3.28,1.58-4.87,2.46-.46.25-.9.52-1.35.78ZM207.29,194.89c-1.25.43-2.51.85-3.75,1.31-3.15,1.15-6.28,2.38-9.36,3.69.14-.26.27-.51.41-.77,1.6-1.53,3.35-2.9,5.18-4.16,2.51-.02,5.02-.04,7.52-.06ZM193,195.73c-.09.17-.19.34-.28.5-.22.4-.43.8-.64,1.2-1.66,1.63-3.19,3.4-4.54,5.34-.02.03-.03.06-.05.09-1.1.52-2.19,1.05-3.28,1.59.73-2.13,1.48-4.26,2.25-6.38.27-.25.56-.48.84-.73,1.9-.55,3.8-1.08,5.7-1.62ZM178.33,199.98c1.07-.32,2.13-.63,3.2-.94-.75.93-1.44,1.91-2.06,2.95-.76,1.26.56,2.44,1.68,2.2-.26.75-.51,1.49-.77,2.24-.58.3-1.16.6-1.73.91-1.36.73-.66,2.53.54,2.76-1.23,3.81-2.42,7.64-3.52,11.49-.53,1.86,2.36,2.65,2.89.8,1.34-4.65,2.77-9.26,4.29-13.85,1.53-.79,3.08-1.57,4.63-2.32-1.42,2.77-2.8,5.56-4.14,8.36-.45.32-.64.83-.62,1.32-3.58,7.56-6.85,15.27-9.59,23.17-1.1,3.18-2.12,6.39-3.03,9.63.12-1.51.24-3.03.38-4.54.78-8.22,1.93-16.4,3.45-24.52,1.23-6.61,2.72-13.17,4.42-19.67ZM168.2,195.21c2.78-.02,5.55-.05,8.33-.07-.07.25-.15.5-.22.75-3.22,1.29-6.43,2.62-9.63,3.94.5-1.55,1.01-3.09,1.52-4.62ZM173.48,277.15c-.02.21-.04.42-.06.63-.08,1.18-.09,2.37-.05,3.55-6.09-10.33-11.16-21.33-13.29-33.17-2.7-15.05.87-29.92,5.31-44.27,3.19-.98,6.38-1.96,9.58-2.92-1.09,4.28-2.08,8.58-2.97,12.9-1.67,8.13-2.98,16.34-3.93,24.59-.48,4.17-.87,8.34-1.16,12.53-.29,4.08-.69,8.26-.45,12.35.02.29.05.57.08.85-.04.21-.08.42-.11.63-.09.55.09,1.01.4,1.34.61,2.96,1.89,5.61,3.9,8.05,0,.01.02.02.03.03.09.18.22.32.36.42.74.87,1.53,1.69,2.35,2.5ZM185.19,226.35c-5.46,9.26-10.88,19-13.57,29.48-.95,3.71-1.49,7.49-1.52,11.29-.27-.89-.45-1.8-.56-2.73,2.68-14.97,7.72-29.4,14.01-43.23.65-1.42,1.31-2.84,1.98-4.25,2.42-.87,4.84-1.73,7.26-2.58-2.65,3.93-5.19,7.93-7.6,12.02ZM246.36,194.57c-13.55,3.67-27,7.7-40.34,12.09-1.86.61-3.7,1.25-5.55,1.87,1.08-1.49,2.16-2.97,3.28-4.44-.46-1.1-.85-2.22-1.18-3.35-2.38,3.08-4.66,6.22-6.9,9.4-2.77.96-5.54,1.94-8.3,2.93,1.47-2.99,2.98-5.97,4.53-8.92,8.27-3.7,16.8-6.77,25.49-9.35,9.66-.08,19.31-.16,28.97-.24ZM250.62,184.05c-11.34,2.01-22.62,4.5-33.67,7.76-3.37.03-6.73.06-10.1.08,1.22-.33,2.44-.67,3.66-1,16.11-4.31,32.3-8.31,48.57-11.98,5.7-1.29,11.41-2.52,17.12-3.72-.19.49-.38.97-.57,1.46-.3.75.32,1.65,1.05,1.85.85.23,1.55-.29,1.84-1.05.39-.99.78-1.99,1.17-2.98,2.36-.49,4.71-.99,7.07-1.47.92-.19,1.2-.96,1.03-1.67,1.83,2.24,3.85,4.27,6.07,6.17.17.15.35.29.52.44-14.63,1.73-29.26,3.55-43.77,6.13Z"/>
      <path d="M263.71,141.79c-1.59,5.18-4.32,9.97-7.96,13.98-1.3,1.43.82,3.55,2.12,2.12,4-4.4,6.99-9.62,8.74-15.3.57-1.85-2.33-2.64-2.89-.8Z"/>
      <path d="M247.94,114.08c-.87-.24-1.53.3-1.85,1.05-1.8,4.29-3.61,8.59-5.41,12.88-.31.75.34,1.65,1.05,1.85.87.24,1.53-.3,1.85-1.05l5.41-12.88c.31-.75-.34-1.65-1.05-1.85Z"/>
      <path d="M476.32,485.86c-12.05-4.57-23.78-9.94-35.13-16.05-1.7-.92-3.22,1.67-1.51,2.59,11.57,6.23,23.55,11.69,35.85,16.35,1.81.69,2.59-2.21.8-2.89Z"/>
      <path d="M482.22,506.97c-11.58-5.27-23.17-10.55-34.75-15.82-1.74-.79-3.27,1.79-1.51,2.59,11.58,5.27,23.17,10.55,34.75,15.82,1.74.79,3.27-1.79,1.51-2.59Z"/>
      <path d="M240.17,365.7c-6.13-2.91-8.92-9.43-11.49-15.31-1.34-3.07-2.68-6.15-4.38-9.04-1.68-2.86-3.66-5.54-5.81-8.07-8.87-10.43-20.64-17.81-31.31-26.21-5.99-4.72-11.81-9.81-16.48-15.87-.5-.65-1.28-.98-2.05-.54-.64.36-1.03,1.41-.54,2.05,8.53,11.06,20.2,18.87,31.19,27.24,5.46,4.16,10.82,8.54,15.46,13.62,4.64,5.07,8.01,10.74,10.76,17.02,2.95,6.74,6.07,14.34,13.14,17.69,1.74.82,3.26-1.76,1.51-2.59Z"/>
      <path d="M328.56,203.65c-.12-1.92-3.12-1.93-3,0,1.32,21.07-.44,42.28-5.23,62.85-2.37,10.19-5.47,20.22-9.27,29.97-3.87,9.92-8.6,19.4-13.7,28.73-5.6,10.24-11.32,20.58-14.2,31.98-.47,1.87,2.42,2.67,2.89.8,2.6-10.27,7.55-19.66,12.61-28.91,5.08-9.3,9.95-18.65,13.96-28.47,7.98-19.51,13.08-40.15,15.23-61.11,1.22-11.9,1.45-23.89.7-35.83Z"/>
      <path d="M298.08,151.32c-7.38-6.64-14.22-13.78-20.07-21.82-5.62-7.72-10.41-16.04-14.26-24.77-4.35-9.86-7.44-20.28-9.24-30.9-.32-1.9-3.21-1.09-2.89.8,3.19,18.82,10.51,36.91,21.22,52.71,5.36,7.91,11.56,15.23,18.47,21.82,7.58,7.22,15.89,13.71,22.87,21.55,7.19,8.07,13.05,18.1,13.32,29.16.05,1.93,3.05,1.93,3,0-.52-21.16-17.97-35.54-32.41-48.54Z"/>
      <path d="M249.74,210.38c-.75-3.51-2.92-6.84-6.63-7.58-3.23-.65-7.14.55-7.99,4.06-.52.24-.9.73-.9,1.35v5.5c0,.78.69,1.54,1.5,1.5.81-.04,1.5-.66,1.5-1.5v-4.92c.35-.15.63-.46.74-.96.5-2.38,3.52-2.61,5.42-1.83,3.09,1.26,3.7,5.36,3.83,8.28.19,4.17.01,8.45-.35,12.6-.38,4.36-1.55,8.52-2.52,12.77-1.05,4.58-1.68,9.39-.05,13.92.65,1.8,3.55,1.03,2.89-.8-1.67-4.64-.66-9.47.48-14.11,1.19-4.85,2.14-9.61,2.4-14.61.23-4.45.64-9.27-.31-13.66Z"/>
      <path d="M251.32,268.73c-.16-1.03-.94-2.04-1.86-2.51-.53-.27-1.13-.44-1.73-.39-.59.05-1.19.21-1.68.56-.52.36-.99.83-1.27,1.41-.14.29-.26.58-.32.9-.09.5-.07.83,0,1.34.05.34.41.73.69.9.32.19.8.27,1.16.15.33-.11.63-.3.83-.59.35.37.81.65,1.33.78.67.17,1.32.1,1.94-.2.44-.21.83-.6.93-1.09.09-.44.06-.81,0-1.26Z"/>
      <path d="M250.13,124.4c-1.65,6.58-4.27,12.84-7.78,18.63-1,1.66,1.59,3.16,2.59,1.51,3.64-6,6.37-12.54,8.08-19.35.47-1.87-2.42-2.67-2.89-.8Z"/>
      <path d="M259.77,131.51c-.88,0-1.42.69-1.5,1.5-.7,6.84-2.97,13.45-6.53,19.33-1,1.66,1.59,3.17,2.59,1.51,3.85-6.35,6.18-13.46,6.94-20.84.08-.81-.75-1.5-1.5-1.5Z"/>
      <path d="M634.09,571.66c-17.57-10.95-33.12-25.14-44.05-42.85-5.72-9.28-10.46-19.17-16.72-28.11-5.68-8.11-12.72-15.03-19.66-22.03-7.6-7.67-15.1-15.64-19.87-25.45-.84-1.74-3.43-.22-2.59,1.51,3.33,6.86,7.9,12.75,12.93,18.28-10.85-9.82-21.89-19.43-33.14-28.78-3.85-3.2-7.73-6.37-11.62-9.51-1.49-1.2-3.62.91-2.12,2.12,13.58,10.95,26.88,22.24,39.88,33.87,3.73,3.34,7.44,6.7,11.12,10.09.98.91,2.31.16,2.55-.81,6.23,6.3,12.64,12.47,17.95,19.5,6.68,8.84,11.55,18.84,17.19,28.34,4.52,7.61,9.75,14.7,15.72,21.2-.03,0-.05-.02-.08-.03-25.92-7.47-50.27-20.3-71.07-37.49-5.86-4.84-11.44-10.03-16.7-15.51-1.34-1.4-3.46.73-2.12,2.12,18.96,19.75,41.97,35.47,67.21,46.06,7.14,3,14.45,5.57,21.89,7.71,1.26.36,2.03-.86,1.81-1.84.83.88,1.67,1.75,2.52,2.61,8.24,8.26,17.56,15.42,27.46,21.58,1.64,1.02,3.15-1.57,1.51-2.59Z"/>
      <path d="M34.54,524.06c1.65-9.32,3.83-18.54,6.43-27.67,2.41-8.47,4.79-17.03,4.97-25.89.04-1.93-2.96-1.93-3,0-.16,7.95-2.18,15.66-4.34,23.26-2.16,7.64-4.22,15.29-5.79,23.08-3.11,15.39-4.78,31.08-4.95,46.77-.1,8.9.29,17.79,1.14,26.65.18,1.9,3.19,1.92,3,0-1.53-15.82-1.54-31.76-.03-47.58.5-5.26,1.21-10.49,2.07-15.69.02,0,.05,0,.07,0,.08,0,.17.02.25.03,0,0,.01,0,.03,0,.18.03.36.06.54.09.67.13,1.33.31,1.97.54.14.05.28.11.42.16.01,0,.32.14.35.16.29.13.57.28.85.43.32.18.63.37.93.57.15.1.3.21.45.31.05.04.06.04.08.06.05.04.11.08.16.13.61.49,1.53.64,2.12,0,.5-.55.65-1.59,0-2.12-2.23-1.81-4.87-2.96-7.7-3.31Z"/>
      <path d="M545.62,505.55c-16.81-13.35-32.13-28.54-45.6-45.25-3.79-4.71-7.43-9.54-10.92-14.48-1.1-1.56-3.71-.07-2.59,1.51,12.46,17.64,26.83,33.9,42.85,48.37,4.58,4.14,9.3,8.12,14.13,11.96,1.5,1.19,3.63-.92,2.12-2.12Z"/>
      <path d="M524.65,433.1c-12.34-4.42-23.44-11.89-32.26-21.57-1.3-1.43-3.42.7-2.12,2.12,9.17,10.08,20.77,17.75,33.59,22.35,1.82.65,2.6-2.25.8-2.89Z"/>
      <path d="M57.34,585.85c-8.21-4.55-15.68-10.28-22.2-17.03-1.34-1.39-3.46.73-2.12,2.12,6.69,6.92,14.39,12.83,22.81,17.5,1.69.94,3.2-1.65,1.51-2.59Z"/>
      <g>
        <path d="M43.22,563.16s0-.01,0-.02c.02.04.03.07.04.09,0-.01-.01-.03-.02-.04,0-.01,0-.01-.01-.03Z"/>
        <path d="M43.78,565.17s0,.04,0,.06c0-.02,0-.04,0-.06,0,0,0,0,0,0Z"/>
        <path d="M42.07,557.23c-.64-.45-1.7-.14-2.05.54-.41.77-.15,1.57.54,2.05.07.05.13.1.2.14.11.09.22.18.33.27.25.22.49.46.72.71.11.12.21.24.31.36,0,0,.02.02.03.04,0,0,.07.1.09.12.2.27.38.55.55.84.16.27.29.55.43.83,0-.02-.01-.03-.02-.05,0,.03.02.06.04.09.02.04.02.05.02.04.02.04.03.08.04.11.06.15.11.3.16.45.1.32.19.64.26.97.03.14.05.28.08.42,0-.01,0-.02,0-.03,0,.01,0,.03,0,.04,0,.02,0,.03,0,.05.02.14,0,.08,0,.01,0,.08.02.16.03.22.07.78.64,1.54,1.5,1.5.75-.03,1.57-.66,1.5-1.5-.3-3.33-2.01-6.31-4.75-8.23Z"/>
      </g>
      <path d="M144.25,292.45c-6.19-18.83-12.51-38.05-13.31-58.01-.4-10.06.97-19.95,2.82-29.81,1.87-9.96,3.82-19.88,5-29.96,1.34-11.39,1.94-22.87,1.82-34.34-.02-1.93-3.02-1.93-3,0,.1,10.25-.36,20.5-1.42,30.7-1.05,10.15-2.87,20.16-4.79,30.17-1.91,9.96-3.61,19.98-3.51,30.15.1,9.87,1.63,19.69,3.87,29.29,2.57,11.04,6.1,21.83,9.63,32.6.6,1.83,3.5,1.04,2.89-.8Z"/>
    </g>
  </g>
</svg>