<?xml version="1.0" encoding="UTF-8"?>
<svg id="sketches" xmlns="http://www.w3.org/2000/svg" viewBox="0 0 704.41 628.74">
  <defs>
    <style>
      .cls-1 {
        fill: #777;
      }

      .cls-2 {
        fill: #aaa7a7;
      }

      .cls-3 {
        fill: #5e5d5d;
      }

      .cls-4 {
        fill: #7a7a7a;
      }

      .cls-5 {
        fill: #c6c2c2;
      }
    </style>
  </defs>
  <g id="joker">
    <path class="cls-4" d="M329.3,371.17c-.38-.14-.76-.28-1.15-.38-5.72,1.99-11.68,3.37-17.99,3.91-26.63,2.28-55.64-11.98-73.23-31.38-17.89-19.73-27.28-45.46-27.48-72.01-.02-3.4.99-6.48,2.71-9.05-.01-2.14-.01-4.29,0-6.43-.91-2.06-1.4-4.28-1.32-6.53.09-2.67.55-5.09,1.33-7.27-.02-2.1-.05-4.21-.01-6.31.02-.86.04-1.74.09-2.61.01-.09.03-.21.05-.33,1.49.62,3,1.21,4.52,1.77,4.83-4.99,12.07-7.69,19.76-8.48,8.76-.91,17.88.61,26.51,2.13,10.32-1.88,20.57-4.11,30.6-7.2,3.23-1.63,6.46-3.27,9.68-4.94.16-.91.29-1.83.37-2.78.08-.94.07-1.83,0-2.7-9.8,1.41-19.68,2.19-29.41,1.46-8.63-.64-17.86-2.13-25.21-7.06-6.51-4.38-10.99-10.48-13-17.63-14.52-24.33-5.91-59.33,11.51-80.15,14.58-17.43,36.9-24.29,59.25-27.06.79-2.95.85-6.02-.03-8.75-2.92-9.02-10.69-13.07-19.55-12.06,3.33-3.22,5.47-7.69,5.27-12.22-.43-9.6-7.47-16.51-17-17l-45.68-2.36c-2.52-.13-5.01.49-7.28,1.62-15.32.16-30.67,7.25-40.26,19.27-.22.28-.43.58-.64.87-2.23,1.28-4.39,2.78-6.46,4.5-13.9,11.57-22.6,30.2-27.62,47.17-5.49,18.57-9.62,37.66-13.62,56.6-1.96,9.28-3.8,18.58-5.52,27.91-1.85,10.06-3.92,20.45-3.39,30.72.55,10.69,3.54,20.77,6.55,30.95,1.26,4.27,2.42,8.56,3.26,12.94.03.14.05.26.07.39.1,1.32.19,2.64.2,3.97,0,.81-.02,1.61-.05,2.42,0,.26-.01.47-.01.66-.08.26-.18.67-.31,1.28-1.11,5.14.02,10.78,3.04,14.97.25.88.56,1.76.93,2.62.72,1.68.5,3.26.66,5.89.36,5.92,2.24,11.51,7.6,14.76,5.52,3.35,11.11,2.77,16.14.29.14.25.28.5.42.75-27.05,4.57-50.71,19.68-74.09,33.71-6.96,4.18-13.91,8.37-20.84,12.59-2.09,1.27-4.33,2.52-6.57,3.81-4.47,23.52-10.66,46.68-16.74,69.85,15.68-11.63,32.02-22.37,48.42-33.02,19.17-12.44,40.4-25.24,63.13-30.4,4.53-2.53,9.08-5.04,13.65-7.52,3.23-1.75,6.46-3.49,9.7-5.22,1.49-.8,2.98-1.6,4.47-2.39.32-.17.64-.34.96-.51.45.27.91.53,1.36.8,7.4-2.83,15.4-2.67,22.42.79.18.04.37.07.55.12,4,.15,7.98,1.64,11.02,4.27.37-.37.74-.76,1.07-1.17,3.16,3.89,6.39,7.72,9.78,11.39,9.52,10.31,21.26,18.27,34.16,23.17-3.91,3.06-6.53,7.64-6.25,12.98.31,5.82.11,12.03,1.36,17.74,1.67,7.64,7.93,13.41,15.36,15.33,4.54,1.17,9.15,1.92,13.67,3.26,2.3.68,4.59,1.44,6.85,2.25,1.13.41,2.25.83,3.37,1.27.31.12.52.2.66.25.29.13.64.29,1.09.49,12.29,5.46,24.32-1.06,25.58-14.68.15-1.68.39-3.44.64-5.25,1.5-.5,2.91-1.19,4.21-2.04.47-13.95,1-27.89,1.5-41.84-2.11-1.95-3.8-4.45-4.8-7.15Z"/>
    <path class="cls-4" d="M256.13,547.23c-9-7.63-17.54-15.82-25.54-24.49-4.38-4.75-8.61-9.65-12.66-14.68-.71-.88-1.41-1.76-2.1-2.64-.26-.35-1.73-2.27-1.96-2.57-2.02-2.7-3.99-5.44-5.91-8.21-7.69-11.09-14.56-22.72-20.66-34.75-.3-.59-.65-1.15-1.03-1.68-.72-6.8-5.85-13.37-12.47-14.88-.64-.15-1.27-.25-1.9-.33-.81,1.28-1.63,2.56-2.43,3.84-8.97,14.29-17.68,28.71-26.4,43.15-1.33,2.21-2.67,4.42-4,6.62-1.82,6.82-2.1,14,.45,20.69,2.67,6.99,7.22,12.7,11.51,18.75,1.08,1.52,2.15,3.03,3.23,4.55,5.71,5.94,11.53,11.78,17.35,17.61,11.29,11.32,22.31,22.88,33.62,34.18l19.97,19.97c2.84.06,5.7,0,8.53-.08,1.42-2.28,2.83-4.57,4.21-6.87,9.57-15.93,19.15-31.8,29.4-47.23-2.91-4.31-7.05-7.45-11.19-10.95Z"/>
    <path class="cls-4" d="M544.86,526.84c2.48-4.51,4.95-9.03,7.43-13.54-.48-.31-.97-.61-1.5-.89-5.8-3.07-12.09-3.02-18.48-3.08-5.56-.05-11.12-.09-16.68-.11-14.53-.06-29.06-.01-43.58.14.07-.52.12-1.04.14-1.57.32-6.26.64-12.53.92-18.8.33-.51.66-1.03,1-1.54,3.34-5.16,2.91-12.3-.26-17.59.74-24.78.5-49.57-2.61-74.2-.12-.94-.26-1.86-.38-2.8,7.01-11.57,14.39-22.92,22.13-34.02,5.76-8.26,11.71-16.38,17.83-24.38.63-.82.74-.97.35-.46-.59.75-.28.36.91-1.17.75-.96,1.5-1.92,2.26-2.88,1.51-1.92,3.03-3.83,4.56-5.73,3.44-4.28,6.93-8.52,10.46-12.73,3.99-4.76,6.09-10.29,4.37-16.54-.25-.92-.61-1.84-1.04-2.74-5.64-.38-11.27-.79-16.91-1.24-16.54-1.33-33.06-2.82-49.57-4.48-8.81-.89-17.57-2.13-26.34-3.33-.22-.03-.38-.05-.53-.07-.16-.02-.36-.04-.65-.08-.94-.11-1.88-.23-2.83-.33-1.88-.21-3.77-.39-5.65-.52-.22-.02-.44-.02-.66-.04-1.47,2.45-2.33,5.29-2.27,8.42,0,.3-.07,1.83-.11,3.09-.5,1.77-.74,3.58-.68,5.34-.17.75-.34,1.5-.51,2.24-.9,3.91-1.97,7.78-2.68,11.73-1.96,10.8-1.65,20.98,1.47,31.53,2.6,8.79,5.62,17.38,7.77,26.31-.08.59-.16,1.18-.23,1.77-1.26,2.33-2.02,5-2.09,7.92-.07,3.05-.12,6.09-.15,9.14-.58,4.46-1.17,8.91-1.75,13.37-.35,2.64.41,5.41,1.84,7.91.46,24.8,2.18,49.55,5.04,74.2-13.18,20.38-26.36,40.76-39.55,61.14-2.98,4.6-3.43,12.61,0,17.16,4.23,5.61,8.63,9.24,15.23,11.66,4.58,1.68,9.68,2,14.47,2.71l31.57,4.72c18.18,2.72,36.36,5.44,54.53,8.15,10.89-21.39,21.86-42.73,33.42-63.78ZM436.69,545.31l.26-.41c.3.2.59.39.89.58-.39-.06-.77-.12-1.16-.17Z"/>
    <g>
      <path class="cls-2" d="M437.97,420.84l-.8-58.72c-.03-2.12-.5-4.21-1.31-6.17.28-1.11.44-2.27.42-3.46-.25-14.36-2.89-28.63-8.28-41.95-.99-2.44-2.41-4.63-4.17-6.39.26-4.98.37-9.97.28-14.97-.22-12.9-14.78-20.31-24.92-15.28,1.65,7.15,2.03,14.48.32,22.06-2.12,9.42-7.94,17.97-14.92,24.49-6.97,6.51-15.1,11.71-23.07,16.88-3.61,2.35-7.23,4.7-10.71,7.23-.15.11-.29.22-.44.32-.19.48-2.11,1.69-2.4,1.94-1.57,1.35-3.07,2.77-4.52,4.26-3.28,3.36-7.56,4.89-11.85,4.81-.37.41-.74.83-1.07,1.27.15-.44.28-.87.42-1.31-3.71-.2-7.38-1.59-10.4-4.01-5.7-.12-11.33-1.11-16.43-2.9-17.47-6.14-34.11-21.66-31.6-41.86.12-.95.3-1.88.51-2.78-.12-.25-.26-.5-.38-.76-.66-1.37-1.27-2.75-1.9-4.13,1.36,2.98-.11-.41-.5-1.34,1.58-.06,3.2-.34,4.85-.87.44-.14.88-.3,1.32-.46,2.77-3.71,6.94-6.1,12.51-6.46,4.89-2.94,8.18-8.11,8.29-14.38,1.41-4.45,1.78-9.2,1.81-14.12.05-9.04.72-18.93-1.93-27.6,4.46,1.64,9.43,2.17,14.17,2.55,2.21.18,4.43.27,6.65.29,4.96.9,10.08,1.24,15.34.96,17.15-.91,32.84-7.03,48.18-14.34,8.05-3.84,10.78-15.99,6.1-23.26-3.88-6.02-9.87-8.67-16.17-8.09-4.54-1.71-9.72-1.46-14.46,1.11-2.28,1.24-4.59,2.42-6.97,3.48-.08.03-.13.06-.19.09-.13.05-.3.11-.54.2-1.35.51-2.7,1.01-4.07,1.47-2.4.8-4.84,1.5-7.29,2.11-1.63,1.23-3.48,2.09-5.5,2.41-8.75,1.41-16.8.55-24.01-5.02-5.97-4.61-9.48-10.73-12.06-17.72-3.87-10.48-4.51-22.48-4.22-33.57.25-9.78,1.01-20.21,3.92-29.6.24-.78.52-1.54.82-2.3.21-.54,1.05-2.51,1.49-3.53.33-.78.66-1.56,1-2.33.13-.29.27-.58.4-.87,0-.5,0-1,.02-1.49.4-.4.81-.79,1.22-1.18.79-1.65,1.6-3.29,2.44-4.92,3.28-6.41,6.49-12.83,9.63-19.31.03-.07.05-.11.08-.16.03-.09.07-.17.11-.29.33-.86.67-1.71.98-2.57.41-1.14.8-2.29,1.16-3.45-1.61-5.46-5.53-10.23-11.45-11.27-36.73-6.48-69.86,21.84-82.62,54.57-12.48,32.01.32,68.67,27.45,88.48-7.4.64-14.81,1.32-22.12,2.54-9.08,1.51-18.29,5.15-24.88,11.75-8.35,8.36-10.67,19.98-9.58,31.38,3.85,40.1,19.93,78.79,53.11,103.17,13.81,10.14,30.5,16.76,47.62,18.57.08.13.14.26.22.39,4.86,7.54,15.2,11.15,23.26,6.1,3.46-2.17,6.91-4.33,10.37-6.5.48-.3.92-.61,1.35-.94,2.71,10.46,4.43,19.86,5.23,28.96.98,11.17.98,22.38.14,33.56-1.11,14.78,19.31,22.32,29.02,12.02.64-.67,1.26-1.36,1.88-2.04.19.16.39.3.59.45.36,1.46.9,2.92,1.65,4.34.47.84.9,1.71,1.32,2.58.02.04.03.07.04.12.56,1.55,1.05,3.12,1.46,4.72.13.5.78,3.8.87,3.85.14,1.29.22,2.6.27,3.89.1,2.94,0,5.91-.3,8.84-.04-.07-.48,2.73-.59,3.23-.4,1.91-.89,3.8-1.44,5.68-.18.6-.37,1.19-.55,1.79-2.43.51-4.86,1.02-7.29,1.53-3.77-6.58-11.79-10.78-19.36-8.32-8.61,2.79-14.6,11.79-11.87,20.91,6.03,20.16,12.06,40.31,18.08,60.47,2.07,6.91,8.87,12.82,16.39,12.48,8.04-.36,13.57-5.17,16.39-12.48-.24.61-.39.99-.48,1.21.15-.34.45-1.01.81-1.67.59-1.08,1.27-2.08,1.91-3.12.01-.02.02-.04.03-.06.23-.27.46-.55.7-.81.99-1.04,1.96-2.1,3-3.09,1.48-1.41,3.04-2.71,4.63-4,.24-.16,1.51-1.14,2.28-1.69,1.23-.88,2.46-1.75,3.7-2.62,10.89-7.62,21.48-15.13,29.36-26,9.47-13.06,11.34-29.82,12-45.47.72-17.16.28-34.35.04-51.52Z"/>
      <path class="cls-2" d="M379.49,560.88c-.11.27-.13.32,0,0h0Z"/>
    </g>
    <path class="cls-2" d="M286.03,541.53c-.68-7.62-1.36-15.25-2.05-22.87-.87-9.74-1.42-18.19-7.89-26.04-.45-.55-.91-1.09-1.37-1.63-1.55-3.93-4.41-7.32-8.08-9.28-4.83-5.36-9.78-10.63-14.68-15.92,3.72-9.83,5.03-20.21,6.41-30.58.15-1.11.29-2.23.44-3.34.02-.14.05-.36.1-.68.38-2.55.76-5.1,1.24-7.64.59-3.12,1.34-6.19,2.24-9.22,5.56-7.13,7.34-17.06,1.77-25.17-2.2-3.2-5.37-5.76-8.91-7.2-20.92-28.68-58.84-42.59-93.49-33.29-20.83,5.59-39.92,17.8-58.21,28.86-17.54,10.59-37.94,20.56-50.68,37.05-15.79,20.43-11.93,47.01-6.66,70.43.49,2.19,1.59,4.28,3.09,6.09-3.76,8.11-6.05,17.26-3.74,25.8,3.02,11.17,13.41,18.72,21.49,26.27,17.69,16.55,35.64,32.83,53.8,48.86,5.49,4.85,14.03,6.9,20.6,2.66,3.51-2.26,6.18-5.64,7.5-9.47,4.07,4.42,8.19,8.8,12.34,13.17,6.14,6.46,17.94,6.65,24.04,0,6.36-6.93,6.55-17.15,0-24.04-7.18-7.56-14.36-15.14-21.3-22.93-3.47-3.89-6.88-7.84-10.19-11.86-1.71-2.07-3.4-4.16-5.04-6.28-.18-.24-.64-.85-.87-1.17-.86-1.16-1.71-2.31-2.56-3.48-1.27-1.75-2.51-3.53-3.72-5.32,2.28-8.31,5.02-16.49,7.81-24.63,3.83-11.17,7.98-22.23,12.37-33.19,6.7-7.81,13.58-15.46,20.65-22.94-1.4,3.35-1.76,7.23-1.04,11.3,2.04,11.6,8.81,22,14.65,32.02,5.12,8.79,10.42,17.49,16.33,25.78,12.8,17.96,28.07,34.46,48,44.54,10.47,5.3,26.81-.94,25.58-14.68Z"/>
    <path class="cls-2" d="M600.09,300.48c-2.88-1.52-6.33-2.24-9.73-2.08-.91-.38-1.88-.67-2.92-.84-15.59-2.48-31.17-4.97-46.76-7.45-8.75-1.39-18.72,2.24-20.91,11.87-.78,3.42-.46,7.39.86,10.96-9.88,10.16-19.75,20.32-29.63,30.48-11.04,11.36-24.93,22.77-32.28,37.04-8.5,16.51-6.55,34.94-5.16,52.81.59,7.57,1.31,15.13,2.15,22.67-.3,2.41,0,4.79.81,7,.99,8.22,2.11,16.43,3.35,24.62,1.21,7.96,1.6,17.35,5.97,24.33,6,9.57,16.11,11.75,26.62,10.99l51.71-3.78c11.17-.82,24.18.15,31.19-10.27,5-7.43,3.92-19.12,4.5-27.82,1.17-17.57,2.34-35.14,3.51-52.71.65-9.77,1.25-19.55,1.98-29.31.72-9.62,1.32-16.49,2.79-24.67,3.46-19.24,10.02-33.72,18.06-50.58,3.82-8.01,2.48-18.73-6.1-23.26Z"/>
    <path class="cls-5" d="M397.09,181.48c-1.53-14.56-7.92-26.98-14.76-39.71-5.53-10.31-11.43-20.45-18.12-30.06-5.25-7.54-10.95-14.83-17.21-21.57-.72-2.79-1.44-5.58-2.14-8.38-2.07-8.22-10.53-13.27-18.65-12.18-.79.11-1.56.28-2.31.49-4.2-2.85-8.6-5.44-13.22-7.69-7.98-3.89-18.75-2.43-23.26,6.1-4.04,7.64-2.43,19.1,6.1,23.26.2.1.39.2.58.29-4.09,19.5-4.62,39.59-4.6,59.48.01,11.03-.28,22.73,3.58,33.23,4.03,10.97,11.14,19.85,20.84,26.35,19.24,12.87,46.5,9.51,62.87-6.5,1.97-1.93,3.65-4.05,5.01-6.28,7.95-1.18,16.22-8,15.29-16.83Z"/>
    <path class="cls-5" d="M404.62,242.62c-.43-10.57-8.18-19.09-18.98-19.44-5.87-.19-12.07,1.29-17.9,2.05-13.06,1.69-26.13,3.38-39.19,5.07-8.92,1.16-19.5.76-26.5,7.21-4.23,3.9-6.09,8.78-6.55,14.37-.11,1.33-.11,2.67-.19,4.01-.04.76-.09,1.53-.17,2.29-.51,2.73-1.09,5.42-1.9,8.07-.39,1.27-.9,2.5-1.3,3.77-.02.05-.03.09-.05.13-.26.55-.51,1.11-.79,1.65-1.31,2.63-2.83,5.11-4.44,7.57-.2.3-.35.54-.48.74-1.24,1.54-2.59,3-3.97,4.42-2.95,3.04-4.44,6.63-4.75,10.23-1.96.79-3.79,2.01-5.37,3.73-2.85,3.11-4.62,7.43-4.86,11.77-2.37,6.14-1.68,13.55,3.59,18.18,13.47,11.81,30.15,22.88,48.02,24.74,2.68,3.36,6.79,5.57,11.32,5.57,6.08,0,11.44-4.02,13.55-9.49,9.64-4.19,17.63-10.76,25.86-17.36.43-.35.87-.69,1.31-1.04.06-.02,2.17-1.64,2.41-1.8,1.62-1.15,3.27-2.26,4.99-3.28,5.34-3.16,10.96-5.23,15.49-9.69,9.64-9.49,10.44-22.56,10.55-35.28.11-12.68.83-25.51.32-38.17Z"/>
    <path class="cls-5" d="M374.01,447.22c-10.03-7.75-21.19-4.94-32.51-2.53-.37.08-.66.14-.92.19-.09,0-.18,0-.28,0-.79-1.93-1.94-4.06-2.26-4.61-.17-.29-.36-.56-.54-.83,3.87-2.64,6.47-7.08,6.47-11.98,0-7.86-6.64-14.5-14.5-14.5s-14.5,6.66-14.5,14.5c0,1.26.19,2.47.5,3.64-.25.05-.5.1-.75.16-6.29,1.62-9.72,5.86-14.2,9.87.11-.12,0-.08-.62.36-.01,0-.02,0-.03.02-.22.06-.43.12-.65.19-.06,0-.1,0-.16,0-.09,0-.15,0-.23,0-.39-.28-.9-.66-1.26-.91-.29-.48-.57-.97-.8-1.49-2.95-5.7-9.85-8.82-16.26-8.34-4.05-5.7-11.64-9.01-18.48-6.8-8.82,2.85-14.33,11.71-11.87,20.91.32,1.18.61,2.35.87,3.54,0-.02.11.72.19,1.25.03.71.13,2.17.14,2.38.03.91.04,1.82.01,2.74-.18,6.24-.67,11.59,2.4,17.46,4.37,8.35,12.52,10.72,20.92,11.25-6.36,33.1-3.36,68.14-2.2,101.61-1.57,1.76-2.77,3.92-3.36,6.55-1.86,8.18,2.49,19.39,11.87,20.91,14.55,2.36,29.2,3.71,43.95,3.18,8.5-.3,17.66-.1,23.92-6.78,7.61-8.12,4.53-19.19,2.13-28.79-3.11-12.41-7.73-24.36-11.32-36.63-.89-3.02-1.71-6.06-2.43-9.13-.39-1.66-.74-3.32-1.06-4.99-.04-.22-.3-1.8-.45-2.67-.08-.82-.28-2.59-.3-2.83-.13-1.68-.21-3.36-.22-5.04-.03-3.41.23-6.78.68-10.16.73-5.46-2.74-10.8-7.47-14,.2-3.61.4-7.23.64-10.84,4.19.18,8.38.39,12.56.66,10.15.65,21.56,3.5,30.91-1.76,13.3-7.48,12.86-26.94,1.44-35.76Z"/>
    <path class="cls-5" d="M693.02,487.77c-1.59-16.98-3.98-33.92-7.35-50.64-3.2-15.87-6.82-31.94-14.18-46.47-6.21-12.28-15.93-22.49-25.41-32.29-4.21-4.36-8.44-8.71-12.32-13.37-.51-.61-2.01-2.62-1.65-2.11-.67-.93-1.33-1.87-1.96-2.83-1.92-2.93-3.58-5.98-5.03-9.17-2.78-6.07-10.87-8.93-16.94-8.12-6.53.88-12.44,5.62-14.13,12.18-9.19,35.53-13.94,72.39-13.74,109.1.05,8.52.52,17.05.36,25.57-.03,1.79-.09,3.59-.19,5.38-.03.52-.47,5.15-.38,4.99-.59,3.88-1.59,7.67-2.81,11.4-.12.37-.21.66-.28.9-.12.18-.26.42-.44.74-.81,1.41-1.61,2.8-2.49,4.16,0-.05-1.21,1.58-1.72,2.13-.38.41-3.33,3.03-3.03,2.95-.87.61-1.77,1.18-2.69,1.71-.5.29-1.03.53-1.55.79-.08.03-.16.05-.26.09-.64.1-2.88.41-3.27.58-1.79-.12-3.93-.3-1,.23-3.53-.64-7.26-.36-10.61.82-9.51.72-15.53,7.64-16.36,16.94-.03.36-.05.64-.07.86-.05.18-.09.39-.15.65-.23.98-.43,1.97-.68,2.95-.7,2.71-1.74,5.28-2.59,7.93-.05.16-.08.26-.1.34-.07.15-.15.32-.25.54-.53,1.17-1.07,2.34-1.62,3.5-1.22,2.57-2.49,5.11-3.76,7.66-5.19,10.44-10.52,21.18-12.45,32.77-1.45,8.74,2.29,18.73,11.87,20.91,5.66,1.29,12.72-.39,17.07-4.63,5.05,5.33,13.15,7.7,20.57,3.13,24.28-14.97,48.58-29.92,72.85-44.9,11.14-6.87,22.19-13.87,32.56-21.87,11.74-9.04,21.96-20.01,22.86-35.38,2.31-2.84,3.68-6.36,3.33-10.13Z"/>
    <path class="cls-5" d="M65.99,382.61c-.07-6.14-3.56-12.3-8.99-15.15-1.98,9.11-4.61,18.11-7.28,27.04-4.64,15.52-8.76,31.17-12.75,46.87-4.06,15.98-8.92,31.7-13.37,47.57-3.77,13.43-7.62,26.85-11.37,40.29.02,2.09.03,4.17.08,6.26.2,8.88,7.68,17.42,17,17,2.48-.11,4.88-.74,7.07-1.76,1.44-.01,2.88-.21,4.29-.67,8.82-2.86,14.33-11.7,11.87-20.91-3.15-11.79-4.01-19.5-4.21-32.25-.19-11.87.62-23.73,1.95-35.52.04-.32.15-1.3.19-1.63.19-1.37.39-2.74.6-4.1.43-2.79.9-5.57,1.41-8.35,1.08-5.86,2.33-11.69,3.76-17.47,2.94-11.88,6.65-23.54,11.01-34.97,1.51-3.95.79-8.43-1.27-12.25Z"/>
    <path class="cls-4" d="M388.14,55.86c-1.89-12.08-10.71-24.17-18.98-32.84-10.55-11.06-24.45-12.3-38.86-11.65-13.4.6-26.66,2.24-38.71,8.52-5.29,2.75-10.36,6.66-14.18,11.23-2.29,2.74-4.31,5.5-5.97,8.64-.61,1.15-1.28,2.3-1.81,3.48-.13.29-.22.5-.28.67-.17.1-.43.3-.85.68-6.58,6.02-6.56,18.02,0,24.04,7.03,6.46,17.03,6.42,24.04,0,3.87-3.55,6.13-7.92,8.61-12.41.41-.79.87-1.55,1.35-2.3.13-.14.27-.31.44-.5.64-.67,1.31-1.31,2.01-1.92.14-.09.28-.19.45-.31,1.52-.89,3-1.79,4.57-2.56-.55.36,3.96-1.24,4.43-1.36,1.21-.31,2.42-.59,3.64-.82,2.11-.33,2.46-.41,1.02-.25,2.47-.37,4.99-.49,7.48-.64,4.76-.29,9.51-.31,14.27-.41.56.05.97.08,1.25.09.46.1.92.22,1.38.35.04.05.21.17.49.33.06.12.45.49,1.18,1.14.76.82,1.49,1.66,2.18,2.53-.94-1.24-.81-1.08.39.5,1.33,1.77,2.65,3.54,3.86,5.4,1.04,1.59,2.11,3.26,2.9,5-.42-.65.8,3.82.9,4.41,1.38,8.81,12.86,14.48,20.91,11.87,9.58-3.1,13.35-11.47,11.87-20.91Z"/>
    <path class="cls-1" d="M411.81,160.51c-1.5-1.22-2.8-2.56-4.18-3.9-.11-.13-.19-.23-.28-.33-.42-.62-.84-1.24-1.23-1.89-.15-.26-1.05-1.99-1.55-2.92-.29-.86-1.15-3.13-1.26-3.48-.57-1.87-1.03-3.77-1.42-5.68-.14-.67-.74-5.53-.62-3.88-.28-3.12-.48-6.23-.53-9.36-.12-6.94.14-13.94.13-20.92,2.86-2.93,4.62-6.75,4.06-11.04-3.79-28.62-10.95-60.13-40.47-72.59-13.7-5.78-28.71-6.34-43.13-2.95-14.17,3.34-30.57,11.23-37.67,24.6-4.17,7.85-2.24,18.85,6.1,23.26,6.95,3.67,16.27,2.64,21.43-3.42,1.85,4.79,5.63,8.75,11.01,9.98,6.31,1.44,13.47-.63,17.67-5.48,1.3-.03,2.59.03,3.89.08.18,0,.33,0,.47.01.17.05.39.11.64.18,1.38.36,2.77.66,4.13,1.1.58.19,1.15.4,1.72.61.06.03.1.05.17.08,1.4.89,2.95,1.55,4.35,2.46.78.51,3.73,3.21,1.13.75,1.04.99,2.1,1.9,3.09,2.94.57.61,1.43,1.79,1.58,1.98.74,1.15,1.45,2.31,2.08,3.53.2.38.38.78.57,1.17.05.16.21.63.52,1.44.72,2.74,1.47,5.42,2.01,8.2.02.37.34,2.66.38,3.15.15,1.92.24,3.84.3,5.77.84,27.72-3.44,60.76,20.86,80.61,6.88,5.61,17.4,7.23,24.04,0,5.71-6.22,7.36-18.04,0-24.04Z"/>
    <path class="cls-3" d="M369.95,77.17c-4.56-9.43-12.85-16.5-22.88-19.47-1.6-.47-3.27-.66-4.94-.6-3.2-2.01-6.69-3.53-10.56-4.31-8.69-1.74-18.77,2.49-20.91,11.87-1.93,8.46,2.55,19.04,11.87,20.91.56.08,1.1.2,1.64.34,0,.06.32.26.91.59.59.52,1.15,1.06,1.7,1.63,2.63,2.65,4.95,5.62,7.33,8.49.4.49.64.77.79.93.1.17.27.43.54.83,1.21,1.8,2.45,3.57,3.53,5.46.22.38,1.03,2.14,1.32,2.67.5,1.8,1.37,5.1.99,2.24,1.16,8.78,6.98,17.45,17,17,9.31-.42,16.87-7.47,17-17,.15-10.87-.52-21.66-5.33-31.6Z"/>
    <path class="cls-4" d="M466.84,260.8c-.39-.23-2.59-1.66-3.39-2.14-.61-.56-2.2-1.91-2.47-2.17-.91-.88-1.76-1.81-2.61-2.73,5.25-26.35,8.69-54.54-.89-79.91-.75-1.97-1.54-3.9-2.38-5.8-1.21-5.86-2.73-11.65-4.63-17.31-2.22-6.59-4.66-13.51-8.15-19.54-3.98-6.87-9.12-11.42-15.9-14.73-.16-.51-.33-1.03-.48-1.54-1.15-3.83-2.13-7.71-2.96-11.62-.35-1.68-.68-3.36-.98-5.05-.1-.59-1.08-7.09-.67-3.94-1.15-8.78-7-17.45-17-17-8.22.37-18.23,7.55-17,17,2.19,16.79,5.91,32.62,12.83,48.13,1.56,3.49,3.28,6.88,5.17,10.18-1.96,2.68-3.1,5.94-2.93,9.56.32,7.03,1.98,13.64,3.72,20.3-1.72.36-3.36.98-4.78,1.9-.13.08-.24.17-.36.25-4.16-3.47-9.8-5.11-15.2-3.37-8.62,2.79-14.58,11.78-11.87,20.91,5.91,19.92,14.72,38.99,26.36,56.2.14.33.3.65.45.98.08,3.68.16,7.36.24,11.04.19,8.88,7.68,17.42,17,17,1.54-.07,3.05-.34,4.5-.77-1.07,7.11-.95,13.62.09,20.92.47,3.33,3.9,7.05,6.66,8.67,3.11,1.82,7.69,2.59,11.17,1.46,3.51-1.14,6.89-3.31,8.67-6.66,1.95-3.69,2.04-7.08,1.46-11.17.5,3.53.05-.52.03-1.02-.05-1.02-.05-2.04-.03-3.06.02-1.02.1-2.04.17-3.06,0-.05,0-.08,0-.13.04-.18.1-.46.18-.87.05-.29.09-.58.13-.88,7.61,3.52,17.9.93,21.96-6.76,4.3-8.13,2.12-18.49-6.1-23.26Z"/>
    <path class="cls-5" d="M407.59,98.32c-1.81-11.68-3.89-23.47-8.44-34.44-4.64-11.19-10.96-21.21-17.91-31.1-7.13-10.15-15.83-20.3-28.66-22.78-8.7-1.69-18.76,2.45-20.91,11.87-1.91,8.4,2.54,19.1,11.87,20.91.74.14,1.46.35,2.19.52.1.06.18.1.29.18.19.12.34.21.49.3.01.01.02.02.03.04.62.72,1.41,1.34,2.07,2.04.67.72,1.28,1.49,1.94,2.21,0,0,0,0,.01.01.02.02.02.04.04.07,1.31,2,2.76,3.93,4.11,5.91,2.83,4.15,5.63,8.34,8.15,12.68,1.18,2.04,2.31,4.11,3.36,6.23.09.18.66,1.4.94,1.96.22.64,1.13,2.99,1.12,2.96,3.3,9.5,4.98,19.56,6.52,29.47.22,1.45.44,2.9.64,4.35.05.4.19,1.43.21,1.66.31,2.56.6,5.12.86,7.68.58,5.77,1,11.55,1.3,17.34.46,8.87,7.49,17.43,17,17,8.81-.39,17.5-7.49,17-17-.7-13.43-2.17-26.78-4.23-40.07Z"/>
    <path class="cls-2" d="M404.8,132.6c-.75-.94-1.47-1.91-2.18-2.9-1.62-12.41-3.85-24.73-7.12-36.8-.02-1.13-.16-2.27-.45-3.4-3.82-14.59-8.45-29.26-18.63-40.73-5.64-7.92-12.6-14.75-21.36-19.61-3.1-1.72-6.63-2.21-9.94-1.61-3.87-1.81-7.74-3.5-11.48-5.11-7.18-3.1-15.55-2.13-19.84,5.2-1.15,1.96-1.76,4.39-1.84,6.88-5.63,1.93-9.86,8.25-9.86,13.96,0,8.58,6.68,13.61,14.5,14.5-2.37-.27.76.19,1.21.29,1.18.26,2.35.57,3.5.92.2.06,1.62.58,2.29.8.61.31,2.26,1.09,2.22,1.06,1.93,1.02,3.79,2.16,5.58,3.4.33.23,1.25.95,1.57,1.18.81.68,1.61,1.37,2.4,2.09,7.52,6.9,11.32,12.39,16.36,21.51,8.2,14.83,14.37,30.36,22.92,44.74,1.23,10.64,1.99,21.38,2.63,32.33.46,7.82,6.33,14.5,14.5,14.5,7.49,0,14.96-6.64,14.5-14.5-.36-6.14-.77-12.29-1.26-18.45,5.8-6.04,4.6-14.19-.22-20.26Z"/>
    <path class="cls-4" d="M387.59,143.66c-5.57-22.29-17.42-43.01-33.74-59.19-17.58-17.42-42.77-33.39-68.45-27.31-7.62,1.8-12.15,10.48-10.13,17.84,2.14,7.8,10.19,11.94,17.84,10.13,3.23-.77,6.28-.62,10.48.56,4.53,1.28,7.7,2.89,12.12,5.54,1.98,1.18,3.91,2.44,5.81,3.75.84.58,1.67,1.18,2.5,1.79,1,.73-.29-.31,1.32,1.02,3.56,2.94,6.96,6.04,10.15,9.38,6.32,6.61,9.91,11.5,14.61,19.87,4.76,8.48,7.04,14.4,9.52,24.33,1.9,7.6,10.42,12.17,17.84,10.13,7.72-2.12,12.03-10.21,10.13-17.84Z"/>
    <path class="cls-4" d="M556.46,420.63c-1.18-2.02-2.98-3.74-5.09-5,2.28-4.25,2.37-9.41-.12-14.13-3.65-6.88-8.89-12.1-15.02-16.76-2.79-2.12-7.97-2.34-11.17-1.46-3.36.93-7.01,3.53-8.67,6.66-1.78,3.37-2.67,7.44-1.46,11.17,1.19,3.66,3.3,6.04,6.26,8.35-.64-.5-1.28-.99-1.93-1.49,1.67,1.33,3.2,2.78,4.6,4.37.84,1.22,1.64,2.47,2.34,3.79.1.19.23.37.34.56-5.18.27-9.18,2.8-12.83,6.09.1-1.64.23-3.28.44-4.93.95-7.79-7.34-14.5-14.5-14.5-8.63,0-13.55,6.69-14.5,14.5-1.77,14.5,2.21,29.49,17.07,35.16,5.67,2.17,12.1,2.33,17.88.4,2.09-.7,4.01-1.67,5.8-2.84,1.98.49,4.07.61,6.22.41,7.36-.71,13.32-6.4,19.12-10.51,6.38-4.52,9.4-12.66,5.2-19.84Z"/>
    <path class="cls-4" d="M310.89,478.44c-.09-1.93-.66-3.73-1.72-5.39-2-3.1-4.97-5.82-8.67-6.66-1.28-.17-2.57-.35-3.85-.52-2.62,0-5.06.67-7.32,1.98-1.85.88-3.7,1.77-5.55,2.65-1.69.91-3.04,2.15-4.06,3.73-.2,0-.41-.03-.61-.03-7.76,0-14.62,6.64-14.5,14.5.58,36.42-.53,72.84-3.33,109.16-.6,7.82,7.1,14.5,14.5,14.5,8.35,0,13.9-6.66,14.5-14.5,2.58-33.46,3.7-67.01,3.42-100.57,1.65-.3,3.23-.87,4.72-1.74,1.85-.88,3.7-1.77,5.55-2.65,1.69-.91,3.05-2.16,4.07-3.73,1.28-1.4,2.15-3.04,2.6-4.93.6-1.93.69-3.85.26-5.78Z"/>
    <path class="cls-4" d="M187.15,441.75c-1.45-16.7-6.15-33.52-9.4-49.96-3.18-16.05-6.36-32.1-9.54-48.15-1.52-7.69-10.68-12.09-17.84-10.13-8.02,2.2-11.65,10.13-10.13,17.84,3.12,15.73,6.23,31.46,9.35,47.19l4.77,24.08c1.36,6.85,3.56,14.23,3.93,21.04.3,5.54-1.75,8.36-5.1,14.39-3.69,6.64-6.94,13.51-9.41,20.7-4.98,14.5-6.63,30.45-4.83,45.66.92,7.78,6,14.5,14.5,14.5,7.12,0,15.43-6.67,14.5-14.5-1.74-14.71-.42-27.58,5-41.27,5.24-13.21,15.59-25.41,14.19-41.39Z"/>
    <path class="cls-4" d="M531.48,507.07c-12.27-10.77-24.36-22.87-32.81-35.36-9.03-13.34-15.06-26.84-16.78-42.29-4.09-36.7,10.94-71.62,25.93-104.71,3.23-7.13,2.05-15.6-5.2-19.84-6.22-3.64-16.59-1.97-19.84,5.2-13.77,30.41-27.02,61.14-30.01,94.76-2.75,30.94,5.75,61.14,24.12,86.13,9.95,13.53,21.48,25.54,34.08,36.61,5.88,5.16,14.72,5.79,20.51,0,5.27-5.27,5.91-15.32,0-20.51Z"/>
    <path class="cls-4" d="M371.96,276.3c-14.71,9.4-30.02,17.76-45.58,25.67-14.33,7.29-29.31,16.52-45.2,19.8-16.09,3.33-29.98-7.82-43.07-15.57-15.66-9.27-31.17-18.82-46.67-28.36-10.44-6.43-20,10-9.59,16.41,16.61,10.22,33.22,20.45,50.03,30.34,7.41,4.36,14.77,9.06,22.66,12.5,9.12,3.98,18.33,5.1,28.15,3.62,17.65-2.67,34.21-12.72,49.94-20.65,16.69-8.41,33.16-17.28,48.91-27.36,10.27-6.57.75-23.02-9.59-16.41Z"/>
    <path class="cls-5" d="M398.26,278.55c-3.98-3.98-9.4-3.2-13.44,0-15.04,11.91-29.64,24.36-43.78,37.33-9.03,8.28,4.43,21.69,13.44,13.44,14.14-12.97,28.74-25.42,43.78-37.33,4.03-3.19,3.33-10.1,0-13.43Z"/>
    <path class="cls-4" d="M361.07,223.74c-16.38,2.84-35.66,4.95-51.79-.09-1.45-.45-2.8-.57-4.03-.41-1.69-.3-3.3-.09-4.76.47-.89-.89-1.74-2.07-1.99-3.27,2.42.67,5.13.38,7.58-.8,8.42-4.03,17.01-7.61,25.84-10.64,4.81-1.65,9.92-3.32,15.09-4.13.74.17,1.53.26,2.4.26l10.72-.09c4.69-.04,8.78-3.58,9.33-8.24.5-4.22-2.08-9.7-6.8-10.42-.84-.13-1.69-.23-2.53-.32,0,0,0-.01,0-.02h-.15c-20.61-2.17-41.19,6.6-59.69,15.38-.47-.32-.98-.61-1.51-.86-1.76-7.21-6.14-13.67-12.48-17.82-7.67-5.02-16.75-5.48-25.14-2.85-.97.17-1.9.49-2.74.98-.47.19-.94.38-1.4.59-2.66,1.19-4.16,3.9-4.53,6.77-1.46,2.54-2.58,5.16-3.36,7.88-.69.95-1.35,1.92-1.97,2.93-.31-.07-.62-.12-.93-.19-1.91-.44-3.8-.97-5.67-1.56-4.74-1.5-10.58,1.76-11.69,6.64-.12.52-.19,1.04-.23,1.55-15.73-.15-31.82.21-44.84,10.22-4.06,3.12-6.23,8.17-3.41,13,2.34,4,8.9,6.55,13,3.41,8.11-6.23,17.75-7.68,27.75-7.79,6.08-.07,12.15.26,18.22.23,1.44,0,2.89-.04,4.33-.09-1.08,1.43-1.87,3.03-2.25,4.68-3.19-.32-6.51.92-8.66,4.47-2.67,4.41-12.05,5.27-16.68,5.5-7.62.38-14.73-.93-21.9-3.46-4.41-1.56-9.56,1.4-11.21,5.5-1.89,4.71-.02,8.95,3.89,11.86,18.53,13.84,44.59,11.09,60.7-5.1,2.25-2.27,2.99-4.86,2.72-7.29.02-.08.03-.15.05-.23,2.54.07,5.09-.81,6.93-2.72.7-.72,1.41-1.53,2.12-2.39,1.19-.43,2.26-1.12,3.06-2.12,2.22-2.79,4.15-5.74,5.78-8.8.64-.81,1.27-1.63,1.86-2.47.98-1.39,1.82-2.84,2.58-4.34,3.21,8.82,9.26,16.21,17.02,21.73,2.62,1.86,5.46,1.87,7.93.79.32.21.65.42,1.01.61,12.92,6.76,25.05,14.2,40,14.71,6.7.23,14.04.21,20-3.27,5.77-3.37,9.71-8.85,13.15-14.43,4.72-7.64-3.04-15.29-10.73-13.96Z"/>
    <path class="cls-2" d="M296.8,186.4c-5.38-10.87-16.9-16.96-29.29-16.01-6.75.52-12.64,2.48-16.94,7.95-.77.99-1.65,2.06-2.4,3.18-2.88-2.88-8.21-3.28-11.56-1.32-4.87,2.85-5.44,8.26-3.41,13,2.94,6.83,9.23,9.59,15.49,9.07,1.23.18,2.48.07,3.68-.4,1.18-.47,2.29-1.03,3.38-1.63.64-.33,1.25-.69,1.85-1.09,2.8-1.73,5.46-3.64,8.48-4.95,3.23-1.4,5.92.36,8.27,2.68,2.1,2.08,4.48,2.85,6.76,2.73,1.3.75,2.55,1.59,3.85,2.34,3.53,2.05,7.26,3.32,11.36,3.41,4.97.12,9.73-4.45,9.5-9.5-.23-5.08-3.94-9.11-9.01-9.47Z"/>
    <path class="cls-5" d="M313.33,180.83c-3.04-1.87-4.06-7.96-4.88-12.9-.84-5.06-7.11-7.89-11.69-6.64-5.37,1.48-7.48,6.61-6.64,11.69.81,4.87,2.03,9.61,4.16,13.81,0,.73.06,1.47.19,2.21.71,4,3.69,7.1,7.26,8.75,3.93,1.81,7.74,1.26,11.59-.51,6.77-3.11,5.58-12.97,0-16.41Z"/>
    <path class="cls-3" d="M262.75,381.51c-12.23,0-12.25,19,0,19s12.25-19,0-19Z"/>
    <g id="Layer_12" data-name="Layer 12">
      <path d="M344.53,241.22c-10.22-.32-20.32-2.01-30.09-5.02-1.23-.38-1.76,1.55-.53,1.93,4.55,1.4,9.19,2.51,13.87,3.34-2.36-.06-4.71-.14-7.06-.3-3.62-.24-7.15-.95-10.29-2.86-.83-.5-1.6-1.08-2.33-1.7-.38-.91-.63-1.87-.65-2.9-.03-1.29-2.03-1.29-2,0,0,.04,0,.07,0,.11-.59-.77-1.13-1.57-1.6-2.43-.62-1.13-2.35-.12-1.73,1.01,1.14,2.08,2.58,3.84,4.24,5.31.7,1.58,1.75,3.02,3,4.33-6.77-3.96-12.92-8.92-18.21-14.76-.87-.96-2.28.46-1.41,1.41,7.33,8.09,16.31,14.59,26.3,19.01.34.15.65.1.91-.04.25.14.49.27.73.4,6.07,3.24,12.79,5,19.41,6.69,1.28.33,1.7-1.46.53-1.93-4.88-1.95-9.75-3.9-14.63-5.85-3.95-1.58-8-3.15-11.31-5.87,2.37,1.05,4.95,1.69,7.65,1.95,4.2.41,8.46.38,12.68.52,4.22.14,8.6.6,12.76-.4,1.12-.27.84-1.93-.27-1.96Z"/>
      <path d="M248.48,247.91c-6.01,10.06-14.49,18.48-24.6,24.41-.61.36-.57,1.16-.17,1.59-2.28,4.16-3.44,8.84-3.33,13.61.03,1.29,2.03,1.29,2,0-.11-5.07,1.28-9.96,4.02-14.22.05-.07.07-.15.09-.22,9.69-6.04,17.86-14.34,23.72-24.15.66-1.11-1.07-2.11-1.73-1.01Z"/>
      <path d="M235.32,270.1c-1.99,1.41-3.83,3-5.52,4.74l-.59.51c-.12.1-.19.24-.23.38-1.38,1.51-2.64,3.13-3.77,4.84-.71,1.08,1.02,2.08,1.73,1.01,1.23-1.87,2.63-3.62,4.17-5.23,1.81-1.56,3.62-3.12,5.43-4.68.85-.73-.28-2.23-1.21-1.57Z"/>
      <path d="M312.1,318.69c-7.86,1.83-15.82,3.12-23.84,3.88-8.03.28-16.06.4-24.09.59-.48.01-.96.02-1.44.03-1.31-.06-2.62-.13-3.94-.22-.36-.02-.6.12-.76.33-2.5.06-4.99.12-7.49.18-.54-.14-1.08-.29-1.62-.43-.5-.14-1.11.17-1.23.7-.12.53.16,1.09.7,1.23.15.04.29.08.44.12.16.24.41.42.79.41.23,0,.45-.01.68-.02l3.32.89c.5.14,1.11-.17,1.23-.7.02-.1.02-.2.01-.3,2.62-.06,5.24-.12,7.86-.19,8.29.38,16.6.19,24.86-.56,4.1-.14,8.19-.38,12.25-.91.02,0,.04,0,.06,0-15.12,3.79-30.87,3.41-46.35,3-1.29-.03-1.29,1.97,0,2,16.49.44,33.28.81,49.31-3.71.91-.26.86-1.36.28-1.79,3.23-.58,6.41-1.41,9.49-2.6,1.18-.46.75-2.23-.53-1.93Z"/>
      <path d="M274.2,316.46c-.07.08-.15.15-.23.23.08-.13.15-.24.17-.27.25-.42.45-.87.6-1.33.61-1.79.44-3.78-.39-5.47-.04-.08-.1-.13-.16-.19.15-.23.21-.5.11-.77-.17-.44-.32-.88-.4-1.34-.02-.17-.02-.35,0-.52,0-.03,0-.06.02-.09,0-.02.01-.03.02-.05.03-.06.06-.12.1-.18,0,0,.02-.02.02-.02.04-.04.08-.08.12-.12.02-.01.03-.02.05-.03,0,0,.02-.01.03-.02.02,0,.04,0,.06-.02.02,0,.03,0,.05,0,.01,0,.03,0,.04.01.5.16,1.11-.19,1.23-.7.12-.55-.16-1.06-.7-1.23-1.1-.35-2.3.36-2.77,1.36-.53,1.14-.22,2.35.2,3.47.06.17.16.3.27.43-.17.3-.18.68-.02,1.01.81,1.63.61,3.67-.47,5.18-.34.48-.68.95-.65,1.57.03.64.43,1.21,1,1.48,1.2.58,2.3-.12,3.12-.99.88-.94-.53-2.35-1.41-1.41Z"/>
      <g>
        <path d="M277.87,314.11s0,0-.05.07c0,0,.01-.01.01-.02.01-.02.02-.04.04-.06Z"/>
        <path d="M277.44,314.47c-.15.04-.13.05-.07.03,0,0,0,0,0,0,.02,0,.04-.01.06-.02Z"/>
        <path d="M279.8,311.07c-.13-.51-.72-.86-1.23-.7-.53.17-.83.69-.7,1.23.08.31.14.62.2.93h0s0,.03,0,.05c0,.06.01.13.02.19.01.15.01.29.01.44,0,.08,0,.16-.01.25,0,0,0,0,0,.01,0,0,0,.02,0,.03-.03.14-.06.28-.11.41,0,.02-.01.03-.02.05-.03.05-.05.1-.08.15,0,0,0,0,0,.01,0,.01-.02.03-.04.06-.02.03-.04.06-.06.08.02-.03.03-.04.04-.06,0,0,0,.01-.01.02-.04.04-.07.08-.11.11,0,0,0,0,0,0-.08.05-.15.1-.24.14,0,0,0,0-.01,0,.02,0,.02,0,.04-.01-.03,0-.07.02-.1.04,0,0,0,0,0,0,0,0-.01,0-.02,0-.06.02-.11.03-.17.05,0,0,0,0,0,0-.03,0-.06,0-.08,0-.04,0-.08,0-.11,0-.03,0-.06-.02-.09-.02-.02,0-.03-.02-.05-.03,0,0,0,0,0,0-.04-.04-.08-.09-.12-.13-.15-.19-.48-.29-.71-.29-.25,0-.54.11-.71.29-.18.19-.3.44-.29.71.01.28.12.49.29.71.75.95,2.13.92,3.12.42,1.14-.57,1.64-1.81,1.66-3.03.01-.71-.13-1.42-.3-2.11Z"/>
      </g>
      <path d="M251.76,320.81c-4.59.54-9.02-.8-13.17-2.67-4.2-1.89-8.26-4.13-12.3-6.32-1.31-.71-2.61-1.44-3.92-2.17,3.31-2.16,6.54-4.44,9.68-6.85,6.98-5.35,13.52-11.25,19.54-17.65.88-.94-.53-2.35-1.41-1.41-5.21,5.53-10.79,10.71-16.73,15.45-2.99,2.39-6.06,4.66-9.22,6.82-1.27.87-2.6,1.68-3.92,2.5-6.03-3.41-11.98-6.99-17.82-10.72-4.38-2.8-8.7-5.68-12.97-8.65-.75-.52-1.66.34-1.47,1.13,1.89,7.77,8.32,13.08,14.66,17.37,3.36,2.28,6.79,4.47,10.25,6.61-1.27,1.96-1.64,4.36.05,6.41.82.99,2.23-.43,1.41-1.41-1.01-1.23-.62-2.74.19-3.96,4.34,2.66,8.72,5.25,13.12,7.79,4.94,2.85,9.93,5.62,14.96,8.31,1.13.61,2.15-1.12,1.01-1.73-8.58-4.58-17.03-9.4-25.33-14.46-.78-.48-1.55-.96-2.33-1.44,1.32-1.09,2.87-1.96,4.34-2.85,5.48,3.14,11.05,6.14,16.76,8.77,4.58,2.11,9.5,3.74,14.6,3.14,1.26-.15,1.28-2.15,0-2ZM215.09,311.98c-.28.21-.54.45-.8.69-2.73-1.7-5.45-3.41-8.15-5.16-3.31-2.14-6.58-4.37-9.45-7.08-2.42-2.28-4.47-4.9-5.76-7.92,6.99,4.79,14.13,9.37,21.42,13.69,2,1.18,4,2.37,6.02,3.54-1.12.71-2.23,1.44-3.27,2.24Z"/>
      <path d="M258.77,274.26c-2.85-.66-4.28,2.7-4.74,4.92-.56,2.71-.21,5.49.95,8,.23.49.93.61,1.37.36.5-.29.59-.88.36-1.37-.84-1.82-1.14-3.91-.85-5.89.14-.95.39-1.96.83-2.81.27-.52.84-1.44,1.55-1.28,1.25.29,1.79-1.64.53-1.93Z"/>
      <path d="M284.88,291.88c-2.05,1.23-3.87,2.9-6.07,3.86-2.61,1.14-4.84.54-6.96-1.23-1.73-1.44-3.42-2.96-5-4.56-.82-.83-1.61-1.71-2.31-2.64-.32-.42-.62-.85-.9-1.3-.18-.28-.35-.56-.51-.85-.21-.37-.13-.54-.5-.34,1.13-.61.12-2.34-1.01-1.73-3.84,2.07,6.81,11.12,8.36,12.45,2.25,1.94,4.62,3.3,7.68,2.67,3.15-.66,5.54-3,8.22-4.6,1.1-.66.1-2.39-1.01-1.73Z"/>
      <path d="M303.65,273.2c-.41-1.21-2.34-.69-1.93.53.81,2.38,1.78,5.02,1.34,7.57-.32,1.87-1.41,3.78-3.31,4.36-1.23.38-.7,2.31.53,1.93,2.44-.75,4.08-2.96,4.63-5.39.69-3.05-.29-6.13-1.27-9Z"/>
      <path d="M298,286.81c-.2-.18-.44-.29-.71-.29h-1.78c0-.09,0-.18-.02-.27-.18-.55-.68-.81-1.23-.7-2.63.51-4.96,2.1-6.49,4.29-.24.35-.15.93.16,1.21.34.31.8.37,1.21.16.44-.23.88-.46,1.31-.69.4-.21.57-.74.43-1.17.1-.08.19-.17.29-.25.01,0,0,0,.01-.01.01,0,.01,0,.04-.03.05-.04.1-.07.15-.11.12-.09.25-.17.38-.26.23-.15.47-.29.71-.41.13-.07.27-.14.41-.2.06-.03.11-.05.17-.08.02,0,.03-.01.04-.02,0,0,0,0,.02,0,.36-.13.72-.24,1.09-.35.03.22.1.44.27.59.2.18.44.29.71.29h2.14c.26,0,.53-.11.71-.29.17-.17.3-.46.29-.71-.01-.26-.1-.53-.29-.71Z"/>
      <path d="M271.6,200.99c-.22-1.27-2.15-.73-1.93.53.73,4.19.94,8.48.55,12.71-.19,2.03-.59,4.03-1.47,5.88-.86,1.82-2.05,3.48-3.22,5.12-.75,1.05.99,2.05,1.73,1.01,1.25-1.76,2.51-3.53,3.4-5.51.87-1.93,1.3-3.96,1.52-6.06.48-4.56.2-9.18-.58-13.69Z"/>
      <path d="M298.39,221.34c-2.5,1.6-5.23,2.72-8.08,3.38-3.09-1.12-5.65-3.61-6.69-6.78-.2-.62-.79-.78-1.28-.64-1.03-5.43-.95-11.15-.83-16.65.03-1.29-1.97-1.29-2,0-.12,5.46-.18,11.11.77,16.52.57.03,1.15.14,1.73.29-.3.21-.47.57-.32,1.02,1.43,4.37,5.27,7.83,9.81,8.66.53.1,1.08-.15,1.23-.7.02-.07.01-.15.01-.22.22.1.43.2.65.31.51.25.97.56,1.41.89,1.07-.27,2.12-.67,3.09-1.23,1.07-.61.19-2.2-.87-1.78.81-.41,1.6-.85,2.37-1.34,1.08-.69.08-2.43-1.01-1.73Z"/>
      <path d="M299.07,263.55c-9.09-8.95-10.64-22.21-11.9-34.26-.13-1.27-2.13-1.28-2,0,1.32,12.6,2.99,26.33,12.49,35.68.92.9,2.33-.51,1.41-1.41Z"/>
      <path d="M260.6,231.61c-1.15,7.59-4.29,14.78-9.18,20.71-.81.99.59,2.41,1.41,1.41,5.1-6.19,8.49-13.65,9.69-21.6.19-1.26-1.74-1.8-1.93-.53Z"/>
      <path d="M263.5,241.03c-.75,9.95-5,19.14-9.17,28.06-.54,1.16,1.18,2.18,1.73,1.01,4.33-9.26,8.67-18.74,9.45-29.07.1-1.28-1.9-1.28-2,0Z"/>
      <path d="M322.98,146.73c-5.16.2-10.33.13-15.48-.14-14.98-.79-29.8-3.19-44.67-5.12-.05-.32-.26-.6-.7-.66-3.79-.54-7.6-.78-11.41-.77-1.4-.14-2.8-.28-4.2-.4.06.17.1.35.15.53-4.39.25-8.76.85-13.07,1.84-1.25.29-.72,2.22.53,1.93,5.32-1.23,10.76-1.86,16.21-1.92,6.51.66,13,1.5,19.43,2.37,11.26,1.53,22.52,3.15,33.86,3.95,6.63.47,13.24.58,19.83.3-.22-.62-.38-1.26-.49-1.92Z"/>
      <path d="M372.74,275.38c-8.55,7.75-17.85,14.65-27.73,20.6-1.2-.54-2.38-1.1-3.53-1.71-3.73-1.99-7.34-4.22-10.79-6.66-1.75-1.24-3.46-2.53-5.12-3.87-1.4-1.14-4.15-2.8-4.4-4.75-.17-1.26-2.17-1.27-2,0,.26,1.97,1.48,3.21,2.94,4.46,1.53,1.31,3.1,2.57,4.7,3.79,3.36,2.56,6.89,4.91,10.55,7.03,1.82,1.06,3.68,2.03,5.56,2.96-11.4,6.67-23.53,12.09-36.12,16.11-6.8,2.16-13.72,3.92-20.72,5.26-1.26.24-.73,2.17.53,1.93,20.6-3.94,40.48-11.52,58.5-22.24.87.41,1.74.82,2.61,1.22-13.01,11.02-27.08,20.81-41.99,29.02-2.38,1.31-4.81,2.55-7.27,3.71-14.54,2.77-29.42,1.16-44.01-.45-1.28-.14-1.27,1.86,0,2,12.21,1.34,24.58,2.64,36.82,1.47-2.78,1.03-5.62,1.91-8.53,2.57-1.25.29-.72,2.22.53,1.93,5.56-1.27,10.92-3.26,16.11-5.67.1-.02.2-.03.29-.05.26-.05.42-.18.54-.34,7.82-3.71,15.26-8.37,22.4-13.04,9.43-6.16,18.48-12.93,27.06-20.23,2.57,1.29,5.22,3.08,6.05,5.77-.07-.06-.14-.12-.22-.17-1-.79-2.42.61-1.41,1.41.72.58,1.45,1.15,2.17,1.73.69.55,1.64.2,1.71-.71.28-3.76-2.31-6.84-5.35-8.71-.42-.26-.85-.51-1.28-.74,1.83-1.58,3.65-3.18,5.44-4.82,6.05-5.52,11.84-11.33,17.37-17.39.87-.95-.46-2.28-1.41-1.41ZM349.46,298.03c-.74-.36-1.48-.71-2.23-1.05,3.43-2.1,6.79-4.3,10.07-6.63,1-.71,1.99-1.45,2.98-2.18-3.52,3.38-7.12,6.67-10.81,9.86Z"/>
      <path d="M349.82,47.76c-13.41-9.32-30.08-13.15-46.24-13.08-4.37.02-9.04.3-12.9,2.56-2.71,1.59-4.87,4.12-5.63,7.13-1.66,1.36-3.09,2.97-4.19,4.9-.26.45-.48.91-.67,1.38-6.67,2.06-13.18,4.64-19.44,7.7-1.16.56-.14,2.29,1.01,1.73,5.72-2.8,11.65-5.18,17.72-7.12-.17.81-.3,1.63-.32,2.46-.04,1.29,1.96,1.29,2,0,.03-1.12.22-2.17.52-3.15,3.07-.92,6.18-1.71,9.31-2.39-.23-.62-.41-1.27-.53-1.93-2.6.57-5.17,1.22-7.73,1.95.6-1.03,1.35-1.95,2.22-2.79.49.64,1.78.46,1.81-.58,0-.35.06-.68.11-1.02,1.13-.82,2.36-1.53,3.66-2.15.19-.93.5-1.82.91-2.67-1.13.45-2.22.96-3.26,1.55,1.03-1.53,2.5-2.78,4.15-3.62,3.51-1.78,7.61-1.92,11.46-1.93,7.75-.02,15.51.86,23.01,2.84,13.95,3.68,26.88,11.35,35.57,23.03,4.57,6.13,7.83,13.15,9.3,20.67.25,1.26,2.18.73,1.93-.53-2.8-14.28-11.95-26.71-23.78-34.93Z"/>
      <path d="M155.71,263.95c-.08.96-.19,1.92-.36,2.89-1.72,10.04-7.06,19.29-15.02,25.65-1.01.8.42,2.21,1.41,1.41,7.11-5.68,12.23-13.68,14.63-22.44.64-2.35,1.09-4.77,1.33-7.2-.66-.05-1.33-.15-1.99-.31Z"/>
      <path d="M393.63,124.53s.05-.04.08-.06c-.58-2.02-1.18-4.03-1.82-6.04-.02.01-.05.02-.07.03.62,2.02,1.22,4.04,1.81,6.07Z"/>
      <path d="M334.71,370.47c-.42,1.11-.83,2.22-1.25,3.33-.03-.53-.05-1.06-.07-1.59-.07-1.28-2.07-1.29-2,0,.11,2.14.19,4.28.26,6.42-2.38,6.34-4.77,12.67-7.15,19.01-.45,1.21,1.48,1.73,1.93.53,1.78-4.73,3.56-9.46,5.34-14.19.25,17.35-.96,34.72-3.71,51.86-.95,5.91-2.08,11.8-3.38,17.64-.28,1.25,1.65,1.79,1.93.53,4.64-20.87,7.08-42.22,7.22-63.6.03-3.83-.03-7.66-.15-11.49.99-2.64,1.98-5.28,2.98-7.92.45-1.21-1.48-1.73-1.93-.53Z"/>
      <path d="M242.72,461.81c-14.73-19.08-32.2-35.81-47.2-54.66-14.39-18.06-26.27-38.74-29.53-61.93-1.74-12.41-.65-25.16,4.09-36.82.48-1.19-1.45-1.71-1.93-.53-8.64,21.23-4.96,45,3.96,65.5,9.62,22.11,25.73,40.38,41.75,58.07,9.28,10.25,18.67,20.43,27.13,31.39.78,1,2.51,0,1.73-1.01Z"/>
      <path d="M680.02,443.77c-4.76-14.74-9.73-29.44-15.77-43.72-5.99-14.13-13.06-27.86-22.01-40.36-2.48-3.46-5.09-6.83-7.85-10.07-2.42-2.85-5.16-5.91-9.09-6.28-8.15-13.9-16.3-27.81-24.46-41.71-.65-1.11-2.38-.1-1.73,1.01,10.13,17.28,20.26,34.55,30.39,51.83.65,1.11,2.38.1,1.73-1.01-1.53-2.6-3.05-5.21-4.58-7.81,2.74.93,4.8,3.59,6.6,5.72,2.45,2.91,4.79,5.91,7.01,9,4.33,6.01,8.23,12.33,11.78,18.83,7.18,13.17,12.91,27.09,17.97,41.19,2.85,7.92,5.49,15.91,8.07,23.92.39,1.22,2.33.7,1.93-.53Z"/>
      <path d="M169.36,301.76c-9.34,11.75-24.82,15.77-38.28,20.79-16.12,6-31.96,12.74-47.47,20.19-8.85,4.25-17.58,8.73-26.19,13.43-1.13.62-.12,2.34,1.01,1.73,15.3-8.35,30.97-16,46.98-22.9,8.14-3.51,16.36-6.82,24.66-9.94,7.14-2.68,14.43-5.04,21.41-8.12,7.29-3.22,14.28-7.44,19.29-13.75.79-1-.61-2.42-1.41-1.41Z"/>
      <path d="M53.84,366.27c-5.99,14.07-9.3,29.16-9.68,44.46-.03,1.29,1.97,1.29,2,0,.37-14.92,3.56-29.72,9.41-43.45.5-1.17-1.22-2.19-1.73-1.01Z"/>
      <path d="M326.53,401.42c-2.43,5.57-4.87,11.13-7.3,16.7-.16.36-.09.69.07.96-4.71,1.43-9.23,3.41-13.47,5.9,5.41-9.56,10.61-19.23,15.58-29.03.58-1.15-1.14-2.16-1.73-1.01-4.18,8.23-8.52,16.38-13,24.45-.14.07-.28.19-.39.35-1.42,2.21-2.65,4.51-3.7,6.91-.06.14-.09.29-.1.42-1.99,1.34-3.91,2.8-5.74,4.36-.79-2.57-1.71-5.19-3.21-7.42,5.81-10.64,11.36-21.41,16.64-32.32.56-1.15-1.17-2.17-1.73-1.01-4.51,9.3-9.22,18.51-14.11,27.62-.17.08-.33.2-.44.42-.58,1.19-1.17,2.37-1.75,3.56-.11-.12-.21-.24-.32-.36-.19-.19-.4-.36-.6-.54,5.12-8.33,9.78-16.93,13.93-25.78.54-1.16-1.18-2.17-1.73-1.01-3.02,6.44-6.32,12.75-9.86,18.92-.36-.06-.75.05-1.02.43-1.32,1.9-2.39,3.94-3.23,6.09-.6-.35-1.23-.65-1.88-.88.09-.07.18-.16.26-.28,4.25-6.46,8.04-13.22,11.33-20.22.54-1.16-1.18-2.17-1.73-1.01-2.4,5.11-5.07,10.09-7.99,14.93-.2.02-.4.09-.59.26-1.47,1.44-2.46,3.25-2.85,5.27-.05.25,0,.48.09.67-1.37-.24-2.79-.18-4.16.29-1.21.41-.69,2.34.53,1.93,2.2-.75,4.46-.23,6.34.95-.12.77.69,1.24,1.34,1.01.33.29.63.6.92.93,2.33,2.68,3.35,6.24,4.34,9.57.22.75,1.11.95,1.67.44,8.2-7.4,18.34-12.41,29.18-14.5,1.26-.24.73-2.17-.53-1.93-1.47.28-2.93.63-4.38,1.02,2.35-5.36,4.69-10.73,7.04-16.09.51-1.17-1.21-2.19-1.73-1.01Z"/>
      <path d="M308.86,445.25c-.42-1.21-2.35-.69-1.93.53,1.35,3.91,1.91,8.02,1.63,12.15-.25,3.78-1.09,8.27-3.35,11.4-.92,1.28-2.39,2.78-4.07,2.88-1.92.11-2.8-1.78-3.2-3.35-1.05-4.09-1.29-8.51-1.21-12.72.1-5.01.89-9.96,2.29-14.76.36-1.24-1.57-1.77-1.93-.53-1.43,4.89-2.23,9.96-2.36,15.06-.06,2.62.05,5.24.35,7.84.25,2.2.48,4.56,1.24,6.66.62,1.71,1.79,3.25,3.65,3.69,1.7.4,3.4-.32,4.72-1.35,3.45-2.69,4.8-7.39,5.48-11.53.89-5.35.45-10.84-1.32-15.97Z"/>
      <path d="M284.35,464.28c-.88-.95-2.29.47-1.41,1.41,2.33,2.52.62,6.24-1.65,8.1-2.74,2.25-6.53,3.37-9.85,4.45-7.52,2.45-15.4,3.76-23.31,3.86-2.27.03-7.32-.08-7.38-3.34-.02-1.29-2.02-1.29-2,0,.06,3.28,3.28,4.75,6.11,5.17,2,.3,4.05.17,6.06.08,2.34-.11,4.67-.33,6.99-.65,4.77-.65,9.48-1.71,14.06-3.2,3.86-1.25,8.3-2.61,11.31-5.47,2.81-2.67,3.9-7.35,1.07-10.42Z"/>
      <path d="M377.01,462.74c-2.76,7.29-6.25,15.34-14.62,17.29-4.47,1.04-9.31.69-13.86.51-4.67-.18-9.34-.55-13.95-1.33-5.25-.88-10.42-2.28-15.29-4.43-1.17-.52-2.19,1.21-1.01,1.73,9.18,4.05,19.16,5.53,29.12,5.98,4.84.22,9.89.55,14.68-.36,4.28-.81,7.9-3.06,10.59-6.47,2.89-3.66,4.63-8.06,6.27-12.39.46-1.2-1.48-1.73-1.93-.53Z"/>
      <path d="M221.72,478.26c-2.82-7.23-4.53-14.83-5.02-22.57-.08-1.28-2.08-1.29-2,0,.51,7.92,2.21,15.71,5.09,23.1.46,1.19,2.4.67,1.93-.53Z"/>
      <path d="M292.78,569.1c-2.29-1.43-4.58-2.86-6.86-4.3.35-.12.63-.42.63-.9.1-21.95.73-43.91,1.88-65.83.33-6.21.7-12.41,1.11-18.61.09-1.28-1.92-1.28-2,0-1.45,21.91-2.38,43.85-2.78,65.8-.11,6.21-.18,12.43-.21,18.64,0,.02,0,.03,0,.05-.21-.13-.41-.26-.62-.39-1.38-20.49-3.54-40.93-6.48-61.26-.85-5.86-1.76-11.71-2.73-17.55-.21-1.27-2.14-.73-1.93.53,3.38,20.27,5.99,40.67,7.81,61.15.47,5.26.87,10.53,1.24,15.8-8.02-5.08-15.98-10.26-23.73-15.74-11.16-7.9-21.92-16.43-31.61-26.11-9.8-9.79-18.38-20.74-25.02-32.9-6.95-12.71-11.82-26.44-15.46-40.43-3.68-14.16-6.1-28.62-8.16-43.09-.26-1.79-.51-3.59-.75-5.39-.17-1.27-2.1-.73-1.93.53,2.01,14.63,4.27,29.25,7.71,43.62,3.39,14.17,7.94,28.13,14.47,41.18,6.27,12.53,14.47,23.93,24.06,34.12,9.44,10.02,20.07,18.84,31.17,26.95,11.26,8.24,23.02,15.75,34.84,23.14,1.45.91,2.9,1.81,4.35,2.71,1.1.68,2.1-1.05,1.01-1.73Z"/>
      <path d="M513.56,301.26l-31.71,62.33-31.49,61.89c-4.28,8.41-8.56,16.82-12.83,25.23.06-3.8.09-7.6.06-11.4,7.41-17.59,16.22-34.56,25.31-51.34,10.57-19.53,21.52-38.87,31.1-58.92,5.39-11.27,10.32-22.76,14.5-34.53.43-1.22-1.5-1.74-1.93-.53-7.49,21.11-17.46,41.2-28,60.93-10.47,19.6-21.51,38.9-31.4,58.81-3.38,6.81-6.62,13.68-9.65,20.65-.2-10.56-.74-21.11-1.57-31.63l16.5-31.95c7.95-15.39,15.9-30.78,23.85-46.17l13.41-25.97c.59-1.14-1.14-2.15-1.73-1.01-7.91,15.32-15.82,30.63-23.73,45.95-7.95,15.39-15.9,30.78-23.85,46.17-1.59,3.08-3.18,6.15-4.77,9.23-.06-.7-.11-1.41-.17-2.11-1.74-19.72-4.54-39.36-8.41-58.78-.48-2.4-.97-4.79-1.48-7.18-.27-1.26-2.2-.73-1.93.53,4.08,19.19,7.14,38.6,9.12,58.13.43,4.25.8,8.5,1.14,12.76l-6.92,13.39c-.59,1.14,1.14,2.15,1.73,1.01,1.82-3.53,3.65-7.06,5.47-10.6.78,10.94,1.22,21.91,1.33,32.88-1.24,2.97-2.45,5.95-3.61,8.95-.46,1.2,1.47,1.72,1.93.53.55-1.41,1.13-2.81,1.69-4.22,0,1.35.02,2.69.01,4.04-.02,2.15-.05,4.3-.1,6.45-1,1.96-1.99,3.92-2.99,5.88-.58,1.14,1.14,2.16,1.73,1.01.37-.72.74-1.44,1.1-2.17-.26,5.81-.74,11.62-1.65,17.36-1.43,9.1-4.01,17.93-7.86,26.3-7.44,16.18-18.5,30.65-30,44.14-10.42,12.23-21.79,23.66-33.95,34.16-10.26-22.89-16.15-47.4-22.09-71.68l-5.49-22.47c-.31-1.25-2.23-.72-1.93.53,3.21,13.13,6.35,26.27,9.67,39.37,3.17,12.53,6.6,25.02,10.91,37.22,2.2,6.23,4.64,12.37,7.36,18.39-.82.7-1.63,1.41-2.46,2.1-1.71,1.43-3.44,2.84-5.18,4.23-1,.8.42,2.21,1.41,1.41,2.4-1.92,4.76-3.89,7.1-5.87.61.92,2.14-.03,1.63-1.14-.03-.06-.05-.12-.08-.19,10.91-9.38,21.19-19.48,30.72-30.26,11.78-13.31,23.11-27.62,31.39-43.41,4.21-8.02,7.5-16.49,9.47-25.35,2.08-9.33,2.88-18.9,3.16-28.43,0-.21,0-.42.01-.63,9.49-18.65,18.98-37.3,28.47-55.95,10.5-20.63,20.99-41.26,31.49-61.89,5.97-11.72,11.93-23.45,17.9-35.17.58-1.14-1.14-2.16-1.73-1.01Z"/>
      <path d="M329.81,506.86c-.56-6.57-.47-13.21.56-19.73.2-1.26-1.73-1.8-1.93-.53-3.76,23.64,4.56,46.65,9.97,69.34,1.58,6.62,2.94,13.29,3.71,20.05.14,1.26,2.15,1.28,2,0-2.68-23.46-12.3-45.58-14.32-69.13Z"/>
      <path d="M559.22,431.98c-.18-2.4-.69-4.74-1.49-7.01-.43-1.2-2.36-.68-1.93.53,1.28,3.59,2.08,7.94,1.23,11.73-.45,2.03-2.76,1.98-4.46,2.04-1.84.06-3.68-.1-5.49-.48-3.57-.75-6.87-2.29-9.77-4.5-.24-.18-.48-.36-.73-.54,4.28,1.53,9.24,2.06,13.04-.65,3.58-2.55,5.73-7.73,3.18-11.72-.69-1.08-2.42-.08-1.73,1.01,2.03,3.18.09,7.38-2.85,9.25-4.09,2.6-9.53,1.12-13.55-.84-1.15-.56-2.17,1.16-1.01,1.73.06.03.12.06.18.09-.17-.01-.34-.02-.51,0-1.21.07-2.24.75-2.97,1.69-1.81,2.31-1.88,5.42-2.4,8.18-.64,3.4-1.66,6.93-4.13,9.48-2.29,2.36-5.45,3.53-8.62,4.12-1.68.31-3.38.46-5.08.53-.75.03-1.52.09-2.26.04-1.29-.09-1.36-.9-1.03-1.96.62-2.03,1.39-3.99,1.88-6.07.48-2.07.82-4.18,1.01-6.3.38-4.31.11-8.64-.75-12.88-.18-.87-1.41-.93-1.83-.24-.83,1.38-1.83,2.64-2.94,3.77-1.62-6.62-1.18-13.56,1.24-19.93.46-1.2-1.48-1.73-1.93-.53-2.61,6.88-2.98,14.48-1.1,21.59.04.14.1.25.17.35-1.32,1.08-2.76,2-4.32,2.73-1.11.52-4.94,2.38-5.83.96-.48-.77-.17-2.05-.03-2.86.2-1.23.43-2.45.67-3.67,1.84-9.02,4.98-17.77,9.32-25.9,1.21-2.26,2.5-4.47,3.88-6.63.4-.62,3.28-4.74,4.15-2.84.54,1.17,2.26.15,1.73-1.01-.85-1.85-2.99-1.57-4.47-.68-2,1.2-3.12,3.45-4.29,5.38-2.98,4.89-5.51,10.04-7.58,15.37-2.07,5.32-3.68,10.82-4.78,16.42-.42,2.11-1.39,5.05-.44,7.14,1.08,2.38,3.81,1.8,5.83,1.17,4.4-1.37,8.25-4.12,11.04-7.75.51,3.47.59,7,.24,10.5-.22,2.16-.61,4.31-1.16,6.42-.5,1.9-1.41,3.75-1.79,5.66-.28,1.45.16,2.93,1.63,3.52,1.52.6,3.53.28,5.12.17,3.43-.24,6.92-.83,10.02-2.41,1.84-.94,3.39-2.25,4.64-3.82-.41.58-.16,1.61.77,1.61,8.4.05,16.62-3.76,21.97-10.24.81-.99-.59-2.41-1.41-1.41-5.03,6.1-12.64,9.7-20.56,9.65-.29,0-.51.11-.67.27.81-1.05,1.5-2.21,2.03-3.47,1.43-3.37,1.56-6.92,2.46-10.42.32-1.24.89-3.08,2.22-3.59,1.69-.65,3.56,1.52,4.83,2.36,3.18,2.1,6.84,3.45,10.62,3.96,2.06.28,4.15.33,6.22.08,1.71-.21,3.36-.78,4.08-2.48.84-1.97.7-4.57.54-6.66Z"/>
      <path d="M538.58,399.42c-8.62-4.06-19.08-3.34-27,2-1.06.72-.06,2.45,1.01,1.73,3.66-2.47,7.93-3.91,12.28-4.26-4.39,5.72-9.72,11.48-12.07,18.43-1.02,3-1.47,6.69-.26,9.71,1.14,2.85,4.16,3.22,6.3,1.19,1.21-1.15,1.79-2.61,2.3-4.16.52-1.57,1.04-3.29,2.67-4,1.18-.52.16-2.24-1.01-1.73-3.09,1.36-2.93,4.9-4.5,7.39-1.06,1.68-3.16,2.79-4,.31-.6-1.75-.56-3.82-.23-5.62.68-3.8,2.69-7.23,4.86-10.36,2.42-3.49,5.11-6.81,7.7-10.18.3-.4.23-.79-.02-1.06,3.75-.05,7.52.71,10.97,2.34,1.16.55,2.17-1.18,1.01-1.73Z"/>
      <path d="M534.07,411.81c-.43-.33-.99-.41-1.41,0-.35.34-.43,1.08,0,1.41,3.49,2.71,5.89,6.68,6.6,11.04-2.58-.32-5.16-.65-7.74-.97-.54-.07-1,.51-1,1,0,.6.46.93,1,1,2.97.37,5.94.74,8.91,1.11.5.06,1.04-.51,1-1-.49-5.31-3.13-10.32-7.35-13.6Z"/>
      <path d="M531.86,402.49c-.25-.64-.84-.88-1.47-.6-3.98,1.81-7.37,4.74-9.81,8.36-.72,1.07,1.01,2.07,1.73,1.01,2.02-2.99,4.78-5.4,7.96-7.08.65,3.23-.96,6.74-3.97,8.22-.48.24-.62.93-.36,1.37.29.49.88.6,1.37.36,4.11-2.03,6.22-7.36,4.56-11.64Z"/>
      <path d="M525.22,435.43c-.48-.13-1.13.16-1.23.7-.76,4.27-4.64,7.7-9.01,7.79-1.29.03-1.29,2.03,0,2,5.19-.1,10.02-4.12,10.94-9.26.09-.53-.14-1.08-.7-1.23Z"/>
      <path d="M564.64,409.98c-1.66-4.1-4.7-7.63-8.99-9.03-.25-.08-.45-.05-.64.03-.05-.06-.11-.12-.18-.17-3.43-2.55-6.86-5.1-10.28-7.66-.31-1.58-.69-3.14-1.16-4.68-.38-1.23-2.31-.7-1.93.53.24.77.44,1.55.64,2.32-1.57-1.17-3.14-2.34-4.71-3.51-2.4-1.77-4.98-3.55-8.01-3.93-2.52-.31-5.15.35-6.88,2.28-.86.95.55,2.37,1.41,1.41,4.27-4.73,10.77.7,14.41,3.41,1.47,1.09,2.94,2.19,4.41,3.28.53,3,.73,6.05.62,9.12-.05,1.29,1.95,1.29,2,0,.09-2.48-.02-4.96-.34-7.42,2.94,2.19,5.88,4.37,8.81,6.56,0,0,.01,0,.02,0-.3.14-.51.41-.46.85.59,5.46-.3,11-2.67,15.96-.55,1.16,1.17,2.17,1.73,1.01,2.52-5.27,3.58-11.15,2.95-16.96-.02-.19-.09-.35-.19-.48,3.9,1.31,6.61,4.82,7.9,8.62,1.64,4.81,1.26,10.03.93,15.01-.08,1.28,1.92,1.28,2,0,.36-5.51.73-11.33-1.38-16.56Z"/>
      <path d="M518.16,387.02c-8.46,2.55-16.11,7.44-21.94,14.08-.85.96.56,2.38,1.41,1.41,5.61-6.39,12.92-11.11,21.06-13.57,1.23-.37.71-2.3-.53-1.93Z"/>
      <path d="M503.67,390.39c-7.52,2.4-13.52,8.71-15.5,16.36-.12.45.06.8.35,1.01-6.06,4.8-8.67,13.57-5.56,20.88.5,1.18,2.22.16,1.73-1.01-3.22-7.57.94-17.4,8.59-20.4,1.19-.46.67-2.4-.53-1.93-.85.33-1.65.76-2.43,1.22,1.99-6.63,7.27-12.09,13.88-14.21,1.22-.39.7-2.32-.53-1.93Z"/>
      <path d="M538.38,378.54c-3.12-2.31-6.99-2.73-10.73-1.99-4.18.83-8.04,2.96-11.65,5.14-3.72,2.25-7.24,4.81-10.56,7.63-.98.83.44,2.24,1.41,1.41,2.9-2.46,5.97-4.72,9.19-6.73,3.14-1.96,6.44-3.87,9.98-4.98,3.32-1.03,7.01-1.32,10.13.45,2.69,1.52,4.66,4.23,4.33,7.42-.14,1.28,1.87,1.27,2,0,.35-3.35-1.47-6.4-4.11-8.35Z"/>
      <path d="M501.49,457.43c-8.77-1.41-16.23-8.12-18.49-16.72-.33-1.24-2.26-.72-1.93.53,2.41,9.22,10.46,16.6,19.88,18.12,1.26.2,1.8-1.72.53-1.93Z"/>
      <path d="M559.06,398.23c-4.69-6.93-9.93-13.48-15.67-19.56-.89-.94-2.3.48-1.41,1.41,5.63,5.96,10.77,12.37,15.36,19.16.72,1.06,2.45.06,1.73-1.01Z"/>
      <path d="M61.23,517.12c-9.95-26.24-14.66-54.38-13.82-82.43.24-7.96.92-15.9,2.06-23.77.18-1.26-1.75-1.8-1.93-.53-4.05,28.12-2.51,56.96,4.54,84.48,1.98,7.72,4.39,15.33,7.22,22.78.45,1.19,2.39.68,1.93-.53Z"/>
      <path d="M37.74,436.07c-6.64,25.05-10.57,50.82-11.66,76.72-.28,6.56-.61,13.31,2,19.48.5,1.18,2.22.16,1.73-1.01-2.33-5.5-1.99-11.67-1.76-17.5.25-6.29.66-12.57,1.24-18.84,1.17-12.61,3.02-25.15,5.53-37.57,1.41-6.96,3.03-13.88,4.85-20.74.33-1.25-1.6-1.78-1.93-.53Z"/>
      <path d="M634.46,389.28c-.47-8.13-.94-16.26-1.41-24.39-.07-1.28-2.07-1.29-2,0l4.94,85.62,1.41,24.39c.07,1.28,2.07,1.29,2,0-1.65-28.54-3.29-57.08-4.94-85.62Z"/>
      <path d="M177.75,446.56c-9.41,17.74-18.81,35.47-28.22,53.21-2.64,4.98-5.29,9.97-7.93,14.95-.6,1.14,1.12,2.15,1.73,1.01,9.41-17.74,18.81-35.47,28.22-53.21,2.64-4.98,5.29-9.97,7.93-14.95.6-1.14-1.12-2.15-1.73-1.01Z"/>
      <path d="M178.02,460.87c-5.46,23.01-15.83,44.38-24.2,66.39-2.38,6.26-4.59,12.58-6.49,18.99-.37,1.24,1.56,1.76,1.93.53,6.71-22.65,17.34-43.87,25.04-66.17,2.18-6.31,4.11-12.72,5.65-19.22.3-1.25-1.63-1.79-1.93-.53Z"/>
      <path d="M184.69,477.4c-7.09,20.3-14.18,40.59-21.27,60.89-2,5.72-4,11.44-5.99,17.16-.43,1.22,1.51,1.74,1.93.53,7.09-20.3,14.18-40.59,21.27-60.89l5.99-17.16c.43-1.22-1.51-1.74-1.93-.53Z"/>
      <path d="M193.56,483.14c-10.63,27.4-19.95,55.31-27.89,83.61-2.26,8.04-4.4,16.11-6.44,24.21-.31,1.25,1.61,1.78,1.93.53,7.18-28.5,15.71-56.66,25.59-84.34,2.81-7.87,5.72-15.69,8.74-23.48.47-1.2-1.47-1.72-1.93-.53Z"/>
      <path d="M195.61,496.92c-6.69,21.8-13.71,43.51-21.06,65.1-2.06,6.06-4.15,12.11-6.27,18.15-.43,1.22,1.51,1.74,1.93.53,7.53-21.53,14.74-43.17,21.62-64.92,1.93-6.1,3.83-12.21,5.71-18.33.38-1.23-1.55-1.76-1.93-.53Z"/>
      <path d="M203.78,506.98c-6,19.65-13.01,38.99-21.03,57.9-2.27,5.35-4.63,10.67-7.05,15.95-.53,1.16,1.19,2.18,1.73,1.01,8.62-18.75,16.27-37.95,22.88-57.5,1.89-5.58,3.69-11.2,5.41-16.83.38-1.23-1.55-1.76-1.93-.53Z"/>
      <path d="M206.18,531.63c-4.74,16.45-10.12,32.71-16.15,48.73-1.7,4.54-3.46,9.05-5.26,13.55-.48,1.19,1.45,1.71,1.93.53,6.37-15.89,12.13-32.02,17.23-48.36,1.44-4.62,2.84-9.27,4.18-13.92.36-1.24-1.57-1.77-1.93-.53Z"/>
      <path d="M210,534.39c-4.21,19.62-9.86,38.92-16.87,57.73-.45,1.21,1.48,1.73,1.93.53,7.02-18.8,12.66-38.1,16.87-57.73.27-1.26-1.66-1.79-1.93-.53Z"/>
      <path d="M227.33,532.73c-.43,16.66-3.92,33.18-10.25,48.59-1.82,4.43-3.89,8.76-6.17,12.97-.61,1.13,1.11,2.14,1.73,1.01,8.06-14.9,13.34-31.21,15.56-48,.64-4.84,1.01-9.71,1.14-14.58.03-1.29-1.97-1.29-2,0Z"/>
      <path d="M235.01,543.8c-1.69,17.53-5.92,34.76-12.5,51.09-.48,1.19,1.45,1.71,1.93.53,6.64-16.51,10.86-33.91,12.57-51.62.12-1.28-1.88-1.27-2,0Z"/>
      <path d="M243.7,557.47c-.05-1.28-2.05-1.29-2,0,.6,15.58-2.66,31.18-9.51,45.19-.56,1.15,1.16,2.17,1.73,1.01,7.01-14.32,10.4-30.26,9.78-46.2Z"/>
      <path d="M263.96,558.39c.21,16.58-4.46,33.02-13.36,47.01-.69,1.09,1.04,2.09,1.73,1.01,9.08-14.28,13.85-31.11,13.63-48.02-.02-1.29-2.02-1.29-2,0Z"/>
      <path d="M89.42,347.84c-10.52,18.11-20.79,36.35-30.81,54.74-.62,1.13,1.11,2.14,1.73,1.01,10.02-18.38,20.3-36.63,30.81-54.74.65-1.12-1.08-2.12-1.73-1.01Z"/>
      <path d="M110.06,350.11c-6.63,19.49-13.27,38.99-19.9,58.48-.42,1.22,1.52,1.75,1.93.53,6.63-19.49,13.27-38.99,19.9-58.48.42-1.22-1.52-1.75-1.93-.53Z"/>
      <path d="M105.64,335.3c-9.61,20.05-18.83,40.28-27.66,60.69-2.46,5.69-4.89,11.38-7.29,17.09-.5,1.18,1.44,1.7,1.93.53,8.55-20.34,17.49-40.52,26.81-60.52,2.62-5.61,5.26-11.2,7.94-16.79.55-1.16-1.17-2.17-1.73-1.01Z"/>
      <path d="M132.98,324.46c-6.28,15.26-12.3,30.63-18.06,46.09-1.63,4.39-3.24,8.78-4.84,13.18-.44,1.21,1.49,1.73,1.93.53,5.61-15.52,11.48-30.94,17.62-46.26,1.74-4.34,3.5-8.68,5.28-13.01.49-1.19-1.44-1.71-1.93-.53Z"/>
      <path d="M148.53,324.37c-3.86,15.17-9.55,29.83-16.93,43.64-.61,1.13,1.12,2.15,1.73,1.01,7.47-13.95,13.23-28.78,17.14-44.12.32-1.25-1.61-1.78-1.93-.53Z"/>
      <path d="M159.81,323.52c-2.85,11.08-6.59,21.91-11.21,32.38-.51,1.17,1.21,2.19,1.73,1.01,4.69-10.63,8.52-21.61,11.41-32.86.32-1.25-1.61-1.78-1.93-.53Z"/>
      <path d="M438.11,286.94c-1.09,8.61-3.4,17.05-6.85,25.01-.51,1.17,1.22,2.19,1.73,1.01,3.6-8.31,5.99-17.03,7.12-26.02.16-1.27-1.84-1.26-2,0Z"/>
      <path d="M459.75,294.17c-4.67,17.86-11.13,35.23-19.29,51.79-.57,1.15,1.03,2.11,1.73,1.01,2.73-4.33,5.47-8.66,8.2-12.99.69-1.09-1.04-2.1-1.73-1.01l-.21.33c5.35-12.52,9.78-25.42,13.23-38.6.33-1.25-1.6-1.78-1.93-.53Z"/>
      <path d="M480.06,295.97l-34.53,70.14c-3.23,6.55-6.45,13.1-9.68,19.66-.57,1.15,1.16,2.17,1.73,1.01,11.51-23.38,23.02-46.76,34.53-70.14,3.23-6.55,6.45-13.1,9.68-19.66.57-1.15-1.16-2.17-1.73-1.01Z"/>
      <path d="M452.21,454.64c-3.09,10.22-7.99,19.72-12.84,29.18-5.17,10.1-10.35,20.2-15.52,30.3-2.39,4.66-4.78,9.32-7.16,13.99-.35.04-.68.25-.82.67-.28.87-.56,1.74-.85,2.61-.35,1.07,1.31,1.78,1.83.77,5.21-10.17,10.42-20.35,15.64-30.52,5.07-9.9,10.36-19.72,15.09-29.79,2.54-5.41,4.83-10.95,6.56-16.67.37-1.23-1.56-1.76-1.93-.53Z"/>
      <path d="M458.75,486.69c-13.06,22.74-26.52,45.25-40.37,67.53-3.96,6.36-7.95,12.71-11.97,19.03-.69,1.09,1.04,2.09,1.73,1.01,14.07-22.13,27.75-44.51,41.04-67.12,3.8-6.46,7.56-12.94,11.29-19.44.64-1.12-1.09-2.13-1.73-1.01Z"/>
      <path d="M467.51,507.55c-11.33,18.09-23.11,35.89-35.34,53.39-3.46,4.95-6.96,9.88-10.49,14.78-.75,1.05.98,2.05,1.73,1.01,12.48-17.32,24.52-34.95,36.11-52.87,3.28-5.07,6.52-10.17,9.73-15.29.69-1.09-1.04-2.1-1.73-1.01Z"/>
      <path d="M475.27,517.82c-7.33,15.4-15.31,30.48-23.95,45.18-1.2,2.05-2.42,4.1-3.65,6.13-.61,1.02-1.23,2.04-1.85,3.05-.33.54-.66,1.08-1,1.62-.24.39-.54,1.18-.9,1.46-1.01.77-.01,2.51,1.01,1.73.68-.52,1.05-1.25,1.49-1.97.62-1.01,1.25-2.03,1.86-3.04,1.11-1.83,2.22-3.66,3.31-5.51,2.23-3.75,4.41-7.53,6.55-11.33,4.28-7.6,8.4-15.29,12.34-23.08,2.22-4.39,4.39-8.8,6.5-13.24.55-1.16-1.17-2.17-1.73-1.01Z"/>
      <path d="M496.05,520.43c-8.01,15.66-16.82,30.9-26.41,45.63-2.74,4.21-5.55,8.38-8.41,12.5-.74,1.06,1,2.06,1.73,1.01,10.03-14.45,19.3-29.41,27.77-44.82,2.42-4.4,4.77-8.84,7.06-13.32.58-1.14-1.14-2.16-1.73-1.01Z"/>
      <path d="M511.21,516.31c-7.31,17.35-16.08,34.1-26.16,50-2.06,3.24-4.19,6.44-6.35,9.61-.33-.15-.73-.14-1.08.18-1.14,1.05-1.73,2.49-1.6,4.04.08,1.01,1.28,1.33,1.86.5,10.9-15.56,20.52-32.01,28.69-49.16,2.3-4.83,4.48-9.72,6.56-14.65.5-1.18-1.44-1.7-1.93-.53Z"/>
      <path d="M529.15,511.31c-9.93,18.13-20.5,35.91-31.7,53.29-3.16,4.9-6.36,9.76-9.62,14.6-.72,1.07,1.01,2.07,1.73,1.01,11.54-17.15,22.48-34.71,32.77-52.64,2.9-5.05,5.75-10.14,8.55-15.25.62-1.13-1.11-2.14-1.73-1.01Z"/>
      <path d="M538.74,525.95c-3.91,17.71-14.96,32.67-27.12,45.69-.88.94.53,2.36,1.41,1.41,9.66-10.34,18.52-21.74,23.96-34.9,1.56-3.78,2.8-7.68,3.68-11.67.28-1.25-1.65-1.79-1.93-.53Z"/>
      <path d="M178.14,304.91c-3.86,9.22-7.71,18.44-11.57,27.66-.5,1.19,1.44,1.7,1.93.53,3.86-9.22,7.71-18.44,11.57-27.66.5-1.19-1.44-1.7-1.93-.53Z"/>
      <path d="M201.12,335.44c-.57.03-.96.44-1,1-.13,2.1-.37,4.1-.73,6.15-.09.51.14,1.1.7,1.23.49.11,1.13-.15,1.23-.7.39-2.21.66-4.44.8-6.68.03-.52-.48-1.02-1-1Z"/>
      <path d="M344.21,352.48c-2.17,8.43-7,16.02-8.19,24.73-.15,1.07,1.18,1.8,1.83.77.72-1.14,1.44-2.27,2.15-3.41.52-.82-.34-1.59-1.08-1.46,1.89-6.85,5.44-13.19,7.22-20.1.32-1.25-1.61-1.78-1.93-.53Z"/>
      <path d="M349.99,366.81c-6.08,15.07-11.63,30.35-16.64,45.81-.4,1.23,1.53,1.75,1.93.53,5.01-15.46,10.56-30.74,16.63-45.81.48-1.19-1.45-1.71-1.93-.53Z"/>
      <path d="M354.28,384.19c-4.82,17.81-14.2,34.01-18.62,51.95-.31,1.25,1.62,1.78,1.93.53,4.42-17.94,13.8-34.14,18.62-51.95.34-1.24-1.59-1.77-1.93-.53Z"/>
      <path d="M362.14,401.31c-4.48,15.89-13.84,29.85-18.64,45.61-.16.12-.29.28-.34.55-.11.6-.23,1.19-.34,1.79-.24,1.25,1.59,1.79,1.93.53,4.54-16.72,14.63-31.28,19.33-47.95.35-1.24-1.58-1.77-1.93-.53Z"/>
      <path d="M366.19,416.02c-2.74,8.07-6.07,15.91-9.96,23.49-.59,1.14,1.14,2.16,1.73,1.01,3.97-7.73,7.36-15.74,10.16-23.97.42-1.22-1.52-1.75-1.93-.53Z"/>
      <path d="M390.34,323.9c-.07-1.28-2.08-1.29-2,0,.27,4.61-2.18,9.04-3.89,13.19l-5.41,13.09c-.49,1.19,1.44,1.71,1.93.53,1.87-4.51,3.73-9.03,5.6-13.54,1.74-4.21,4.05-8.59,3.78-13.27Z"/>
      <path d="M395.03,332.77c.09-1.28-1.91-1.28-2,0-.25,3.54-1.5,6.89-2.71,10.19-1.24,3.4-2.48,6.81-3.72,10.21-.38,1.05,1.35,1.8,1.83.77.6-1.28,1.2-2.56,1.8-3.84.16-.35.11-.67-.04-.94.73-2.02,1.47-4.03,2.2-6.05,1.22-3.37,2.39-6.75,2.64-10.35Z"/>
      <path d="M399.41,336.49c-1.68,6.39-3.62,12.72-5.81,18.95-.38,1.08,1.27,1.74,1.83.77.47-.83.95-1.66,1.42-2.49.26-.45.12-.88-.16-1.16,1.72-5.13,3.28-10.31,4.65-15.54.33-1.25-1.6-1.78-1.93-.53Z"/>
      <path d="M405.48,343.42c-.49-.14-1.12.17-1.23.7-.66,3.23-1.57,6.4-2.72,9.49-.19.51.21,1.1.7,1.23.56.15,1.04-.19,1.23-.7,1.16-3.09,2.07-6.26,2.72-9.49.11-.53-.15-1.08-.7-1.23Z"/>
      <path d="M410.09,338.53c-.5-.14-1.11.17-1.23.7-.61,2.66-1.51,5.24-2.71,7.69-.24.48-.13,1.08.36,1.37.44.26,1.13.13,1.37-.36,1.28-2.6,2.26-5.34,2.91-8.17.12-.53-.16-1.08-.7-1.23Z"/>
      <path d="M237.04,398.74c-5.36,8.91-11.47,17.34-18.27,25.21-.84.97.57,2.39,1.41,1.41,6.91-7.99,13.13-16.56,18.58-25.61.67-1.11-1.06-2.11-1.73-1.01Z"/>
      <path d="M240.42,410.07c-2.53,3.97-5.06,7.94-7.59,11.91-2.38,3.73-4.99,7.41-6.91,11.4-.55,1.15,1.17,2.17,1.73,1.01,1.92-4,4.53-7.67,6.91-11.4,2.53-3.97,5.06-7.94,7.59-11.91.69-1.09-1.04-2.09-1.73-1.01Z"/>
      <path d="M243.84,423.06c-1.18,2.76-3.08,5.11-4.88,7.48l-6.03,7.95c-.78,1.03.96,2.02,1.73,1.01,2.01-2.65,4.02-5.3,6.03-7.95,1.8-2.37,3.69-4.72,4.88-7.48.5-1.17-1.22-2.19-1.73-1.01Z"/>
      <path d="M244.21,432.27c-2.73,5.54-5.95,10.83-9.62,15.81-.76,1.04.97,2.04,1.73,1.01,3.67-4.97,6.89-10.26,9.62-15.81.57-1.15-1.16-2.17-1.73-1.01Z"/>
      <path d="M248.78,441.43c-1.89,3.64-4.07,7.12-6.51,10.41-.5-.29-1.29-.19-1.55.52-.28.78-.3,1.56-.15,2.37.13.7,1.22,1.01,1.67.44,3.15-3.98,5.93-8.22,8.27-12.73.59-1.14-1.13-2.15-1.73-1.01Z"/>
      <path d="M277.57,393.23c-.6,0-.93.47-1,1-.34,2.57-1.97,4.91-3.21,7.12-.49.88-.98,1.75-1.47,2.63-.12.05-.24.13-.35.25-1.24,1.37-2.09,3-2.45,4.81-.21,1.07,1.25,1.81,1.83.77,1.49-2.66,2.98-5.32,4.47-7.98,1.36-2.42,2.83-4.8,3.19-7.6.07-.54-.51-.99-1-1Z"/>
      <path d="M291.39,393.74c-2.67,7.02-6.34,13.58-10.13,20.04-.26.04-.5.17-.68.45-.58.89-.98,1.83-1.22,2.86-.25,1.09,1.24,1.77,1.83.77,4.5-7.62,8.98-15.29,12.14-23.59.46-1.2-1.47-1.72-1.93-.53Z"/>
      <path d="M316.27,390.64c-4.71,10.95-10.07,21.61-16.05,31.92-.42-.01-.85.17-1.04.66-.49,1.23-.99,2.46-1.48,3.68-.43,1.08,1.26,1.71,1.83.77,6.96-11.58,13.13-23.61,18.46-36.02.5-1.17-1.22-2.19-1.73-1.01Z"/>
      <path d="M323.42,400.17c-2.34,5.44-4.93,10.77-7.74,15.98-.36.03-.68.25-.78.71l-.27,1.3c-.22,1.07,1.26,1.81,1.83.77,3.19-5.77,6.09-11.7,8.69-17.75.5-1.17-1.22-2.19-1.73-1.01Z"/>
      <path d="M328.84,364.27c-.3,2.38-1.1,4.66-1.84,6.93l-2.21,6.83c-1.29,4-2.58,8-3.88,12.01,0,0-.01.01-.02.02-.39.69-.57,1.35-.63,2.14-.09,1.17,1.63,1.3,1.96.27,1.55-4.79,3.09-9.58,4.64-14.37,1.45-4.51,3.36-9.1,3.96-13.82.16-1.27-1.84-1.26-2,0Z"/>
      <path d="M293.51,338.94c-10.27,5.34-22.57,5.99-33.36,1.86-1.2-.46-1.72,1.47-.53,1.93,11.3,4.31,24.19,3.51,34.91-2.07,1.14-.59.13-2.32-1.01-1.73Z"/>
      <path d="M590.17,292.9c-21.76-.61-43.51-1.59-65.23-2.94-13.36-.83-26.71-1.82-40.05-2.94.13-.15.24-.31.36-.47-.83-.02-1.66-.11-2.48-.26-.19.17-.36.35-.57.5-7.46-.63-14.91-1.29-22.36-2.01-1.58-.15-3.15-.32-4.73-.48-.31-.22-.74-.26-1.08-.11-3.76-.38-7.52-.75-11.27-1.15.21-5.87-2.52-11.3-4.32-16.78-.02-.05-.03-.09-.04-.14-.74-.02-1.48-.11-2.19-.29,1.74,5.62,4.68,11.06,4.56,17-5.82-.62-11.64-1.27-17.46-1.94-.07,0-.12.01-.18.02-.77-1.12-1.63-2.19-2.6-3.21-1.06-1.11-2.23-2.09-3.48-2.98-1.05-.75-2.05.99-1.01,1.73,10.74,7.66,11.7,22.47,8.76,34.21-1.75,7.01-4.64,13.66-7.42,20.3-2.67,6.39-5.36,12.77-8.1,19.13-10.73,24.89-22.33,49.57-37.29,72.24-4.17,6.31-8.59,12.46-13.31,18.37-2.39,2.99-4.86,5.92-7.4,8.79-1.23,1.38-2.48,2.75-3.74,4.1-.52.56-1.02,1.35-1.8,1.54-.21.05-.48.05-.7.02.09-.75-.66-1.56-1.45-1.02-.78.53-1.23,1.45-.51,2.26.59.67,1.72.82,2.55.75,1.46-.11,2.22-.97,3.17-1.99,1.27-1.35,2.51-2.71,3.75-4.09,4.82-5.41,9.36-11.07,13.65-16.91,8.62-11.74,16.19-24.21,23.05-37.05,6.95-13.01,13.19-26.38,19.11-39.89,2.94-6.7,5.8-13.44,8.64-20.19,3-7.13,6.21-14.23,8.54-21.61,3.27-10.38,4.29-22.72-1.1-32.4,5.42.63,10.84,1.23,16.26,1.81.22.65,1.19.7,1.68.17,3.72.39,7.44.78,11.17,1.15.06,4.49-1.12,8.83-2.5,13.08-1.56,4.79-3.21,9.56-4.81,14.34-2.46,7.32-4.92,14.64-7.38,21.96-.34.05-.64.26-.75.69-.5,2-1,3.99-1.5,5.99-.31,1.26,1.52,1.75,1.93.53,3.26-9.71,6.53-19.41,9.79-29.12,1.6-4.77,3.26-9.53,4.8-14.32,1.35-4.2,2.46-8.53,2.43-12.96,7.03.7,14.07,1.35,21.1,1.97-.3.52-.2,1.27.55,1.45,1.94.45,3.86.05,5.5-.92,1.86.16,3.71.33,5.57.48,21.69,1.77,43.42,3.17,65.16,4.2,12.24.58,24.48,1.04,36.72,1.38,1.29.04,1.29-1.96,0-2Z"/>
      <path d="M468.69,230.34c-3-.54-6.12-1.14-8.81-2.64-3.17-1.77-4.67-4.67-4.92-8.24-.29-4.07-.04-8.22-.01-12.3.02-2.36.03-4.72.05-7.08.07,1.32.15,2.64.24,3.95-.28,2.28-.31,4.54-.16,6.78.75-.6,1.62-1.11,2.62-1.5-.18-1.81-.33-3.62-.46-5.44.02-.15.04-.31.06-.46.04-.27-.02-.49-.14-.68-1.08-16.89-.46-34.03-6.55-50.05-6.81-17.9-20.72-31.26-33.93-44.73-.71-4.41-1.68-8.78-3.07-13.06-3.06-9.42-8.07-18.31-15.62-24.84-.97-.84-2.39.57-1.41,1.41,10.11,8.75,15.12,21.04,17.55,33.87-1.79-1.85-3.56-3.71-5.29-5.58-3.94-4.28-7.75-8.83-11.85-13.06-.06-2.12-.15-4.25-.28-6.37-.77-12.57-3.07-25.14-8.59-36.55-4.79-9.9-11.98-18.86-21.5-24.54-10.98-6.55-24.05-7.97-36.59-8.07-12.64-.1-25.93.32-37.73,5.34-10.02,4.26-18.93,12.63-21.66,23.45-.65,2.58-.9,5.26-.73,7.91.08,1.28,2.08,1.29,2,0-.7-11.15,6.58-21.15,15.77-26.77,10.89-6.67,24.22-7.69,36.68-7.9,12.41-.21,25.47.21,36.95,5.5,10.14,4.68,17.97,13,23.33,22.68,7.39,13.35,9.78,28.22,10.35,43.3-4.36-4.26-9.09-8.05-14.68-10.71-.38-.18-.73-.1-1.01.08.68.89,1.36,1.78,2.02,2.68,5.18,2.83,9.63,6.66,13.76,10.86.1,4.28.07,8.57-.02,12.85.49,1.08.98,2.16,1.45,3.25,1.11,2.57,1.5,5.32.98,7.83-.07-.23-.13-.45-.2-.68-.39-1.22-2.32-.7-1.93.53.35,1.08.65,2.16.92,3.25-.44.72-.99,1.4-1.67,2.02-.01.46-.03.93-.04,1.4l-.16,6.01c.65-.37,1.32-.67,2.02-.91.06-2.28.13-4.55.21-6.83,3.23,15.13-.07,30.93,1.45,46.26.6,6.07,2.16,11.87,4.04,17.58,0,0,0-.01-.01-.02-.37-1.02-.9-1.96-1.65-2.76-.29.77-.67,1.48-1.11,2.11.34.54.67,1.09,1.02,1.62.58,1.77.68,3.82.86,5.46.19,1.82.36,3.64.5,5.47.66,2.11.81,4.3.35,6.32.28,7,.17,14.02-.33,21-.06.89-.12,1.79-.19,2.69-.36-.67-.72-1.34-1.06-2.03-2.26-4.61-4-9.47-5.32-14.43-.62.18-1.26.3-1.91.37,1.87,6.83,4.49,13.4,8,19.62-.19,1.92-.43,3.83-.81,5.69-.61,2.98-2.04,6.1-5,7.17-.05-4.44-.86-8.92-2.16-13.12-1.26-4.07-3.01-7.9-5-11.61.32-.14.58-.41.62-.85.21-2.4.2-4.81.14-7.22-.7-.18-1.37-.43-2.01-.74.05,1.96.06,3.92-.02,5.88-2.57-9.07-6.1-17.79-10.48-26.1,0,0,0,0,0,0,1.04-19.78-1.72-40.03-9.39-58.37-2.71-6.49-6.04-12.7-10-18.49-.13-.31-.24-.63-.37-.94-.15-.35-.42-.55-.73-.62-1.18-1.65-2.4-3.28-3.69-4.85-6.95-8.49-15.51-15.33-24.67-21.29-11.01-7.16-22.6-13.46-34.48-19.06,7.62.36,15.3,2,22.53,3.49,6.92,1.43,13.8,3.09,20.6,5.02,6.29,1.79,12.43,4.09,17.24,8.69,4.54,4.34,7.94,9.86,11.1,15.25,3.2,5.45,6.04,11.1,8.57,16.89,5.1,11.7,8.9,23.93,12.02,36.29,3.52,13.96,6.18,28.12,8.79,42.27.23,1.26,2.16.73,1.93-.53-4.76-25.73-9.63-51.76-19.74-76.03-2.49-5.98-5.28-11.83-8.45-17.47-3.13-5.56-6.51-11.18-10.77-15.96-4.31-4.84-9.7-7.92-15.79-9.98-6.66-2.26-13.6-3.87-20.46-5.4-7.78-1.73-15.66-3.33-23.59-4.15-7.56-.78-15.32-.61-22.52,2.02-.67.25-.79.96-.56,1.46-.32.04-.64.06-.96.1-1.26.15-1.28,2.15,0,2,2.67-.32,5.35-.54,8.05-.67.07-.68.22-1.36.43-2.03-.45.02-.9.03-1.35.06-.84.05-1.68.12-2.52.19,4.27-1.21,8.69-1.63,13.14-1.58-.3.44-.29,1.04.32,1.33,10.72,5.01,21.16,10.63,31.23,16.85,9.36,5.79,18.35,12.24,25.75,20.45,2.61,2.89,4.99,5.95,7.19,9.14,2.64,6.65,4.43,13.63,5.21,20.75.82,7.44.05,14.79.12,22.24.03,3.59.35,7.22,1.37,10.67.52,1.77,1.24,3.46,2.06,5.1-7.09-.32-14.21-.16-21.11,1.41,0-1.36.01-2.72.01-4.08,4.15-.66,8.33-1.16,12.51-1.37-.86-.51-1.61-1.15-2.24-1.89-3.44.25-6.87.69-10.28,1.23-.02-4.2-.07-8.41-.2-12.61-.2-6.75-.52-13.52-1.17-20.24-.12-1.25-.26-2.5-.43-3.75,1.38.04,2.76.06,4.14.08-.29-.68-.59-1.35-.88-2.03-1.19-.02-2.37-.04-3.56-.08-.57-3.49-1.43-6.92-2.82-10.18,1.11,1.16,2.22,2.32,3.33,3.49-1.01-2.13-2.08-4.22-3.24-6.27-.48-.49-.95-.98-1.43-1.47.2,0,.39,0,.59.01-1.11-1.87-2.3-3.69-3.61-5.45-.32-.43-.66-.84-1-1.25-.13-.02-.26-.04-.39-.06-1.75-1.49-3.45-3.04-5.07-4.68.4.01.79.01,1.19.02-.71-.7-1.44-1.4-2.18-2.07-.31-.01-.63-.01-.94-.03-.48-.54-.96-1.09-1.42-1.66-.81-1-2.22.42-1.41,1.41.03.03.05.06.08.1-.28-.02-.56-.03-.85-.05-8.55-6.66-18.06-11.82-29.07-13.37-5.42-.77-11.19-.76-16.12,1.89-1.13.61-.12,2.34,1.01,1.73,4.27-2.3,9.29-2.33,13.99-1.77,4.78.58,9.48,1.98,13.88,3.92,4.49,1.97,8.68,4.48,12.63,7.33-5.12-.45-10.22-1.1-15.28-1.99-8.87-1.56-17.8-3.66-26.34-6.75-1.25-.76-2.49-1.55-3.68-2.41-2.63-1.88-5.32-4.14-7.64-6.71,3.78-.46,7.56-.91,11.35-1.37,1.26-.15,1.28-2.15,0-2l-12.88,1.55c-2.56-3.28-4.41-7.01-4.78-11.11-.11-1.27-2.12-1.28-2,0,.38,4.21,2.13,8.01,4.56,11.37l-5.04.61c-1.83-1.27-3.6-2.62-5.29-4.08l.61-.18c.89-.26,1.02-1.74,0-1.93-1.19-.22-2.38-.42-3.58-.61-.11-.11-.23-.21-.34-.32-.47-.47-1.06-.32-1.41.06-3.84-.57-7.7-1.01-11.57-1.28-5.54-.39-11.32-.75-16.85-.03-2.94.38-5.6,1.37-8.12,2.69,3.8-3.26,7.81-6.27,12.01-9.01,1.45.79,2.8,1.77,4,2.98.91.92,2.32-.5,1.41-1.41-1.08-1.09-2.25-2.01-3.47-2.78.62-.39,1.23-.79,1.85-1.16,1.1-.66.1-2.39-1.01-1.73-.97.58-1.92,1.18-2.87,1.78-7.87-3.73-17.75-2.03-25.34,2.11-5.45,2.97-10.21,7.05-14.78,11.21-4.67,4.24-9.18,8.66-13.45,13.31-6.1,6.64-11.72,13.84-16.47,21.52.09-1.02.18-2.04.3-3.06.96-8.22,3.34-16.19,7.7-23.26,3.9-6.33,9.07-11.77,14.65-16.64,5.74-5.01,11.95-9.44,18.18-13.81,6.54-4.59,13.4-9.35,21.28-11.23,7.32-1.74,14.56-.1,20.75,4.06,5.91,3.97,10.6,9.6,14.73,15.32,1.03,1.43,2.03,2.87,3.01,4.33.72,1.06,2.45.06,1.73-1.01-7.66-11.33-17.75-24.44-32.59-25.39-8.21-.52-15.96,3.11-22.75,7.36-6.69,4.19-13.15,8.89-19.39,13.73-12.42,9.63-23.49,21.27-27.54,36.87-1.4,5.39-2.06,10.93-2.29,16.49-6.87,12.09-11.52,25.31-12.5,39.46-.6,8.74.25,17.59,2.76,25.95-4.32,9.91-11.44,19.09-9.85,30.4.64,4.56,2.54,8.78,4.69,12.82.04.77.11,1.54.19,2.3.82,7.17,3.28,13.97,5.85,20.67,1.4,3.66,3.09,7.7,2.44,11.69-.5,3.12-2.54,6.13-5.79,6.73-1.26.23-.73,2.16.53,1.93,6.19-1.14,8.04-8.22,7.06-13.57-.68-3.73-2.32-7.24-3.62-10.78-1.28-3.48-2.47-6.99-3.35-10.6-.5-2.09-.85-4.18-1.08-6.29.45-.24.75-.79.43-1.36-.21-.38-.42-.77-.63-1.16-.2-4.03.13-8.08,1.07-12.09,1.49-6.35,4.2-12.32,7.44-17.96.08.15.16.3.25.45.07.11.15.19.23.26-1.88,5.87-2.47,12.17-2.13,18.32.31,5.49,1.4,10.75,2.89,15.92.08-2.21.21-4.42.36-6.63-.37-1.74-.68-3.5-.89-5.29-1.12-9.41-.29-19.36,4.25-27.83.2-.37.42-.71.63-1.07.39-2.68.78-5.37,1.16-8.05-2.31,3.19-4.57,6.43-6.64,9.78-1.36-2.8-2.48-5.68-3.4-8.62.15-.35.31-.69.45-1.04,1.57-3.88,2.62-7.96,2.57-12.17-.02-1.29-2.02-1.29-2,0,.04,3.56-.72,6.92-1.89,10.18-4.43-17.23-1.71-36.16,5.57-52.34.89-1.97,1.86-3.9,2.87-5.81-.01,1.86.01,3.71.07,5.56.29,9.04,1.37,18.03,2.67,26.98.58,3.95,1.2,7.9,1.82,11.84.3-2.52.58-5.03.83-7.55-2.08-13.37-3.94-27.02-3.34-40.55,4.12-7.15,9.01-13.86,14.38-20.11,3.88-4.52,8.01-8.83,12.31-12.96,4.31-4.14,8.73-8.29,13.56-11.81,5.2-3.79,11.14-6.95,17.65-7.52,3.51-.31,7.11.09,10.36,1.36-7.18,4.8-13.8,10.39-19.76,16.62-2.45,1.86-4.85,3.8-7.1,5.89-3.98,3.69-7.52,7.89-10.11,12.68-.61,1.13,1.11,2.14,1.73,1.01,1.69-3.12,3.77-5.94,6.11-8.54-2.11,2.81-4.11,5.7-5.99,8.67-.48.76-.94,1.52-1.4,2.29-.46.56-.91,1.12-1.34,1.7-.21.29-.23.57-.13.8-3.17,5.55-5.93,11.35-8.25,17.31,1.01.85,1.87,1.91,2.47,3.19,1.51-4.28,3.22-8.48,5.11-12.6,1.14-2.47,2.34-4.9,3.6-7.31.26-.49.07-.95-.27-1.23.12-.21.25-.41.38-.62,5.31-6.43,12.68-10.77,20.33-13.93,4.01-1.65,8.12-3.05,12.26-4.35-10.74,11.65-18.28,26.14-21.87,41.57-1.92,8.25-2.74,16.77-2.32,25.23.37,7.6,1.93,14.99,3.75,22.34-3.17-1.16-6.48-1.9-9.9-2.09-1.29-.07-1.28,1.93,0,2,3.68.2,7.17,1.1,10.49,2.46.22.85.44,1.7.66,2.55-.65.6-1.23,1.31-1.68,2.16-.61,1.13,1.12,2.14,1.73,1.01.17-.31.35-.59.56-.85,2.38,9.29,4.56,18.73,4.06,28.35-.06-.03-.13-.06-.19-.09-4.09-1.94-8.04-4.15-11.85-6.6-.99-.64-1.95.76-1.21,1.57,1.41,1.57,2.98,2.93,4.66,4.13-.12-.05-.25-.1-.37-.15-.07.45.14.94.7,1.1.68.2,1.35.41,2.03.61,3.68,2.22,7.75,3.85,11.82,5.24,6.81,2.32,13.69,4.44,20.56,6.59-11.43-.5-22.9.96-33.86,4.39-1.22.38-.7,2.31.53,1.93,13.6-4.25,28.05-5.48,42.16-3.52,2.13.68,4.27,1.36,6.4,2.04.51.27,1.02.52,1.51.81-.13,0-.26.01-.38.05-7.01-1.1-14.1-1.68-21.19-1.66-4.35,0-8.75.15-13.07.69-3.56.45-7.02,1.37-9.78,3.77-.61.53-.28,1.27.28,1.56-1.74,1.12-3.53,2.15-5.4,3.04-.97.46-.39,1.79.5,1.86,2.64.21,5.3.42,7.84,1.21,2.5.77,4.64,2.32,7.04,3.33,2.32.98,4.76,1.56,7.24,1.76-8.33,2.25-16.88,3.71-25.5,4.31-.79.06-1.41,1.1-.71,1.71,3.59,3.09,7.7,5.41,12.21,6.87,1.23.4,1.75-1.53.53-1.93-3.4-1.1-6.58-2.74-9.44-4.86,12.82-1.14,25.4-4.1,37.39-8.77,3.6-.27,7.03-2.34,7.88-6.15.13-.57-.21-.98-.64-1.15.27-.59.45-1.2.57-1.83.1-.22.2-.43.29-.65.19-.42.11-.82-.11-1.1,0-.06.01-.12,0-.18,0-.15-.04-.28-.09-.4,1.19.15,2.39.3,3.58.49-.01,3.53-1.3,6.75-3.2,9.68-.28-.21-.64-.27-1.03-.03-10.31,6.38-21.07,11.98-32.2,16.77-1.14.49-.23,1.97.77,1.83,5.04-.69,10.11-1.28,15.14-2.09,2.08-.33,4.12-.86,5.96-1.94,1.93-1.13,3.56-2.7,5.13-4.27,5.3-5.3,11.3-11.71,11.44-19.61,1.22.21,2.44.43,3.65.67.33.07.6-.01.81-.16,2.61.84,5.53.76,8.07-.27.5-.2.85-.67.7-1.23-.13-.47-.73-.9-1.23-.7-2.52,1.02-5.26,1.02-7.78,0-.18-.07-.37-.06-.55,0-.13-.09-.26-.18-.38-.27.32-.51.23-1.32-.52-1.56-.02,0-.04-.01-.06-.02.03-.05.07-.09.1-.13.14-.24.26-.5.36-.76.19-.46.28-.93.35-1.42.03-.24-.13-.55-.29-.71-.17-.17-.46-.3-.71-.29-.26.01-.53.1-.71.29-.05.07-.1.13-.16.2-.05.09-.09.19-.11.29-.05.34-.14.66-.26.98-.14.29-.3.57-.49.82l.11-.14c-.07.07-.11.15-.15.24-5.83-1.85-11.66-3.7-17.48-5.56,1.85.32,3.71.59,5.58.81,4.64.55,9.31.78,13.98.72,1.29-.02,1.29-2.02,0-2-15.39.21-30.79-2.97-44.84-9.27.75-10.53-1.72-20.68-4.34-30.83.57-.39,1.19-.71,1.85-.96,4.38,2.46,8.43,5.6,12.19,8.83,7.74,6.66,14.84,14.18,23.76,19.32,4.91,2.83,10.27,4.77,15.94,5.22,1.28.1,1.28-1.9,0-2-10.58-.84-19.52-7.31-27.27-14.06-7.13-6.21-13.81-13.09-21.91-18.05,1.91-.34,3.9-.41,5.64-.46,6.18-.2,12.36.09,18.52.67,12.58,1.18,25,3.52,37.52,5.21,11.53,1.55,23.22,2.54,34.85,1.57,5.78-.48,11.54-1.44,17.12-3.06,5.58-1.62,10.8-4.11,16.18-6.25,2.05-.82,4.13-1.5,6.22-2.08-.03,3.72-.09,7.45-.15,11.17-2.7.41-5.36,1.04-7.95,2-4.38,1.62-8.39,4.01-12.37,6.41-4.24,2.56-8.53,5-12.94,7.24-5.07,2.56-10.26,4.87-15.55,6.93-1.19.46-.67,2.4.53,1.93,9.08-3.53,17.88-7.78,26.27-12.75,3.99-2.36,7.91-4.9,12.14-6.82,3.14-1.42,6.45-2.35,9.83-2.9-.05,2.48-.09,4.96-.14,7.45-.03,1.29,1.97,1.29,2,0,.05-2.58.1-5.15.15-7.73.76-.09,1.52-.17,2.28-.23,5.4-.4,10.82-.09,16.22.23,1.29.08,1.28-1.92,0-2-6.09-.36-12.35-.71-18.45-.03.07-3.81.12-7.61.15-11.42,3.71-.89,7.5-1.42,11.38-1.6,3.55-.16,7.1-.09,10.64.1.91,6,2.55,11.75,5.13,17.26,1.97,4.22,4.35,8.21,6.82,12.15-.73-.03-1.47-.06-2.2-.06-8.23-.4-16.48-.06-24.66,1.05-1.23.17-.75,1.98.43,1.92-3.26.74-6.5,1.58-9.71,2.47-.37-.49-.7-1.01-.97-1.54-6.24,2.82-12.64,5.28-19.18,7.35-5.97,1.89-12.04,3.45-18.17,4.69-1.26.26-.73,2.18.53,1.93,4.92-1,9.8-2.21,14.62-3.63-3.61,3.27-7.92,5.64-12.34,7.74-.01,0-.03,0-.04.01-.02,0-.02.02-.04.02-1.4.67-2.81,1.31-4.21,1.94-1.17.53-.16,2.25,1.01,1.73,1.32-.6,2.65-1.2,3.98-1.83,3.17-1.1,6.37-2.12,9.59-3.08-1.33,1.69-2.66,3.38-3.98,5.06-1,1.27-3.57,3.46-2.56,5.3.87,1.58,3.24,1.49,4.73,1.23,2.35-.41,4.53-1.64,6.97-1.18,2.45.46,4.8,1.15,7.29,1.42,2.42.26,4.85.3,7.28.15,1.05-.06,2.09-.16,3.13-.29.02.13.07.27.17.41.16.22.33.41.52.57-5.68-.03-11.36-.06-17.04-.09-5.39-.03-11.36.34-16.01-2.86-1.06-.73-2.06,1-1.01,1.73,4.68,3.22,10.59,3.1,16.04,3.13,6.72.04,13.44.07,20.16.11.67,0,.98-.53.96-1.05,1.16,0,2.37-.23,3.42-.37,3.13-.4,6.24-.98,9.29-1.76,6.17-1.57,12.14-3.92,17.74-6.95,1.13-.61.12-2.34-1.01-1.73-4.93,2.66-10.13,4.77-15.53,6.28-2.59.72-5.22,1.31-7.88,1.76-1.46.25-2.93.44-4.4.6-.64.07-1.74.29-2.58.13,1.02-.3,2.03-.59,3.04-.9,1.95-.42,3.89-.91,5.8-1.47,5.58-1.62,11-3.73,16.39-5.87,1.18-.47.67-2.41-.53-1.93-1.73.69-3.46,1.37-5.2,2.04.26-.26.51-.53.75-.81,2.41-2.72,5.05-5.6,6.43-9.01.55-1.36.55-2.94-.88-3.74-1.52-.86-3.13-.08-4.43.8-.22-.19-.51-.31-.86-.25-4.98.88-9.95,1.75-14.93,2.63,1.1-.29.57-2.06-.64-1.89-10.57,1.54-21.02,3.84-31.25,6.88,2.34-1.59,4.52-3.41,6.42-5.57.07-.08.1-.17.14-.25,3.14-1,6.25-2.08,9.33-3.26.21.28.56.44,1,.31,13.72-4.04,28.03-8.2,42.42-8.12,1.34.06,2.69.15,4.03.25,1.35,2.13,2.72,4.25,4.04,6.38,2.08,7.63,4.15,15.27,6.15,22.92,1.4,5.37,2.76,10.76,4.06,16.15-.88,3.46-2.44,6.72-4.87,9.6-.83.98.58,2.4,1.41,1.41,1.91-2.26,3.32-4.73,4.33-7.35,2.22,9.41,4.23,18.86,5.91,28.37-.31.06-.59.27-.67.69-.4,2.04-.81,4.08-1.24,6.13-.96,1.62-1.98,3.2-3.12,4.7-1.57,2.07-3.38,3.94-5.43,5.53-1.01.79.41,2.2,1.41,1.41,2.29-1.79,4.23-3.92,5.94-6.24-1.37,5.85-3.05,11.62-5.5,17.09-3.62,8.08-9,14.84-15.84,20.41-12.66,10.32-28.17,16.39-40.92,26.6-3.12,2.5-6.05,5.25-8.63,8.32-2.91,3.47-5.14,7.37-7.59,11.16-2.49,3.85-5.41,7.28-9.37,9.68-3.55,2.15-7.54,3.41-11.62,4.07-8.65,1.4-17.6.26-26.14-1.33-9.6-1.79-19.74-3.89-27.23-10.6-3.67-3.28-6.64-7.24-9.67-11.09-3.26-4.14-6.65-8.18-10.17-12.1-7.05-7.86-14.59-15.27-22.58-22.17-1.94-1.68-3.91-3.32-5.9-4.94-.24-.19-.5-.26-.74-.23-2.2-3.45-4.74-6.63-8.24-8.54-.47-1.66-.82-3.36-.99-5.08-.49-1.32-.97-2.64-1.42-3.97.43,1.03.89,2.06,1.35,3.08-.05-.75-.07-1.51-.05-2.28.02-.78.12-1.51.27-2.2-4.25-10.25-7.39-20.95-9.36-31.87,0-.02-.01-.03-.02-.05-1.27-9.91-1.52-19.85-1.33-29.85.16-8.65.28-17.24-.18-25.83.26-.15.45-.41.42-.82-.1-1.39-.18-2.79-.26-4.19.64,2.83,1.25,5.67,1.81,8.52.25,1.26,2.18.73,1.93-.53-1.19-6.06-2.57-12.08-4.13-18.05-.44-20.92,1.44-41.87,5.63-62.38,1.47-7.17,3.22-14.28,5.24-21.31.36-1.24-1.57-1.77-1.93-.53-7.12,24.84-10.85,50.65-11,76.49-.14-.51-.27-1.02-.41-1.53-.37-2.64-.74-5.27-1.09-7.91-.16,1.08-.32,2.15-.48,3.23-.07-.18-.13-.37-.2-.55-.87-2.06-2.58-4.41-5.13-3.92-2.78.54-3.64,3.77-4.24,6.11-.74,2.89-1.21,5.85-1.42,8.82-.45,6.12.23,12.33,1.92,18.23,1.27,4.44,3.15,8.68,5.54,12.61.09,6.57.59,13.13,1.68,19.7.35,2.09.24,4.19-.34,6.08.36,4.04.34,8.1-.73,12.04-1.38,5.06-4.19,9.61-8.04,13.16-.95.87.47,2.29,1.41,1.41,3.36-3.1,5.94-6.92,7.6-11.17,1.84-4.71,2.23-9.72,1.83-14.72-.44-5.55-1.48-11.04-1.96-16.59-.24-2.81-.41-5.62-.53-8.44.92,1.41,1.92,2.77,2.98,4.09.81,1,2.22-.42,1.41-1.41-1.7-2.11-3.21-4.35-4.52-6.71-.04-1.48-.06-2.96-.07-4.43-.03-4.14.02-8.28.09-12.43-.46,5.12-.75,10.25-.81,15.38-3.56-6.92-5.48-14.68-5.59-22.47-.04-2.8.15-5.61.6-8.37.21-1.3.47-2.59.79-3.86.32-1.3.61-2.72,1.33-3.87,1.85-2.96,3.98.3,4.66,2.25.53,1.53,1,3.08,1.45,4.64.3,2.16.61,4.32.9,6.48.79,5.91,1.49,11.84,1.83,17.8.35,6.09.3,12.2.18,18.3-.22,11.34-.42,22.63.86,33.91,1.15,10.13,3.19,20.16,6.11,29.93,1.22,4.09,2.6,8.12,4.12,12.11-.35-.04-.71.08-.96.44-3.13,4.69-6.25,9.39-9.38,14.08-.72,1.07,1.02,2.08,1.73,1.01,2.74-4.11,5.48-8.23,8.22-12.34-.07.34.06.7.5.89.29.13.57.27.84.41.17.34.36.68.53,1.02-.43-.04-.89.14-1.06.68-1.52,4.78-3.28,9.48-5.29,14.08-.22.5-.14,1.07.36,1.37.42.25,1.15.14,1.37-.36,2.04-4.67,3.84-9.43,5.39-14.28.8,1.52,1.62,3.02,2.47,4.52.42,4.55-2.2,8.72-2.32,13.24-.03,1.29,1.97,1.29,2,0,.09-3.23,1.44-6.25,2.07-9.39.5,1.25,1.01,2.49,1.53,3.72.06-1.16.31-2.32.71-3.41-.68-1.69-1.34-3.38-1.96-5.09-.28-.77-1.18-.83-1.67-.45-.64-1.35-1.23-2.72-1.75-4.12,2.59,2.04,4.54,4.87,6.29,7.8.12-.2.27-.39.4-.58,1.02.83,2.02,1.7,3.03,2.54-.35.09-.68.32-.73.68-.58,3.93-1.45,7.82-2.59,11.63-.37,1.24,1.56,1.76,1.93.53,1.14-3.81,2-7.7,2.59-11.63.01-.07,0-.14,0-.21,2.57,2.18,5.08,4.43,7.56,6.71-.54.03-.99.44-.99,1v4.82c0,.52.46,1.02,1,1,.54-.02,1-.44,1-1v-4.82s-.02-.06-.02-.08c3.71,3.44,7.32,6.99,10.8,10.66,3.68,3.88,7.24,7.89,10.67,12,3.36,4.03,6.45,8.3,9.91,12.24,3.25,3.7,6.95,6.9,11.36,9.14,4.5,2.29,9.4,3.68,14.31,4.78,3.03.67,6.1,1.3,9.19,1.83-1.74,3.5-3.52,6.98-5.32,10.45-.6-.18-1.33.12-1.27.91.03.47.05.93.07,1.4-.57,1.1-1.14,2.2-1.72,3.29-.57,1.08.96,2.03,1.63,1.13-.49,6.83-2.49,13.49-4.5,20.04-2.66,8.67-5.32,17.33-7.98,26-1.5,4.88-3,9.77-4.5,14.65-.38,1.23,1.55,1.76,1.93.53,2.69-8.74,5.37-17.49,8.06-26.23,2.66-8.67,5.72-17.32,7.7-26.18.94-4.2,1.52-8.49,1.41-12.79,2.18-4.17,4.32-8.36,6.42-12.57.05-.11.07-.21.08-.31,2.52.39,5.06.7,7.59.91-.13.11-.24.25-.31.44-2.64,7.76-7.32,14.56-10.93,21.87-.11.1-.21.23-.28.39-.19.46-.39.93-.58,1.39-.43,1.04,1.35,1.8,1.83.77,3.77-8.07,9.01-15.41,11.9-23.89.13-.37.02-.66-.17-.87,2.21.14,4.41.19,6.62.12,8.3-.25,16.76-2.33,23.06-8.01,1.68-1.51,3.1-3.24,4.39-5.07-.22,2.25-1.06,4.39-1.86,6.5l-2.97,7.84c-.46,1.2,1.48,1.73,1.93.53,1.03-2.71,2.05-5.42,3.08-8.13.97-2.56,1.91-5.15,1.89-7.93,0-.48-.29-.78-.64-.9,1-1.53,1.95-3.1,2.91-4.65,2.32-3.7,4.96-7.1,8.08-10.15,11.97-11.73,27.98-17.96,41.46-27.62,6.83-4.89,12.98-10.69,17.34-17.92,5.18-8.59,7.85-18.41,9.93-28.14.07-.31.13-.63.19-.94.3-.5.59-1.01.87-1.52.05-.09.1-.18.15-.27.07.45.14.9.21,1.34-.74,6.15-1.81,12.24-3.38,18.26-.6,2.31-1.3,4.59-2.05,6.85.7-.03,1.4.01,2.1.11,1.95-5.94,3.37-12,4.38-18.15.21,1.55.43,3.1.62,4.65.1.78.9,1.08,1.47.9-.97,3.75-2,7.49-3.09,11.2-.21.7-.42,1.4-.63,2.11.63.25,1.24.54,1.81.89,2-6.61,3.81-13.27,5.41-19.98,3.76-15.79,6.41-31.85,7.92-48.01.19-2.06.36-4.12.52-6.18.1-1.28-1.9-1.28-2,0-.28,3.63-.62,7.25-1.01,10.87-.05-3.59-.73-7.06-1.96-10.41.13-.08.25-.19.34-.37,1.5-2.92,2.51-5.91,3.13-8.96,3.19,9.18,5.54,18.64,7,28.26.19,1.27,2.12.73,1.93-.53-1.66-10.9-4.46-21.6-8.32-31.91.61-6.62-.41-13.4-2.12-20.01-.07-2.59-.39-5.18-1.07-7.74-1.05-3.94-2.97-7.45-5.12-10.85-2.45-6.71-4.78-13.5-5.9-20.57-1.38-8.75-.83-17.68-.56-26.49.18-5.69.24-11.44-.35-17.11.16,0,.33-.02.49-.02-2.03-10.04-2.37-20.42-.96-30.58,1.87,2.06,3.71,4.16,5.54,6.22,3.24,3.63,6.61,7.14,10.01,10.62.5,3.24.86,6.51,1.1,9.74-3.49-5.23-7.35-10.21-11.61-14.84-.87-.95-2.28.47-1.41,1.41,4.96,5.39,9.39,11.26,13.27,17.47.53,10.36.38,20.73.96,31.09.58,10.45,1.67,20.87,3.23,31.22,1.78,11.77,4.21,23.44,7.24,34.95.33,1.24,2.26.72,1.93-.53-5.47-20.76-8.93-42.04-10.27-63.47-.61-9.71-.45-19.63-.82-29.49,8.34,14.46,13.73,30.63,15.48,47.25,1.56,14.76.21,29.58.37,44.37.12,11.14,1.59,23.82,10.38,31.71,5.07,4.55,11.86,6.93,16.31,12.19,4.36,5.15,5.88,12.43,4.12,18.91-.34,1.24,1.59,1.77,1.93.53,1.53-5.64.79-11.75-1.95-16.91-2.97-5.59-8.16-8.77-13.34-12.05-2.62-1.66-5.18-3.41-7.3-5.71-1.94-2.11-3.45-4.58-4.6-7.2-2.41-5.53-3.19-11.67-3.46-17.65-.66-14.83.98-29.67-.14-44.5-.97-12.87-3.99-25.55-8.94-37.47-2.54-6.14-5.59-12.05-9.08-17.69-.2-3.63-.51-7.25-.98-10.84,3.71,3.79,7.43,7.57,11.03,11.47,7.58,8.21,14.65,17.09,19.22,27.37,5.05,11.38,6.28,23.89,6.91,36.19.12,2.39.23,4.8.34,7.2-.57-.43-1.63-.18-1.64.75-.03,4.79-.06,9.58-.09,14.37-.03,4.19-.44,8.6.25,12.75,1.24,7.49,8.45,9.71,14.97,10.87,1.26.22,1.8-1.7.53-1.93ZM397.4,90.24c-.11.73-.21,1.46-.3,2.19,0-.93-.03-1.86-.05-2.78.14.15.28.29.41.44-.02.05-.05.09-.06.16ZM147.25,186.41c-.28.62-.55,1.24-.79,1.87-.06-.1-.11-.21-.16-.31.31-.52.63-1.04.95-1.56ZM143.99,187.88c-2.91,4.93-5.4,10.08-7.14,15.55-1.29,4.06-2.09,8.27-2.29,12.51-1.11-2.42-2.03-4.91-2.53-7.54-.75-3.94-.28-7.91.9-11.71,1.83-5.89,5.03-11.22,7.68-16.77.94,2.72,2.06,5.39,3.38,7.96ZM226.04,239.06c-.21-.16-.48-.24-.81-.18-4.93,1.02-10.1.32-14.57-2.02-2.13-1.12-4.15-2.28-6.5-2.89-1.32-.34-2.67-.55-4.03-.71,1.03-.58,2.04-1.2,3.02-1.85.73-.49.49-1.46-.09-1.79,2.71-2.14,6.24-2.76,9.6-3.08,1.85-.17,3.7-.29,5.55-.38-.25.29-.38.7-.19,1.14.76,1.76,1.79,3.48,3.04,5.01-.16.71.43,1.53,1.16,1.3,1.92,1.99,4.25,3.58,6.84,4.43-1,.36-2.01.69-3.02,1.03ZM233.61,246.43c-1.46,1.45-2.97,2.88-4.79,3.87-1.96,1.07-4.21,1.41-6.4,1.72-2.29.32-4.58.63-6.87.94,8.15-3.78,16.09-8,23.78-12.65-1.8,2.2-3.83,4.24-5.73,6.12ZM321.09,98c1.58,1.24,3.11,2.53,4.61,3.85-4.02-.71-8.03-1.47-12.03-2.3-8.65-1.79-17.52-3.79-25.85-7.02,10.87,2.88,22.07,4.67,33.27,5.47ZM262.84,78.16c1.54,1.85,3.26,3.55,5.04,5.09.19.17.39.32.59.48-1.17-.53-2.33-1.08-3.47-1.67-2.07-1.05-4.09-2.2-6.06-3.44,1.3-.16,2.6-.31,3.9-.47ZM275.48,88.72c3.5,2.11,7.21,3.89,11.02,5.4,6.91,2.74,14.13,4.61,21.37,6.23,6.83,1.52,13.7,2.83,20.6,4.01.37.34.74.67,1.1,1.02.2.19.39.38.59.57-.93.21-1.75.79-2.16,1.62-4.9-.07-9.8-.12-14.7-.12-1.55,0-3.11,0-4.66.01-.6-.03-1.19-.05-1.79-.09-15.77-.97-32.09-4.52-45.19-13.78-4.96-3.5-10.05-8.14-12.93-13.72,2.37-.29,4.75-.57,7.12-.86,6.06,4.08,12.74,7.22,19.63,9.71ZM248.81,73.54c1.49,1.33,3.03,2.58,4.62,3.76-1.85.22-3.71.45-5.56.67-.5-1.23-.88-2.5-1.13-3.81l2.07-.61ZM192.82,91.32c-1.1.73-2.17,1.5-3.2,2.31,3.48-4.98,7.33-9.7,11.51-14.11.05-.05.1-.1.15-.16.82-.62,1.64-1.23,2.47-1.83,3.94-2.85,8.02-5.76,12.88-6.74,5.15-1.04,10.76-.62,15.97-.33,3.97.22,7.92.61,11.86,1.16,0,.07-.03.13-.03.21.02.3.06.59.09.88-8.82,2.6-17.64,5.19-26.44,7.87-8.73,2.66-17.58,5.67-25.25,10.73ZM341.03,169.4c-.83.22-1.65.46-2.47.73-5.66,1.85-10.98,4.61-16.59,6.58-5.67,1.99-11.58,3.27-17.55,3.94-24.75,2.8-49.12-3.83-73.59-6.32-7.12-.73-14.29-1.1-21.44-.79-2.22.1-4.66.32-6.89,1-1.08-.58-2.19-1.12-3.31-1.61-1.62-6.33-3.12-12.69-3.75-19.15-1.63-16.72,1.67-33.85,9.15-48.89,4.23-8.5,9.77-16.3,16.46-23.03.06-.06.08-.12.12-.18,3.95-1.18,7.91-2.29,11.84-3.46,3.94-1.17,7.87-2.34,11.81-3.51.25,1.2.6,2.36,1.04,3.49-1.87.23-3.74.45-5.61.68-1.26.15-1.28,2.15,0,2,2.14-.26,4.29-.52,6.43-.78,2.29,4.72,6.01,8.79,10.01,12.15,6.21,5.22,13.47,9.02,21.11,11.68,4.73,1.64,9.55,2.83,14.42,3.69-14.11.26-28.21.78-42.3,1.58-11.95.68-23.89,1.55-35.82,2.61-1.27.11-1.28,2.11,0,2,21.13-1.88,42.32-3.17,63.53-3.83,10.49-.33,20.99-.51,31.49-.54,6.23.31,12.49.29,18.72.17.32.64,1.24.53,1.64-.03.09,0,.17,0,.26,0,1.23.02,2.46.05,3.69.07.52.69.97,1.45,1.39,2.17,1.3,2.23,2.24,4.64,2.94,7.12.48,1.7.84,3.42,1.14,5.15-10.26-.35-20.51-1.01-30.74-1.66-22.65-1.45-45.45-2.77-68.08-.27-12.42,1.37-24.72,3.9-36.5,8.11-1.2.43-.68,2.36.53,1.93,21.05-7.53,43.51-9.56,65.73-9.44,23.16.13,46.23,2.57,69.37,3.36.39,2.82.62,5.67.83,8.51.69,9.48.95,18.98.98,28.48-13.11,2.23-26.11,5.87-39.37,6.79-17.65,1.22-34.99-2.31-52.29-5.48-.12.06-.24.1-.36.15-10.42-1.81-21.19-3.36-31.6-.69-1.25.32-.72,2.25.53,1.93,10.15-2.6,20.67-1.03,30.82.74.25.04.45-.01.64-.1,5.29.97,10.58,1.96,15.85,2.84,10.68,1.78,21.49,3.13,32.33,2.82,11.17-.32,22.11-2.71,33.01-4.96,3.46-.71,6.94-1.4,10.43-1.99,0,1.42,0,2.83-.01,4.25ZM339.11,216.24s.07-.04.11-.06c.37-.04.74-.08,1.12-.11-.02.08-.08.15-.13.23-.21.09-.41.17-.62.26-.14-.09-.3-.16-.48-.23,0-.03,0-.05,0-.08ZM342.27,222.37c.64-.38,1.28-.84,1.87-1.37-1.22,2.19-4.13,3.54-6.55,3.89-.79.11-1.6.16-2.41.18,2.48-.52,4.91-1.42,7.09-2.7ZM333.54,215.55c-.62.26-1.24.54-1.81.89-.29-.11-.62-.1-.88.06-.11.06-.21.14-.32.21,0-.03-.01-.07-.02-.1.99-.4,2-.76,3.03-1.05ZM324.26,221.21c.14-.15.26-.31.37-.47.07.5.27.98.57,1.38-.03-.01-.06-.03-.09-.04-.11-.05-.22-.11-.32-.18-.07-.04-.13-.08-.2-.13-.01,0-.02-.01-.03-.02-.12-.1-.23-.2-.33-.32-.03-.03-.05-.06-.08-.09,0,0-.01-.02-.03-.04.05-.04.09-.06.13-.11ZM318.18,218.92c.35-.1.7-.18,1.05-.28-.02.1-.03.21-.04.31-.31,2.2.84,4.32,2.63,5.64.31.23.64.42.98.59.06.32.26.61.68.72,2.8.7,5.67,1.02,8.55,1.14,2.52.1,5.11.13,7.57-.51,4.17-1.07,8.07-4.9,6.88-9.53-.02-.08-.06-.13-.1-.2.49-.69.71-1.4.38-2.01,5.2-.92,10.4-1.83,15.6-2.75.07-.01.12-.05.18-.07.28.3.71.42,1.15.12.48-.33,1.32-1.02,1.94-.91,1.17.22.52,1.43.17,2.13-.65,1.29-1.45,2.49-2.32,3.63-1.78,2.33-3.81,5.08-6.3,6.69-2.51,1.63-5.6,2.38-8.42,3.28-1.58.5-3.16.99-4.75,1.47-1.22.26-2.45.5-3.68.7-4.47.71-9.08.88-13.57.22-2.16-.32-4.25-1.09-6.41-1.33-1.9-.21-3.7.44-5.5.95-.85.24-2.74.91-3.55.34-.78-.55,1.28-2.56,1.75-3.15,1.64-2.09,3.29-4.18,4.93-6.27.24-.3.27-.64.19-.94ZM362.78,131.33c-.44-5.13-1.37-10.2-2.76-15.14,6.16,10.98,10.25,23.14,12.52,35.52,1.78,9.73,2.44,19.65,2.14,29.54-1.4-2.49-2.85-4.95-4.4-7.35-.89-1.39-1.79-2.78-2.64-4.2.79.05,1.59.11,2.38.17-.16-.67-.31-1.35-.45-2.03-.93-.07-1.85-.14-2.78-.2-.61-4.56-.92-9.15-1.34-13.73-.05-.5-.09-1-.14-1.5-.69-.01-1.37-.1-2.03-.25.34,3.43.61,6.87.95,10.3-.91-2.87-1.33-5.87-1.45-8.89-.3-7.42.66-14.81.02-22.23ZM379.4,199.08c-1.48-2.35-2.94-4.72-4.3-7.12-3.23-5.71-5.85-11.68-7.26-18.11,3.37,5.44,6.7,10.83,9.46,16.64.41.86.81,1.73,1.2,2.6.54,2.01,1.08,4.03,1.62,6.04-.24-.02-.48-.03-.73-.05ZM393.42,241.42c-.37-1.49-.74-2.98-1.12-4.48-1.91-7.54-3.92-15.05-5.95-22.56.03.01.06.02.09.02.96,1.78,1.87,3.59,2.69,5.45,2.87,6.51,4.81,14.24,4.29,21.56ZM411.52,258.44c-1.26,9.31-2.89,18.57-4.91,27.76-.77,3.49-1.6,6.97-2.48,10.44-.45-3.62-.98-7.23-1.55-10.83.27-2.29.5-4.6.68-6.9,1.68-3.29,3.27-6.64,4.71-10.03,1.43-3.38,2.69-6.86,3.54-10.43ZM403.78,245.49c0-.35-.02-.7-.03-1.05.78-3.34,1.76-6.64,2.76-9.91,1.38,2.54,2.58,5.17,3.3,7.99,1.48,5.75.85,11.75-.74,17.4-1.34,4.75-3.31,9.28-5.46,13.72.5-9.4.41-18.84.17-28.14ZM412.21,212.6c.42,2.64.68,5.33.71,8.01-.48-1.18-.96-2.36-1.48-3.53.31-1.49.57-2.98.77-4.48ZM412.7,225.53c-.39,3.79-1.32,7.49-2.96,10.98-.21-.47-.43-.94-.66-1.4-.55-1.09-1.14-2.16-1.74-3.22.26-.84.53-1.68.78-2.52.9-2.93,1.8-5.93,2.56-8.96.71,1.69,1.38,3.4,2.02,5.12ZM404.77,187.72c2.07,5.7,4.2,11.38,5.77,17.23.12,2.94-.11,5.9-.57,8.86-.43-.93-.88-1.86-1.33-2.79-.56-1.16-2.29-.14-1.73,1.01.84,1.72,1.64,3.46,2.42,5.21-.46,2.16-1,4.31-1.6,6.43-.56,1.96-1.16,3.92-1.77,5.89-.9-1.5-1.82-2.99-2.71-4.5.04-.45.08-.89.12-1.31.78-8.3,1.04-16.64.73-24.97-.16-4.16-.45-8.32-.9-12.46-.04-.39-.08-.78-.12-1.18.58.86,1.14,1.72,1.7,2.6ZM405.16,232.14c-.55,1.77-1.09,3.54-1.61,5.31,0-.13,0-.26-.01-.39-.04-1.28-2.04-1.29-2,0,.08,2.39.15,4.8.22,7.2-.85,3.71-1.45,7.46-1.59,11.29-.09,2.58.07,5.15.46,7.71.11.74.8.85,1.33.58-.07,4.78-.26,9.56-.63,14.32-1.88-10.65-4.17-21.22-6.69-31.74.44-1.92.69-3.9.77-5.89,5.39-1.29,6.87-6.9,7.51-12.09.75,1.23,1.51,2.46,2.24,3.71Z"/>
    </g>
  </g>
</svg>