<?xml version="1.0" encoding="UTF-8"?>
<svg id="bartop" xmlns="http://www.w3.org/2000/svg" xmlns:xlink="http://www.w3.org/1999/xlink" viewBox="0 0 1920 1080">
  <defs>
    <style>
      .cls-1 {
        opacity: .57;
      }

      .cls-2, .cls-3, .cls-4, .cls-5 {
        fill: #6b5d51;
      }

      .cls-2, .cls-6 {
        opacity: .76;
      }

      .cls-7 {
        fill: #d3cccb;
      }

      .cls-7, .cls-8 {
        opacity: .44;
      }

      .cls-9 {
        fill: #512f18;
        opacity: .47;
      }

      .cls-3, .cls-10 {
        opacity: .42;
      }

      .cls-11 {
        opacity: .82;
      }

      .cls-11, .cls-12, .cls-10 {
        fill: #877163;
      }

      .cls-8 {
        fill: #b2a2a1;
      }

      .cls-6 {
        fill: #564642;
      }

      .cls-13 {
        fill: #705c5a;
        opacity: .45;
      }

      .cls-4, .cls-12 {
        opacity: .85;
      }

      .cls-5 {
        opacity: .35;
      }

      .cls-14 {
        fill: url(#linear-gradient);
      }
    </style>
    <linearGradient id="linear-gradient" x1="998.61" y1="1086.65" x2="998.61" y2="-6.65" gradientUnits="userSpaceOnUse">
      <stop offset="0" stop-color="#a4a090"/>
      <stop offset=".23" stop-color="#9f9a8a"/>
      <stop offset=".53" stop-color="#92897b"/>
      <stop offset=".87" stop-color="#7c6f62"/>
      <stop offset="1" stop-color="#736357"/>
    </linearGradient>
  </defs>
  <rect class="cls-14" x="-35.07" y="-6.65" width="2067.36" height="1093.3"/>
  <path class="cls-2" d="M-12.94,64.44l168.76-28.73s93.55,33.61,122.9,28.73c29.35-4.88,174.27,11.63,207.29,11.63s242.14-12.84,267.82-20.18c25.68-7.34,144.92,4.25,170.6,8.55s152.25-12.22,168.76-8.55c16.51,3.67,91.72,0,91.72,0L-12.94,64.44Z"/>
  <path class="cls-5" d="M-359.47,697.3l168.76-28.73s93.55,33.61,122.9,28.73c29.35-4.88,174.27,11.63,207.29,11.63s242.14-12.84,267.82-20.18c25.68-7.34,144.92,4.25,170.6,8.55s152.25-12.22,168.76-8.55c16.51,3.67,91.72,0,91.72,0l-1197.86,8.55Z"/>
  <path class="cls-3" d="M-76.01,515.58l381.55-5.95s280.66,7.34,291.67,0,210.96,16.51,240.31,16.51,225.63-33.02,238.47-33.02,220.13,7.34,225.63,7.34-1377.63,15.12-1377.63,15.12Z"/>
  <path class="cls-2" d="M437.41,227.11l608.1-11.01s88.97,25.51,116.48,21.01,392.56-21.01,392.56-21.01c0,0,166.93,25.51,172.43,21.01,5.5-4.5,221.96-10.24,221.96-10.24h80.71l-1592.25.24Z"/>
  <path class="cls-2" d="M597,572.71l608.1-11.01s88.97,25.51,116.48,21.01,392.56-21.01,392.56-21.01c0,0,166.93,25.51,172.43,21.01,5.5-4.5,221.96-10.24,221.96-10.24h80.71l-1592.25.24Z"/>
  <path class="cls-10" d="M193.88,849.61l259.77-14.68s217.17,23.85,224.51,23.85,208.43-22.98,219.44-22.98,233.2-3.22,233.2-3.22l174.73,7.85-1111.64,9.17Z"/>
  <polygon class="cls-10" points="1345.93 155.24 1545.88 143.02 1798.41 143.02 1982.47 143.02 2044.84 127.72 2099.87 143.02 1345.93 155.24"/>
  <path class="cls-10" d="M873.71,923.77s343.03-4.54,348.54,0c5.5,4.54,317.35-3.06,357.71-2.02s229.47,12.05,229.47,12.05l-935.71-10.04Z"/>
  <path class="cls-11" d="M124.18,318.13l259.77-14.68s217.17,23.85,224.51,23.85,208.43-22.98,219.44-22.98,233.2-3.22,233.2-3.22l174.73,7.85-1111.64,9.17Z"/>
  <path class="cls-11" d="M804.01,392.29s343.03-4.54,348.54,0c5.5,4.54,317.35-3.06,357.71-2.02s229.47,12.05,229.47,12.05l-935.71-10.04Z"/>
  <path class="cls-10" d="M375.14,648.18s254.98,4.59,260.48,0,249.48,1.32,262.32,2.04,254.98,2.55,265.99,2.55,130.41-2.65,137.66-3.16-926.45-1.43-926.45-1.43Z"/>
  <path class="cls-4" d="M-12.94,131.17l381.55-5.95s280.66,7.34,291.67,0,210.96,16.51,240.31,16.51,225.63-33.02,238.47-33.02,220.13,7.34,225.63,7.34S-12.94,131.17-12.94,131.17Z"/>
  <path class="cls-12" d="M438.21,263.76s254.98,4.59,260.48,0,249.48,1.32,262.32,2.04,254.98,2.55,265.99,2.55,130.41-2.65,137.66-3.16-926.45-1.43-926.45-1.43Z"/>
  <path class="cls-13" d="M26.93,181.08c-5.29-8.96-20.45-2.8-24.17,3.85-10.21,18.24-10,14.5-21.73,14-16.42-.69-53.21,20.47-49.06,30.58,4.15,10.11,51.91,43.38,51.71,51.64-1.63,67.88,50.73,5.83,55.34-6.98,2.1-5.84-6.37-22.71,14.87-31.06s47.43-46.62,42.69-62.23c-4.74-15.61-15.86-3.4-29.75-5.21-9.57-1.25-34.76,14.11-39.88,5.42Z"/>
  <path class="cls-13" d="M1745.21,392.97s95.82,1.88,101.46-26.3,22.55-97.7,35.7-88.31c13.15,9.39-13.15,38.83,11.27,58.87,24.43,20.04,103.96-8.84,115.24,23.1,11.27,31.94-58.24,39.74-60.12,56.65-1.88,16.91,63.25,26.72,27.56,51.14-35.7,24.43-65.76,20.67-95.82-13.15-30.06-33.82-46.97-24.43-77.03-7.52-30.06,16.91-95.82-28.18-58.24-54.49Z"/>
  <rect class="cls-9" x="-9.39" y="-13.27" width="1997.66" height="1102.47"/>
  <ellipse class="cls-6" cx="1665.69" cy="91.71" rx="172.9" ry="60.95"/>
  <g class="cls-1">
    <path class="cls-7" d="M1714.72-302.67l243.77-212.82s-247.66,76.09-522.98,0h0s238.02,207.8,238.02,207.8l5.83,340.09s-138.01-.44-138.01,62.26c0,33.17,69.34,55.47,166.87,55.47s147.16-37.83,146.58-59.06c-1.3-48.12-139.12-60.74-139.12-60.74l-.96-333Z"/>
  </g>
  <path class="cls-8" d="M1708.3,34.98l-.57-380.59,203.74-144.05s-225.23,20.23-391.88-25.83c.12.03,166.27,35.16,344.58,0-155.77-18.84-352.27,25.83-352.27,25.83l170.89,142.13,3.53,383.77s-83.54-.27-83.54,37.69c0,20.08,41.97,33.58,101.01,33.58s89.08-22.9,88.73-35.75c-.79-29.13-84.22-36.77-84.22-36.77Z"/>
</svg>