<?xml version="1.0" encoding="UTF-8"?>
<svg id="bigBoard" xmlns="http://www.w3.org/2000/svg" xmlns:xlink="http://www.w3.org/1999/xlink" viewBox="0 0 1920 1080">
  <defs>
    <style>
      .cls-1 {
        opacity: .36;
      }

      .cls-1, .cls-2, .cls-3, .cls-4, .cls-5, .cls-6 {
        fill: #56463b;
      }

      .cls-2 {
        opacity: .32;
      }

      .cls-7 {
        fill: #938f8a;
        stroke: #565452;
        stroke-miterlimit: 10;
        stroke-width: .5px;
      }

      .cls-3 {
        opacity: .31;
      }

      .cls-4 {
        opacity: .63;
      }

      .cls-8 {
        fill: url(#linear-gradient);
      }

      .cls-6 {
        opacity: .46;
      }
    </style>
    <linearGradient id="linear-gradient" x1="960" y1="1107.02" x2="960" y2="-27.02" gradientUnits="userSpaceOnUse">
      <stop offset="0" stop-color="#5e483e"/>
      <stop offset="0" stop-color="#5e483e"/>
      <stop offset=".64" stop-color="#796556"/>
      <stop offset="1" stop-color="#847060"/>
    </linearGradient>
  </defs>
  <rect class="cls-8" x="-19.77" y="-27.02" width="1959.55" height="1134.03" rx="1.74" ry="1.74"/>
  <polygon class="cls-5" points="156.32 245.33 156.32 348.66 181.82 425.2 169.07 526.62 195.73 618.47 156.32 245.33"/>
  <polygon class="cls-1" points="499.01 290.7 733.46 426.56 1092.81 640.87 1489.26 738.46 1649.24 809.26 1095.13 623.65 499.01 290.7"/>
  <polygon class="cls-5" points="211.96 406.07 195.73 469.21 211.96 608.9 195.73 677.79 203.85 794.52 211.96 406.07"/>
  <polygon class="cls-3" points="33.79 683.62 47.59 821.54 77.97 883.15 77.01 953.33 110.42 1066.95 33.79 683.62"/>
  <polygon class="cls-5" points="1572.88 268.29 1584.47 369.71 1552.01 461.56 1562.45 502.7 1584.47 652.91 1572.88 737.11 1572.88 268.29"/>
  <polygon class="cls-5" points="1607.66 442.43 1574.04 522.79 1552.01 540 1511.44 591.04 1466.23 668.22 1450.29 702.67 1415.23 728.5 1607.66 442.43"/>
  <polygon class="cls-1" points="728.11 366.04 865.31 438.76 943.56 523.91 1021.61 565.69 1105.85 607.15 728.11 366.04"/>
  <polygon class="cls-3" points="1489.28 829.37 1626.48 902.09 1704.73 987.24 1782.78 1029.02 1867.02 1070.48 1489.28 829.37"/>
  <path class="cls-2" d="M112.27,268.29l424.27,1.91s319.94,10.84,336.17,10.84,287.48.64,331.54-1.27c44.05-1.91,317.62-17.22,329.22-11.48,11.59,5.74,217.93,0,217.93,0H112.27Z"/>
  <path class="cls-4" d="M155.81,110.99s707.66,98.31,726.09,100.06c18.42,1.76,333.95,31.85,350.07,33.38,16.12,1.54,446.18,63.74,446.18,63.74l-1022.49-114.84L155.81,110.99Z"/>
  <path class="cls-6" d="M275.82,570.63s246.99,84.65,177.52,82.94c-2.78-.07,42.58,1.02,46.09,2.32,6.9,2.55,30.49,16.06,56.57,23.76,3.88,1.15,35.09,10.13,38.79,10.79,17.8,3.19,55.51,6.2,105.43,15.15,30.46,5.46,47.79,27.66,59,29.67,29.59,5.31,136.8,28.37,157.18,28.2,20.38-.18-507.61-131.51-522.07-131.76s-69.86-32.55-69.86-32.55l-48.65-28.53Z"/>
  <path class="cls-4" d="M110.43,748.65s31.53,5.99,78.46,14.8c52.74,9.91,124.92,23.38,193.65,35.92,70.44,12.85,137.25,24.73,175.77,30.79,87.89,13.83,157.28,20.75,247.66,30.88,22.26,2.49,45.78,5.18,71.18,8.22,128.51,15.36,194.31,43.45,320.53,58.56,126.21,15.12,296.56,47.54,337.96,51.86,41.4,4.33,169.17,24.27,169.17,24.27l-692.85-99.39-453.64-74.4-467.42-83.55"/>
  <ellipse class="cls-7" cx="118.75" cy="364.83" rx="6.48" ry="6.59"/>
  <ellipse class="cls-7" cx="382.6" cy="337.51" rx="10.88" ry="11.05"/>
  <ellipse class="cls-7" cx="761.93" cy="763.47" rx="6.98" ry="7.09"/>
  <ellipse class="cls-7" cx="1175.06" cy="442.43" rx="6.98" ry="7.09"/>
  <ellipse class="cls-7" cx="1632.55" cy="618.47" rx="6.98" ry="7.09"/>
</svg>