<?xml version="1.0" encoding="UTF-8"?>
<svg id="bigBoard" xmlns="http://www.w3.org/2000/svg" viewBox="0 0 1920 195.36">
  <defs>
    <style>
      .cls-1 {
        fill: #967753;
      }

      .cls-2 {
        fill: #938f8a;
        stroke: #565452;
        stroke-miterlimit: 10;
      }

      .cls-3 {
        fill: #877258;
      }

      .cls-4 {
        font-family: VinerHandITC, 'Viner Hand ITC';
        font-size: 76.61px;
      }

      .cls-5 {
        fill: #998264;
      }
    </style>
  </defs>
  <polygon class="cls-5" points="1896.91 180.82 55.52 192.5 37.06 18.08 1884 5.68 1896.91 180.82"/>
  <g>
    <path class="cls-3" d="M1136.06,157.43s189.93-1.46,194.8,0c4.87,1.46,141.23-4.39,147.72,0,6.49,4.39,139.61-2.44,147.72.24,8.12,2.69,105.52,1.27,105.52,1.27l-595.76-1.51Z"/>
    <polygon class="cls-3" points="95.51 66.67 577.64 60.82 881.2 77.8 1291.9 77.8 1348.72 87.17 1736.69 60.82 1816.23 69.6 95.51 66.67"/>
    <path class="cls-3" d="M175.05,136.94l294.78-16.99,349.68,16.99s201.29,2.93,207.79,0,308.43-13.17,314.92-13.17,157.46,9.2,167.2,5.33,206.16-9.15,206.16-9.15h134.74l-1675.27,16.99Z"/>
    <path class="cls-3" d="M76.03,109.85l101.69-6.58,171.19,2.21s105.11-1.73,125.52-1.23,183.14,1.46,183.14,1.46l157.06,14.25h58.44l-797.05-10.1Z"/>
    <path class="cls-3" d="M577.64,166.22c-6.49,0-188.31,1.46-201.29,0-12.99-1.46-121.75,2.93-136.36,0-14.61-2.93-128.24-6.9-128.24-6.9l-56.23,3.96,522.12,2.93Z"/>
  </g>
  <text class="cls-4" transform="translate(175.05 124.33) scale(.99 1)"><tspan x="0" y="0">BOUNTY BOARD</tspan></text>
  <ellipse class="cls-2" cx="1831.69" cy="61.88" rx="14.68" ry="13.91"/>
  <ellipse class="cls-2" cx="1823.97" cy="116.69" rx="14.68" ry="13.91"/>
  <ellipse class="cls-2" cx="95.51" cy="73.99" rx="15.42" ry="13.91"/>
  <ellipse class="cls-2" cx="104.98" cy="138.24" rx="15.42" ry="13.91"/>
  <polygon class="cls-1" points="37.06 18.08 31.32 24.92 44.71 187.38 55.52 192.5 37.06 18.08"/>
</svg>