<?xml version="1.0" encoding="UTF-8"?>
<svg id="bartop" xmlns="http://www.w3.org/2000/svg" viewBox="0 0 378.8 247.64">
  <defs>
    <style>
      .cls-1 {
        fill: #dbad53;
      }

      .cls-2 {
        fill: #b78829;
      }

      .cls-3 {
        fill: #f2c688;
      }

      .cls-4 {
        fill: #ba8e3e;
      }

      .cls-5 {
        fill: #e8bb7c;
      }

      .cls-6 {
        fill: #c9982b;
      }

      .cls-7 {
        fill: #ad7b21;
      }

      .cls-8 {
        font-family: Papyrus-Regular, Papyrus;
        font-size: 48px;
      }

      .cls-9 {
        fill: #9b6e15;
      }

      .cls-10 {
        fill: #ad8428;
      }

      .cls-11 {
        fill: #564642;
        opacity: .76;
      }

      .cls-12 {
        fill: #ead4b0;
      }

      .cls-13 {
        fill: #efdbbf;
      }

      .cls-14 {
        fill: #dda654;
      }

      .cls-15 {
        fill: #af7d19;
      }

      .cls-16 {
        fill: #b2831b;
      }

      .cls-17 {
        fill: #d3a43c;
      }
    </style>
  </defs>
  <g>
    <ellipse class="cls-11" cx="163.26" cy="148.92" rx="159.1" ry="91.98"/>
    <ellipse class="cls-11" cx="201.75" cy="72.3" rx="159.1" ry="59.4"/>
    <path class="cls-9" d="M55.8,70.62s2.97,59.37,119.82,77.49c26.23,4.07,52.97,3.89,79.11-.74,42.41-7.5,96.71-25.13,119.87-57.14l-.19-33.5s-43.69,52.4-162.32,56.27c0,0-134.37,19.06-155.69-62.8l-.61,20.41Z"/>
    <ellipse class="cls-10" cx="215.51" cy="54.34" rx="159.1" ry="49.57"/>
    <ellipse class="cls-2" cx="215.51" cy="54.34" rx="140.97" ry="43.92"/>
    <polygon class="cls-4" points="181.83 16.51 215.51 13.07 230.68 22.7 256.13 17.89 282.27 22.7 287.77 34.51 298.78 30.27 286.39 38.52 273.32 25.8 252.69 25.8 240.31 25.8 219.67 25.8 215.2 17.89 191.46 18.57 181.83 16.51"/>
    <path class="cls-16" d="M24.31,155.2s2.36,68.94,119.21,87.06c26.23,4.07,52.7,1.91,79.11-.74,21.35-2.14,98.39-21.4,119.87-77.09v-41.54s-43.65,87.44-162.27,91.31c0,0-134.6-6.25-155.92-88.11v29.09Z"/>
    <polygon class="cls-7" points="38.49 159.67 38.49 189.81 45.93 198.72 47.48 170.08 38.49 159.67"/>
    <polygon class="cls-7" points="27.6 140.97 27.6 167.54 30.64 176.79 32.7 151.81 27.6 140.97"/>
    <polygon class="cls-7" points="58.45 179.2 56.41 208.16 68.86 217.13 72.44 188.17 58.45 179.2"/>
    <polygon class="cls-5" points="322.44 166.99 323.87 193.59 331.99 183.75 328.77 159.67 322.44 166.99"/>
    <polygon class="cls-12" points="336.31 147.75 336.62 176.63 340.62 169.11 339.8 139.21 336.31 147.75"/>
    <polygon class="cls-14" points="298.78 185.32 300.26 213.06 312.38 204.27 311.53 176.79 298.78 185.32"/>
    <polygon class="cls-15" points="104.31 202.08 102.01 232.38 121.19 237.89 124.19 207.65 104.31 202.08"/>
    <polygon class="cls-15" points="153.63 214.24 151.98 243.37 176.56 244.52 176.56 213.06 153.63 214.24"/>
    <polygon class="cls-15" points="201.75 213.06 201.75 243.41 227.24 240.92 222.1 211.49 201.75 213.06"/>
    <polygon class="cls-15" points="249.94 204.54 249.94 235.66 271.56 228.01 268.28 198.16 249.94 204.54"/>
    <polygon class="cls-15" points="280.94 194.92 284.04 222.3 290.75 217.13 285.84 189.4 280.94 194.92"/>
    <polygon class="cls-12" points="328.77 89.16 337.99 120.46 350.3 112.83 347.16 82.24 328.77 89.16"/>
    <polygon class="cls-15" points="357.91 76.47 361.22 104.1 367.18 98.76 364.27 72.3 357.91 76.47"/>
    <ellipse class="cls-6" cx="183.4" cy="122.25" rx="159.1" ry="91.98"/>
    <ellipse class="cls-17" cx="181.57" cy="118.44" rx="144.92" ry="83.79"/>
    <path class="cls-1" d="M119.92,59.85l30.27-11.69,20.64,5.85s5.2-9.29,12.58-9.29,28.7,7.57,28.7,7.57h18.57l13.07,11.69-24.08-4.82-17.2,4.82-15.82-14.45-11.01,10.32-26.83-5.5-28.89,5.5Z"/>
    <polygon class="cls-1" points="172.2 90.8 163.26 104.56 172.2 118.3 172.2 132.76 201.78 132.76 201.78 118.3 227.24 108 213.48 99.75 206.6 90.8 191.46 90.8 190.78 81.86 181.83 81.86 172.2 90.8"/>
    <polygon class="cls-1" points="160.51 118.3 143.31 107.31 143.31 91.49 151.91 99.75 160.51 118.3"/>
    <polygon class="cls-1" points="160.51 91.49 151.91 81.86 168.08 81.86 160.51 91.49"/>
    <polygon class="cls-1" points="110.98 146.52 130.24 156.84 160.51 151.68 183.4 164.41 212.79 155.46 237.55 164.41 256.13 139.21 265.07 139.21 260.94 151.81 265.07 160.28 247.87 164.41 232.74 174.04 214.17 160.97 195.25 156.62 195.25 168.54 174.27 176.79 160.51 163.72 151.91 176.79 143.31 163.72 126.11 163.72 104.79 160.97 96.54 151.34 91.72 139.21 106.17 145.83 110.98 146.52"/>
    <path class="cls-3" d="M81.81,58.56s27.63-17.23,78.61-23c2.68-.3-32.45,2.16-51.21,8.01-20.42,6.36-27.4,14.99-27.4,14.99Z"/>
    <path class="cls-13" d="M327.62,110.01s12.62,62.11-103.46,88.71c0,0,63.5-7.16,89.98-40.72,0,0,19.49-18.79,13.48-47.99Z"/>
    <polygon class="cls-12" points="206.6 90.8 209.58 100.62 227.24 108 215.51 98.27 206.6 90.8"/>
    <polygon class="cls-12" points="189.1 81.86 185.73 88.66 191.46 90.8 189.1 81.86"/>
    <polygon class="cls-12" points="230.68 52.28 230.68 57.17 243.75 63.97 230.68 52.28"/>
    <polygon class="cls-12" points="210.48 51.72 193.01 46.39 206.6 51.72 210.48 51.72"/>
    <polygon class="cls-12" points="168.08 81.86 153.63 81.86 165.74 84.83 168.08 81.86"/>
    <polygon class="cls-12" points="143.31 91.49 147.52 100.62 151.91 99.75 143.31 91.49"/>
    <polygon class="cls-12" points="262.43 139.21 260.94 151.81 265.53 138.61 262.43 139.21"/>
    <polygon class="cls-12" points="212.79 155.46 228.54 163.87 234.89 163.45 212.79 155.46"/>
    <polygon class="cls-12" points="160.51 151.68 181.83 163.87 163.26 155.46 160.51 151.68"/>
    <polygon class="cls-12" points="107.52 146.03 110.98 146.52 121.19 151.81 107.52 146.03"/>
  </g>
  <text class="cls-8" transform="translate(91.72 132.76) rotate(-2.01)"><tspan x="0" y="0">DONE</tspan></text>
</svg>