<?xml version="1.0" encoding="UTF-8"?>
<svg id="bartop" xmlns="http://www.w3.org/2000/svg" viewBox="0 0 189.17 750.5">
  <defs>
    <style>
      .cls-1 {
        fill: #776464;
      }

      .cls-2 {
        fill: #d3cbcb;
      }

      .cls-3 {
        font-family: Papyrus-Regular, Papyrus;
        font-size: 48px;
      }

      .cls-4 {
        fill: #918484;
      }

      .cls-5 {
        fill: #564642;
      }

      .cls-5, .cls-6 {
        opacity: .76;
      }

      .cls-6 {
        fill: #7f6d6a;
      }

      .cls-7 {
        fill: #aaa0a0;
      }

      .cls-8 {
        fill: #d6d0d0;
      }

      .cls-9 {
        fill: #e8e2e2;
      }
    </style>
  </defs>
  <g>
    <path class="cls-5" d="M15.88,735.4h0s129.46-18.59,145.18-136.4c7.94-59.54,13.02-342.74,13.02-342.74,0,0-45.72-.46-49.74-44,0,0-27.11-5.89-31.44-58.5-3.69-44.8-2.76-120.62-2.32-145.66.07-4.29-3.79-7.57-8.01-6.79L16.72,13.39c-3.72.68-6.35,4.05-6.1,7.83C42.91,521.69,2.58,552.04,2.58,552.04c0,0,45.78,100.81,13.3,183.37Z"/>
    <path class="cls-7" d="M28.62,747.62h0s129.46-18.59,145.18-136.4c7.94-59.54,13.02-342.74,13.02-342.74,0,0-45.72-.46-49.74-44,0,0-27.11-5.89-31.44-58.5-3.69-44.8-2.76-120.62-2.32-145.66.07-4.29-3.79-7.57-8.01-6.79L29.46,25.61c-3.72.68-6.35,4.05-6.1,7.83,32.29,500.47-8.04,530.82-8.04,530.82,0,0,45.78,100.81,13.3,183.37Z"/>
    <path class="cls-6" d="M46.97,727.19h0s84.96-19.18,100.67-137C155.59,530.66,42.51,35.07,42.76,38.85c32.29,500.47-9.08,504.97-9.08,504.97,0,0,45.78,100.81,13.3,183.37Z"/>
    <path class="cls-4" d="M186.82,268.47s-45.72-.46-49.74-44c0,0-27.11-5.89-31.44-58.5-3.69-44.8-2.76-120.62-2.32-145.66.07-4.29-3.79-7.57-8.01-6.79L29.46,25.61c-3.72.68-6.35,4.05-6.1,7.83,5.69,88.23,9.73,204.26,9.73,204.26l138.21,387.54,15.52-356.76Z"/>
    <path class="cls-8" d="M28.62,747.62h0s129.46-18.59,145.18-136.4c7.94-59.54,13.02-342.74,13.02-342.74,0,0-45.72-.46-49.74-44,0,0-11.54,338.41-108.46,523.15Z"/>
    <path class="cls-2" d="M28.62,747.62h0s46.56-64.46,106.69-231.08c36.32-100.63,51.51-248.07,51.51-248.07,0,0-17.8,375.51-158.2,479.15Z"/>
    <path class="cls-1" d="M31.53,196.7s32.72,2.5,75.73-18l-1.98-17.25S82.72,15.42,28,25.52c-2.92.54-5.01,3.89-4.87,6.85l8.4,164.33Z"/>
    <path class="cls-9" d="M28.62,747.62h0s129.46-18.59,145.18-136.4c7.94-59.54,13.02-342.74,13.02-342.74,0,0,10.31,426.41-158.2,479.15Z"/>
  </g>
  <text class="cls-3" transform="translate(96.31 700.5) rotate(-47.78)"><tspan x="0" y="0">S</tspan></text>
  <text class="cls-3" transform="translate(132.49 659.09) rotate(-68.64)"><tspan x="0" y="0">C</tspan></text>
  <text class="cls-3" transform="translate(148.76 609.18) rotate(-80.08)"><tspan x="0" y="0">R</tspan></text>
  <text class="cls-3" transform="translate(155.32 571.65) rotate(-79.87)"><tspan x="0" y="0">A</tspan></text>
  <text class="cls-3" transform="translate(163.55 525.67) rotate(-79.72)"><tspan x="0" y="0">P</tspan></text>
</svg>