<?xml version="1.0" encoding="UTF-8"?>
<svg id="sketches" xmlns="http://www.w3.org/2000/svg" viewBox="0 0 381.55 441.64">
  <defs>
    <style>
      .cls-1 {
        fill: #aaa7a7;
      }

      .cls-2 {
        fill: #7a7a7a;
      }

      .cls-3 {
        fill: #c6c2c2;
      }
    </style>
  </defs>
  <g id="bootman">
    <path class="cls-2" d="M181.06,252.38s-.05-.09-.07-.14c-.22-.76-.43-1.52-.61-2.28-.11-2.79-.01-5.58.22-8.37.55-3.19,1.18-6.37,1.83-9.55,1.69-8.22,1.23-16.53-3-23.96-2.94-14.44-15.09-26.85-30.84-26.25-5.84.22-11.65.03-17.46-.52-1.5-.26-2.99-.55-4.47-.86,7.09-5.61,13.13-12.47,18.44-19.84,6.24-8.66,10.96-19.4,12.89-29.9,1.24-6.72,2.3-13.74,1.86-20.6-.03-.52-.08-1.04-.12-1.56,5.61-4.07,9.9-9.86,11.47-16.72,3.85-16.9-5.08-33.76-22-38.75-21.98-6.48-45.37,8.3-51.44,29.9-2.03,7.23-2.27,14.65-1.41,22.03.41,3.59.64,7.09.51,10.63-.42,1.9-.93,3.77-1.54,5.61-.96,1.85-2.01,3.65-3.15,5.39-1.23,1.36-2.51,2.67-3.86,3.91-1.43.93-2.89,1.81-4.4,2.61-4.37,1.52-8.83,2.76-13.2,4.28-10.68,3.72-19.44,8.13-27.99,15.58-16.07,14.01-21.23,37.64-16.24,57.73,3.98,16,22.84,27.15,38.75,22,3.19-1.03,6.13-2.48,8.76-4.25,13.75,6.88,28.61,11.71,43.82,14.28-.36,7.32,0,14.67,1.43,22.21,1.71,8.97,5.59,17.19,10.96,24.33-.15.53-.28,1.06-.4,1.61-.08.35-.16.69-.25,1.03-.7.72-1.42,1.41-2.16,2.09-6.03,4.04-12.47,7.41-18.43,11.57-8.55,5.96-16.89,12.62-23.64,20.61-16.55,19.59-25.7,42.36-20.35,68.21,3.34,16.16,23.29,27,38.75,22,16.34-5.29,24.8-20.04,22.4-36.44,0-.37-.02-.75-.02-1.12.23-.91.49-1.81.77-2.71,1.09-2.06,2.28-4.05,3.58-5.98,3.09-3.56,6.44-6.85,10.03-9.91,8.31-5.78,17.3-10.49,25.35-16.7,11.67-9.02,21.55-21.11,24.72-35.88,1.04-4.85,1.01-9.95,0-14.81,7.26-14.72,3.12-30.67-9.46-40.47Z"/>
    <path class="cls-1" d="M224.43,273.07c-5.54-10.76-14.62-17.07-23.94-23.8-1.18-1.07-2.3-2.2-3.37-3.37-3.27-4.94-5.91-10.23-8.3-15.67-.46-1.12-.94-2.21-1.42-3.26,3.47-2.42,6.44-5.64,8.57-9.68,7.69-14.56,4.26-34.88-11.3-43.1-.99-.52-1.94-1.08-2.88-1.66-.66-.63-1.31-1.27-1.93-1.93-.46-.74-.9-1.49-1.32-2.25-.23-.75-.44-1.5-.63-2.26-.06-1.92-.02-3.84.1-5.77,1.51-7.88,3.83-15.57,5.52-23.42,3.03-14.02,3.69-26.94,1.06-41.05-1.38-7.39-8.2-15.15-14.48-18.83-6.75-3.95-16.7-5.63-24.27-3.18-16.45,5.32-24.38,19.72-22.42,36.01.14,2.4.13,4.79-.03,7.19-3.26,17.61-10.19,34.82-8.22,53.02,1.89,17.52,9.08,34.03,21.21,46.29-2,1.9-3.73,4.08-5.05,6.57-3.68,6.96-6.32,16.63-3.18,24.27,4.43,10.75,8.59,22.14,15.33,31.73,3.76,5.34,7.77,10.83,12.72,15.16,2.85,2.49,5.86,4.71,8.92,6.87-4.51,2.51-9.09,4.9-13.29,7.96-8.33,6.07-16.31,12.51-23.03,20.36-13.47,15.74-23.69,33.78-28.76,53.99-4,15.96,5.15,34.91,22,38.75,16.33,3.72,34.46-4.9,38.75-22,.9-3.58,1.99-7.08,3.25-10.53,2.51-5.25,5.44-10.25,8.79-15,3.54-4.16,7.37-8.02,11.51-11.58,6.73-4.53,14.07-7.87,20.74-12.5,12.13-8.42,21.64-20.3,24.71-35.06,3.03-14.54,1.44-29-5.39-42.27Z"/>
    <path class="cls-3" d="M369.9,342.23c.3-2.51.42-5.02.31-7.54-.66-15.22-8.94-27.03-20.55-36.09-8.26-6.45-16.61-12.74-25.42-18.42-6.6-4.25-13.6-7.92-20.54-11.67-.18-.22-.35-.45-.54-.66-8.88-10.26-20.33-19.01-32.68-24.68-6.63-3.05-12.67-4.73-20.09-3.74-2.25.3-4.52.83-6.72,1.58-.17-.26-.36-.52-.53-.79-.07-.81-.2-1.61-.34-2.41-.25-11.69-1.99-23.58-5.49-34.74-.24-.77-.52-1.53-.82-2.29,3.44-6.46,6.22-13.31,8.5-20.21.33-1,.59-2.02.8-3.05,4.04-2.59,7.89-5.48,11.81-8.24,5.4-3.8,11.2-6.98,16.54-10.86,3.9-2.83,8.21-5.92,11.44-9.62,5.87-6.7,8.23-11.48,11.5-19.77,3.59-9.08-.04-20.22-5.64-27.46-5.76-7.46-14.94-12.96-24.74-12.41-10.25.57-20.49,1.13-30.74,1.7-.88.58-1.81,1.03-2.77,1.29-2.6.72-5,.39-7.06-.64-5.37.42-10.78.88-16.15,1.04-2.19-2.03-4.35-4.1-6.45-6.23-1.38-5.04-3.84-9.84-7.79-12.96l-11.53-9.13c-6.82-5.39-13.21-9.23-22.27-9.23-7.73,0-16.95,3.43-22.27,9.23-5.51,6-9.6,13.88-9.23,22.27.2,4.49,1.16,8.37,2.77,12.01-.26,32.29,3.32,65.71,26.31,90.44,3.7,3.98,9.6,4.91,14.57,3.21.15,3.8.96,7.59,2.36,11.13-.67,2.26-1.05,4.61-1.15,7-2.9-1.83-6-3.35-9.48-4.3-15.98-4.4-32.54,3.58-38.93,18.72-4.51,10.69-4.05,23.34,1.72,33.56,3.01,5.34,7.55,10,12.81,13.16,6.07,3.65,11.27,4.14,18.12,4.98,2.12.26,4.42.02,6.75-.55,6.69,1,12.9.48,19.48-.39.93-.09,1.86-.15,2.79-.19,1.03.23,2.07.41,3.12.53,1.86,2.7,3.83,5.35,5.87,8.01-.39-.5-.77-1-1.16-1.5,7.87,10.32,14.98,21.14,21.36,32.44-4.73,4.33-9.59,8.5-14.58,12.51-12.96,9.41-27.63,17.05-39.25,28.03-7.98,7.54-14.49,18.11-16.86,28.89-4.35,19.79,2.64,42.93,24.25,48.93,9.88,2.74,21.03.13,31.05-.96,8.47-.92,16.94-1.84,25.41-2.76,8.47-.92,16.94-1.84,25.41-2.76,6.2-.67,12.64-1.86,18.96-1.88,5.77,2.39,10.94,3.96,17.96,4.59,5.46.5,11.16-.2,16.47-1.5,9.28-2.28,18.1-7.05,25.91-12.47,18.85-13.08,41.08-27.78,41.34-53.41.07-7.1-1.37-13.7-3.95-19.73Z"/>
    <path class="cls-1" d="M188.14,178.46c-2.87-2.22-5.79-3.54-9.17-4.89-1.19-.48-2.4-.93-3.61-1.37-.22-.08-.38-.14-.52-.18-.16-.09-.41-.23-.84-.45-4.2-2.14-9.4-2.31-13.56-.31-1.2-.07-2.41-.08-3.62,0-1.93.12-4.82.47-6.44.81-5.25-4.28-13.77-3.45-18.47,1.25-1.2,1.2-2.1,2.54-2.76,3.95-.97-4.16-2.14-8.28-2.48-11.92-2-21.87,3.83-42.98,9.62-63.96,4.8-17.4-22.2-24.82-27-7.44-4.36,15.79-8.29,31.6-10.16,47.9-.86,7.49-1.17,15.08-.55,22.61.1,1.16.21,2.33.34,3.49-6.7-2.12-12.36-.16-16.98,5.83-6.63,8.59-13.26,17.19-19.88,25.78-3.42,4.44-6.87,8.44-7.69,14.19-1.13,7.95,3.48,15.94,11.32,18.35,4.81,1.48,9.98,1.06,14.96.99,5.28-.08,10.57-.21,15.85-.4,11.23-.39,22.44-1.01,33.64-1.83,2.78-.2,5.41-1.08,7.63-2.5,5.97.37,12.25-.71,17.95-2.43,6.61-2,13.64-4.76,20.2-8.22,11.36-1.05,22-7.94,21.96-20.88-.02-7.34-4.08-13.98-9.75-18.36ZM131.91,193.11c.21.24.44.46.66.68-1.12-.06-2.23-.13-3.34-.23.41-.92.72-1.87.92-2.85.51.84,1.09,1.64,1.76,2.4Z"/>
    <g>
      <path class="cls-1" d="M156.84,49.63c-15.71-1.14-28.78,8.73-37.72,20.67-8.87,11.84-17.12,25.63-14.08,40.9,1.47,7.42,10.31,11.68,17.22,9.78,7.61-2.09,11.13-9.53,9.84-16.86,0,.22-.07.42-.22.61.05-.28.12-.55.19-.82-.01-.05-.01-.11-.02-.16.02.05.02.09.03.13.18-.79.39-1.58.66-2.35.17-.45,1.63-3.19,2.28-4.32,2.23-3.88,4.53-7.89,7.27-11.44.41-.54,2.29-2.64,3.26-3.59,1.67-1.65,1.97-1.96,3.45-2.76,3.54-1.92,4.06-2.08,7.85-1.8,7.55.55,14-6.83,14-14,0-8.03-6.43-13.45-14-14Z"/>
      <path class="cls-1" d="M132.09,104.12c0-.08,0-.15-.03-.23v.03c0,.07.01.14.03.21Z"/>
    </g>
    <path class="cls-3" d="M248.66,173.89c-4.15-7.09-12.23-8.14-19.15-5.02-11.3,5.09-26.16,3.62-39.11,2.44-5.62-.51-11.29-1.32-17.43-3.62-2.92-1.09-6.23-3.18-8.76-5.41,2.41-1.21,4.49-3.05,5.84-5.35,4-6.84,1.3-14.97-5.02-19.15-2.96-1.95-5.33-3.47-7.61-5.34-1.48-6.1-2.22-12.38-2.2-18.62.02-8.68,2.28-16.87,4.08-25.34,1-.76,2.34-1.58,3.44-2.05-.29.15,2.41-.69,2.77-.79.41-.12.7-.2.92-.27.14.04.52.06,1.37.03,1.58-.07,2.97.21,4.42.99,6.67,3.56,15.24,1.68,19.15-5.02,3.71-6.35,1.67-15.58-5.02-19.15-11.67-6.23-24.02-5.8-34.8-.98-1.35-.45-2.76-.7-4.17-.7-7.95,0-13.55,6.42-14,14-.02.28-.06.56-.08.84-1.44,1.75-2.78,3.6-4,5.54-5.69,9.05-9.38,19.87-9.26,30.61.06,5.38.7,10.97,2.51,15.89,1.28,7.57,5.08,14.01,10.12,19.61,1.35,4.06,2.93,8.05,4.75,11.98-2.66,4.35-3.31,10.12-.26,14.35,5.8,8.04,12.85,14.63,21.98,18.75,8.98,4.05,18.18,5.8,27.94,6.9,19.23,2.16,38.64,2.14,56.57-5.93,6.89-3.1,8.55-13.12,5.02-19.15Z"/>
    <path class="cls-2" d="M238.93,51.74c.28-.2.56-.38.84-.58-2.3-.16-4.55-1.1-6.4-2.96-3.79-3.79-4.27-11.08,0-14.78,9.96-8.65,21.28-14.39,33.19-18.88-.14-.28-.27-.55-.43-.82-3.73-6.38-12.72-9.06-19.15-5.02-42.86,26.89-74.23,71.03-84.56,120.68-1.54,7.4,2.16,15.13,9.78,17.22,6.94,1.91,15.67-2.34,17.22-9.78,4.84-23.29,14.65-45.01,28.45-63.71.41.18.83.34,1.25.48,1.57-7.39,8.05-12.88,15.61-16.82.88-1.96,2.34-3.71,4.21-5.03Z"/>
    <path class="cls-1" d="M316.41,339.04c-6.99-4.09-14.8-1.18-19.15,5.02,1.49-2.12-2.52,1.85-1.21,1.08-1.31.9-2.76,1.66-4.21,2.31.66-.33-3.32,1.12-3.76,1.26-1.99.63-3.99,1.18-6,1.75-9.68,2.76-19.37,5.49-29.09,8.1-19.74,5.29-39.65,9.97-59.87,13.09-5.92.91-9.73,6.98-10.16,12.78-1.33.85-2.59,1.88-3.74,3.13-4.42,4.8-5.32,10.7-6.12,16.89-.7,5.45-.95,10.86.32,16.28,2.61,11.12,12.42,20.74,24.27,20.91,6.07.08,11.99-2.42,16.28-6.69,1.81-1.8,3.32-3.95,4.8-6.03,1.58-2.22,1.46-2.38,2.73-3.52,4.99-4.52,10.67-7.4,19.08-8.48,10.79-1.39,21.61,1.83,32.25.68,13.71-1.48,20.45-17.39,27.32-27.64,7.1-10.59,14.2-21.18,21.3-31.77,4.21-6.28,1.22-15.5-5.02-19.15Z"/>
    <path class="cls-3" d="M324.24,318.37c-48.53,13.35-97.12,26.52-145.75,39.52-17.39,4.65-10.01,31.67,7.44,27,48.63-13,97.21-26.17,145.75-39.52,17.35-4.77,9.98-31.79-7.44-27Z"/>
    <g id="rando">
      <path d="M163.05,53.36c-9.41-4.8-20.25-3.22-30.05-.58-4.85,1.31-9.92,2.67-14.23,5.32-4.15,2.54-7.04,6.32-8.89,10.78-1.87,4.52-2.66,9.38-3.34,14.19-.4,2.85-.75,5.7-1.06,8.56h-.46c-1.29,0-1.29,2,0,2h.26c-.23,2.38-.44,4.76-.6,7.15-.81,11.89-.73,23.83.23,35.71.95,11.72,2.92,23.7,9.11,33.91,1,1.65,3.59.14,2.59-1.51-5.22-8.6-7.31-18.6-8.34-28.5-.73-7.06-1.09-14.16-1.14-21.26.72.26,1.53.31,2.28.14.51-.12.86-.73.7-1.23-.17-.54-.68-.82-1.23-.7-.02,0-.04,0-.07.01-.2.02-.4.02-.59,0-.17-.03-.34-.08-.5-.14-.13-.06-.25-.12-.37-.2-.06-.04-.15-.05-.23-.08,0-2.88.06-5.75.17-8.62h11.49c1.29,0,1.29-2,0-2h-11.4c.19-4.23.49-8.46.9-12.68h21.97c1.29,0,1.29-2,0-2h-21.76c.06-.53.11-1.06.17-1.6.56-4.95,1.14-9.96,2.33-14.8,1.06-4.33,2.73-8.68,5.93-11.9,3.35-3.38,7.95-5.02,12.41-6.37,10.19-3.09,22.17-6.15,32.23-1.01,1.72.88,3.24-1.71,1.51-2.59Z"/>
      <path d="M91.91,123.63c-12.77,5.13-24.62,12.29-35.16,21.14-10.51,8.83-19.65,19.32-26.95,30.95-4.11,6.55-7.59,13.46-10.45,20.64-.72,1.79,2.18,2.57,2.89.8,4.95-12.39,11.95-23.97,20.53-34.18,8.55-10.17,18.64-19.05,29.88-26.16,6.36-4.02,13.07-7.49,20.06-10.3,1.77-.71,1-3.61-.8-2.89Z"/>
      <path d="M270.06,9.35c-19.79-.15-38.69,7.93-53.99,20.15-16.21,12.96-27.93,30.64-36.33,49.45-4.43,9.93-8.01,20.2-11.07,30.63-.59-1.16-2.78-.93-2.85.72-.61,13.74-.36,27.51.75,41.22.11,1.3,2.15,2.26,2.8.76,8.18-19.15,19.86-36.76,34.37-51.7,4.06-4.18,8.33-8.14,12.79-11.89,1.02-.85.17-2.58-1.06-2.56-2.73.04-5.4.58-7.9,1.58,7.16-15.39,22.34-25.27,35.81-34.78,4.56-3.22,9.06-6.52,13.32-10.13,1.27-1.07-.15-2.72-1.46-2.51-9.41,1.52-18.59,4.11-27.42,7.65,8.35-11.66,18.97-21.67,31.12-29.3,3.83-2.4,7.8-4.57,11.89-6.49,1.4-.66.64-2.78-.76-2.8ZM230.69,39.32c-2.98,3.56-5.75,7.3-8.28,11.2-.9,1.38.81,2.61,2.05,2.05,8.21-3.67,16.81-6.42,25.6-8.27-13.69,10.61-29.27,19.06-39.8,33.17-2.97,3.98-5.37,8.32-7.06,12.99-.45,1.23,1.14,2.37,2.2,1.69,1.65-1.05,3.41-1.82,5.25-2.33-14.39,12.81-26.62,28.05-36,44.88-1.96,3.53-3.79,7.13-5.5,10.78-.64-10.29-.8-20.6-.48-30.91.75.27,1.69.03,1.96-.95,5.61-19.93,13.07-39.58,24.68-56.84,10.92-16.24,25.74-29.93,43.77-37.87,7.67-3.38,15.86-5.56,24.19-6.3-12.39,6.77-23.51,15.87-32.57,26.69Z"/>
      <path d="M178.08,66.89c-1.65-3.53-4.56-6.49-8.05-8.21-.7-.35-1.66-.21-2.05.54-.36.68-.21,1.68.54,2.05.8.39,1.57.85,2.29,1.37.08.06.16.12.24.18.02.01.03.02.04.03.01,0,.02.01.04.03.19.15.37.3.55.46.33.29.65.59.95.9s.6.64.88.97c.08.09.15.18.23.28.01.02.01.01.02.02,0,0,0,0,0,0,.13.18.26.35.38.53.52.75.97,1.54,1.36,2.37.33.71,1.41.95,2.05.54.73-.47.89-1.29.54-2.05Z"/>
      <path d="M74.17,143.29c-8.29,5.05-15.24,11.92-21.19,19.55-6.07,7.78-11.38,16.25-16.16,24.88-2.84,5.13-5.29,10.56-6.19,16.39-.29,1.89,2.6,2.7,2.89.8,1.53-9.88,7.41-18.67,12.63-26.99,4.97-7.91,10.42-15.59,17.06-22.18,3.78-3.75,7.92-7.08,12.46-9.85,1.65-1,.14-3.6-1.51-2.59Z"/>
      <path d="M70.92,160.54c-13.13,11.59-23.87,25.83-31.4,41.64-.83,1.73,1.76,3.26,2.59,1.51,7.44-15.61,17.97-29.59,30.93-41.04,1.45-1.28-.68-3.4-2.12-2.12Z"/>
      <path d="M104.21,147.63c-4.55-2.67-11.01-.84-13.55,3.8-1.72,3.14-1.11,6.82-.78,10.22.39,3.97.78,7.93,1.17,11.9.19,1.9,3.19,1.92,3,0l-.98-9.99c-.3-3.03-1.13-6.58-.25-9.57,1.16-3.95,6.41-5.78,9.88-3.75,1.67.98,3.18-1.61,1.51-2.59Z"/>
      <path d="M162.83,163.81c-6.63,6.67-14.82,11.38-23.22,15.47-4.25,2.07-8.58,4.3-13.04,5.88-2.31.82-4.68,1.26-7.12.81-2.67-.49-5.26-1.52-7.83-2.38l-17.49-5.81c-1.84-.61-2.62,2.29-.8,2.89,5.44,1.81,10.87,3.61,16.31,5.42,5.09,1.69,10.17,3.92,15.61,2.6,2.42-.59,4.71-1.66,6.97-2.69,2.27-1.03,4.53-2.06,6.78-3.12,4.43-2.1,8.81-4.32,12.99-6.88,4.67-2.87,9.09-6.18,12.96-10.07,1.36-1.37-.76-3.49-2.12-2.12Z"/>
      <path d="M163.3,155.89c-3.03.96-5.3,3.07-7.93,4.75-2.58,1.65-5.45,2.74-8.42,3.44-6.14,1.45-12.55,1.26-18.81,1.06-1.93-.06-1.93,2.94,0,3,6.41.21,12.92.33,19.21-1.08,3.02-.68,5.98-1.75,8.66-3.31,2.72-1.58,5.04-4.01,8.09-4.97,1.83-.58,1.05-3.48-.8-2.89Z"/>
      <path d="M227.01,133.37h-17.9c3.69-6.65,5.97-14.09,6.54-21.78.09-1.25-1.74-2.05-2.56-1.06-10.75,13.01-21.5,26.02-32.25,39.04-1.22,1.48.89,3.61,2.12,2.12,9.69-11.73,19.38-23.45,29.06-35.18-2.2,12.28-9.12,23.68-19.16,31.14-1.53,1.14-.04,3.74,1.51,2.59,5.46-4.06,10.05-9.14,13.56-14.87h19.07c1.29,0,1.29-2,0-2Z"/>
      <path d="M296.49,95.34c-8.29-4.93-18.17-5.25-27.55-5.14-10.15.12-20.35.27-30.39,1.88-5.71.91-11.33,2.36-16.7,4.54-1.76.72-.99,3.62.8,2.89,9.2-3.75,19.06-5.22,28.92-5.81,4.92-.29,9.85-.39,14.78-.47,4.67-.07,9.35-.14,14,.31,5.12.5,10.18,1.75,14.62,4.39,1.66.99,3.17-1.6,1.51-2.59Z"/>
      <path d="M254.6,251.38c-1.55-1.12-3.21-2.08-4.97-2.84-1.77-.77-4.25-1.95-5.88-.28-.66.68-.94,1.59-1.24,2.47l-1.07,3.14-.98,2.88c-3.3-6.15-5.39-12.92-6.02-19.91-.17-1.91-3.17-1.93-3,0,.93,10.37,4.73,20.34,11.06,28.62,1.16,1.51,3.76.02,2.59-1.51-.94-1.22-1.81-2.49-2.64-3.78.53-1.55,1.06-3.1,1.58-4.65l.86-2.54c.25-.74.47-1.59.78-2.28.06-.13.17-.29.2-.3.19-.05.6.13.78.19.71.23,1.4.52,2.08.83,1.53.71,2.97,1.57,4.34,2.56.66.48,1.67.11,2.05-.54.44-.76.12-1.58-.54-2.05Z"/>
      <path d="M244.12,268.4c-12.83,12.72-29.74,20.53-45.46,29-4.96,2.67-9.91,5.34-14.87,8.01-1.7.92-.19,3.51,1.51,2.59,8.86-4.77,17.72-9.54,26.58-14.31,7.79-4.2,15.59-8.44,22.82-13.57,4.09-2.9,7.98-6.06,11.54-9.59,1.37-1.36-.75-3.48-2.12-2.12Z"/>
      <path d="M256.06,256.81c-.04-1.93-3.04-1.93-3,0,.11,5.45-.6,10.85-2.13,16.09-.54,1.86,2.35,2.65,2.89.8,1.6-5.47,2.36-11.18,2.24-16.89Z"/>
      <path d="M279.76,282.79c-4.97,2.94-9.94,5.88-14.91,8.82.79-1.09-.54-2.94-2.03-2.16-19.03,10.03-38.94,18.34-59.47,24.76-5.44,1.7-10.92,3.26-16.44,4.7,6.63-4.23,13.58-7.85,20.72-11.26,8.97-4.29,17.66-8.93,25.78-14.69,4.43-3.15,8.69-6.55,12.75-10.16,1.44-1.29-.68-3.4-2.12-2.12-7.17,6.38-14.97,12.03-23.27,16.85-8.78,5.09-18.22,8.89-27.11,13.8-4.34,2.39-8.53,5.04-12.58,7.88-.24-.75-.47-1.51-.71-2.26-.58-1.84-3.47-1.05-2.89.8.45,1.42.89,2.84,1.34,4.26.27.85,1.38,1.49,2.2.9,1.29-.93,2.6-1.82,3.92-2.7-.21.97.56,2.19,1.82,1.86,20.92-5.41,41.34-12.71,60.96-21.79,5.06-2.34,10.05-4.82,14.99-7.39-2.54,1.5-5.08,3.01-7.63,4.51-1.66.98-.15,3.58,1.51,2.59,8.22-4.87,16.45-9.74,24.67-14.6,1.66-.98.15-3.58-1.51-2.59Z"/>
      <path d="M181.42,303.24c-.26-.26-.69-.46-1.06-.44-.39.02-.79.14-1.06.44-.29.31-.39.64-.44,1.06-.24,1.83-.47,3.67-.71,5.5-.05.35.2.82.44,1.06.26.26.69.46,1.06.44.39-.02.79-.14,1.06-.44.29-.31.39-.64.44-1.06.24-1.83.47-3.67.71-5.5.05-.35-.2-.82-.44-1.06Z"/>
      <path d="M301.23,124.87c-10.26,18.42-26.46,32.44-43.15,44.9-8.26,6.16-16.66,12.16-25.14,18.03-1.56.09-3.13.19-4.69.28-1.89.11-1.93,3.02-.07,3-8.84,5.99-17.93,11.64-27.53,16.34-20.16,9.87-42.2,15.5-64.39,18.39-11.25,1.47-22.57,2.26-33.9,2.61-10.3.31-20.65.35-30.95-.08.94-.36.85-1.98-.32-1.92-5.35.27-10.72.14-16.05-.4-.61-.06-.91.36-.94.83-12.65-1.87-25.14-5.89-34.25-14.89-1.57-1.55-3-3.22-4.29-5.01-1.12-1.55-3.72-.06-2.59,1.51,11.17,15.53,30.57,20.57,48.68,22.26,10.29.96,20.68.98,31.01.89-.94.76-1.74,1.69-2.22,2.76-.87,1.95-.21,4.17,1.8,5.09,1.01.46,2.12.54,3.21.58,1.29.05,2.59.05,3.88.03,2.69-.05,5.37-.26,8.04-.6.8-.1,1.5-.62,1.5-1.5,0-.73-.69-1.6-1.5-1.5-4.17.54-8.46.82-12.66.53-.51-.03-1.18-.09-1.54-.49-.21-.24-.2-.48-.07-.81.51-1.3,1.95-2.25,3.14-2.86.6-.31.8-.82.74-1.33,4.59-.09,9.18-.23,13.76-.46-.27.27-.44.62-.39,1,.78,5.8-3.17,11.62-8.91,12.9-1.38.31-1.31,2.04-.36,2.74,2.32,1.71,5.22,2.55,8.09,2.39,1.92-.11,1.93-3.11,0-3-1.27.07-2.49-.09-3.65-.46,5.16-2.72,8.61-8.69,7.83-14.56-.06-.43-.24-.83-.53-1.11,2.85-.16,5.7-.35,8.55-.58-.03.11-.05.22-.06.34-.22,3.24-.43,6.48-.65,9.72-.2,3.02-.6,6.09-.59,9.11,0,2.58,1.47,4.46,3.95,5.14,2.37.65,4.75-.21,7.11.21,2.04.36,2.67,2.18,3.07,3.98.41,1.88.57,3.83,1.3,5.63.92,2.26,2.58,3.52,4.56,4.21-17.14,4.22-34.78-2.17-51.46-5.74-6.73-1.44-13.5-2.69-20.3-3.76.05-1.81-.1-3.6-.39-5.19-.22-1.23-1.72-1.29-2.51-.66-2.84,2.24-6.31,3.6-9.89,4.05-3.26-.4-6.52-.75-9.79-1.06-.77-.28-1.52-.6-2.25-.99-1.49-.78-2.81-1.83-4.28-2.65-1.39-.77-2.96-1.35-4.57-1.2-1.93.18-3.55,1.27-5.14,2.28-4.03,2.53-8.06,5.06-12.09,7.59-.26.16-.43.36-.54.58-1.24-.32-2.01,1.23-1.53,2.24,1.82,3.79,6.3,5.53,10.32,5.07,4.28-.49,7.81-3.16,10.74-6.18.19.76-.08,1.75-.35,2.4-.78,1.85-1.98,3.51-1.93,5.61.07,2.91,2.47,4.7,5.18,4.99,2.78.3,5.57-.77,7.51-2.76,1.94-1.99,3.23-4.6,5.08-6.67,1.66,3.42,6.69,4.84,10.25,3.51,3.54-1.33,5.25-4.48,5.9-7.98,5.91.94,11.8,2.01,17.66,3.22,8.77,1.82,17.42,4.2,26.22,5.88,9.71,1.85,19.72,2.69,29.4.21,1.15-.3,1.29-1.51.79-2.28,2.12.37,4.4.34,6.46.34,5.63-.01,11.25-.75,16.7-2.15-1.32,1.09-3.12,1.75-4.71,2.22-4.03,1.19-8.2,2.02-12.33,2.77-.81.15-1.12.76-1.07,1.39-.27-.06-.57-.06-.8,0-.35.1-.72.36-.9.69-.18.35-.28.77-.15,1.16l.15.36c.13.23.31.4.54.54.74.55,1.47,1.1,2.21,1.65-.11.04-.22.06-.33.11-1.35.61-.76,2.26.37,2.65-.02.26.05.6.06.86.02.84.13,1.6.5,2.36.64,1.33,1.85,2.31,3.2,2.88-.52,6.11-.27,12.25.7,18.31-.33-.02-.67,0-.99.09-1.71.45-2.1,2.01-2.38,3.52-.73,3.94-1.39,7.9-1.97,11.87-.45,3.03-1.38,7.1,2.23,8.55,2.28.91,5.12-.27,7.23,1,1.66,1,3.17-1.59,1.51-2.59-1.9-1.15-4.08-.88-6.19-.96-.67-.02-1.55-.05-2.01-.62-.71-.89-.15-2.76,0-3.75.45-3.13.95-6.26,1.5-9.38.13-.76.27-1.52.41-2.29.12-.67.16-1.51.4-2.16.16-.42.06-.36.57-.19.52.18.98.52,1.41.85.65.5,1.67.09,2.05-.54.46-.77.1-1.56-.54-2.05-.03-.02-.07-.05-.1-.07.04-.19.05-.39,0-.61-1.09-6.09-1.36-12.29-.88-18.45,2.96-.08,5.93-1.77,8.49-2.97.25-.12.5-.24.76-.36.85,6.59,1.48,13.29.18,19.84-.38,1.89,2.52,2.69,2.89.8,1.24-6.22.88-12.48.16-18.72.12.34.42.59.9.55.45-.04.9-.09,1.35-.13.3-.75.69-1.46,1.15-2.11-.83.08-1.67.17-2.5.25-.6.06-.92.54-.95,1.02-.11-.95-.23-1.89-.36-2.83,6.7-3.17,13.37-6.41,19.99-9.73,4.45-2.23,8.88-4.5,13.3-6.8,1.71-.89.2-3.48-1.51-2.59-7.67,3.99-15.4,7.89-23.17,11.68-3.21,1.57-6.44,3.11-9.67,4.64-.18-.09-.38-.14-.62-.14-.62,0-1.34.5-1.48,1.14-1.85.88-3.7,1.81-5.59,2.59-1.15.47-2.46.91-3.73.86-.27-.2-.6-.33-.92-.34-.15,0-.28.02-.41.06-.11-.04-.22-.07-.32-.13-.7-.36-1.37-.96-1.55-1.75-.15-.69-.03-1.44-.17-2.14-.06-.31-.17-.59-.29-.85.34-.11.69-.36.85-.67.18-.35.28-.77.15-1.16l-.15-.36c-.13-.23-.31-.4-.54-.54l-1.92-1.44c4.47-.82,9.12-1.63,13.41-3.16,3.24-1.16,6.56-3.14,7.3-6.76.22-1.06-.69-2.21-1.85-1.85-5.5,1.74-11.19,2.78-16.96,3.02-2.74.11-5.55.13-8.28-.19-2.08-.24-3.81-.98-4.6-3.01-1.25-3.24-.66-7.37-3.49-9.89-.48-.43-1.01-.74-1.56-.98-.66-.11-1.28-.28-1.86-.49-1-.13-2.03-.12-3.06-.04-1.51.11-4.6.49-5.14-1.49-.37-1.38.08-3.23.17-4.63.1-1.49.2-2.99.3-4.48.49.03.98.03,1.47.05.04-.67.14-1.34.3-1.99-.55-.02-1.09-.02-1.64-.05.08-1.17.16-2.34.23-3.5,1.04-.08,2.09-.16,3.13-.23.6-.83,1.35-1.56,2.22-2.17l-5.21.39c.07-1.03.14-2.05.21-3.08.01-.22-.02-.42-.07-.59.99-.09,1.99-.18,2.98-.28,9.61-.96,19.2-2.36,28.66-4.34-.13,3.18-.46,6.34-1.05,9.47-.18.99.68,2.31,1.85,1.85l21.34-8.55c.38-.15.76-.31,1.15-.46.16-.07.31-.12.47-.18.18.82.43,1.64.62,2.46.42,1.8.77,3.62,1.07,5.45.61,3.76.93,7.56,1.01,11.37.02,1.09,1.27,1.94,2.26,1.3,4.1-2.68,7.15-6.86,8.29-11.64.6-2.5.55-5.05.49-7.61-.03-1.17-.05-2.35.04-3.52.68,2.32,1.28,4.67,1.78,7.04.23,1.09,1.77,1.47,2.51.66,2.7-2.95,3.69-6.78,4.48-10.6.5-2.39.94-4.93,1.93-7.19.17,2.76.2,5.52.04,8.29-.1,1.74,2.45,1.96,2.95.4,1.08-3.42,2.15-6.83,3.23-10.25,0,.12-.02.23-.02.35.04,1.93,3.04,1.93,3,0-.04-1.95,1.5-3.67,2.61-5.15,1.09-1.43,2.39-2.96,4.14-3.59,1.52-.55,3.41-.42,4.31,1.09.9,1.51.69,3.59.43,5.24-.26,1.58-.7,3.13-1.24,4.64.14-1.54.02-3.1-.48-4.66-.59-1.83-3.49-1.05-2.89.8,1.24,3.85-.45,7.74-2.06,11.25-.16-.02-.31-.03-.45-.04-.86-.05-1.7-.06-2.53.17-1.7.46-2.88,1.6-3.06,3.37-.2,1.92,2.8,1.9,3,0,.05-.49.86-.6,1.71-.6-1.52,3.32-3.05,6.63-4.59,9.94-3.81,8.18-7.67,16.33-11.59,24.46-.83,1.73,1.75,3.25,2.59,1.51,4.13-8.57,8.2-17.17,12.21-25.8,1.56-3.36,3.13-6.72,4.66-10.09,1.25-.22,2.33-.82,3.09-1.97,1.04-1.57,1.7-3.54,2.41-5.28.79-1.91,1.49-3.87,1.92-5.9.68-3.2,1.08-7.43-1.59-9.89-2.61-2.41-6.63-1.74-9.25.26-1.6,1.22-2.8,2.82-3.97,4.43-.62.86-1.22,1.74-1.66,2.68-.23-1.32-2.45-1.69-2.95-.11-.35,1.1-.69,2.2-1.04,3.3-.09-1.1-.2-2.19-.34-3.29-.15-1.2-1.57-2.09-2.56-1.06-2.76,2.88-3.79,6.7-4.59,10.5-.56,2.66-1.03,5.52-2.24,8-.71-2.88-1.57-5.73-2.57-8.52-.41-1.16-2.07-1.55-2.74-.36-2.6,4.65-1.08,9.8-1.75,14.8-.49,3.68-2.35,7.1-5.06,9.62-.19-3.31-.55-6.61-1.11-9.89-.35-2.06-.78-4.11-1.29-6.14-.39-1.57-.82-3.51-2.86-3.41-.95.05-1.87.55-2.73.9-.99.4-1.99.8-2.98,1.19-1.99.8-3.98,1.59-5.97,2.39-3.36,1.35-6.72,2.69-10.09,4.04.4-2.7.63-5.42.72-8.15,11.9-2.65,23.59-6.22,34.84-11,11.16-4.74,21.64-10.78,31.76-17.38.04.09.09.19.16.28.66.95,1.4,1.85,2.19,2.69.46,2.49,1.53,4.85,2.71,7.1,1.64,3.14,3.79,6.42,4.01,10.06.25,4.11-2.23,7.59-4.32,10.91-2.34,3.72-3.99,7.62-4.77,11.96-.68,3.8-.83,7.65-.82,11.51-3.2-3.95-5.3-8.68-6.07-13.77-.29-1.9-3.18-1.09-2.89.8,1.03,6.84,4.4,13.2,9.44,17.93.92.87,2.58.28,2.56-1.06-.08-4.51-.17-9.07.5-13.54.67-4.5,2.23-8.47,4.64-12.31,2.14-3.41,4.45-6.89,4.73-11.03.24-3.66-1.33-7.12-2.99-10.28-.79-1.51-1.66-3.03-2.39-4.61,4.39,2.9,9.68,4.4,15,4,1.71-.13,2.01-2.35.4-2.95-5.61-2.07-10.23-6.26-12.97-11.56-.89-1.72-3.48-.2-2.59,1.51,1.91,3.7,4.67,6.86,7.99,9.29-3.5-.95-6.74-2.76-9.34-5.3-.06-.59-.09-1.18-.05-1.79.09-1.43-1.53-1.79-2.42-1.11-.09-.12-.19-.22-.3-.31,2.06-1.37,4.1-2.74,6.13-4.15,2.8-.17,5.61-.33,8.41-.44,4.59-.19,9.25-.19,13.75.87,6.84,1.6,14.15,6.44,15.12,13.97.1.75.5,1.36,1.3,1.47.67.09,1.52-.34,1.65-1.07,1.19-7.19-.93-14.8-6.1-20.04-4.64-4.7-11.31-6.99-17.83-6.37,1.08-.79,2.16-1.57,3.25-2.35,17.18-12.46,34.3-25.91,46.19-43.75,1.44-2.15,2.78-4.37,4.04-6.63.94-1.69-1.65-3.2-2.59-1.51ZM34.99,254.48c1.2-.05,2.34.55,3.38,1.22-.95-.07-1.9-.16-2.85-.22-.95-.07-1.92-.16-2.89-.2.77-.43,1.56-.75,2.36-.79ZM61.42,267.2c-2.6,1.21-7.37.04-7.13-3.44.07-1.07-1.36-1.96-2.26-1.3-2.78,2.04-4.31,4.98-6.42,7.62-1.56,1.94-3.61,3.36-6.23,3-.86-.12-1.86-.5-2.19-1.38-.58-1.52.71-3.26,1.33-4.57,1.15-2.44,1.52-6.18-1.38-7.59-.58-.28-1.35-.28-1.82.23-2.53,2.81-5.58,5.73-9.45,6.42-2.1.38-4.37-.05-6.06-1.28,1.38-.46,2.66-1.38,3.8-2.36,1.11-.96,2.15-2.02,3.35-2.88,1.44-1.04,2.9-1.46,4.68-1.44,4.43.05,8.92.59,13.33,1.01.1,0,.2.02.3.03,3.25,1.1,6.69,1.5,10.17,1.13,1.1.14,2.2.26,3.29.41,2.13.28,4.25.59,6.37.91-.44,2.35-1.52,4.47-3.68,5.48ZM62.82,258.38c.85-.4,1.67-.84,2.47-1.34.04.56.07,1.14.07,1.72-.85-.13-1.69-.26-2.54-.38ZM266.05,187.6c2.59,2.63,4.34,6.02,5.12,9.62-1.88-2.64-4.45-4.82-7.36-6.41-6.56-3.58-14.28-3.82-21.58-3.51-1.18.05-2.35.12-3.53.18,2.87-2.03,5.72-4.07,8.56-6.13.26.63.89,1.13,1.74.96,6.11-1.2,12.68.87,17.05,5.29Z"/>
      <path d="M174.76,309.72c-.05-.46-.28-.91-.71-1.09-4.13-1.78-8.58-2.65-13.08-2.43-.81.04-1.5.66-1.5,1.5,0,.78.69,1.54,1.5,1.5,3.94-.2,7.93.45,11.57,2.02.21.09.42.14.64.16.05,4.32-.73,8.56-2.3,12.59-.29.76.32,1.65,1.05,1.85.85.23,1.55-.29,1.85-1.05,1.68-4.32,2.49-8.97,2.41-13.6-.02-.92-.7-1.39-1.41-1.44Z"/>
      <path d="M148.45,304.63c-2.08-7.34-2.68-15.06-1.65-22.62.11-.81-.2-1.6-1.05-1.85-.7-.2-1.74.25-1.85,1.05-1.1,8.12-.58,16.33,1.65,24.22.52,1.85,3.42,1.07,2.89-.8Z"/>
      <path d="M151.34,338.98c-.3-1.9-3.19-1.09-2.89.8.74,4.75-.49,9.54-1.34,14.18-.88,4.84-1.66,9.7-2.33,14.58-1.34,9.72-2.27,19.49-2.77,29.29-.1,1.93,2.9,1.92,3,0,.52-10.02,1.46-20.02,2.87-29.96.69-4.87,1.49-9.73,2.4-14.57.89-4.76,1.83-9.48,1.07-14.33Z"/>
      <path d="M274.18,273.62c-4.03-3.32-8.28-6.37-12.73-9.11-1.65-1.01-3.16,1.58-1.51,2.59,4.23,2.6,8.29,5.48,12.13,8.64.62.51,1.51.61,2.12,0,.53-.53.63-1.6,0-2.12Z"/>
      <path d="M365.55,339.34c-4.08-12.66-8.23-25.3-12.45-37.92-.43-1.3-.79-2.72-1.54-3.87-.75-1.15-1.81-1.88-3.02-2.48-2.94-1.46-5.92-2.83-8.89-4.25-6-2.87-12-5.74-18-8.61-6.9-3.3-13.8-6.6-20.71-9.9-.13-.06-.27-.1-.4-.13.29-1.01.28-2.07-.21-3.13-.77-1.66-2.37-2.74-3.77-3.82-6.43-4.99-13.09-9.69-19.96-14.06-2.16-1.37-4.35-2.71-6.56-4.02.03-.62-.27-1.27-1.03-1.52-1.23-.42-2.47-.83-3.72-1.22-.27-.15-.54-.32-.81-.47-.41-.23-.8-.25-1.15-.14-8.31-2.56-16.78-4.63-25.34-6.16-1.89-.34-2.7,2.55-.8,2.89,9.09,1.62,18.07,3.84,26.87,6.63,8.01,4.55,15.78,9.5,23.26,14.88,1.94,1.4,3.86,2.82,5.76,4.27.98.75,1.97,1.49,2.92,2.27.66.54,1.59,1.23,1.73,2.13.16.99-.78,1.99-1.31,2.74-.75,1.06-1.5,2.11-2.25,3.17l-4.49,6.34c-1.12,1.58,1.48,3.08,2.59,1.51,2.29-3.24,4.69-6.43,6.9-9.72.07.05.15.1.24.14,11.78,5.63,23.56,11.27,35.33,16.9,2.93,1.4,5.85,2.8,8.78,4.2,1.33.63,2.68,1.23,3.98,1.92,1.35.72,1.82,1.73,2.29,3.14,2.07,6.15,4.11,12.31,6.13,18.47,2.26,6.86,4.49,13.74,6.71,20.61.59,1.83,3.49,1.05,2.89-.8Z"/>
      <path d="M367.07,361.1c-6.31,7.09-12.63,14.18-18.94,21.27,4.87-11.05,9.73-22.1,14.6-33.14.77-1.75-1.81-3.28-2.59-1.51-4.43,10.06-8.86,20.11-13.29,30.17-1.07,2.43-2.09,4.9-3.23,7.31-.44.94-.94,1.93-1.88,2.46-.98.56-2.18.59-3.27.6-4.3.02-8.58-.17-12.89.02-8.54.37-17.23,1.55-25.18,4.83-3.92,1.62-7.58,3.7-10.89,6.36-3.37,2.7-6.13,6.8-10.37,8.18-2.73.89-5.7.96-8.53,1.24-3.04.3-6.08.59-9.12.89-6.24.61-12.49,1.22-18.73,1.83-1.9.19-1.92,3.19,0,3,5.59-.54,11.18-1.09,16.76-1.63,5.5-.54,11.04-.93,16.53-1.64,2.43-.31,4.8-.87,6.91-2.17,1.94-1.21,3.57-2.83,5.19-4.41,3.13-3.07,6.57-5.61,10.5-7.57,7.84-3.9,16.71-5.34,25.37-5.82,4.43-.25,8.87-.23,13.31-.11.98.02,2,.03,3-.09-.27.3-.53.6-.8.89-1.28,1.44.83,3.57,2.12,2.12,9.18-10.31,18.36-20.62,27.54-30.93,1.28-1.44-.83-3.57-2.12-2.12Z"/>
      <path d="M252.46,424.59c-4.78.59-9.59.82-14.4.67-1.13-.04-2.28-.2-3.41-.17-.11,0-.18-.02-.21-.03,0-.09,0-.19,0-.27,0-.6.07-1.21.1-1.81.14-2.42.28-4.85.42-7.27.11-1.93-2.89-1.92-3,0-.16,2.81-.33,5.61-.49,8.42-.06,1.12-.03,2.26.83,3.1.91.89,2.27.87,3.45.94,5.57.32,11.17.11,16.71-.57.8-.1,1.5-.62,1.5-1.5,0-.73-.69-1.6-1.5-1.5Z"/>
      <path d="M331.21,407.55c-2.31,2.39-5.86,2.5-8.98,2.57-3.98.08-7.93.28-11.88.77-7.97.98-15.81,2.84-23.34,5.62-4.28,1.58-8.46,3.43-12.5,5.55-1.71.9-.2,3.49,1.51,2.59,7.28-3.81,15-6.72,22.98-8.66,7.91-1.93,15.84-2.63,23.96-2.88,3.72-.11,7.65-.62,10.37-3.43,1.34-1.39-.78-3.51-2.12-2.12Z"/>
      <path d="M127.59,300.99c-9.51,10.6-22.96,16.08-35.46,22.26-3.6,1.78-7.16,3.64-10.61,5.7-1.19.71-.74,2.24.22,2.69-.98,3.43-1.77,6.9-2.42,10.4-.51.26-.6,1-.26,1.48-.93,5.25-1.62,10.55-2.28,15.84-1.26,10.04-2.74,19.99-5.39,29.77-.74,2.72-1.52,5.44-2.42,8.11-.59,1.76-1.44,4.05-3.34,4.76-1.79.67-1.02,3.57.8,2.89,4.19-1.56,5.3-6.29,6.47-10.15.39-1.27.75-2.54,1.11-3.81.05.04.09.08.13.11.38.29.82.5,1.27.66.23.08.56.02.77-.1.21-.12.41-.36.46-.6.06-.26.05-.54-.1-.77-.15-.23-.34-.37-.6-.46,0,0-.01,0-.02,0-.23-.1-.45-.24-.66-.39-.2-.17-.39-.34-.55-.55-.03-.05-.08-.09-.12-.13.82-3.14,1.57-6.3,2.2-9.48.88-4.42,1.54-8.87,2.14-13.34.17.31.5.52.88.55,2.73.24,5.42.9,7.97,1.91.5.2,1.1-.22,1.23-.7.16-.57-.19-1.03-.7-1.23-2.72-1.08-5.58-1.73-8.5-1.98-.29-.02-.55.12-.73.33.4-3.09.78-6.17,1.18-9.26,3.47.05,6.92.47,10.29,1.29,1.25.3,1.78-1.63.53-1.93-3.46-.84-7-1.28-10.56-1.35.24-1.76.48-3.51.75-5.26.21-1.4.45-2.79.69-4.18,4.63.31,9.25.62,13.88.93,1.28.09,1.28-1.91,0-2-4.5-.3-9-.6-13.5-.9.74-3.82,1.62-7.62,2.77-11.35.05-.16.07-.31.07-.46.64-.36,1.27-.71,1.92-1.06-.02.51.3,1.04.96,1.04h27.52c1.29,0,1.29-2,0-2h-26.67c10.69-5.61,22.06-10.03,31.85-17.17,3.24-2.37,6.27-5,8.96-7.99,1.29-1.43-.83-3.56-2.12-2.12Z"/>
      <path d="M72.99,338.99c-7.1,4.36-11.09,12.12-12.71,20.09-1.89,9.33-1.57,19.27-.96,28.72.36,5.56,1,11.1,1.87,16.6.3,1.9,3.19,1.09,2.89-.8-1.45-9.16-2.16-18.44-2.13-27.72.03-8.43.32-17.41,4.28-25.06,1.94-3.74,4.66-7.02,8.27-9.24,1.64-1.01.14-3.61-1.51-2.59Z"/>
      <path d="M135.86,284.52c-4.21,2.64-8.08,5.77-12.01,8.8-4.13,3.19-8.27,6.38-12.4,9.57-8.2,6.33-16.41,12.66-24.61,18.98-.65.5-.98,1.28-.54,2.05.36.64,1.41,1.03,2.05.54,8.2-6.33,16.41-12.66,24.61-18.98,4.07-3.14,8.14-6.28,12.21-9.42,3.99-3.08,7.93-6.27,12.2-8.95,1.63-1.02.13-3.62-1.51-2.59Z"/>
      <path d="M118.14,244.5c-.73-.39-1.61-.18-2.05.54-.03.05-.07.1-.1.15-.15.18-.32.35-.5.5-.19.13-.39.24-.6.34-.22.08-.45.14-.69.19-.22.02-.45.02-.67,0-.1-.02-.2-.04-.3-.06-.76-.21-1.67.26-1.85,1.05-.18.79.24,1.62,1.05,1.85,2.36.65,4.97-.41,6.25-2.49.41-.67.17-1.68-.54-2.05Z"/>
      <path d="M163.68,344.86c.1-1.93-2.9-1.92-3,0-1.01,20.16-1.22,40.36-.64,60.54.06,1.93,3.06,1.93,3,0-.58-20.18-.37-40.38.64-60.54Z"/>
      <path d="M268.38,330.27c-.72-1.43-1.51-2.83-2.4-4.16-.78-1.17-1.65-2.3-3.11-2.55-1.46-.26-2.86.55-4.16,1.11-1.75.75-3.5,1.5-5.26,2.25-6.55,2.81-13.1,5.62-19.65,8.43-13.25,5.69-26.51,11.37-39.76,17.06-3.66,1.57-7.32,3.12-10.97,4.71-2.54,1.11-5.37,2.73-5.87,5.72-.31,1.89,2.58,2.7,2.89.8.39-2.34,3.02-3.3,4.95-4.13,3.05-1.31,6.09-2.61,9.14-3.92,6.09-2.61,12.19-5.23,18.28-7.84,12.19-5.23,24.37-10.46,36.56-15.68,3.35-1.44,6.7-2.88,10.05-4.31.85-.37,1.76-.88,2.66-1.12.74-.19.97.05,1.41.64,1.04,1.39,1.87,2.97,2.65,4.52.87,1.73,3.45.21,2.59-1.51Z"/>
      <path d="M182.52,362.63c-.81.04-1.5.66-1.5,1.5v6.42c0,.78.69,1.54,1.5,1.5.81-.04,1.5-.66,1.5-1.5v-6.42c0-.78-.69-1.54-1.5-1.5Z"/>
      <path d="M276.13,328.24c-21.03,11.51-42.1,23.03-64.07,32.66-6.23,2.73-12.54,5.3-18.92,7.67-1.79.67-1.02,3.57.8,2.89,22.68-8.43,44.32-19.35,65.61-30.79,6.05-3.25,12.07-6.55,18.09-9.84,1.69-.93.18-3.52-1.51-2.59Z"/>
      <path d="M220.13,361.71c-.81.04-1.5.66-1.5,1.5v4.59c0,.78.69,1.54,1.5,1.5.81-.04,1.5-.66,1.5-1.5v-4.59c0-.78-.69-1.54-1.5-1.5Z"/>
      <path d="M316.57,331.63c-.44-.78-1.31-.85-2.05-.54-25,10.58-50,21.15-75,31.73-7.06,2.98-14.11,5.97-21.17,8.95-.75.32-.9,1.41-.54,2.05.44.78,1.31.85,2.05.54l75-31.73c7.06-2.98,14.11-5.97,21.17-8.95.75-.32.9-1.41.54-2.05Z"/>
      <path d="M321.41,326.68c-2.07-3.35-2.94-7.24-2.56-11.16.08-.81-.75-1.5-1.5-1.5s-1.24.5-1.43,1.14c-.31-.48-.86-.78-1.58-.58-10.87,3.1-21.68,6.44-32.41,10.01-1.82.61-1.04,3.5.8,2.89,10.73-3.57,21.54-6.9,32.41-10.01.26-.07.46-.2.62-.35-.06,3.88,1.02,7.76,3.05,11.07,1.01,1.64,3.61.14,2.59-1.51Z"/>
      <path d="M125.59,359.92l-20.43-12.43c-.38-.23-.75-.27-1.07-.18,0-.06-.01-.12-.03-.18-.1-.35-.36-.73-.69-.9-.35-.18-.77-.28-1.16-.15-.12.05-.24.1-.36.15-.23.13-.4.31-.54.54-.93,1.21-1.86,2.43-2.78,3.64-.22.29-.24.83-.15,1.16.1.35.36.73.69.9.35.18.77.28,1.16.15.12-.05.24-.1.36-.15.23-.13.4-.31.54-.54l1.93-2.52c.11.25.3.49.6.67,6.81,4.14,13.62,8.29,20.43,12.43,1.65,1.01,3.16-1.59,1.51-2.59Z"/>
      <path d="M126.62,365.13c-8.08-3.68-16.17-7.36-24.25-11.04-1.74-.79-3.27,1.79-1.51,2.59,8.08,3.68,16.17,7.36,24.25,11.04,1.74.79,3.27-1.79,1.51-2.59Z"/>
      <path d="M96.16,363.26c-1.6,13.24-4.48,26.32-8.53,39.02-.59,1.84,2.31,2.63,2.89.8,4.14-12.97,7.01-26.3,8.64-39.82.23-1.91-2.77-1.9-3,0Z"/>
      <path d="M100.38,407.57c-1.46-.26-2.89-.66-4.25-1.23-.06-.03-.33-.14-.36-.16-.18-.08-.35-.16-.52-.25-.3-.15-.6-.31-.9-.47-.68-.38-1.33-.79-1.96-1.24-.64-.46-1.7-.13-2.05.54-.41.77-.15,1.56.54,2.05,2.57,1.84,5.59,3.11,8.7,3.66.77.14,1.65-.21,1.85-1.05.17-.73-.22-1.7-1.05-1.85Z"/>
      <path d="M123.56,379.39c-1.59,5.79-3.18,11.58-4.77,17.38-.51,1.86,2.38,2.66,2.89.8,1.59-5.79,3.18-11.58,4.77-17.38.51-1.86-2.38-2.66-2.89-.8Z"/>
      <path d="M108.23,336.07h-22.93c-1.29,0-1.29,2,0,2h22.93c1.29,0,1.29-2,0-2Z"/>
      <path d="M83.28,377.33c-1.54-.24-3.08-.47-4.62-.71-.28-.04-.52-.05-.77.1-.21.12-.41.36-.46.6-.11.48.15,1.15.7,1.23l4.62.71c.28.04.52.05.77-.1.21-.12.41-.36.46-.6.11-.48-.15-1.14-.7-1.23Z"/>
      <path d="M77.5,207.66h-43.57c-1.29,0-1.29,2,0,2h43.57c1.29,0,1.29-2,0-2Z"/>
      <path d="M78.88,213.62h-40.36c-1.29,0-1.29,2,0,2h40.36c1.29,0,1.29-2,0-2Z"/>
      <path d="M68.79,221c-8.41-.02-16.82-.22-25.22-.61-1.29-.06-1.28,1.94,0,2,8.4.38,16.81.58,25.22.61,1.29,0,1.29-2,0-2Z"/>
      <path d="M129.76,81.37c-6.22.66-12.42,1.46-18.61,2.39-1.27.19-.73,2.12.53,1.93,6.01-.9,12.03-1.68,18.08-2.32,1.27-.14,1.28-2.14,0-2Z"/>
      <path d="M253.6,104.88c-5.44.01-10.89.02-16.33.04-5.04.01-10.34-.38-15.19,1.25-1.21.41-.69,2.34.53,1.93,4.82-1.62,10.14-1.16,15.15-1.17,5.28-.01,10.56-.02,15.84-.03,1.29,0,1.29-2,0-2Z"/>
      <path d="M260.48,118.11c-14.06.13-28.13.27-42.19.4-1.29.01-1.29,2.01,0,2,14.06-.13,28.13-.27,42.19-.4,1.29-.01,1.29-2.01,0-2Z"/>
      <path d="M232.51,126.49h-18.8c-1.29,0-1.29,2,0,2h18.8c1.29,0,1.29-2,0-2Z"/>
      <path d="M187.74,288.77c-6.09,1.3-12.29,1.96-18.52,1.98-1.29,0-1.29,2,0,2,6.4-.02,12.79-.71,19.05-2.05,1.26-.27.73-2.2-.53-1.93Z"/>
      <path d="M179.77,296.16c-2.9.19-5.8.38-8.71.57-.54.04-1,.43-1,1,0,.51.46,1.04,1,1,2.9-.19,5.8-.38,8.71-.57.54-.04,1-.43,1-1,0-.51-.46-1.04-1-1Z"/>
      <path d="M315.97,292.96h-40.36c-1.29,0-1.29,2,0,2h40.36c1.29,0,1.29-2,0-2Z"/>
      <path d="M339.36,331.46c-6.75.11-13.48.53-20.19,1.29-1.26.14-1.28,2.14,0,2,6.71-.75,13.44-1.18,20.19-1.29,1.29-.02,1.29-2.02,0-2Z"/>
    </g>
  </g>
</svg>