<?xml version="1.0" encoding="UTF-8"?>
<svg id="bartender" xmlns="http://www.w3.org/2000/svg" viewBox="0 0 546.19 1055.2">
  <defs>
    <style>
      .cls-1 {
        fill: #ccc6c4;
      }

      .cls-2 {
        fill: #898481;
      }

      .cls-3 {
        fill: #1b1b2b;
      }

      .cls-4 {
        fill: #bfb4af;
      }

      .cls-5 {
        fill: #c1b3ae;
      }

      .cls-6 {
        fill: #493a34;
      }

      .cls-7 {
        fill: #cec3be;
      }

      .cls-8 {
        fill: #aaaaaf;
      }

      .cls-9 {
        fill: #5e511d;
      }

      .cls-10 {
        fill: #af968c;
      }

      .cls-11 {
        fill: #383749;
      }

      .cls-12 {
        fill: #323247;
      }

      .cls-13 {
        opacity: .59;
      }

      .cls-13, .cls-14 {
        fill: #fff;
      }

      .cls-15 {
        fill: #ccc0ba;
      }

      .cls-16 {
        fill: #d3d1c9;
      }

      .cls-17 {
        fill: #a38c72;
      }

      .cls-18 {
        fill: #b7b1ae;
      }

      .cls-19 {
        fill: #4f3e3a;
      }

      .cls-20 {
        fill: #c1b7b4;
      }

      .cls-14 {
        opacity: .32;
      }

      .cls-21 {
        fill: #efecea;
      }

      .cls-22 {
        fill: #c1afa7;
      }

      .cls-23 {
        fill: #af9e89;
      }

      .cls-24 {
        fill: #d8ccc3;
      }
    </style>
  </defs>
  <path class="cls-3" d="M288.21,727.52s-21.91,530.8,37.93,554.74c59.84,23.95,159.27,2,133.5-131.7s-65.77-512.28-76.03-516.55-92.87,8.32-95.4,93.51Z"/>
  <path class="cls-3" d="M287.04,727.55s21.75,530.8-38.1,554.73c-59.85,23.93-159.27,1.95-133.46-131.74,25.81-133.69,65.92-512.26,76.18-516.53,10.26-4.26,92.87,8.35,95.37,93.54Z"/>
  <path class="cls-11" d="M133.87,608.77l-40.38,550.6s192.15,89.13,247.17,26.61c55.02-62.52-14.31-531.34-14.31-531.34,0,0,76.25,450.19,68.14,500.75-8.12,50.55,85.5-22.62,85.5-22.62,0,0-61.59-501.69-85.5-512.5s-144.05,34.93-260.61-11.49Z"/>
  <path class="cls-23" d="M196.44,251.03s-82,21.95-84,34.59c-2,12.64,27.79,172.94,40.5,188.9,12.71,15.96,10.27,124.69-16.56,135.69-17.62,7.23,60.2,70.51,108.59,71.84,48.39,1.33,149.27-44.23,149.27-44.23,0,0-30.23-145.12-11.08-154.92,29.58-15.13,22.61-200.61,19.95-208.59-2.66-7.98-74.06-18.78-83.93-18.37s-78.66,41.65-122.75-4.91Z"/>
  <path class="cls-11" d="M158.94,366.4c-2,11.26-20.39,112.32-7.68,126.54,12.71,14.22-12.57,104.3-16.56,120.9-3.99,16.59,58.39,82.11,106.78,83.29,48.39,1.19,166.6-55.2,166.6-55.2,0,0-28.6-121.71-20.62-139.51,7.98-17.8,3.17-150.99-3.64-147.63-101.77,50.22-222.89.34-224.88,11.6Z"/>
  <path class="cls-12" d="M177.6,491.38s48.8,35.03,95.81,35.03-42.52,21.86-79.57,8.71c-37.05-13.15-36.31-57.86-36.31-57.86l20.08,14.12Z"/>
  <path class="cls-12" d="M175.96,381.82s101.99,55.87,148.55,60.3,47.76,1.95,47.76,1.95c0,0-22.05,24.14-90.56,15.31-68.5-8.83-105.75-77.56-105.75-77.56Z"/>
  <path class="cls-6" d="M148.36,538.78c.12-1.05,4.32.1,5.32.42,11.68,3.77,73.34,23.31,102.43,25.31,32.22,2.22,130.17-22.07,135.41-25.57,3.49-2.33,10.71,19.87,7.66,34.68-2.93,14.22-128.6,13.06-137.91,10.84-9.31-2.22-116.56-18.22-115.58-26.8.74-6.49,2.21-14.96,2.66-18.89Z"/>
  <path class="cls-6" d="M151.46,500.02s71.07,18.37,82.31,14.4c6.91-2.45-2.05,13.11,2.71,17.12,4.75,4.01,40.75,12.78,49.47,10.68,8.72-2.1,5.81-14.5,6.65-15.39s74.58,17.71,81.92,20.93c7.34,3.21,20.09-1.41,19.71-7.11-.32-4.85-3.09-14.91-3.09-14.91l-93.71-17.86s5.08-8.73-.75-16.6c-5.76-7.79-39.96-14.21-49.27-8.31-5.22,3.31-2.6,10.71-10,10.83-15.32.26-87.62-16.95-91.71-16.55s5.77,22.76,5.77,22.76Z"/>
  <path class="cls-19" d="M244.88,486.01s6.11,22.18,13.46,23.78c7.35,1.6,38.4,1.01,39.63-2.99,1.23-3.99,2.61-14.88-4.28-18.1-6.89-3.23-36.86-17.48-48.8-2.69Z"/>
  <path class="cls-9" d="M266.06,513.89s-.83-7.18,2.99-8.3c3.82-1.13,9,5.65,7.4,7.02s-2.45-.96-3.9-2.34c-1.45-1.37-3.19-2.11-4.08-.21s-2.41,3.83-2.41,3.83Z"/>
  <path class="cls-22" d="M87.16,541.71c57.53,43.56,73.57,31.26,73.57,31.26,0,0,19.62-10.31,20.95-10.64s9.98,16.62,8.65,18.29c-1.33,1.67,9.98,30.27,7.32,27.94s-18.29,27.94-19.62,26.61-19.4-1.77-27.05-4.1c-7.65-2.33-8.87-13.52-11.86-16.19s-90.11-9.84-90.11-9.84c0,0-19.38-106.88,38.16-63.32Z"/>
  <path class="cls-21" d="M295.51,218.85s54.84,2.26,60.6,40.84c3.31,22.14-13.52,50.77-13.52,50.77,0,0-9.46-14.19-8.94-37.25.52-23.06-48.59-29.71-48.59-29.71,0,0-.26-25.82,10.45-24.65Z"/>
  <path class="cls-14" d="M196.25,627.07s13.52-40.57,53.21-64.76c0,0,2.24,50.65-53.21,64.76Z"/>
  <path class="cls-13" d="M265.67,631.72l48.33,34.14s9.37,5.99.14,12.19c-9.23,6.21-11,23.72,6.29,12.86,17.29-10.86,34.52-32.27,23.58-33.36-10.94-1.09-14.71,16.51-25.57,6.16-9.36-8.91-48.56-38.88-48.56-38.88l-4.21,6.87Z"/>
  <path class="cls-8" d="M264.54,563.77s-26.72-18.74-31.37-9.09c-4.66,9.64-12.8,21.69-21.95,26.27-9.15,4.58-34.52,16.61-33.59,41.9,2.99,81.81,12.47,21.29,25.39,1.99,9.45-14.12,23.8-23.15,33.14-31.48,16.27-14.52,7.76-38.36,15.85-29.05,4.88,5.61,12.53-.55,12.53-.55Z"/>
  <path class="cls-15" d="M181.68,562.33c1.33-.33,22.95,5.65,28.93,10.64,5.99,4.99,9.64,9.64,12.31,13.97,2.66,4.32,4.99,11.97,0,11.97s-15.63-11.31-17.96-11.97-13.3-8-14.63-6.33c-1.33,1.67,27.6,19.96,30.6,24.28,2.99,4.32,13.64,14.74,6.65,15.02s-27.27-9.03-29.93-11.36,18.16,11.15,25.28,13.3c3.87,1.17,6.34,3.43,7.81,5.29,1.16,1.47.65,3.65-1.06,4.42-3.26,1.47-6.74,2.98-9.35,2.11-3.99-1.33-19.01-5.51-21.67-5.84s11.97,7.32,13.97,7.98-2.99,7.32-11.31,5.65c-8.31-1.66-21.95-4.99-23.28-6.32-.35-.35-3.74-9.81-3.33-13.8.37-3.51,1.96-7.95.83-12.06-2.11-7.65,2.91-8.23,3.49-17.54.21-3.32-2.24-19.62,1.6-21.4,4.44-2.05.78-7.96,1.06-8.03Z"/>
  <path class="cls-23" d="M112.44,285.62s-46.89,44.9-46.89,57.87-43.9,95.98-36.92,110.35-9.98,30.33-9.98,30.33c0,0-9.22,43.81-2.24,50.79,6.98,6.98-17.5,64.25,25.96,79.25,7.74,2.67,58.09,6.32,47.45-7.11-16.71-21.09-6.01-37.65,1.66-45.02,6.32-6.07,15.96-6.84,24.83-.3,2.21,1.63,2.11-5.1-3.98-7.1-2.19-.72,14.06-4.01,7.35-14.85-6.35-10.24,32.67-65.96,33.99-91.9,1.33-25.94-20.18-127.27-41.24-162.3Z"/>
  <path class="cls-16" d="M244.97,243.94s-51.77-16.41-51.13,3.1c.64,19.51,39.9,85.58,39.9,85.58l33.77,33.26,31.61-33.7s37.08-59.86,22.31-85.58c-14.77-25.72-55.61-2.22-60.91,3.55-5.3,5.76-15.56-6.21-15.56-6.21Z"/>
  <path class="cls-15" d="M196.44,196.74s13.66,22.47,15.76,60.28c.52,9.3,7.58,15.09,17.42,18.53,7.87,2.75,25.52,57.71,35.45,57.63s13.35-55.54,19.98-57.02c7.17-1.6,12.26-4.08,13.63-6.51,5.99-10.64-8.65-7.32,7.24-83.3,6.69-32-39.67,49.25-109.48,10.39Z"/>
  <path class="cls-24" d="M164.32,109.02s-11.97-74.83,72.83-82.81c84.81-7.98,80.82,69.84,80.82,69.84,0,0-3.33,84.47-12.97,98.11-4.65,6.58-5.09,6.2-10.34,12.6-32.23,39.28-46.53,39.95-94.76-5.28-3.3-3.09-9.01-18.14-11.64-23.28-22.95-44.9-23.95-69.18-23.95-69.18Z"/>
  <path class="cls-21" d="M251.46,174.6c-12.03,0-23.33,12.35-24.33,15.35s-.89,8.16-.89,8.16c0,0,20.14-5.29,28.54-6.07,10.97-1.03,26.67,4.47,26.67,4.47,0,0-.67-7.18-2.77-8.75s-15.19-13.15-27.22-13.15Z"/>
  <path class="cls-7" d="M234.28,195.95l39.12-1.66s-15.19,7.64-19.07,7.64-20.05-5.97-20.05-5.97Z"/>
  <path class="cls-5" d="M234.96,195.89s15.28-5.27,16.39-4.39,5.99.56,6.32-.11,14.63,2.89,14.63,2.89l-37.34,1.6Z"/>
  <path class="cls-20" d="M234.83,165.73s6.04-3.66,11.97-.17c2.48,1.46,6.98,2.55,8.15.17s8.6-.97,9.98.83-7.45,2.49-7.96,3.49c-.52,1-3.47,4.8-4.34,4.99-3.82.83-4.57-2.18-7.23-4.51-2.66-2.33-12.06-2.48-10.56-4.81Z"/>
  <path class="cls-2" d="M231.33,131.81s-7.48,3.92-10.14,4.82-24.61,1.33-27.94,1.33,38.08-6.15,38.08-6.15Z"/>
  <path class="cls-2" d="M263.04,130.25s7.78,3.28,10.51,3.96c2.73.68,24.64-.73,27.95-1s-38.46-2.96-38.46-2.96Z"/>
  <path class="cls-18" d="M242.64,154.59s-6.15,8.65-10.31,12.8-10.48,7.65-10.48,7.65c0,0,13.3-6.65,14.47-8.98s6.32-11.47,6.32-11.47Z"/>
  <path class="cls-18" d="M256.96,154.48s6.29,8.55,10.51,12.64c4.22,4.09,10.59,7.49,10.59,7.49,0,0-13.41-6.44-14.61-8.75s-6.5-11.37-6.5-11.37Z"/>
  <path class="cls-13" d="M196.25,627.07s39.69,26.38,62.2,6.81c39.89-34.68-8.99-71.56-8.99-71.56,0,0,2.22,51.01-53.21,64.76Z"/>
  <polygon class="cls-2" points="234.99 103.87 233.74 106.27 197.41 108.03 186.77 117.34 197.08 106.7 234.99 103.87"/>
  <polygon class="cls-2" points="258.54 102.99 260.09 105.28 296.33 104.32 307.64 112.8 296.56 102.96 258.54 102.99"/>
  <path class="cls-18" d="M190.73,134.29s10.64-1.93,19.04-2.72,19.85-.16,19.85-.16c0,0-14.23-1.51-19.94-.92s-18.95,3.8-18.95,3.8Z"/>
  <path class="cls-1" d="M229.62,134.29s-9.92,10.82-13.25,10.82-15.13-3.33-15.13-3.33c0,0,28.93-7.65,30.1-9.98,1.16-2.33-1.72,2.49-1.72,2.49Z"/>
  <path class="cls-18" d="M303.77,128.65s-10.78-.86-19.21-.82-19.77,1.82-19.77,1.82c0,0,14.01-2.92,19.75-2.9s19.23,1.9,19.23,1.9Z"/>
  <path class="cls-1" d="M265.08,132.52s10.95,9.78,14.26,9.45,14.73-4.82,14.73-4.82c0,0-29.55-4.73-30.94-6.93-1.39-2.2,1.95,2.3,1.95,2.3Z"/>
  <path class="cls-20" d="M237.49,124.16s3.77,4.68,3.38,6.58.03,12.87.03,12.87c0,0-3.07-19.46-6.23-20.29s2.82.83,2.82.83Z"/>
  <path class="cls-15" d="M193.06,165.89l10.71,16.86s13.54,14.18,14.2,14.85-17.29-12.73-19.73-15.84-5.18-15.87-5.18-15.87Z"/>
  <path class="cls-15" d="M305.96,159.03l-8.59,18.03s-11.72,15.72-12.3,16.46,15.63-14.73,17.67-18.11,3.22-16.38,3.22-16.38Z"/>
  <path class="cls-4" d="M233.74,196s14.15-1.31,19.26-1.49c6.21-.22,20.4-.22,20.4-.22,0,0-17.25,2.16-19.83,2.4-3.14.29-9.21-.62-19.83-.68Z"/>
  <path class="cls-21" d="M240.9,58.69s-23.56-31.48-43.32-.89c-19.76,30.6-32.38,64.45-26.52,80.15,5.86,15.7-15.06-14.13-16.05-27.35-.42-5.56-15.3-101.02,85.47-103.02,0,0,67.16-19.29,90.46,83.48,5.52,24.35-18,56.15-16.96,50.91,10.01-50.38-44.23-134.39-73.08-83.28Z"/>
  <path class="cls-15" d="M172.44,141.98l-19.1-18.15s-1.39,8.65.97,19.79,20.65,32.22,23.31,30.99,5.15-9.79,5.15-9.79l-10.33-22.84Z"/>
  <path class="cls-15" d="M315.46,140.06l15.68-21.17s2.86,8.28,2.46,19.66c-.4,11.38-14.78,35.29-17.61,34.55-2.83-.75-6.77-8.75-6.77-8.75l6.24-24.28Z"/>
  <path class="cls-1" d="M219.75,70.33s30.94-1.55,43.3-1.33c12.36.22-43.3,1.33-43.3,1.33Z"/>
  <path class="cls-1" d="M212.2,75.65s58.32-3.55,61.21-2.44c2.88,1.11-61.21,2.44-61.21,2.44Z"/>
  <path class="cls-1" d="M273.94,81.64s-64.83-2.22-66.83,0c-2,2.22,66.83,0,66.83,0Z"/>
  <path class="cls-22" d="M339.59,603.9s-29.93-7.32-34.26-3.66c-4.32,3.66-30.6,9.98-40.57,15.3s-14.3,7.97-18.96,9.31-11.97,6.99-7.32,8.32,21.13,1.33,23.7,0c2.57-1.33-12.73,5.32-19.05,6.32s-17.96,3.66-17.96,7.65,15.63,5.65,21.29,3.66c5.65-2-10.98,1.33-10.64,3.66s1.33,6.82,7.48,6.65c6.15-.17,13.97-1.49,13.64,0s3.16,6.98,15.13,6.31,27.27,3.49,36.75-1c7.29-3.45,24.71-9.56,33.43-16.89,5.75-4.83,12.7-8.23,20.16-9.16,8.44-1.06,10.19-6.63,11.65-7.09,130.24-40.97-34.47-29.39-34.47-29.39Z"/>
  <path class="cls-22" d="M339.59,603.9h0s-14.97-15.96-19.62-17.63c-4.66-1.66-20.29-11.97-30.26-5.65-9.98,6.32-19.62,0-20.29,2.33-.67,2.33-.67,12.64,9.64,12.97,10.31.33,24.33,1.03,28.44,3.3,6.42,3.55,73.29,27.76,107.37,18.1,78.35-22.21,96.53-20.27,46.56-58.53-29.45-22.54-32.37-14.74-92.27,27.14-9.54,6.67-18.68,13.85-29.56,17.98Z"/>
  <path class="cls-23" d="M529.53,577.8c15.34-33.42-10.13-55.57-4.81-58.9,5.32-3.33-15.81-37.21-17.81-39.87-2-2.66-11.97-31.6-9.31-38.92,2.66-7.32-50-120.97-65.97-138.26-15.96-17.29-28.52-27.53-28.52-27.53-18.59,57.08-8.84,140.71-8.2,174.94.3,16.39-1.13,27.97,16.19,47.89,2.97,3.42,3.3,10.59,7.58,15.87,10.49,12.93-.74,16.44.07,21.95.8,5.44,5.21,6.48,4.55,7.05,0,0-14.37,13.51-4.51,9.9,5.76-2.11,19.58-7.55,35.99,20.16,10.32,17.43,12.84,29.93,7.01,32.22-6.02,2.36,26.25-1.18,32.01-8.72,5.76-7.54,24.06,7.65,35.73-17.79Z"/>
  <polygon class="cls-1" points="285.05 94.96 298.24 97.16 301.69 100.71 285.05 94.96"/>
  <polygon class="cls-1" points="204.79 97.92 191.58 99.98 188.09 103.49 204.79 97.92"/>
  <path class="cls-15" d="M281.25,204.37s-11.75,11.15-18.75,13.58,6.78-.8,7.86-1.33"/>
  <path class="cls-15" d="M227.55,206.04s12.42,10.4,19.56,12.39c7.14,1.99-6.81-.38-7.93-.84"/>
  <path class="cls-18" d="M244.97,207.13s5.44-2.69,8.87-2.76,10.94,2.76,10.94,2.76h-19.82Z"/>
  <path class="cls-21" d="M175.38,80.32s-.22,75.5,7.95,102.77c8.18,27.27,10.5,25.42,10.5,25.42,0,0-25.28-37.39-25.94-100.58-.67-63.19,7.48-27.6,7.48-27.6Z"/>
  <path class="cls-21" d="M313.98,97.92s-2.2,90.19-4.76,99.7-5.45,10.91-5.45,10.91c0,0,10.06-10.13,14.23-78.18,4.17-68.04-4.02-32.43-4.02-32.43Z"/>
  <path class="cls-17" d="M407.1,360.12s19.69-56.12,24.17-55.98,6.76,7.76,6.76,7.76c0,0-6.21-2.15-6.98,2.77-.77,4.92-23.95,45.45-23.95,45.45Z"/>
  <path class="cls-17" d="M67.58,337.86s6.28-3.35,9.94-.02,46.89,65.19,46.89,65.19c0,0-43.24-72.17-44.57-73.17s-12.27,8-12.27,8Z"/>
  <path class="cls-17" d="M29.96,445.9s22.17,18.88,29.71,18.88-25.51,1.36-27.49,0-7.54-19.13-2.22-18.88Z"/>
  <path class="cls-17" d="M114.27,536.67s-21.09-30.43-34.4-30.88,34.4,30.88,34.4,30.88Z"/>
  <path class="cls-17" d="M112.11,547s-58.54-19.48-62.9-4.4c-4.36,15.08,62.9,4.4,62.9,4.4Z"/>
  <path class="cls-17" d="M421.51,528.22s30.15-27.09,41.24-20.88c11.09,6.21-41.24,20.88-41.24,20.88Z"/>
  <path class="cls-17" d="M423.29,542.02s34.14-16.81,48.78-6.9-48.78,6.9-48.78,6.9Z"/>
  <path class="cls-17" d="M521.54,514.08s-16.85,12.58-20.4,19.41c-3.55,6.83,22.97-12.43,22.97-12.43l-2.57-6.99Z"/>
  <path class="cls-17" d="M480.93,404.69s9.98,19.42-6.68,36.14c-6.89,6.92,23.34-.71,23.34-.71,0,0-8.24-34.1-16.66-35.43Z"/>
  <polygon class="cls-22" points="186.94 602.74 206.52 613.28 188.43 600.91 186.94 602.74"/>
  <polygon class="cls-22" points="196.73 625.74 185.27 620.53 188.6 624.85 196.73 625.74"/>
  <polygon class="cls-10" points="260.97 633.53 280.56 627.07 290.7 624.85 260.97 633.53"/>
  <polygon class="cls-10" points="247.44 650.19 273.94 643.98 291.53 637.82 271.08 646.3 247.44 650.19"/>
  <polygon class="cls-10" points="257.11 659.62 289.54 654.62 306.56 650.19 293.86 656.95 257.11 659.62"/>
  <path class="cls-21" d="M198.57,50.9s-3.53,38.45,8.52,46.39c0,0-14.49-2.63-11.87-40.79,2.61-38.16,3.36-5.6,3.36-5.6Z"/>
  <path class="cls-21" d="M297.45,73.28s7.16,37.94-4.08,46.99c0,0,14.17-3.99,7.95-41.73-6.22-37.74-3.87-5.26-3.87-5.26Z"/>
  <path class="cls-6" d="M145.69,264.63l11.83,132.18s10.05,11.85,20.08,6.21c10.03-5.64-7.04-143.21-9.74-142.97s-.51-5.36-10.34-1.37c-9.83,3.99-11.83,5.95-11.83,5.95Z"/>
  <path class="cls-6" d="M360.87,261.43s9.78,135.7,12.08,138.37,13.86.55,15.85-2.77-3.99-132.37-5.99-134.03c-2-1.66-18.62-3.34-21.95-1.57Z"/>
</svg>