<?xml version="1.0" encoding="UTF-8"?>
<svg id="board" xmlns="http://www.w3.org/2000/svg" xmlns:xlink="http://www.w3.org/1999/xlink" viewBox="0 0 918.49 605.35">
  <defs>
    <style>
      .cls-1 {
        fill: #3a291a;
      }

      .cls-2 {
        fill: #2d1d12;
      }

      .cls-3 {
        opacity: .36;
      }

      .cls-3, .cls-4, .cls-5, .cls-6, .cls-7, .cls-8 {
        fill: #56463b;
      }

      .cls-9 {
        fill: #aa957e;
      }

      .cls-10 {
        fill: #967753;
      }

      .cls-4 {
        opacity: .32;
      }

      .cls-11 {
        fill: #564637;
      }

      .cls-12, .cls-13 {
        fill: #938f8a;
        stroke: #565452;
      }

      .cls-12, .cls-13, .cls-14, .cls-15 {
        stroke-miterlimit: 10;
      }

      .cls-12, .cls-14 {
        stroke-width: .5px;
      }

      .cls-14 {
        fill: none;
        stroke: #564637;
      }

      .cls-15 {
        fill: url(#linear-gradient);
        stroke: #3a291a;
        stroke-width: 17px;
      }

      .cls-16 {
        fill: #877258;
      }

      .cls-5 {
        opacity: .31;
      }

      .cls-17 {
        font-family: VinerHandITC, 'Viner Hand ITC';
        font-size: 36px;
      }

      .cls-6 {
        opacity: .63;
      }

      .cls-18 {
        fill: #998264;
      }

      .cls-8 {
        opacity: .46;
      }
    </style>
    <linearGradient id="linear-gradient" x1="461.95" y1="572.62" x2="461.95" y2="29.05" gradientUnits="userSpaceOnUse">
      <stop offset="0" stop-color="#5e483e"/>
      <stop offset="0" stop-color="#5e483e"/>
      <stop offset=".64" stop-color="#796556"/>
      <stop offset="1" stop-color="#847060"/>
    </linearGradient>
  </defs>
  <rect class="cls-1" x="22.38" y="18.11" width="879.13" height="565.45" rx="15.58" ry="15.58"/>
  <rect class="cls-15" x="74.33" y="29.05" width="775.22" height="543.56" rx="1.74" ry="1.74"/>
  <polygon class="cls-2" points="840.61 564.76 832.82 558.57 78.88 558.57 86.22 566.83 840.61 564.76"/>
  <polygon class="cls-2" points="838.26 37.61 832.82 558.57 841.96 565.84 841.07 37.55 838.26 37.61"/>
  <polygon class="cls-7" points="144 159.59 144 209.12 154.09 245.81 149.04 294.42 159.59 338.45 144 159.59"/>
  <polygon class="cls-3" points="279.57 181.34 372.32 246.46 514.49 349.18 671.33 395.96 734.61 429.9 515.4 340.93 279.57 181.34"/>
  <polygon class="cls-7" points="166.01 236.64 159.59 266.9 166.01 333.86 159.59 366.88 162.8 422.83 166.01 236.64"/>
  <polygon class="cls-5" points="95.53 369.67 100.98 435.78 113 465.31 112.63 498.95 125.84 553.41 95.53 369.67"/>
  <polygon class="cls-7" points="704.41 170.6 708.99 219.21 696.15 263.24 700.28 282.96 708.99 354.96 704.41 395.31 704.41 170.6"/>
  <polygon class="cls-7" points="718.17 254.06 704.87 292.59 696.15 300.83 680.1 325.3 662.22 362.29 655.91 378.8 642.04 391.18 718.17 254.06"/>
  <polygon class="cls-3" points="370.21 217.45 424.49 252.3 455.44 293.12 486.32 313.15 519.65 333.02 370.21 217.45"/>
  <polygon class="cls-5" points="671.33 439.54 725.61 474.39 756.57 515.2 787.45 535.23 820.77 555.1 671.33 439.54"/>
  <path class="cls-4" d="M126.57,170.6l167.85.92s126.57,5.2,132.99,5.2,113.73.31,131.16-.61,125.66-8.25,130.24-5.5,86.22,0,86.22,0H126.57Z"/>
  <path class="cls-6" d="M143.8,95.2s279.96,47.12,287.25,47.96,132.11,15.26,138.49,16,176.51,30.55,176.51,30.55l-404.51-55.05-197.75-39.47Z"/>
  <path class="cls-8" d="M191.28,315.52s97.71,40.57,70.23,39.76c-1.1-.03,16.84.49,18.23,1.11,2.73,1.22,12.06,7.7,22.38,11.39,1.53.55,13.88,4.85,15.35,5.17,7.04,1.53,21.96,2.97,41.71,7.26,12.05,2.62,18.9,13.26,23.34,14.22,11.71,2.54,54.12,13.6,62.18,13.51,8.06-.08-200.82-63.03-206.54-63.16-5.72-.12-27.64-15.6-27.64-15.6l-19.25-13.67Z"/>
  <path class="cls-6" d="M125.85,400.85s12.47,2.87,31.04,7.1c20.86,4.75,49.42,11.2,76.61,17.22,27.87,6.16,54.3,11.85,69.54,14.76,34.77,6.63,62.22,9.95,97.98,14.8,8.8,1.2,18.11,2.48,28.16,3.94,50.84,7.36,76.87,20.83,126.8,28.07,49.93,7.25,117.32,22.78,133.7,24.86,16.38,2.07,66.92,11.63,66.92,11.63l-274.1-47.64-179.46-35.66-184.92-40.05"/>
  <polygon class="cls-18" points="852.1 123.8 71.79 129.3 63.97 47.33 846.63 41.5 852.1 123.8"/>
  <g>
    <path class="cls-16" d="M529.68,112.82s80.48-.69,82.55,0,59.85-2.06,62.6,0,59.16-1.15,62.6.11,44.71.6,44.71.6l-252.46-.71Z"/>
    <polygon class="cls-16" points="88.74 70.17 293.04 67.41 421.68 75.39 595.72 75.39 619.8 79.8 784.2 67.41 817.91 71.54 88.74 70.17"/>
    <path class="cls-16" d="M122.45,103.18l124.92-7.98,148.18,7.98s85.3,1.38,88.05,0,130.7-6.19,133.45-6.19,66.73,4.32,70.85,2.51,87.36-4.3,87.36-4.3h57.1l-709.91,7.98Z"/>
    <path class="cls-16" d="M80.48,90.46l43.09-3.09,72.54,1.04s44.54-.81,53.19-.58,77.61.69,77.61.69l66.56,6.7h24.76l-337.76-4.75Z"/>
    <path class="cls-16" d="M293.04,116.94c-2.75,0-79.8.69-85.3,0s-51.59,1.38-57.78,0c-6.19-1.38-54.34-3.24-54.34-3.24l-23.83,1.86,221.25,1.38Z"/>
  </g>
  <text class="cls-17" transform="translate(116.32 95.2)"><tspan x="0" y="0">BOUNTY BOARD</tspan></text>
  <circle class="cls-13" cx="814.82" cy="69.44" r="6.54"/>
  <circle class="cls-13" cx="811.38" cy="95.2" r="6.54"/>
  <circle class="cls-13" cx="88.74" cy="73.61" r="6.54"/>
  <circle class="cls-13" cx="92.75" cy="103.8" r="6.54"/>
  <polygon class="cls-10" points="63.97 47.33 61.54 50.54 67.21 126.89 71.79 129.3 63.97 47.33"/>
  <path class="cls-2" d="M18.01,25.17s8.59-6.29,17-6.68l-2.45,564.1-16.5-2.93L18.01,25.17Z"/>
  <g>
    <polygon class="cls-9" points="234.09 326.04 148 313.1 144.34 305.25 138.79 312.04 137.74 296.95 131.41 311.59 121.79 310.71 139.33 163.71 229.26 173.88 233.01 180.02 237.69 174.64 239.06 187.93 243.5 175.17 247.81 175.57 234.09 326.04"/>
    <polygon class="cls-11" points="145.62 182.53 147.32 197.42 157.51 188.98 165.32 197.51 165.39 181.38 152.01 200.74 145.62 182.53"/>
    <polygon class="cls-11" points="172.87 186.43 176.76 194.26 189.13 189.32 181 187.87 183.68 195.49 173.24 184.37 172.87 186.43"/>
    <polyline class="cls-11" points="197.12 193.26 205.74 186.7 212.38 193.91 197.92 188.75 219.53 187.72 233.73 191.66 224.58 188.15 197.48 191.26"/>
    <polygon class="cls-11" points="186.41 213.36 180.56 220.09 177.68 229.33 169.54 231.48 179 235.03 175 237.42 177.56 243.15 185.39 248.21 193.31 240.98 196.09 225.33 193.34 214.59 186.41 213.36"/>
    <polygon class="cls-11" points="197.64 216.6 171.42 224.37 158.81 223.68 170.55 218.78 179.28 213.34 180.49 207.35 189.53 208.95 195.62 212.2 206.23 211.91 212.89 214.65 197.64 216.6"/>
    <polygon class="cls-11" points="191.76 235.74 198.45 233.01 201.99 237.55 198.69 245.66 185.39 248.21 170.75 254.37 168.35 245.19 179.99 240.79 191.76 235.74"/>
    <path class="cls-11" d="M197.19,240.12l8.48,7.31s1.58,5.96,2.43,6.42,11.83,3.34,13.93,3.71,3.93,4.11,3.93,4.11l-15.8-2.8-35.48-.86,15.9-15.65,6.61-2.24Z"/>
    <polygon class="cls-11" points="168.7 246.54 160.42 247.87 148.6 247.95 144.17 253.69 139.99 254.5 150.83 256.42 165.34 253.41 173.03 248.56 168.7 246.54"/>
    <polygon class="cls-14" points="146.65 206.46 139.58 256.82 225.97 261.68 229.28 209.79 146.65 206.46"/>
    <polygon class="cls-11" points="146.1 270.8 153.14 266.15 163.26 273.84 174.81 269.99 193.78 273.36 212.31 269.43 216.73 275.26 217.93 280.75 212.25 275.98 208.98 273.53 200.97 273.97 191.52 277.3 187.33 274.7 178.65 278.12 169.37 269.14 166.69 277.25 157.33 274.03 155.26 269.94 148.71 271.88 140.81 272.65 136.05 266.22 146.1 270.8"/>
    <polygon class="cls-11" points="141.91 282.16 154.44 290.29 156.66 284.78 165.79 289.35 179.93 290.15 177 286.53 169.19 289.02 160.16 291.3 150.79 283.74 143.37 284.44 141.91 282.16"/>
    <polygon class="cls-11" points="195.03 289.72 202.28 286.66 211.72 291.21 218.54 289.55 223.96 290.51 227.27 291.1 195.03 289.72"/>
  </g>
  <g>
    <polygon class="cls-9" points="292.83 488.44 379.73 482.1 382.97 474.08 388.87 480.56 389.13 465.44 396.22 479.72 405.78 478.34 380.54 332.47 291.27 347.34 287.85 353.67 282.9 348.55 282.23 361.88 277.12 349.38 272.84 350 292.83 488.44"/>
    <polygon class="cls-11" points="375.25 351.59 374.33 366.55 363.71 358.66 356.37 367.58 355.45 351.48 369.82 370.11 375.25 351.59"/>
    <polygon class="cls-11" points="348.24 356.92 344.77 364.94 332.16 360.65 340.2 358.78 337.92 366.53 347.77 354.88 348.24 356.92"/>
    <polyline class="cls-11" points="324.38 365 315.43 358.91 309.18 366.46 323.35 360.55 301.71 360.66 287.74 365.34 296.7 361.35 323.92 363.03"/>
    <polygon class="cls-11" points="336.13 384.52 342.33 390.93 345.69 400.01 353.94 401.73 344.67 405.77 348.79 407.95 346.54 413.81 338.98 419.27 330.69 412.46 327.1 396.98 329.28 386.11 336.13 384.52"/>
    <polygon class="cls-11" points="325.09 388.34 351.68 394.72 364.24 393.38 352.26 389.1 343.26 384.12 341.73 378.2 332.79 380.28 326.87 383.85 316.26 384.11 309.76 387.19 325.09 388.34"/>
    <polygon class="cls-11" points="331.97 407.15 325.14 404.78 321.84 409.5 325.56 417.42 338.98 419.27 353.92 424.65 355.84 415.35 343.98 411.58 331.97 407.15"/>
    <path class="cls-11" d="M326.77,411.8l-8.09,7.75s-1.27,6.04-2.09,6.54-11.64,3.96-13.72,4.44-3.71,4.31-3.71,4.31l15.64-3.63,35.38-2.72-16.7-14.8-6.72-1.89Z"/>
    <polygon class="cls-11" points="355.56 416.72 363.9 417.62 375.7 417.08 380.43 422.57 384.65 423.16 373.93 425.65 359.28 423.4 351.35 418.97 355.56 416.72"/>
    <polygon class="cls-14" points="375.48 375.55 385.18 425.46 299.17 434.85 293.14 383.2 375.48 375.55"/>
    <polygon class="cls-11" points="379.4 439.76 372.13 435.49 362.43 443.7 350.69 440.46 331.93 444.82 313.22 441.87 309.11 447.92 308.2 453.47 313.61 448.4 316.75 445.79 324.78 445.81 334.38 448.64 338.44 445.82 347.28 448.79 356.07 439.33 359.18 447.28 368.36 443.58 370.21 439.38 376.86 440.98 384.79 441.33 389.2 434.66 379.4 439.76"/>
    <polygon class="cls-11" points="384.18 450.89 372.09 459.66 369.59 454.28 360.72 459.32 346.64 460.86 349.37 457.09 357.31 459.17 366.44 460.98 375.4 452.93 382.84 453.24 384.18 450.89"/>
    <polygon class="cls-11" points="331.54 461.23 324.13 458.56 314.94 463.59 308.05 462.29 302.69 463.53 299.41 464.29 331.54 461.23"/>
  </g>
  <g>
    <polygon class="cls-9" points="680.33 429.27 767.37 431.57 772.34 424.48 776.62 432.13 780.29 417.46 783.97 432.98 793.59 433.79 802 285.99 711.68 280.29 706.92 285.69 703.25 279.57 699.58 292.41 697.43 279.08 693.12 278.71 680.33 429.27"/>
    <polygon class="cls-11" points="792.52 303.42 788.24 317.79 779.68 307.7 770.51 314.73 773.26 298.83 783.04 320.23 792.52 303.42"/>
    <polygon class="cls-11" points="765 302.5 759.81 309.53 748.49 302.5 756.75 302.5 752.78 309.53 765 300.41 765 302.5"/>
    <polyline class="cls-11" points="739.93 304.99 732.6 297.02 724.8 302.96 739.93 300.41 718.84 295.62 704.16 297.02 713.79 295.16 739.93 302.96"/>
    <polygon class="cls-11" points="746.97 326.66 751.55 334.3 752.78 343.9 760.42 347.45 750.48 349.28 754 352.34 750.48 357.53 741.88 361.15 735.35 352.64 735.35 336.74 739.93 326.66 746.97 326.66"/>
    <polygon class="cls-11" points="735.35 327.88 759.81 340.11 772.34 341.64 761.64 334.76 754 327.88 753.85 321.76 744.67 321.76 738.1 323.9 727.71 321.76 720.67 323.29 735.35 327.88"/>
    <polygon class="cls-11" points="737.79 347.75 731.68 343.9 727.4 347.75 729.23 356.31 741.88 361.15 755.22 369.76 759.2 361.15 748.49 354.78 737.79 347.75"/>
    <path class="cls-11" d="M731.68,351.11l-9.63,5.72s-2.6,5.59-3.52,5.9-12.23,1.22-14.37,1.22-4.59,3.36-4.59,3.36h16.05l35.08,5.35-12.92-18.19-6.11-3.36Z"/>
    <polygon class="cls-11" points="758.61 362.41 766.53 365.18 778.15 367.32 781.51 373.74 785.49 375.27 774.48 375.27 760.72 369.76 754 363.65 758.61 362.41"/>
    <polygon class="cls-14" points="787.32 326.81 785.49 377.62 699.58 367.32 705.39 315.65 787.32 326.81"/>
    <polygon class="cls-11" points="776.62 390.25 770.51 384.44 759.2 390.25 748.49 384.44 729.23 384.44 711.68 377.33 706.3 382.3 704.16 387.5 710.58 383.79 714.23 381.95 722.05 383.79 730.76 388.72 735.35 386.88 743.3 391.78 754 384.55 755.22 393 765 391.47 767.76 387.8 773.87 390.86 781.51 393 787.32 387.5 776.62 390.25"/>
    <polygon class="cls-11" points="778.76 402.17 765 407.98 763.78 402.17 754 405.08 739.93 403.39 743.45 400.34 750.71 404.16 759.2 407.98 769.74 402.17 776.93 404.16 778.76 402.17"/>
    <polygon class="cls-11" points="725.14 400.34 718.53 396.06 708.44 398.88 702.02 396.06 696.52 396.06 693.16 396.06 725.14 400.34"/>
  </g>
  <g>
    <polygon class="cls-9" points="624.01 323.24 543.41 356.34 536.93 350.6 534.54 359.04 527.57 345.62 527.6 361.56 518.42 364.59 475.92 222.79 562.45 196.26 568.34 200.41 570.49 193.61 577.04 205.25 576.03 191.78 580.14 190.42 624.01 323.24"/>
    <polygon class="cls-11" points="489.19 237.54 496.69 250.52 502.67 238.72 513.23 243.43 506.86 228.6 502.31 251.69 489.19 237.54"/>
    <polygon class="cls-11" points="515.74 230.25 522.43 235.89 531.8 226.42 523.77 228.34 529.27 234.25 515.25 228.22 515.74 230.25"/>
    <polyline class="cls-11" points="540.7 226.85 545.99 217.4 554.95 221.36 539.64 222.4 559.05 212.84 573.65 210.79 563.85 211.22 540.23 224.88"/>
    <polygon class="cls-11" points="538.89 249.56 536.21 258.06 537.25 267.68 530.64 272.9 540.73 272.38 538.02 276.17 542.65 280.41 551.85 281.92 556.23 272.14 552.54 256.67 545.73 247.92 538.89 249.56"/>
    <polygon class="cls-11" points="550.48 248.05 529.53 265.62 517.69 270.02 526.5 260.85 532.34 252.38 531.07 246.4 539.99 244.27 546.88 244.82 556.49 240.33 563.69 240.18 550.48 248.05"/>
    <polygon class="cls-11" points="552.71 267.95 557.77 262.78 562.82 265.53 563.03 274.28 551.85 281.92 540.88 293.4 535.01 285.94 543.94 277.27 552.71 267.95"/>
    <path class="cls-11" d="M559.44,269.8l10.7,3.33s3.83,4.84,4.79,4.92,12.18-1.65,14.26-2.15,5.24,2.21,5.24,2.21l-15.61,3.73-32.88,13.35,8.34-20.69,5.17-4.69Z"/>
    <polygon class="cls-11" points="535.87 287.04 528.81 291.57 518 296.35 516.22 303.38 512.71 305.79 523.42 303.23 535.52 294.68 540.65 287.17 535.87 287.04"/>
    <polygon class="cls-14" points="499.68 259.08 513.26 308.08 594.43 278.1 576.78 229.2 499.68 259.08"/>
    <polygon class="cls-11" points="524.82 318.3 529.41 311.23 541.77 314.25 550.83 306.12 569.56 301.64 584.99 290.65 591.37 294.24 594.66 298.79 587.55 296.68 583.58 295.74 576.4 299.34 569.07 306.16 564.18 305.44 557.59 312.05 545.5 307.51 546.27 316 536.4 316.79 532.87 313.86 527.63 318.25 520.7 322.11 513.77 318.11 524.82 318.3"/>
    <polygon class="cls-11" points="525.5 330.39 540.23 332.85 540.07 326.91 550.27 327.47 563.55 322.57 559.42 320.41 553.25 325.81 545.88 331.5 534.28 328.3 527.75 331.9 525.5 330.39"/>
    <polygon class="cls-11" points="577.23 316.16 582.67 310.46 593.14 310.86 598.72 306.62 604.08 305.35 607.35 304.57 577.23 316.16"/>
  </g>
  <circle class="cls-12" cx="147.51" cy="175.68" r="2.3"/>
  <circle class="cls-12" cx="368" cy="341.64" r="2.3"/>
  <circle class="cls-12" cx="485.09" cy="226.85" r="2.3"/>
  <circle class="cls-12" cx="792.52" cy="293.4" r="2.3"/>
  <circle class="cls-12" cx="241.24" cy="166.12" r="3.86"/>
</svg>