<?xml version="1.0" encoding="UTF-8"?>
<svg id="tavern" xmlns="http://www.w3.org/2000/svg" xmlns:xlink="http://www.w3.org/1999/xlink" viewBox="0 0 1920 1080">
  <defs>
    <style>
      .cls-1 {
        fill: #3d3d3f;
      }

      .cls-2 {
        fill: #422a2a;
      }

      .cls-3 {
        fill: #9e9292;
      }

      .cls-4 {
        fill: #5b5149;
      }

      .cls-5 {
        fill: url(#linear-gradient-2);
      }

      .cls-6 {
        fill: #8e8a8a;
      }

      .cls-7 {
        fill: #3f342b;
      }

      .cls-8 {
        fill: #422d2a;
      }

      .cls-9 {
        opacity: .43;
      }

      .cls-9, .cls-10 {
        fill: #4c2d26;
      }

      .cls-11 {
        fill: #514b46;
      }

      .cls-12 {
        fill: #565251;
      }

      .cls-13 {
        fill: #564a42;
      }

      .cls-14 {
        fill: #3a3434;
      }

      .cls-15 {
        fill: #514747;
      }

      .cls-16 {
        fill: #332b2a;
      }

      .cls-17 {
        fill: #49392e;
      }

      .cls-18 {
        fill: #8c8585;
      }

      .cls-19 {
        fill: #2c2d38;
      }

      .cls-20 {
        fill: #4c423b;
      }

      .cls-21 {
        fill: #24252d;
      }

      .cls-22 {
        fill: none;
        stroke: #494040;
        stroke-miterlimit: 10;
      }

      .cls-23 {
        fill: #493c33;
      }

      .cls-24 {
        fill: url(#linear-gradient);
      }

      .cls-25 {
        fill: #4c4645;
      }

      .cls-26 {
        fill: #3a2928;
      }

      .cls-27 {
        fill: #42403c;
      }
    </style>
    <linearGradient id="linear-gradient" x1="953.46" y1="1102.04" x2="953.46" y2="-20.61" gradientUnits="userSpaceOnUse">
      <stop offset="0" stop-color="#6b6974"/>
      <stop offset=".71" stop-color="#706d74"/>
      <stop offset="1" stop-color="#757074"/>
    </linearGradient>
    <linearGradient id="linear-gradient-2" x1="574.66" y1="1144.24" x2="574.66" y2="-60.96" gradientUnits="userSpaceOnUse">
      <stop offset="0" stop-color="#3e3434"/>
      <stop offset=".28" stop-color="#433634"/>
      <stop offset=".64" stop-color="#543c34"/>
      <stop offset="1" stop-color="#6b4636"/>
    </linearGradient>
  </defs>
  <rect class="cls-24" x="-26.11" y="-20.61" width="1959.13" height="1122.65"/>
  <rect class="cls-9" x="-59.13" y="-50.87" width="2016.92" height="1180.43"/>
  <rect class="cls-5" x="-37.11" y="-60.96" width="1223.54" height="1205.2" rx="12" ry="12"/>
  <polygon class="cls-8" points="1232.49 528.28 -77.04 536.74 -75.1 499.39 1183.78 499.39 1232.49 528.28"/>
  <rect class="cls-10" x="-75.28" y="525.99" width="1309.76" height="32.25" rx="7.28" ry="7.28"/>
  <g>
    <path class="cls-16" d="M893.45,381.64c-5.55,5.29-8.19,14.45-8.47,22.12-1.03,27.82.54,72.51.84,99.59.25,21.92,56.74,24.67,57.55.87,1.22-35.65,0-68.97,0-102.91,0-19.87-18.23-17.64-17.43-54.11.61-27.82-1.82-25.09-17.43-23.85-11.62.92,2.14,41.89-15.07,58.3Z"/>
    <path class="cls-14" d="M917.46,322.63l3.44.1s-.26,49.45,4.92,57.48,7.47,4.36,7.47,23.16v101.12h-5.04v-100.89s2.29-11.01-4.59-17.66c-9.99-9.65-6.65-46.8-6.19-63.31Z"/>
    <path class="cls-25" d="M885.12,400.35q29.15,3.71,58.25.96l.54,74.9s-24.16,13.15-58.79,0c0,0-2.06-76.13,0-75.86Z"/>
    <path class="cls-15" d="M903.4,333.18s7.85-3,22.42,0c0,0-.35-6.3-1.3-6.89s-18.77-.44-19.72,0-1.26,4.57-1.4,6.89Z"/>
    <path class="cls-12" d="M933.28,402.25v77.73l-5.04,1.05v-78.34l5.04-.43Z"/>
  </g>
  <g>
    <path class="cls-26" d="M1022.3,424.66c-5.44,3.66-8.02,10-8.3,15.31-1.01,19.26.52,50.19.82,68.94.24,15.17,55.59,17.08,56.39.6,1.2-24.67,0-47.74,0-71.23,0-13.76-17.86-12.21-17.07-37.46.6-19.26-1.79-17.37-17.07-16.51-11.38.64,2.1,29-14.76,40.35Z"/>
    <path class="cls-2" d="M1045.83,383.81l3.37.07s-.25,34.23,4.82,39.78c5.07,5.56,7.31,3.02,7.31,16.03v69.99h-4.94v-69.84s2.25-7.62-4.49-12.22c-9.78-6.68-6.52-32.39-6.07-43.82Z"/>
    <path class="cls-11" d="M1014.14,437.61q28.56,2.57,57.07.66l.53,51.85s-23.67,9.1-57.6,0c0,0-2.02-52.69,0-52.51Z"/>
    <path class="cls-11" d="M1032.05,391.12s7.69-2.08,21.97,0c0,0-.35-4.36-1.28-4.77s-18.39-.3-19.32,0-1.23,3.16-1.37,4.77Z"/>
    <path class="cls-4" d="M1061.33,438.92v53.8l-4.94.72v-54.23l4.94-.3Z"/>
  </g>
  <g>
    <path class="cls-7" d="M959.2,400.58s-20.79,17.43-20.79,64.82c0,26.24,13.22,39.92,25.02,46.91s25.74,7.01,37.2.24c10.8-6.37,18.18-18.71,18.18-42.38,0-45.13-27.75-71.19-27.75-71.19,0,0-8.33-10.55-5.27-30.73s-21.71-17.96-21.1-6.65,4.28,31.34-5.5,38.98Z"/>
    <path class="cls-23" d="M978.23,353.5l2.37,42.9s8.41,10.95,18.95,52.03c2.92,11.37-3.12,50.72-8.47,62.34l6.8-3.02s3.52-.7,3.52-21.03,2.45-36.26,2.45-36.26c0,0-8.53-42.42-20.64-55.07l-1.49-40.04s-1.96-1.54-3.48-1.85Z"/>
    <path class="cls-20" d="M945.82,467.91c-1.79-10.82-.06-21.93,4.44-31.93,5.14-11.43,14.22-25.3,27.97-25.3,12.79,0,22.29,11.66,28.28,22.23,6.65,11.76,9.72,25.28,8.03,38.68-1.7,13.45-11.6,29.22-31.72,28.97-27.86-.34-34.22-15.89-37-32.65Z"/>
    <path class="cls-17" d="M962.17,397.32s15.52-3.77,28.9,1.66c0,0-6.91-10.01-5.71-27.13,0,0-2.9-4.45-19.96-1.38,0,0,2.76,20.41-3.23,26.85Z"/>
    <path class="cls-13" d="M989.01,413.12s20.03,27.82,6.19,85.42l6-3.25c8.75-53.43-7.04-78.14-7.04-78.14l-5.15-4.03Z"/>
  </g>
  <g>
    <path class="cls-26" d="M120.08,418.57c-6,3.66-8.85,10-9.15,15.31-1.11,19.26.58,50.19.91,68.94.27,15.17,61.3,17.08,62.18.6,1.32-24.67,0-47.74,0-71.23,0-13.76-19.69-12.21-18.83-37.46.66-19.26-1.97-17.37-18.83-16.51-12.55.64,2.31,29-16.28,40.35Z"/>
    <path class="cls-2" d="M146.03,377.73l3.72.07s-.28,34.23,5.31,39.78c5.59,5.56,8.07,3.02,8.07,16.03v69.99h-5.45v-69.84s2.48-7.62-4.95-12.22c-10.79-6.68-7.18-32.39-6.69-43.82Z"/>
    <path class="cls-11" d="M111.09,431.52q31.5,2.57,62.93.66l.59,51.85s-26.1,9.1-63.52,0c0,0-2.23-52.69,0-52.51Z"/>
    <path class="cls-11" d="M130.83,385.03s8.48-2.08,24.22,0c0,0-.38-4.36-1.41-4.77s-20.28-.3-21.31,0-1.36,3.16-1.51,4.77Z"/>
    <path class="cls-4" d="M163.12,432.84v53.8l-5.45.72v-54.23l5.45-.3Z"/>
  </g>
  <g>
    <path class="cls-7" d="M250.56,399.27s-22.93,17.43-22.93,64.82c0,26.24,14.58,39.92,27.59,46.91s28.38,7.01,41.02.24c11.91-6.37,20.05-18.71,20.05-42.38,0-45.13-30.6-71.19-30.6-71.19,0,0-9.19-10.55-5.82-30.73s-23.94-17.96-23.26-6.65,4.72,31.34-6.07,38.98Z"/>
    <path class="cls-23" d="M271.54,352.18l2.61,42.9s9.27,10.95,20.89,52.03c3.22,11.37-3.45,50.72-9.35,62.34l7.5-3.02s3.88-.7,3.88-21.03,2.7-36.26,2.7-36.26c0,0-9.4-42.42-22.76-55.07l-1.64-40.04s-2.16-1.54-3.84-1.85Z"/>
    <path class="cls-20" d="M235.81,466.59c-1.98-10.82-.07-21.93,4.9-31.93,5.67-11.43,15.68-25.3,30.84-25.3,14.11,0,24.58,11.66,31.18,22.23,7.34,11.76,10.72,25.28,8.86,38.68-1.87,13.45-12.79,29.22-34.98,28.97-30.72-.34-37.74-15.89-40.8-32.65Z"/>
    <path class="cls-17" d="M253.84,396s17.12-3.77,31.87,1.66c0,0-7.62-10.01-6.3-27.13,0,0-3.2-4.45-22.01-1.38,0,0,3.04,20.41-3.56,26.85Z"/>
    <path class="cls-13" d="M283.43,411.8s22.08,27.82,6.83,85.42l6.62-3.25c9.65-53.43-7.76-78.14-7.76-78.14l-5.68-4.03Z"/>
  </g>
  <g>
    <path class="cls-7" d="M333.98,185.84s-24.21,16.03-24.21,59.61c0,24.14,15.4,36.72,29.13,43.14,13.34,6.24,29.97,6.45,43.32.22,12.58-5.86,21.17-17.2,21.17-38.97,0-41.5-32.31-65.47-32.31-65.47,0,0-9.7-9.7-6.14-28.26s-25.28-16.52-24.56-6.12,4.98,28.82-6.41,35.85Z"/>
    <path class="cls-23" d="M356.15,142.54l2.76,39.45s9.79,10.07,22.06,47.85c3.4,10.46-3.64,46.65-9.87,57.33l7.92-2.78s4.09-.64,4.09-19.34,2.85-33.35,2.85-33.35c0,0-9.93-39.01-24.04-50.65l-1.73-36.82s-2.28-1.42-4.05-1.7Z"/>
    <path class="cls-20" d="M318.41,247.76c-2.09-9.95-.07-20.17,5.17-29.37,5.99-10.51,16.56-23.27,32.57-23.27,14.9,0,25.96,10.73,32.92,20.44,7.75,10.81,11.32,23.25,9.35,35.58s-13.51,26.87-36.94,26.64c-32.44-.32-39.85-14.62-43.08-30.03Z"/>
    <path class="cls-17" d="M337.45,182.84s18.07-3.46,33.65,1.53c0,0-8.05-9.2-6.65-24.95,0,0-3.38-4.09-23.24-1.27,0,0,3.21,18.77-3.76,24.7Z"/>
    <path class="cls-13" d="M368.69,197.37s23.32,25.59,7.21,78.56l6.99-2.99c10.19-49.14-8.2-71.86-8.2-71.86l-6-3.7Z"/>
  </g>
  <g>
    <path class="cls-21" d="M763.91,169.07s-20.95,18.09-20.95,67.3c0,27.25,13.32,41.45,25.21,48.7s25.93,7.28,37.49.25c10.88-6.62,18.32-19.42,18.32-44,0-46.85-27.96-73.92-27.96-73.92,0,0-8.4-10.95-5.31-31.9,3.08-20.95-21.87-18.65-21.26-6.9s4.31,32.54-5.55,40.47Z"/>
    <path class="cls-19" d="M783.09,120.18l2.39,44.54s8.47,11.37,19.09,54.02c2.94,11.81-3.15,52.66-8.54,64.72l6.85-3.13s3.54-.73,3.54-21.83,2.47-37.65,2.47-37.65c0,0-8.59-44.05-20.8-57.18l-1.5-41.57s-1.98-1.6-3.51-1.92Z"/>
    <path class="cls-1" d="M750.43,238.97c-1.8-11.24-.06-22.77,4.48-33.16,5.18-11.87,14.33-26.27,28.18-26.27,12.89,0,22.46,12.11,28.49,23.08,6.71,12.21,9.8,26.25,8.09,40.17-1.71,13.97-11.69,30.34-31.97,30.08-28.07-.36-34.49-16.5-37.28-33.9Z"/>
    <path class="cls-1" d="M766.91,165.68s15.64-3.91,29.12,1.73c0,0-6.97-10.39-5.76-28.17,0,0-2.92-4.62-20.11-1.44,0,0,2.78,21.2-3.25,27.88Z"/>
    <path class="cls-27" d="M793.95,182.09s20.18,28.89,6.24,88.69l6.05-3.37c8.82-55.47-7.09-81.13-7.09-81.13l-5.19-4.18Z"/>
  </g>
  <g>
    <path class="cls-16" d="M178.05,380.32c-6.12,5.29-9.03,14.45-9.34,22.12-1.13,27.82.59,72.51.93,99.59.27,21.92,62.57,24.67,63.47.87,1.35-35.65,0-68.97,0-102.91,0-19.87-20.1-17.64-19.22-54.11.67-27.82-2.01-25.09-19.22-23.85-12.81.92,2.36,41.89-16.62,58.3Z"/>
    <path class="cls-14" d="M204.53,321.31l3.79.1s-.28,49.45,5.42,57.48,8.23,4.36,8.23,23.16v101.12h-5.56v-100.89s2.53-11.01-5.06-17.66c-11.01-9.65-7.33-46.8-6.83-63.31Z"/>
    <path class="cls-25" d="M168.87,399.03q32.15,3.71,64.23.96l.6,74.9s-26.64,13.15-64.83,0c0,0-2.28-76.13,0-75.86Z"/>
    <path class="cls-15" d="M189.02,331.86s8.65-3,24.72,0c0,0-.39-6.3-1.44-6.89s-20.7-.44-21.75,0-1.39,4.57-1.54,6.89Z"/>
    <path class="cls-12" d="M221.98,400.93v77.73l-5.56,1.05v-78.34l5.56-.43Z"/>
  </g>
  <g>
    <path class="cls-26" d="M382.71,204.36c-6.08,3.64-8.96,9.94-9.27,15.22-1.13,19.15.59,49.9.92,68.55.27,15.09,62.11,16.98,63,.6,1.34-24.53,0-47.47,0-70.83,0-13.68-19.95-12.14-19.08-37.24.67-19.15-2-17.27-19.08-16.42-12.72.64,2.34,28.83-16.5,40.12Z"/>
    <path class="cls-2" d="M409,163.75l3.77.07s-.28,34.04,5.38,39.56,8.17,3,8.17,15.94v69.6h-5.52v-69.44s2.51-7.58-5.02-12.15c-10.93-6.64-7.28-32.21-6.78-43.58Z"/>
    <path class="cls-11" d="M373.6,217.24c34.42-3.36,33.36-3.78,63.77.66l.59,51.55s-29.95-5.92-64.36,0c0,0-2.25-51.99,0-52.21Z"/>
    <path class="cls-11" d="M393.6,171.01s8.59-2.07,24.54,0c0,0-.39-4.33-1.43-4.74s-20.55-.3-21.59,0-1.38,3.14-1.53,4.74Z"/>
    <path class="cls-4" d="M426.32,216.32v51.54l-5.52-.48v-51.77l5.52.71Z"/>
  </g>
  <g>
    <path class="cls-26" d="M63.97,177.77c-6.76,4.4-9.97,12.01-10.32,18.38-1.25,23.13.65,60.27,1.02,82.78.3,18.22,69.11,20.51,70.11.72,1.49-29.63,0-57.33,0-85.54,0-16.52-22.2-14.66-21.23-44.98.74-23.13-2.22-20.86-21.23-19.83-14.15.77,2.61,34.82-18.36,48.46Z"/>
    <path class="cls-2" d="M93.22,128.73l4.19.09s-.31,41.11,5.99,47.78,9.09,3.62,9.09,19.25v84.05h-6.14v-83.86s2.79-9.15-5.59-14.68c-12.16-8.02-8.1-38.9-7.54-52.63Z"/>
    <path class="cls-11" d="M53.82,193.33c38.3-4.06,37.12-4.57,70.96.8l.66,62.26s-33.32-7.15-71.62,0c0,0-2.5-62.79,0-63.06Z"/>
    <path class="cls-11" d="M76.08,137.5s9.56-2.5,27.31,0c0,0-.43-5.23-1.59-5.73s-22.87-.36-24.02,0-1.53,3.79-1.7,5.73Z"/>
    <path class="cls-4" d="M112.49,192.22v62.24l-6.14-.58v-62.52l6.14.86Z"/>
  </g>
  <g>
    <path class="cls-16" d="M22.68,160.93c-5.55,5.29-8.19,14.45-8.47,22.12-1.03,27.82.54,72.51.84,99.59.25,21.92,56.74,24.67,57.55.87,1.22-35.65,0-68.97,0-102.91,0-19.87-18.23-17.64-17.43-54.11.61-27.82-1.82-25.09-17.43-23.85-11.62.92,2.14,41.89-15.07,58.3Z"/>
    <path class="cls-14" d="M46.69,101.93l3.44.1s-.26,49.45,4.92,57.48,7.47,4.36,7.47,23.16v101.12h-5.04v-100.89s2.29-11.01-4.59-17.66c-9.99-9.65-6.65-46.8-6.19-63.31Z"/>
    <path class="cls-25" d="M14.35,179.64c31.44-4.89,30.47-5.5,58.25.96l.54,74.9s-27.36-8.6-58.79,0c0,0-2.06-75.54,0-75.86Z"/>
    <path class="cls-15" d="M32.63,112.48s7.85-3,22.42,0c0,0-.35-6.3-1.3-6.89s-18.77-.44-19.72,0-1.26,4.57-1.4,6.89Z"/>
    <path class="cls-12" d="M62.51,178.31v74.88l-5.04-.7v-75.22l5.04,1.03Z"/>
  </g>
  <g>
    <path class="cls-22" d="M842.02,283.01s-4.63-26.88,2.16-21.71,12.75,21.71,12.75,21.71h52.28s3.21-21.8,9.63-23.41,4.36,23.41,4.36,23.41h4.26s6.95-47.94-1.64-53.45-89.6-11.92-92.08,0,3.47,53.28,3.47,53.28l4.82.17Z"/>
    <g>
      <circle class="cls-6" cx="884.2" cy="230.55" r="53.45"/>
      <circle class="cls-3" cx="884.2" cy="230.55" r="41.53"/>
      <circle class="cls-18" cx="884.2" cy="230.55" r="40.28"/>
    </g>
    <path class="cls-22" d="M842.02,283.01s-4.63-26.88,2.16-21.71,12.75,21.71,12.75,21.71h52.28s3.21-21.8,9.63-23.41,4.36,23.41,4.36,23.41h4.26l-90.25-.17,4.82.17Z"/>
  </g>
  <g>
    <path class="cls-22" d="M946.83,283.01s-4.63-26.88,2.16-21.71,12.75,21.71,12.75,21.71h52.28s3.21-21.8,9.63-23.41,4.36,23.41,4.36,23.41h4.26s6.95-47.94-1.64-53.45-89.6-11.92-92.08,0,3.47,53.28,3.47,53.28l4.82.17Z"/>
    <g>
      <circle class="cls-6" cx="989.01" cy="230.55" r="53.45"/>
      <circle class="cls-3" cx="989.01" cy="230.55" r="41.53"/>
      <circle class="cls-18" cx="989.01" cy="230.55" r="40.28"/>
    </g>
    <path class="cls-22" d="M946.83,283.01s-4.63-26.88,2.16-21.71,12.75,21.71,12.75,21.71h52.28s3.21-21.8,9.63-23.41,4.36,23.41,4.36,23.41h4.26l-90.25-.17,4.82.17Z"/>
  </g>
  <g>
    <path class="cls-22" d="M1051.63,283.01s-4.63-26.88,2.16-21.71,12.75,21.71,12.75,21.71h52.28s3.21-21.8,9.63-23.41,4.36,23.41,4.36,23.41h4.26s6.95-47.94-1.64-53.45-89.6-11.92-92.08,0,3.47,53.28,3.47,53.28l4.82.17Z"/>
    <g>
      <circle class="cls-6" cx="1093.82" cy="230.55" r="53.45"/>
      <circle class="cls-3" cx="1093.82" cy="230.55" r="41.53"/>
      <circle class="cls-18" cx="1093.82" cy="230.55" r="40.28"/>
    </g>
    <path class="cls-22" d="M1051.63,283.01s-4.63-26.88,2.16-21.71,12.75,21.71,12.75,21.71h52.28s3.21-21.8,9.63-23.41,4.36,23.41,4.36,23.41h4.26l-90.25-.17,4.82.17Z"/>
  </g>
  <g>
    <path class="cls-16" d="M813.68,196.02c-3.97,3.78-5.85,10.32-6.05,15.79-.73,19.87.38,51.78.6,71.12.18,15.66,40.52,17.62,41.1.62.87-25.46,0-49.25,0-73.49,0-14.19-13.02-12.6-12.45-38.65.44-19.87-1.3-17.92-12.45-17.04-8.3.66,1.53,29.92-10.76,41.63Z"/>
    <path class="cls-14" d="M830.83,153.88l2.46.07s-.18,35.32,3.51,41.05,5.33,3.11,5.33,16.54v72.22h-3.6v-72.05s1.64-7.86-3.28-12.61c-7.13-6.89-4.75-33.42-4.42-45.22Z"/>
    <path class="cls-25" d="M807.74,209.38c22.45-3.49,21.76-3.93,41.6.68l.39,53.49s-19.54-6.14-41.99,0c0,0-1.47-53.95,0-54.18Z"/>
    <path class="cls-15" d="M820.79,161.41s5.6-2.14,16.01,0c0,0-.25-4.5-.93-4.92s-13.41-.31-14.08,0-.9,3.26-1,4.92Z"/>
    <path class="cls-12" d="M842.13,208.43v53.47l-3.6-.5v-53.72l3.6.74Z"/>
  </g>
  <g>
    <path class="cls-26" d="M1141.31,199.02c-3.85,3.67-5.67,10.01-5.87,15.32-.71,19.27.37,50.22.58,68.98.17,15.18,39.3,17.09,39.86.6.85-24.69,0-47.77,0-71.28,0-13.76-12.63-12.22-12.07-37.48.42-19.27-1.26-17.38-12.07-16.52-8.05.64,1.48,29.02-10.44,40.38Z"/>
    <path class="cls-2" d="M1157.94,158.15l2.38.07s-.18,34.25,3.41,39.81,5.17,3.02,5.17,16.04v70.04h-3.49v-69.88s1.59-7.62-3.18-12.23c-6.92-6.69-4.61-32.41-4.29-43.85Z"/>
    <path class="cls-11" d="M1135.54,211.98c21.78-3.38,21.1-3.81,40.35.66l.38,51.88s-18.95-5.95-40.72,0c0,0-1.42-52.32,0-52.55Z"/>
    <path class="cls-15" d="M1148.2,165.46s5.43-2.08,15.53,0c0,0-.25-4.36-.9-4.77s-13-.3-13.66,0-.87,3.16-.97,4.77Z"/>
    <path class="cls-4" d="M1168.9,211.05v51.86l-3.49-.48v-52.1l3.49.72Z"/>
  </g>
  <rect class="cls-10" x="-75.28" y="282.84" width="1309.76" height="32.25" rx="7.28" ry="7.28"/>
</svg>