<?xml version="1.0" encoding="UTF-8"?>
<svg id="sketches" xmlns="http://www.w3.org/2000/svg" viewBox="0 0 333.86 301.3">
  <defs>
    <style>
      .cls-1 {
        opacity: .9;
      }

      .cls-2 {
        fill: #aaa7a7;
      }

      .cls-3 {
        fill: #b7b7b7;
      }

      .cls-4 {
        fill: #7a7a7a;
      }

      .cls-5 {
        fill: #c6c2c2;
      }
    </style>
  </defs>
  <g id="eggman">
    <path class="cls-4" d="M169.5,152.31c-.94-.17-1.88-.35-2.81-.53-10.33-2.04-20.56-4.6-31.01-6.03-10.09-1.38-20.9-2.96-29.17,4.23-2.24,1.95-3.06,4.23-2.91,6.42,1.66-2.44,4.42-4.15,8.29-4.11,10.84.11,21.47,1.99,31.93,4.78,7.8,2.08,15.45,4.33,23.35,5.67,12.47-1.82,25.46-2.79,37.16-7.44-11.62,1-23.92,1.54-34.83-3Z"/>
    <path class="cls-2" d="M14.92,192.75c4.52,7.1,7.43,15.96,10.14,22.56.8,1.96,1.85,4.28,2.97,6.76.07-.04.15-.08.22-.13,18.63-12.18,39.88-19.64,62.12-21.2,1.65-.12,3.05-.6,4.23-1.31-17.05,22.41-31.02,49.12-26.1,77.63,5.68.93,11.35,1.91,17.02,2.93.2-.4.37-.82.5-1.25,2.3.89,5.02.86,7.37-.08-.74-3.36-.79-6.82-.33-10.27-2.52-11.77,3.89-23.77,10.47-33.13,13.8-19.63,31.51-38.08,51.36-51.52,12.33-8.34,26.09-14.96,40.43-19.05,2.53-.72,5.09-1.34,7.67-1.86-1.11-3.13-3.81-5.74-8.09-6.05-17.06-1.25-34.34,1.55-50.45,7.19-14.55,5.1-28.94,11.57-39.57,22.9.02-4.51-2.85-8.86-8.66-8.54-20.06,1.12-41.02,2.82-59.46,10.45-.3-.61-.63-1.21-1.02-1.82-5.5-8.71-15.7-9.31-24.9-7.84.18.62.35,1.24.52,1.85,1.12,3.98,2.29,7.91,3.54,11.8Z"/>
    <path class="cls-2" d="M176.82,19.07c-16.64-4.52-34.24-4.18-50.63,1.25-2.92.97-4.72,2.92-5.59,5.18-5,2.74-9.18,6.69-12.15,11.82-4.37,7.56-6.41,16.54-8.39,24.95-2.13,9.05-4.23,18.13-5.34,27.37-2.51,20.83,4.56,41.19,3.88,62-.33,9.9,16.14,12.58,17.68,2.39,1.93-12.76,5.33-25.19,9.12-37.51,3.46-11.24,6.88-22.55,11.19-33.5,3.78-9.6,8.61-19.29,15.3-27.21,7.47-8.83,16.8-15.13,27.08-20.28,7.06-3.54,5.01-14.51-2.15-16.45Z"/>
    <path class="cls-2" d="M129.67,167.69c-.7-3.18-3.33-4.95-4.21-7.79-.76-2.44.97-5.81,1.89-7.96,1.91-4.47,1.33-9.65-3.23-12.31-3.79-2.21-10.39-1.27-12.31,3.23-1.01,2.35-2.02,4.72-2.83,7.14-5.31.14-10.65,4.5-8.82,11.14,2.42,8.76,9.44,15.8,18.44,17.62,6.86,1.39,12.61-4.11,11.07-11.07Z"/>
    <path class="cls-4" d="M65.62,83.63v-3.37c0-2.5.88-4.73,2.31-6.48-1.59-.31-3.22-.25-4.7.26.91,3.16,1.59,6.37,2.38,9.6Z"/>
    <path class="cls-4" d="M142.16,89.61c5.49-10.51,17.5-14.6,28.32-17.22,5.6-1.36,11.26-2.29,16.96-2.88-1.44-1.48-3.53-2.38-6.3-2.22-17.87,1.07-44.06,0-49.71,21.92-1.56,6.05,2.76,10.22,7.53,11.03.47-3.65,1.42-7.23,3.2-10.63Z"/>
    <path class="cls-4" d="M11.72,182.13c8.33-5.17,21.24,4.08,14.78,13.95-1.52,2.33-3.34,4.43-5.28,6.43,7.4-5.52,17.94-8.62,27.83-10.12,2.8-1.04,5.67-1.91,8.59-2.62,8.46-2.4,17.36-3.54,26.31-3.68,2.42-.19,4.82-.37,7.2-.55,1.42-.11,2.84-.2,4.26-.29-12.9,10-22.45,24.02-30.61,38.01-3.44,5.89-6.37,12.09-8.42,18.46-.35,11.84,2.73,23.08,10.26,33.64.36.51.74,1.05,1.11,1.57.26.04.53.09.79.13.06-.74.12-1.48.21-2.22-.11-1.52-.18-3.07-.2-4.66-.17-13.35,1.91-26.95,6.99-39.33,5.29-12.88,13.57-24.33,23.33-34.21,4.92-4.97,9.64-11.54,15.42-16.2-2.88-2.32-5.15-5.04-6.83-8.09-2.15-1-3.69-2.71-4.62-4.71-.37-.35-.74-.71-1.11-1.08-2.4-2.43-3.24-5.2-3.02-7.82-1.24-.22-2.49-.4-3.75-.52-1.67-1.84-4.11-2.97-6.79-3.18-25.58-1.96-52.15-2.99-75.2,10.18-2.79,1.59-4.1,3.95-4.34,6.39.99,3.13,1.89,6.27,2.76,9.34.11.39.23.78.34,1.18Z"/>
    <path class="cls-5" d="M281.12,112.75c-2.78.98-5.63,1.74-8.56,2.23-13.33,2.23-26.35-3.86-39.77-3.46-2.17.06-4.42.17-6.68.38,6.14-30.63-1.89-62.38-21.38-86.9-3.03-3.81-9.57-3.16-12.73,0-.91.91-1.55,1.9-1.97,2.94-30.05,3.8-49.11,27.8-60.28,54.18-5.93,14.01-12.29,29.15-14.82,44.21-2.39,14.29-1.63,34.05,9.92,44.55,4.31,3.92,10.12,2.93,13.22-.87,1.47,0,2.95-.38,4.29-1.23,6.61-4.18,13.55-7.29,21.14-9.18,7.06-1.76,14.12-1.89,21.33-2.2,2.89.23,5.82.4,8.78.53-2.36.86-4.68,1.85-6.97,3-8.21,4.12-15.23,10.28-22.31,16.04-6.76,5.5-13.89,10.51-20.99,15.55-14.87,10.55-29.68,21.38-40.79,36.03-11.33,14.94-17.87,33.09-15.5,51.73,6,1.08,11.98,2.2,17.97,3.32.29-1.22.33-2.56.04-4.01-.38-1.92-.62-3.8-.73-5.66,3.82,1.24,8.24.38,10.26-3.89,2.21-4.65,4.97-9.02,8.29-12.9,9.53,2.83,19.05,5.67,28.57,8.5,2.6.77,4.93.35,6.78-.79,2.15.01,4.32-.67,5.85-1.89,3.65-2.91,4.36-7.48,2.32-11.61-2.11-4.26-5.01-8.03-8.45-11.24-.4-.71-.91-1.42-1.56-2.11-.94-.99-1.85-2.02-2.73-3.07-.53-1.27-1.06-2.53-1.57-3.81-.91-2.27-1.79-4.55-2.64-6.84-.19-.51-.58-1.29-.94-2.09,3.29-2.8,6.7-5.47,10.22-7.99,5.15-1.95,10.63-3.29,15.79-4.87,8.2-2.51,16.42-4.96,24.71-7.19,31.17-8.36,64.06-13.39,95.74-4.74,4.36,1.19,7.74-.73,9.59-3.68-10.09-7.9-22.31-13.75-28.28-25.35-11.85-5.71-24.75-10.45-37.81-12.93,26.45-4.48,51.58-14.99,69.09-35.25,3.58-2.76,6.97-5.89,10.15-9.46,2.1-2.36,2.75-4.97,2.4-7.34-12.2,6.04-25.71,10.47-39,9.36ZM156.45,96.42c-.32.75-.65,1.49-.97,2.24.69-1.71,1.41-3.42,2.15-5.11-.39.96-.78,1.92-1.18,2.87Z"/>
    <path class="cls-5" d="M35.52,239.51c3.33,6.2,6.78,12.35,10.26,18.46,3.18,5.59,6.25,11.28,9.29,17,2.21.32,4.42.65,6.63.99,2.43-1.87,3.75-4.97,2.45-8.94-6.47-19.71,3.4-38.66,16.75-52.87,7.19-7.66-1.81-18.57-10.91-14.14-7.8,3.8-16.59,5.13-24.89,7.45-7.06,1.97-13.74,4.69-19.62,8.85,2.03,4.79,5.18,11.3,7.62,17.15.83,2,1.63,4.01,2.41,6.02Z"/>
    <path class="cls-4" d="M198.54,30.31c-.9-1.58-2.34-2.81-4-3.57-.78-3.19-3.44-6.12-6.49-6.82-3.08-.7-5.77,0-7.84,1.69-4.01-3.21-8.34-6.03-12.91-8.39-.48-.25-.94-.22-1.32-.04-2.27-1.47-4.68-2.72-7.26-3.64-2.96-1.06-6.05-1.61-9.17-1.82-.58-.05-1.16-.09-1.74-.11-1.18-.04-2.36-.01-3.54.06-3.59.09-7.2.39-10.73.97-4.3.71-8.52,2.05-12.2,4.41-6.21-4.1-16.05-3.24-19.2,4.22-2.38,5.65-1.35,13.4.75,18.98.92,2.43,2.71,4.58,4.96,5.75-4.92,6.66-9.01,13.96-12.18,21.84-7.52,18.68-7.79,39.09-6.55,58.95-4.29-3.11-9.21-4.52-14.32-5.01.38-1.96.4-3.99-.14-5.94-.57-2.09-1.87-3.99-3.5-5.44.06-.24.12-.48.18-.72-3.36-1.81-5.72-5.53-5.72-9.37v-1.49c-1.34,2.47-3.62,4.43-6.42,5.2-5.53,1.52-11.34-1.89-12.93-7.34-.86-2.95-1.43-5.96-2.1-8.96-.58-2.61-1.37-5.42-2.25-7.13-.54,1.08-.87,2.28-.91,3.58-.2,6.98.71,14.13,3.03,20.74.41,1.16.85,2.41,1.35,3.68.13.47.26.93.43,1.39,1.27,3.57,3.06,7.04,5.81,9.7,1.06,1.02,2.24,1.75,3.44,2.36-.16.31-.31.62-.43.93-1.2,3.05-1.55,6.25-.57,9.42,1.15,3.69,4.39,6.79,8.24,7.32,2.85.39,5.88-.25,8.77-.21,5.63.08,7.32,1.95,11.13,5.67,2.1,2.05,4.43,3.72,7.18,4.76,1.17.44,2.25.73,3.47,1.03,2.28.56,2.68,1.76.54-1.11,2.66,3.57,6.99,5.52,11.18,3.78.65-2.82,2.74-4.98,5.32-6.22.65-2.27.48-4.73-.95-6.65-1.09-1.47-2.23-2.66-3.47-3.64.38-.45.71-.93.99-1.44-1.94-2.72-3.35-5.58-4.28-8.52-1.39-1.64-2.25-3.86-2.18-6.67.59-24.49,3.01-48.98,15.44-70.63,5.77-10.04,13.78-19.76,23.49-26.59-2.62-1.19-5.75-1.29-8.15.4-1.79,1.26-3.52,2.58-5.21,3.93.9-3.07.16-6.12-1.87-8.48.19-.11.39-.21.59-.32.61.62,1.82.8,2.51-.12.9-1.2,2.43-1.68,3.82-2.02,1.76-.42,3.58-.65,5.36-.94,2.5-.4,5.03-.78,7.57-.98.09.77.73,1.25,1.48,1.32,6.62.64,13.12,2.44,19.12,5.3.78.37,1.52.05,1.94-.5,2.98,2.18,5.63,4.84,7.81,7.81,1.13,1.54,3.73.05,2.59-1.51-.39-.53-.8-1.02-1.21-1.53.99.71,1.96,1.44,2.91,2.19-.48.72-.89,1.51-1.23,2.37-2.96,7.6.75,16.91,7.45,21.19,4.54,2.89,10.59,3.43,14.57-.76,4.5-4.74,2.35-11.35-.47-16.33Z"/>
    <path class="cls-4" d="M229.35,116.62c-4.68.5-9.08,1.67-13.16,3.63-6.78,2.78-13.08,6.11-19.11,10.31-6.07,4.23-13.79,3.7-20.96,4.4-2.94.29-4.91,2.02-5.92,4.17-9.88-3.18-19.12-7.84-29.88-7.13-1.76.12-3.18.76-4.25,1.71-4.12-2.35-8.37-4.32-13.31-4.51-6.57-.25-12.23,2.45-15.9,7.9-5.05,7.49,7.08,14.51,12.09,7.07.35-.52.83-.84,1.36-1.04.16,3.34,2.39,6.4,6.71,6.06,3.79-.29,7.37.39,10.85,1.51.2.09.4.18.59.27.69,1.7,2.03,3.18,4.14,4,15.97,6.2,37,9.54,53.57,3.56,8.12-2.93,12.32-8.05,16.15-15.52,3.4-6.63,9.41-11.59,17.02-12.39,3.79-.4,6.96-2.93,7-7,.04-3.48-3.24-7.4-7-7Z"/>
    <path class="cls-2" d="M272.03,121.17c-1.45-2.55-3.91-3.49-6.45-3.3-.64-.41-1.39-.73-2.27-.94-14.64-3.41-28.58.95-41.95,6.84-13.07,5.76-25.98,13.05-40.75,11.61-8.96-.87-8.9,13.14,0,14,6.98.68,13.73-.32,20.29-2.2-.66.74-1.32,1.49-1.96,2.24-5.84,6.8,4.02,16.75,9.9,9.9,7.38-8.6,15.75-17.07,26.33-21.64,11.02-4.76,23.29-2.15,34.35-6.94,3.5-1.51,4.22-6.58,2.51-9.58Z"/>
    <path class="cls-5" d="M278.57,253.41c4.62-7.39,9.62-14.53,15.26-21.04,3.8-6.06,7.62-12.11,11.49-18.12,2.22-4.23,4.41-8.48,6.58-12.73-5.72-1.39-12.69-.05-18.09.28-9.75.59-19.49,1.4-29.2,2.45-19.29,2.08-38.48,5.03-57.51,8.82-4.84-1.76-11.63,3.99-8.77,10.39,6.49,14.55,23.09,20.32,37.58,23.19,14.1,2.79,28.41,4.74,42.67,6.77Z"/>
    <path class="cls-5" d="M207.55,289.01c-9.39.77-18.77,1.68-28.13,2.74,23.08,1.37,46.16,2.9,69.24,4.29,5.09-7.02,10.55-13.81,16.17-20.48.79-.94,1.59-1.86,2.39-2.79.5-.89,1.01-1.79,1.52-2.69-6.46-.07-12.75-.91-18.97-2.75-6.44-1.9-12.24-5.49-18.68-7.3-6.2-1.74-12.92-1.28-19.29-1.33-6.88-.05-13.75-.11-20.63-.16-7.82-.06-9.61,11.82-1.86,13.75,11.76,2.93,23.62,5.44,35.57,7.45,2.66.45,5.32.86,7.98,1.26-7.24,2.83-14.5,5.42-22.11,7.26-1.06.26-2.13.5-3.2.74Z"/>
    <path class="cls-3" d="M117.03,286.07c.72.93,1.52,1.8,2.37,2.63,18.18,2.2,36.43,3.87,54.68,5.42,12.25,1.04,24.49,2.13,36.71,3.28,4.64-1.72,8.55-5.5,9.66-10.37,1.9-8.35-2.51-16.57-10.83-19.07-6.65-1.99-13.57-2.98-20.51-3.46.72-1.76,1.14-3.63,1.11-5.41.27.18.53.36.8.53,6.85,4.29,14.94,6.6,22.76,8.35,16.16,3.61,32.34,7.13,48.52,10.63.84-1.01,1.69-2.03,2.54-3.04.79-.94,1.6-1.87,2.4-2.8,4.14-7.35,8.4-14.81,13.03-22.01l-21.88-4.75c-11-2.39-22.01-4.78-33.01-7.17-4.31-.94-8.64-1.85-12.85-3.22-.16-.05-1.24-.43-1.87-.65-.57-.27-1.73-.8-1.89-.89-.95-.51-1.87-1.06-2.78-1.65-.37-.24-.47-.27-.47-.24-.11-.12-.32-.33-.72-.73-2-1.97-3.64-3.86-5.16-5.72.79-.05,1.58-.12,2.39-.26,17.2-2.87,33.46-4.86,51.26-6.22,8.76-.67,17.56-1.26,26.36-1.41,4.17-.07,8.34.02,12.5.36,2.25.18,5.74.98,9.34,2.09,5.33-8.35,10.71-16.67,16.08-24.99-1.88-2.15-4.39-3.82-7.41-4.77-18.23-5.71-38.13-3.71-56.87-2.27-19.93,1.53-39.79,4.04-59.5,7.33-4.73.79-8.47,4.72-10.25,9.32-8.51-4.18-18.62-4.21-27.23.63-5.58,3.14-8.3,9.7-7.42,15.81-.87,7.06,1.35,14.55,6.53,19.54,1.65,1.59,3.57,2.98,5.66,4.15-2.29.69-4.38,1.8-6.24,3.67-1.86,1.86-3.38,4.55-4.1,7.3-10.22-1.92-20.64-1.42-30.63,1.51-7.77,2.28-13.43,11.01-10.83,19.07,1.32,4.09,4.16,7.49,7.75,9.49Z"/>
    <path class="cls-5" d="M253.55,289.51c2.95-3.82,5.98-7.59,9.08-11.31-10.02-2.11-19.99-4.48-29.89-7.14-13.85-3.73-27.55-7.99-41.07-12.78-14.14-5.01-27.94-11.25-42.65-14.47-8.15-1.78-11.64,10.75-3.46,12.54,14.7,3.22,28.51,9.46,42.65,14.47,14.11,5,28.41,9.42,42.88,13.26,7.45,1.98,14.94,3.78,22.46,5.44Z"/>
    <path class="cls-5" d="M288.03,239.55c-20.58-3.07-40.96-7.37-61.02-12.87,2.16-.65,4.46-.93,6.67-1.14,5.78-.53,11.59-.81,17.38-1.06,11.92-.52,23.85-.59,35.78-.29,1.79.05,3.2-.52,4.22-1.43,1.34.16,2.69.31,4.03.49,3.51.47,6.47-3.32,6.5-6.5.04-3.89-3.03-6.04-6.5-6.5-16.31-2.17-32.78-2.66-49.18-1.29-7.96.67-15.9,1.72-23.75,3.18-6.45,1.2-13.16,2.53-17.63,7.77-.28.33-.51.67-.72,1.01-5.06,1.68-6.21,10.52.34,12.58,24.79,7.81,50.09,13.71,75.7,17.84,2.58-4.04,5.29-7.99,8.16-11.8Z"/>
  </g>
  <g>
    <path class="cls-1" d="M152.12,93.55c-1.73-4.37-4.9-9.52-10.12-9.84-2.41-.15-4.93.85-6.17,3-.32.56.54,1.06.86.5,1.03-1.78,3.07-2.57,5.06-2.52,2.26.06,4.23,1.3,5.73,2.92,0,0,.01.02.02.02-.1-.06-.22-.07-.34-.06-.07-.13-.19-.23-.31-.27-.29-.08-.51.1-.62.35-.96,2.31-1.93,4.61-2.89,6.92-.1.25.11.55.35.62.29.08.51-.1.62-.35.8-1.92,1.6-3.84,2.41-5.76-.12,1.9-.72,3.74-1.77,5.35-.35.54.51,1.04.86.5,1.33-2.04,2.01-4.47,1.93-6.9,0-.06-.02-.1-.04-.15,1.53,1.74,2.66,3.87,3.5,6.02.94,2.41,1.55,4.96,1.78,7.54.26,2.91.07,5.84-.59,8.68-.15.63.82.89.96.27,1.29-5.58.88-11.52-1.23-16.85Z"/>
    <path class="cls-1" d="M88.71,126.1c-10.46-7.43-25.07-7.82-33.6-18.17-2.09-2.54-3.54-5.61-3.82-8.92-.05-.64-1.05-.64-1,0,.52,6.12,4.58,11.02,9.41,14.47,5.44,3.88,11.89,5.78,18.06,8.16,3.65,1.42,7.24,3.04,10.44,5.32.53.37,1.03-.49.5-.86Z"/>
    <path class="cls-1" d="M59.63,118.76c-6.15-6.39-10.52-14.37-12.6-23-.15-.63-1.11-.36-.96.27,1.65,6.84,4.72,13.33,8.99,18.93,1.2,1.58,2.49,3.08,3.87,4.51.45.46,1.15-.24.71-.71Z"/>
    <path class="cls-1" d="M58.47,121.52c-3.09.1-6.16-.33-9.1-1.26-.3-.09-.65.16-.63.48.32,5.2,3.91,9.89,8.85,11.56.61.21.87-.76.27-.96-4.28-1.44-7.5-5.45-8.05-9.92,2.81.81,5.74,1.2,8.67,1.1.64-.02.64-1.02,0-1Z"/>
    <path class="cls-1" d="M114.19,137.85c-.48,0-.95-.03-1.41-.07-2.36,1.22-4.43,2.96-6.01,5.11-.38.52.49,1.02.86.5,1.91-2.59,4.6-4.51,7.59-5.6-.34.02-.68.05-1.04.05Z"/>
    <path class="cls-1" d="M210.65,140.59c-3.12,3.19-7.24,4.97-11.62,5.81-2.81.54-5.66.73-8.51.86-.64.03-.64,1.03,0,1,5.21-.23,10.58-.7,15.34-2.99,2.42-1.16,4.54-2.83,6.28-4.84-.49.08-.99.14-1.49.16Z"/>
    <path class="cls-1" d="M201.3,137.38c-5.72,2.19-12,3.02-18.16,2.81-5.47-.19-10.9-1.16-16.12-2.77-6.17-1.9-12.05-4.9-18.53-5.64-5.86-.67-11.64.64-17.23,2.4-2.07-1.2-4.2-2.27-6.44-3.08-.92-.33-1.86-.61-2.82-.83.1-1.94-1.74-3.32-3.52-3.52-2.27-.26-4.27,1.3-5.94,2.61-.51.4.21,1.1.71.71,1.38-1.09,3.03-2.4,4.9-2.35,1.31.04,2.78.96,2.85,2.35-1.61-.28-3.24-.36-4.86-.14-2.77.37-5.35,1.57-7.38,3.5-2.14,2.03-3.61,4.76-4.04,7.68-.09.63.87.9.96.27.77-5.24,4.89-9.48,10.11-10.39,4.94-.86,9.85,1.16,14.16,3.61-1.33.43-2.65.88-3.95,1.33-.27.09-.36.33-.33.56-.32-.09-.65-.18-.98-.26-1.1-.26-2.21-.39-3.33-.43-.62.42-1.3.78-2.03,1.08,1.72-.17,3.47-.07,5.18.33,5.94,1.42,10.71,5.56,16.09,8.21,2.94,1.45,6.11,2.44,9.41,2.23.64-.04.64-1.04,0-1-6.32.41-11.67-3.65-16.84-6.69-2.1-1.23-4.28-2.39-6.58-3.18,1.49-.51,3-1.02,4.51-1.51.42.25.83.5,1.23.75,3.05,1.9,6,3.97,8.98,5.98.54.36,1.04-.51.5-.86-3.09-2.08-6.18-4.32-9.41-6.28,4.62-1.4,9.36-2.45,14.21-2.23,6.78.3,12.91,3.42,19.26,5.47,10.22,3.3,21.6,4.34,32.05,1.48,1.47-.4,2.9-.92,4.31-1.49-.32-.22-.63-.46-.92-.71Z"/>
    <path class="cls-1" d="M151.92,86.8c-1.66-2-3.65-3.73-5.87-5.08-.55-.34-1.05.53-.5.86,7.59,4.64,11.93,13.68,11.49,22.49-.13,2.52-.67,4.99-1.6,7.33-.24.6.73.86.96.27,3.43-8.59,1.38-18.82-4.47-25.86Z"/>
    <path class="cls-1" d="M189.14,159.07c-8.89,1.12-17.84,1.7-26.8,1.71-.64,0-.64,1,0,1,8.96-.01,17.91-.59,26.8-1.71.63-.08.64-1.08,0-1Z"/>
    <path class="cls-1" d="M145.6,158.18c-5.58-7.25-14.76-11.34-23.87-10.99-2.58.1-5.14.56-7.58,1.39-.61.21-.35,1.17.27.96,8.36-2.83,17.88-1.14,25,3.99,2.01,1.45,3.82,3.19,5.33,5.15.39.5,1.26,0,.86-.5Z"/>
    <path class="cls-1" d="M80.39,145.74c.12-.85.45-1.67.99-2.39.39-.51-.48-1.01-.86-.5-.64.85-.99,1.8-1.12,2.79.33.03.66.06.99.11Z"/>
    <path class="cls-1" d="M134.27,154.44c-1.55,1.68-3.38,2.91-5.36,3.84.33-.57.63-1.15.88-1.77.24-.6-.73-.86-.96-.27-.4.98-.93,1.89-1.57,2.72-.21.08-.43.15-.64.22-.52-.88-1.07-1.73-1.7-2.54-.71-.9-1.6-2.17-2.86-2.24-1.28-.08-1.91,1.2-2.49,2.12-.72,1.12-1.44,2.24-2.15,3.36-.69-1.19-1.37-2.39-2.06-3.58-.32-.56-.64-1.12-.96-1.67.86-.1,1.71-.21,2.57-.33,4.21.04,8.42-.41,12.54-1.36.63-.14.36-1.11-.27-.96-2.05.47-4.13.8-6.22,1.03.13-.32-.13-.81-.58-.71-1.85.41-3.72.74-5.6,1.01-1.17-.01-2.34-.07-3.51-.16-.08-.05-.15-.11-.24-.15-.35-.14-.66-.1-.94.04-.89-.09-1.78-.19-2.67-.33-.63-.1-.9.87-.27.96.66.1,1.32.18,1.98.26,0,0,0,0,0,0-1.81.14-3.63.19-5.45.2-.98-.51-2.14-.58-3.09-.03-.69-.02-1.38-.06-2.07-.1,1.69-2.2,3.24-4.51,4.62-6.92.32-.56-.54-1.06-.86-.5-.33.58-.68,1.16-1.03,1.73-.18-.16-.45-.21-.66.01-1.66,1.74-3.22,3.57-4.68,5.48-.33-.03-.67-.05-1-.09,1.22-1.42,2.45-2.84,3.67-4.26.64-.51,1.17-1.11,1.55-1.8.49-.57.97-1.13,1.46-1.7.42-.49-.29-1.2-.71-.71-.03.03-.06.07-.08.1.03-.63-.96-.62-1,.01-.04.63-.22,1.2-.49,1.71-.47.55-.95,1.1-1.42,1.65-1.07.82-2.45,1.3-3.76,1.42-3.38.31-6.2-1.76-8.3-4.22-1.32-1.55-2.41-3.28-3.48-5.01-.34-.55-1.2-.04-.86.5,2.07,3.33,4.35,6.93,7.95,8.77,2.07,1.06,4.53,1.25,6.72.53-.82.96-1.65,1.91-2.47,2.87-.03,0-.06,0-.08,0-.25-.03-.4.1-.45.28.06.05.11.1.17.15l-.18.2c-.26-.1-.52-.21-.79-.31-.24-.41-.49-.82-.74-1.22.04-.05.06-.1.09-.16.1-.31.21-.61.31-.92.04-.12.01-.28-.05-.39-.06-.1-.18-.2-.3-.23-.13-.03-.27-.02-.39.05-.11.07-.19.17-.23.3-.04.11-.07.22-.11.33,0,0,0-.01-.01-.02-.37-.52-1.24-.02-.86.5.29.41.56.82.83,1.24-.85-.28-1.71-.53-2.57-.74-.62-.15-.89.81-.27.96,1.24.31,2.45.69,3.64,1.12.71,1.25,1.33,2.55,1.94,3.86l-.76,1.15c-.15.23-.05.55.18.68.24.14.54.05.68-.18.13-.2.26-.39.39-.59.24.52.47,1.04.71,1.55-.13-.01-.26.03-.37.16-1.91,2.29-4.04,4.39-6.34,6.28-.21.17-.18.53,0,.71.21.21.5.17.71,0,2.31-1.89,4.43-3.99,6.34-6.28.02-.02.02-.05.04-.07.17.36.34.73.52,1.09-.11.04-.2.1-.25.21-1.01,2.15-2.21,4.21-3.6,6.14-.38.52.49,1.02.86.5,1.33-1.85,2.49-3.82,3.47-5.89.03.06.06.11.09.17-.13.23-.28.45-.43.66-.16.22-.04.56.18.68.25.15.52.04.68-.18.04-.06.08-.12.12-.18.11.2.22.41.34.6-.17,0-.33.08-.42.23-.58,1.06-1.15,2.12-1.73,3.19-.12.23-.06.56.18.68.23.12.55.07.68-.18.58-1.06,1.15-2.12,1.73-3.18.63,1.02,1.33,1.99,2.08,2.92-.09.47-.17.95-.23,1.43-.03.21.12.37.3.45-.04.14-.08.29-.13.43-.02.04-.03.08-.05.12,0,.01-.04.1-.05.11-.04.09-.08.17-.12.25-.12.23-.07.55.18.68.23.12.56.07.68-.18.3-.61.5-1.25.6-1.92.45.49.93.97,1.42,1.43-.2.03-.37.15-.42.36-.07.31-.18.62-.3.91-.09.22-.2.43-.32.63-.13.23-.06.56.18.68.24.13.54.06.68-.18.32-.55.57-1.16.72-1.78,0-.04,0-.08,0-.12.03.03.06.06.1.09.23.2.47.38.7.57-.19.46.39.85.75.59.85.64,1.75,1.21,2.67,1.74-.04.4-.08.81-.14,1.21-.04.27.07.54.35.62.23.06.58-.08.62-.35.05-.31.08-.63.11-.95.16.09.32.19.48.27.09.04.17.05.25.05.02.08.05.16.12.23.18.17.53.22.71,0,.69-.86,1.17-1.88,1.34-2.98.04-.26-.07-.55-.35-.62-.24-.05-.57.07-.61.35-.04.25-.09.49-.16.73-.03.12-.07.24-.12.36-.02.06-.04.12-.07.18-.02.05-.02.06,0,.01,0,.02-.02.04-.03.06-.1.22-.21.44-.33.64-.04.07-.09.14-.13.21-.03-.03-.07-.07-.12-.09-.3-.15-.58-.33-.88-.49.12-1.5.15-3.01.05-4.53-.04-.64-1.04-.64-1,0,.08,1.33.08,2.66,0,3.98-.77-.47-1.53-.97-2.25-1.52.92-1.81,1.46-3.79,1.53-5.83.02-.64-.98-.64-1,0-.06,1.8-.52,3.56-1.31,5.17-.97-.8-1.89-1.64-2.74-2.56.14-.38-.25-.79-.6-.67-.01-.02-.03-.03-.04-.05.3-1.54.74-3.05,1.29-4.51.11-.29-.06-.5-.3-.58.21-.72.42-1.44.63-2.16.06-.2,0-.36-.13-.47.49.03.98.07,1.47.1.32.27.66.54.97.82.48.43,1.19-.27.71-.71,0,0-.02-.02-.03-.02,2.7.12,5.4.15,8.09.09,3.38-.08,6.81-.38,10.08-1.27.19-.05.38-.11.57-.17.04.08.09.15.13.23.15.28.57.33.79.1.28-.29.54-.6.79-.91,2.68-1.02,5.14-2.53,7.1-4.66.44-.47-.27-1.18-.71-.71ZM110.48,154.98c-.72,1.04-1.43,2.07-2.15,3.11-.28-1.07-.67-2.12-1.38-2.95,1.18-.03,2.35-.08,3.52-.15ZM101.47,151.09c-.59.85-1.2,1.69-1.83,2.51-.08.11-.13.23-.14.35-.13,0-.25-.02-.38-.03.76-.96,1.54-1.9,2.35-2.83ZM98.4,154.87c1.07.09,2.15.16,3.22.21-.39.54-.67,1.17-.92,1.8-.89-.52-1.8-1-2.73-1.44.14-.19.28-.38.42-.56ZM95.31,155.59s.08-.05.11-.09c.02-.02.04-.05.06-.07.6.25,1.19.52,1.77.79-.31.47-.62.94-.93,1.41-.33-.69-.67-1.37-1.02-2.05ZM102.36,160.36c.42.39.83.77,1.24,1.14.02,0,.04,0,.06,0-.08.06-.15.13-.18.25l-1.25,4.27c-.08.26.05.45.23.54-.16.57-.31,1.14-.44,1.72-.71-.92-1.34-1.89-1.91-2.89.02,0,.04.02.06.03.29.08.51-.1.61-.35.75-1.79,1.17-3.7,1.26-5.64.03-.64-.97-.64-1,0-.08,1.85-.5,3.67-1.22,5.38,0,.02,0,.03,0,.05-.11-.19-.22-.39-.32-.58.77-1.48,1.13-3.18,1-4.84-.05-.64-1.05-.64-1,0,.1,1.28-.11,2.55-.58,3.72-.73-1.47-1.4-2.96-2.09-4.45.45-.68.9-1.37,1.35-2.05.73.36,1.45.74,2.16,1.15-.06.16-.12.31-.2.47.25.24.5.47.74.69.12-.22.22-.44.32-.67,1.12.69,2.2,1.45,3.24,2.25-.69-.05-1.38-.12-2.07-.19ZM116.75,160.79c-3.52.15-7.07.06-10.59-.12-1.45-1.2-2.98-2.31-4.59-3.3.31-.76.69-1.71,1.36-2.24.88.02,1.76.03,2.64.03,1.25.88,1.75,2.88,2.06,4.27.1.45.69.45.91.12.75-1.09,1.51-2.18,2.26-3.27.32-.46.64-.92.96-1.38.52-.04,1.04-.09,1.56-.14,1.2,1.99,2.32,4.03,3.47,6.04,0,0-.02,0-.03,0ZM118.07,160.71c.59-.92,1.17-1.83,1.76-2.75.36-.56.71-1.12,1.07-1.67.28-.43.6-.96,1.18-.88.98.13,1.86,1.56,2.39,2.28.43.57.81,1.18,1.18,1.79-2.45.71-5.04,1.06-7.58,1.23Z"/>
    <path class="cls-1" d="M209.6,38.22c-.13-.13-.15-.2,0-.18,0-.04,0-.07,0-.11-1.35-.63-2.61-1.4-3.73-2.29-.41.04-.66.66-.21.92,1.21.72,2.32,1.56,3.36,2.48.21.48.42.96.63,1.44-.05-.75-.07-1.51-.05-2.27Z"/>
    <path class="cls-1" d="M234.6,112.47c-2.94-.29-5.9-.17-8.81.31,2.03-4.59,3.48-10.23.26-14.61-.59-.8-1.33-1.49-2.17-2.04,0-.01,0-.03,0-.04.21-.35.43-.69.64-1.05.2-.34-.04-.66-.34-.73.5-3.06.81-6.16.89-9.26.1-3.77-.12-7.55-.64-11.29-.52-3.74-1.41-7.38-2.45-11,.24.38.5.75.74,1.14-.8-3.76-1.91-7.45-3.28-11.04-.18-1.03-.32-2.06-.41-3.1-.05-.54-.78-.62-.96-.23-.67-1.52-1.38-3.01-2.15-4.48-.72-2.19-1.58-4.34-2.6-6.43-2.31-4.73-5.42-9.08-9.35-12.59-.48-.43-1.19.28-.71.71,3.81,3.4,6.78,7.56,9.04,12.1-1.41-2.17-2.92-4.27-4.54-6.28-2.29-2.86-4.8-5.54-7.48-8.04-.02-.31-.04-.63-.04-.94-.95-.55-1.9-1.09-2.86-1.61-1.58-1.32-3.21-2.59-4.9-3.78-.72-.5-1.44-.99-2.18-1.47-.54-.35-1.04.51-.5.86,1.03.68,2.04,1.39,3.04,2.11-2.88-1.31-5.86-2.37-8.97-3-2.12-.43-4.29-.64-6.45-.59-.64.01-.64,1.01,0,1,6.93-.14,13.42,2.47,19.42,5.72,3.04,2.55,5.87,5.34,8.47,8.35,3.78,4.37,7.03,9.19,9.71,14.31.56,1.7,1.05,3.43,1.45,5.17.48,2.08.85,4.18,1.14,6.3.4.45.78.91,1.16,1.37-.31-2.6-.74-5.18-1.32-7.72.36.84.7,1.68,1.03,2.53.47,2.67,1.19,5.28,1.95,7.89,1.07,3.68,2.12,7.35,2.75,11.14,1.24,7.41,1.22,15.05-.03,22.46-.06.34-.14.68-.2,1.02-.92-.44-1.91-.7-2.94-.71-.85-.01-1.69.17-2.5.47-.11-.33-.66-.5-.93-.12-.2.28-.4.55-.6.83-1.03.57-1.98,1.29-2.8,2.02-2.04,1.79-3.54,4.16-3.79,6.91-.06.64.94.64,1,0,.2-2.17,1.35-4.1,2.87-5.62.3-.3.63-.6.98-.89l-2.53,3.5c-.38.52.49,1.02.86.5,1.37-1.89,2.73-3.79,4.1-5.68.64-.34,1.3-.6,1.98-.76-1.9,2.21-3.68,4.52-5.31,6.92-.36.53.5,1.03.86.5,1.61-2.36,3.35-4.63,5.22-6.79.23-.26.12-.58-.09-.75,1.08-.13,2.15.1,3.13.56-1.15,1.89-2.34,3.76-3.57,5.6-.19,0-.39.11-.48.33-.14.35-.27.71-.41,1.06-.22.56.61.83.91.39,1.16-1.71,2.28-3.45,3.38-5.2-.12.5-.24,1-.37,1.5-.77,1.2-1.55,2.41-2.32,3.61-.35.54.52,1.05.86.5.17-.27.35-.54.52-.81-.34,1.11-.71,2.22-1.12,3.31-.22.6.74.86.96.27.79-2.13,1.45-4.29,2.02-6.49.56-.87,1.12-1.75,1.68-2.62.17.17.34.34.49.52,1.48,1.82,1.98,4.27,1.88,6.56,0,.09-.02.17-.02.26-.19-.23-.62-.31-.85.02l-4.7,6.85c-.37.53.5,1.03.86.5,1.55-2.25,3.09-4.51,4.64-6.76-.27,2.47-1.2,4.83-2.25,7.08-2.81.57-5.56,1.48-8.14,2.74-5.01,2.45-9.42,5.93-14.05,9-5,3.31-10.51,6.24-16.68,5.98-.64-.03-.64.97,0,1,3.52.15,6.87-.71,10.02-2.09-.72.52-1.46,1.02-2.23,1.47-5.14,3.05-11.42,4.64-17.27,2.85-.62-.19-.88.78-.27.96,4.97,1.52,10.28.7,14.97-1.37,2.15-.95,4.15-2.18,6.02-3.58-.05-.28-.08-.56-.12-.84,1.38-.66,2.72-1.41,4.02-2.22,4.85-2.99,9.29-6.61,14.28-9.36,2.97-1.63,6.14-2.82,9.41-3.52.22.18.55.2.71-.13,0,0,0,0,0,0,2.91-.56,5.89-.74,8.89-.49.27.02.55.06.82.09-.14-.34-.27-.68-.39-1.04Z"/>
    <path class="cls-1" d="M109.83,112.73l-.8.53c.36-.59.7-1.21.96-1.86.1-.25-.11-.55-.35-.62-.29-.08-.51.1-.62.35-.59,1.44-1.49,2.76-2.61,3.84l-2.9,1.91-3.11,2.05c-.74.49-1.53.95-2.2,1.55.26-.82.51-1.64.72-2.47.16-.62-.81-.89-.96-.27-.55,2.2-1.31,4.33-2.23,6.38-.32-.28-.65-.56-.99-.82v-8.89c0-.64-1-.64-1,0v8.19c-1.21-.77-2.51-1.38-3.88-1.81-2.18-.67-4.47-.84-6.72-.49-.63.1-.36,1.06.27.96,3.6-.56,7.36.45,10.34,2.54v.92c0,.64,1,.64,1,0v-.15c.19.16.37.32.55.49-1.05,2.16-2.29,4.22-3.74,6.15-.07.09-.09.18-.09.26-3.02-1.5-6.03-2.99-9.05-4.49-2.02-1-4.55-2.79-6.9-1.91-1.04.39-1.89,1.14-2.74,1.85l-3.22,2.66c-2.4,1.98-4.8,3.97-7.2,5.95-.5.41.21,1.11.71.71.01-.01.03-.02.04-.03-.37.43-.68.92-.9,1.48-.23.6.74.86.96.27.56-1.47,1.98-2.33,3.37-2.9,1.66-.68,3.46-1.15,5.21-1.52,3.45-.72,7.47-.61,9.72,2.51.39.54.69,1.15.88,1.78-2.72-.45-5.34-1.42-7.7-2.85-.55-.33-1.05.53-.5.86,2.57,1.56,5.42,2.57,8.39,3.02.04.63-.05,1.26-.33,1.86-.26.58.6,1.09.86.5.33-.74.46-1.5.44-2.25.56-.02.53-.93-.07-.99-.01,0-.03,0-.04,0-.45-2.15-2.12-4.08-4.13-5.01-2-.92-4.27-.95-6.41-.64-2.14.31-4.32.89-6.34,1.67-.62.24-1.22.52-1.78.86,1.43-1.18,2.86-2.36,4.29-3.55,1.01-.84,2.02-1.67,3.03-2.51.93-.77,1.84-1.62,2.85-2.29,1.11-.73,2.21-.82,3.45-.36,1.18.43,2.31,1.09,3.43,1.65,2.34,1.16,4.68,2.32,7.02,3.48l8.02,3.98c.57.29,1.08-.58.5-.86-1.7-.84-3.39-1.68-5.09-2.52.06-.03.11-.08.16-.15,1.38-1.85,2.59-3.83,3.61-5.9.83.9,1.55,1.89,2.11,2.98.98,1.92,1.53,4.02,2.2,6.06.72,2.2,1.59,4.36,3.11,6.13.42.49,1.12-.22.71-.71-2.95-3.43-3.18-8.26-5.24-12.17-.64-1.21-1.47-2.31-2.42-3.28.14-.3.29-.6.42-.9.49,2.39,3.24,4.69,5.04,5.9,2.01,1.36,4.23,2.37,6.56,3.03.62.18.89-.79.27-.96-1.87-.53-3.66-1.29-5.33-2.3-1.59-.96-3.23-2.12-4.39-3.59-1.12-1.42-1.75-3.33-.25-4.72.72-.67,1.62-1.16,2.43-1.7.93-.61,1.86-1.23,2.8-1.84.43-.28.85-.56,1.28-.84.13.05.28.05.4-.04.45-.33.87-.68,1.27-1.06l3.37-2.22c.54-.35.03-1.22-.5-.86Z"/>
    <path class="cls-1" d="M290.57,131.7c-4.68,2.55-9.35,5.11-14.03,7.66-2.34,1.28-4.68,2.55-7.02,3.83-2.21,1.21-4.4,2.48-6.69,3.5-4.68,2.1-9.77,2.29-14.82,2.42-5.22.14-10.44.05-15.65-.26-1.58-.09-3.16-.22-4.74-.35,1.04-.72,2.04-1.48,3.01-2.3.49-.42-.22-1.12-.71-.71-1.23,1.04-2.54,1.98-3.89,2.85-3.46-.33-6.92-.75-10.35-1.27,1.8-3.41,3.37-6.94,4.67-10.57-.44.23-.88.48-1.31.73-1.24,3.33-2.73,6.57-4.41,9.71-.43.02-.64.53-.42.8-.78,1.43-1.59,2.84-2.46,4.22-.49.78-1,1.55-1.52,2.31-.13.02-.26.05-.38.06-2.06.27-4.14.37-6.21.31-.15,0-.27.05-.35.13-.04-.13-.09-.27-.16-.39-1.09-1.89-4.09-1.87-5.96-2.15-5.65-.85-11.29-1.69-16.94-2.54-3.19-.48-6.38-.96-9.57-1.43-.63-.09-.9.87-.27.96l14.85,2.22c2.46.37,4.91.73,7.36,1.1,2.4.36,4.83.64,7.22,1.09.87.17,2.11.45,2.5,1.36.26.61.06,1.75-.77,1.73-.64-.01-.64.99,0,1,1.2.03,1.85-1.07,1.86-2.16.06.03.13.05.22.05,1.95.06,3.9-.04,5.83-.27-.8,1.14-1.64,2.25-2.5,3.34-1.63.05-3.25.06-4.86.05-3.4-.03-6.79-.18-10.18-.36-.64-.03-.64.97,0,1,2.79.15,5.62.27,8.46.34,2.33-.08,4.67-.08,7.02.02,0,0,.01-.01.02-.02,7.1-.22,14.15-1.16,20.76-3.77,3.11-1.23,6.06-2.82,8.75-4.81.51-.38.01-1.25-.5-.86-8.16,6.04-18.21,7.96-28.18,8.38.87-1.15,1.73-2.31,2.54-3.5,5.14-.79,10.13-2.55,14.61-5.22.31-.19.62-.38.92-.58,6.6.62,13.24.88,19.87.78,4.99-.08,10.26-.06,15.02-1.73,2.32-.82,4.49-1.99,6.64-3.17,2.38-1.3,4.75-2.59,7.13-3.89,5.37-2.93,10.74-5.87,16.11-8.8.56-.31.06-1.17-.5-.86ZM211.53,154.05c1.3-1.96,2.51-3.98,3.63-6.04,3.14.48,6.29.88,9.45,1.2-4.03,2.37-8.48,4.02-13.09,4.84Z"/>
    <path class="cls-1" d="M182.07,162.75c-5-.33-10.02-.41-15.03-.17-10.19.49-20.37,2.3-29.92,5.97-1.15.44-2.28.91-3.4,1.4-.59.26-.08,1.12.5.86,9.29-4.04,19.3-6.23,29.38-7.02,5.67-.44,11.37-.44,17.06-.13.45-.34.92-.65,1.41-.92Z"/>
    <path class="cls-1" d="M239.56,119.04c-1.68.14-3.36.23-5.02.3-5.72.25-11.47.44-16.93,2.34-5.28,1.83-10.17,5.17-12.26,10.54-.23.6.73.86.96.27,1.9-4.87,6.39-7.97,11.15-9.7,5.51-2,11.29-2.19,17.08-2.45,2.17-.09,4.36-.21,6.54-.44-.52-.25-1.03-.53-1.52-.86Z"/>
    <path class="cls-1" d="M277.02,115.63c-4.42,3.89-10.62,4.61-16.28,4.62-6.76.01-13.51-.8-20.08-2.38-3.73-.9-7.4-2.06-10.97-3.45-.6-.23-.86.73-.27.96,6.54,2.54,13.38,4.27,20.34,5.17,3.49.45,7.02.68,10.54.7,2.9.01,5.83-.15,8.68-.76,2.28-.48,4.49-1.29,6.47-2.5-3.99,4.91-10.97,6.37-17.11,6.39-2.41,0-4.82-.16-7.23-.32-.64-.04-.64.96,0,1,7.86.54,16.56.93,23.03-4.36,1.5-1.23,2.76-2.74,3.66-4.46.27-.51-.36-.98-.79-.61Z"/>
    <path class="cls-1" d="M76.75,118.85c-3.8-4.63-5.38-10.57-6.19-16.4-.94-6.78-1.2-13.71-1.32-20.55-.07-4.06-.04-8.13.1-12.19.01-.3-.21-.46-.44-.48.12-.49.24-.97.37-1.46.17-.62-.79-.89-.96-.27-2.15,7.82-3.18,15.95-3.03,24.06.04,2.34.19,4.68.42,7.02.06.63,1.07.64,1,0-.81-8.02-.49-16.15,1.01-24.08.18-.94.38-1.88.59-2.81-.17,6.8-.07,13.61.34,20.4.38,6.24.78,12.66,2.72,18.65,1.04,3.19,2.55,6.21,4.69,8.81.41.5,1.11-.21.71-.71Z"/>
    <path class="cls-1" d="M65.76,102.3c-9.91-7.91-17.22-18.92-20.77-31.1-1-3.43-1.7-6.94-2.08-10.49-.07-.63-1.07-.64-1,0,1.36,12.84,6.81,25.11,15.31,34.81,2.38,2.72,5,5.22,7.83,7.48.5.4,1.21-.31.71-.71Z"/>
    <path class="cls-1" d="M49.73,97.79c-4.5-7.74-7.34-16.4-8.28-25.3-.07-.63-1.07-.64-1,0,.96,9.09,3.83,17.91,8.42,25.8.32.56,1.19.05.86-.5Z"/>
    <path class="cls-1" d="M324.78,89.4c-.47.7-.91,1.41-1.33,2.13-1.73,2.55-3.84,4.83-6.27,6.72-8.3,5.4-17.21,9.83-26.55,13.12-3.07,1.08-6.18,2.04-9.32,2.88-.62.17-.36,1.13.27.96,11.18-2.98,21.95-7.51,31.89-13.43.86-.51,1.71-1.04,2.55-1.58.09,0,.18,0,.28-.08.44-.31.88-.63,1.31-.95.52-.34,1.04-.68,1.56-1.02,0-.09,0-.18.01-.27.76-.67,1.48-1.37,2.17-2.11-1.34,3.12-2.36,6.39-3.31,9.66-3.05,5.01-6.71,9.57-11.43,13.12-5.63,4.22-12.37,6.41-19.19,7.82-7.68,1.59-15.52,2.55-23.33,3.11-8.87.63-17.78.66-26.65.09-.64-.04-.64.96,0,1,7.98.51,16,.55,23.99.09-3.35.27-6.7.55-10.05.82-8.82.72-17.64,1.44-26.47,2.15-1.12.09-2.24.18-3.35.27-.64.05-.64,1.05,0,1,8.95-.73,17.89-1.46,26.84-2.18,8.95-.73,17.89-1.46,26.84-2.18,4.07-.33,8.15-.66,12.22-.99-4.24,2.75-9.37,3.74-14.19,4.97-5.44,1.39-10.89,2.78-16.33,4.17l-9.32,2.38c-.62.16-.36,1.12.27.96,5.57-1.42,11.13-2.84,16.7-4.27,5.29-1.35,10.65-2.57,15.89-4.11,2.68-.79,5.31-1.79,7.64-3.34.33-.22.26-.63.04-.83.21-.02.42-.03.63-.05,3.93-.32,7.89-.52,11.78-1.16,3.5-.57,7.02-1.59,9.94-3.65,2.99-2.11,5.05-5.16,6.72-8.37.05-.1.1-.21.16-.32.18-.93.35-1.87.51-2.81.87-1.69,1.63-3.45,2.27-5.25.18-.49-.5-.81-.84-.49-.88.85-1.85,1.57-2.88,2.2.41-.57.8-1.15,1.19-1.73.25.2.7.18.81-.23,1.53-5.35,3.11-10.78,5.89-15.62.47-.69.92-1.4,1.33-2.13.32-.57-.5-1.03-.86-.5ZM315.11,111.46c1.21-.56,2.34-1.25,3.39-2.06-1.67,4.1-3.98,7.92-6.83,11.31-.41.49.29,1.2.71.71,1.26-1.5,2.42-3.09,3.47-4.74-1.11,2.02-2.39,3.94-4.04,5.55-2.59,2.53-5.96,3.91-9.45,4.69-3.73.83-7.57,1.03-11.37,1.34-4.39.36-8.78.71-13.17,1.07-2.65.22-5.3.43-7.95.65,5.17-.52,10.32-1.23,15.43-2.18,7-1.3,14.07-3.2,20.08-7.17,3.74-2.47,6.93-5.64,9.67-9.16.02,0,.04,0,.07-.02Z"/>
    <path class="cls-1" d="M141.29,149c-4.88-2.19-10.21-2.93-15.52-2.95-4.8-.02-9.69.87-14.47.16-2.47-.37-4.83-1.26-6.63-3.04-.46-.45-1.16.25-.71.71,3.26,3.23,8,3.67,12.36,3.56,2.44-.06,4.88-.3,7.32-.36,2.71-.07,5.44,0,8.14.35,3.09.4,6.15,1.17,9,2.45.58.26,1.09-.6.5-.86Z"/>
    <path class="cls-1" d="M61.46,267.98c-1.06-13.38,2.34-26.74,8.33-38.66,5.99-11.91,14.55-22.32,24.08-31.57,4.08-3.96,8.34-7.71,12.7-11.34.6.73,1,1.59,1.18,2.53-1.99.81-3.98,1.61-5.96,2.44-1.29.53-2.85,1.56-2.19,3.18.32.78,1.1,1.32,1.17,2.2.07.81-.39,1.6-.96,2.15-1.47,1.44-3.79,1.27-5.68,1.48-1.53.17-3.16.58-4.27,1.72-1.13,1.15-1.27,2.72-.95,4.22.33,1.57,1.12,3.1,1.08,4.74-.03,1.24-.7,2.25-1.7,2.94-2.03,1.39-4.57,1.74-6.66,3.02-.98.6-1.82,1.41-2.25,2.48-.56,1.37-.33,2.87.01,4.26.34,1.41.96,2.93.76,4.4-.27,1.93-2.33,2.61-3.81,3.46-3.08,1.77-6.39,4.61-6.08,8.55.16,1.94,1.53,3.39,1.95,5.25.43,1.93-.12,3.97-.96,5.71-1.66,3.44-4.6,6.03-6.36,9.41-.43.82-.78,1.68-1.03,2.57-.07.26.09.54.35.62,2.22.64,4.44,1.28,6.66,1.92,1.11.32,2.23.62,3.33.96.47.14.91.34.67.9-.18.44-.56.77-.91,1.07-3.07,2.65-6.17,5.26-9.26,7.88.43.07.86.13,1.29.2,1.4-1.19,2.81-2.39,4.21-3.58,1.01-.86,2.02-1.72,3.03-2.58.82-.7,1.84-1.36,2.39-2.3.42-.71.45-1.59-.25-2.13-.4-.31-.93-.42-1.41-.55-.63-.18-1.27-.37-1.9-.55-2.37-.68-4.74-1.37-7.1-2.05,1.14-3.45,3.82-6.04,5.81-9,2.02-3,3.46-6.83,1.82-10.33-.42-.89-.98-1.71-1.23-2.67-.24-.91-.17-1.86.09-2.75.56-1.92,1.96-3.41,3.56-4.54.78-.55,1.61-1.04,2.45-1.5.79-.43,1.61-.82,2.31-1.4,1.16-.98,1.51-2.4,1.33-3.86-.31-2.55-2.23-5.82-.13-8.07,1.63-1.75,4.32-2.19,6.41-3.16.81-.37,1.59-.84,2.23-1.47-3.44,5.46-6.52,11.15-9.21,17.02-2.36,5.14-4.41,10.42-6.16,15.8-.2.61.77.88.96.27,3.09-9.53,7.17-18.72,12.15-27.4,4.96-8.66,10.81-16.8,17.43-24.27,3.72-4.2,7.69-8.18,11.88-11.92.48-.43-.23-1.13-.71-.71-5.13,4.58-9.91,9.53-14.34,14.79.16-.57.17-1.18-.03-1.75-.26-.72-1.14-1.35-1.18-2.12-.04-.88,1.19-1.34,1.85-1.61,1.03-.42,2.06-.84,3.08-1.26s2.06-.84,3.08-1.26c.18-.08.4-.25.37-.48-.16-1.29-.67-2.47-1.47-3.46,1.14-.94,2.28-1.88,3.43-2.81.5-.4-.21-1.11-.71-.71-1.14.92-2.28,1.85-3.41,2.79-.41-.27-.93.2-.73.61-9,7.49-17.59,15.52-24.93,24.66-8.38,10.42-15.07,22.29-18.44,35.3-1.88,7.28-2.68,14.86-2.08,22.37.05.64,1.05.64,1,0ZM95.71,205.24c-1.73,2.35-3.39,4.76-4.98,7.22.26-.78.3-1.62.18-2.46-.24-1.6-1.03-3.1-1.15-4.72-.13-1.76.96-2.96,2.57-3.5,2.17-.73,5.08-.37,7.15-1.41-1.29,1.6-2.55,3.22-3.76,4.87Z"/>
    <path class="cls-1" d="M89.55,156.62c-4.64-.91-9.33-1.52-14.04-1.85-.12-.06-.26-.08-.4-.03-1.92-.13-3.85-.23-5.77-.26-1.52-.03-3.04-.01-4.55.02-.14-.07-.31-.08-.47,0-5.14.13-10.28.6-15.36,1.38-2.13.33-4.24.74-6.35,1.18.17-.39-.41-.86-.85-.53-.44.34-.89.67-1.33,1.01-3.82.87-7.6,1.91-11.31,3.15-4.74,1.58-9.39,3.46-13.9,5.62v1.13c3.87-1.87,7.83-3.56,11.88-5,3.72-1.33,7.52-2.44,11.35-3.4-5.97,4.51-12.07,8.85-18.3,13-.53.35-.03,1.22.5.86,6.89-4.59,13.62-9.41,20.2-14.45,1.92-.44,3.84-.84,5.78-1.18,2.52-.44,5.05-.79,7.58-1.07-.06.02-.12.05-.18.1-7.5,6.52-15.39,12.58-23.62,18.14-.53.36-.03,1.22.5.86,8.3-5.61,16.26-11.72,23.82-18.29.38-.33.03-.82-.36-.83,2.87-.31,5.75-.52,8.63-.62-6.2,5.18-12.85,9.81-19.87,13.82-.56.32-.06,1.18.5.86,7.43-4.24,14.45-9.18,20.97-14.72.7-.02,1.4-.05,2.1-.06,2.4-.01,4.81.05,7.2.19-6.56,5.35-13.61,10.02-20.72,14.61-.54.35-.04,1.21.5.86,7.45-4.81,14.83-9.71,21.67-15.38,3.83.27,7.65.72,11.43,1.38.83.14,1.65.3,2.47.46.63.12.9-.84.27-.96Z"/>
    <path class="cls-1" d="M314.26,207.67c-5.85-5.2-11.71-10.41-17.76-15.39-6-4.94-12.19-9.68-18.71-13.93-6.45-4.21-13.21-7.94-20.33-10.89-7.06-2.93-14.45-5.1-22.01-6.21-5.87-.86-11.83-1.07-17.73-.49,1.35.21,2.69.45,4.03.72,3.69-.14,7.4,0,11.08.43,7.5.86,14.87,2.82,21.91,5.53,7.13,2.75,13.91,6.31,20.37,10.38,6.54,4.12,12.76,8.74,18.76,13.6,5.97,4.84,11.75,9.91,17.49,15.01.73.65,1.46,1.3,2.19,1.95.48.43,1.19-.28.71-.71Z"/>
    <path class="cls-1" d="M190.94,208.05c-7.11-6.45-16.85-9.36-26.35-9.09-2.73.08-5.5.38-8.16.99-1.76.41-4.46,1.97-3.37,4.14.29.58,1.15.07.86-.5-.45-.9.51-1.66,1.2-2.06.92-.53,1.96-.7,2.99-.89,2.24-.41,4.51-.63,6.78-.68,4.55-.09,9.11.54,13.43,1.97,8.28,2.74,15.28,8.57,19.13,16.44,2.08,4.25,3.13,8.96,2.88,13.69-.03.64.97.64,1,0,.47-9.07-3.75-17.96-10.4-23.99Z"/>
    <path class="cls-1" d="M156.01,239.8c-3.66-2.95-6.78-6.73-8.46-11.16-1.6-4.24-1.74-8.93-.12-13.19.89-2.33,2.33-4.42,4.24-6.05.49-.42-.22-1.12-.71-.71-3.56,3.04-5.45,7.62-5.67,12.24-.24,4.82,1.47,9.55,4.22,13.46,1.63,2.31,3.59,4.35,5.79,6.12.5.4,1.21-.3.71-.71Z"/>
    <path class="cls-1" d="M202,238.7c-.14-.25-.44-.3-.68-.18-1.38.69-2.75,1.37-4.13,2.06-.24.12-.31.46-.18.68.14.25.44.3.68.18,1.38-.69,2.75-1.37,4.13-2.06.24-.12.31-.46.18-.68Z"/>
    <path class="cls-1" d="M262.37,255.54c-9.05-1.28-17.79-4.01-26.5-6.71-8.6-2.67-17.26-5.35-26.21-6.54-5-.66-10.06-.83-15.07-.27-.63.07-.64,1.07,0,1,8.94-.99,17.87.37,26.53,2.56,8.78,2.23,17.34,5.26,26.07,7.68,4.91,1.36,9.88,2.53,14.93,3.24.63.09.9-.87.27-.96Z"/>
    <path class="cls-1" d="M271.81,274.35c-11.34-3.14-22.65-6.37-33.94-9.7-11.25-3.31-22.46-6.72-33.65-10.22-6.32-1.98-12.63-3.98-18.94-6.02-.61-.2-.88.77-.27.96,11.2,3.62,22.42,7.14,33.67,10.57,11.21,3.42,22.46,6.74,33.73,9.98,6.37,1.83,12.74,3.62,19.12,5.39.62.17.89-.79.27-.96Z"/>
    <path class="cls-1" d="M152.07,260.55c-1.83-1.67-4.1-2.9-6.36-3.87-4.63-1.98-9.63-2.83-14.6-3.44-4.63-.57-10.03-1.47-14.3.97-2.11,1.21-3.59,3.2-4.63,5.35-1.11,2.3-1.86,4.77-2.29,7.28-.97,5.79-.17,11.79,2.31,17.1.27.58,1.13.08.86-.5-2.08-4.46-2.91-9.45-2.47-14.34.22-2.41.76-4.79,1.6-7.05.81-2.19,1.92-4.39,3.69-5.97,3.49-3.09,8.65-2.59,12.94-2.11,4.72.52,9.47,1.16,13.99,2.67,2.46.82,4.83,1.93,6.98,3.4,1.99,1.36,4.42,3.59,3.81,6.27-.14.63.82.89.96.27.53-2.36-.82-4.5-2.5-6.03Z"/>
    <path class="cls-1" d="M210.61,278.41c-13.28-3.37-26.99-5.05-40.69-4.97-3.91.02-7.82.2-11.73.51-.64.05-.64,1.05,0,1,13.65-1.08,27.43-.43,40.91,1.99,3.77.68,7.52,1.49,11.24,2.44.62.16.89-.81.27-.96Z"/>
    <path class="cls-1" d="M218.75,288.65c-9.25-1-18.53-1.7-27.83-2.11-9.29-.4-18.6-.5-27.9-.3-5.27.11-10.53.32-15.79.63-.64.04-.64,1.04,0,1,9.29-.54,18.59-.78,27.9-.72,9.3.06,18.6.42,27.88,1.08,5.26.37,10.5.85,15.74,1.41.64.07.63-.93,0-1Z"/>
    <path class="cls-1" d="M35.1,191.48l-15.12,13.6c.19.29.37.58.53.88,4.27-3.84,8.52-7.69,12.79-11.52.84-.75,1.67-1.5,2.51-2.26.48-.43-.23-1.14-.71-.71Z"/>
    <path class="cls-1" d="M40.91,186.8c-6.02-4.48-13.75-5.5-21.05-5.64-1.54-.03-3.11-.07-4.65.14v1.03c.82-.13,1.66-.17,2.52-.18,6.92-.05,14.35.52,20.47,4.06.76.44,1.5.93,2.2,1.46.52.38,1.02-.48.5-.86Z"/>
    <path class="cls-1" d="M193.53,71.64c-5.99-2.09-12.28-3.23-18.62-3.51-.4-.16-.8-.32-1.19-.49-.37-.17-.71.13-.76.43-2.12-.03-4.25.03-6.36.21-9.09.74-18.04,3.3-26.09,7.6-2.33,1.25-4.55,2.67-6.74,4.14-2.34,1.58-4.69,3.15-7.28,4.28-.59.26-.08,1.12.5.86,4.42-1.92,8.16-5.09,12.32-7.48,3.92-2.26,8.08-4.08,12.39-5.46,3.6-1.15,7.3-1.99,11.05-2.51v.76c0,.13.06.26.15.35.09.09.23.15.35.15.13,0,.26-.05.35-.15.09-.1.15-.22.15-.35v-.89c3.62-.45,7.27-.62,10.92-.48,5.93,2.42,12.3,3.64,18.72,3.51.58-.01.66-.8.13-.98ZM178.13,69.33c.11,0,.22.01.32.02,3.88.37,7.72,1.11,11.47,2.19-4.01-.22-7.98-.96-11.79-2.21Z"/>
    <path class="cls-1" d="M151.07,58.5c-7.18,2.35-13.65,6.76-18.47,12.59-1.37,1.65-2.6,3.41-3.68,5.26-.33.56.54,1.06.86.5,3.72-6.35,9.25-11.58,15.78-14.97,1.86-.96,3.79-1.77,5.77-2.42.61-.2.35-1.17-.27-.96Z"/>
    <path class="cls-1" d="M108.41,61.71c-.49-.41-1.2.3-.71.71,3.04,2.51,4.29,6.78,3.05,10.53-.2.61.76.88.96.27,1.33-4.05-.02-8.78-3.31-11.5Z"/>
    <path class="cls-1" d="M98.17,83.95c-.22-.12-.57-.07-.68.18-.45,1-.91,1.99-1.36,2.99-.11.24-.08.55.18.68.22.12.57.07.68-.18l1.36-2.99c.11-.24.08-.55-.18-.68Z"/>
    <path class="cls-1" d="M115.64,99.97c-1.24,2.74-2.66,5.4-4.25,7.96-.34.55.52,1.05.86.5,1.59-2.56,3.01-5.22,4.25-7.96.26-.58-.6-1.09-.86-.5Z"/>
    <path class="cls-1" d="M112.55,80.03c.01,1.46-.5,2.9-1.45,4.01-.18.2-.2.51,0,.71.18.18.53.21.71,0,1.13-1.31,1.76-2.99,1.74-4.72,0-.64-1.01-.64-1,0Z"/>
    <path class="cls-1" d="M145.15,18.28c-.17-.17-.54-.21-.71,0-1.62,2.07-3.25,4.13-4.87,6.2-.17.21-.21.5,0,.71.17.17.54.21.71,0,1.62-2.07,3.24-4.13,4.87-6.2.17-.21.21-.5,0-.71Z"/>
    <path class="cls-1" d="M147.06,18c-.27,0-.51.23-.5.5,0,.15,0,.3-.01.44,0,.04,0,.09-.01.13,0,0,0,.02,0,.03-.01.08-.03.15-.04.23-.03.15-.07.29-.11.43-.02.07-.05.15-.08.22,0,0-.04.09-.02.06.01-.03-.04.09-.04.08-.27.57-.58.98-1.06,1.38-.21.17-.18.53,0,.71.21.21.5.17.71,0,1.08-.9,1.71-2.31,1.68-3.72,0-.27-.23-.5-.5-.5Z"/>
    <path class="cls-1" d="M180.4,45c-.21-.13-.58-.07-.68.18-1.15,2.7-2.64,5.23-4.43,7.55-.17.22-.03.56.18.68.26.15.52.03.68-.18,1.79-2.32,3.27-4.86,4.43-7.55.11-.25.07-.53-.18-.68Z"/>
    <path class="cls-1" d="M178.97,49.85c-.32,1.39-.85,2.72-1.55,3.95-.15-.02-.31.02-.44.13-.57.47-.78,1.2-.67,1.91.03.19.24.34.42.36.22.03.37-.07.5-.24,1.31-1.73,2.23-3.73,2.72-5.84.14-.63-.82-.89-.96-.27Z"/>
    <path class="cls-1" d="M187.27,48.46c-.19,2.33-1.15,4.58-2.7,6.33-.42.48.28,1.19.71.71,1.73-1.96,2.78-4.43,2.99-7.04.05-.64-.95-.64-1,0Z"/>
    <path class="cls-1" d="M191.75,51.39c-.46.3-.91.62-1.37.93.41-.78.82-1.56,1.23-2.34.3-.57-.56-1.08-.86-.5-.72,1.38-1.45,2.76-2.17,4.14-1.8,1.33-3.54,2.74-5.2,4.25-.48.43.23,1.14.71.71,1.23-1.12,2.5-2.18,3.81-3.2.16.32.65.46.86.05.2-.38.4-.77.61-1.15.95-.7,1.91-1.38,2.9-2.02.54-.35.04-1.22-.5-.86Z"/>
    <path class="cls-1" d="M145.56,108.94c-.17-.17-.54-.21-.71,0-1.13,1.45-1.99,3.07-2.55,4.82-.2.61.77.88.96.27.5-1.58,1.28-3.07,2.29-4.38.17-.21.21-.5,0-.71Z"/>
    <path class="cls-1" d="M123.9,111.43c-2.41,3.57-5.08,6.95-8.01,10.12-.44.47.27,1.18.71.71,2.98-3.22,5.71-6.68,8.17-10.32.36-.54-.51-1.04-.86-.5Z"/>
    <path class="cls-1" d="M225.26,102.77c-.59,2.38-1.77,4.59-3.44,6.4-.44.47.27,1.18.71.71,1.78-1.93,3.06-4.29,3.69-6.84.16-.62-.81-.89-.96-.27Z"/>
    <path class="cls-1" d="M63.1,132.4c-.21-.06-.42-.12-.63-.2-.04-.02-.08-.03-.12-.05,0,0-.08-.03-.1-.04-.11-.05-.21-.1-.31-.15-.19-.1-.38-.22-.57-.34-.09-.06-.18-.13-.27-.19,0,0,0,0,0,0-.02-.02-.04-.03-.06-.05-.05-.04-.1-.08-.14-.12-.2-.17-.51-.21-.71,0-.17.19-.21.53,0,.71.77.66,1.66,1.14,2.64,1.41.25.07.55-.08.62-.35.06-.26-.08-.54-.35-.62Z"/>
    <path class="cls-1" d="M91.96,156.99l-14.93,9.56c-.54.35-.04,1.21.5.86,4.98-3.19,9.95-6.38,14.93-9.56.54-.35.04-1.21-.5-.86Z"/>
    <path class="cls-1" d="M94.28,157.37c-4.12,3.31-8.1,6.79-11.94,10.43-.47.44.24,1.15.71.71,3.84-3.64,7.82-7.11,11.94-10.43.5-.4-.21-1.11-.71-.71Z"/>
    <path class="cls-1" d="M93.88,160.06c-2.8,3.01-5.61,6.02-8.41,9.03-.44.47.27,1.18.71.71,2.8-3.01,5.61-6.02,8.41-9.03.44-.47-.27-1.18-.71-.71Z"/>
    <path class="cls-1" d="M99.79,168.57c-.33,1.17-.73,2.32-1.22,3.43-.11.25-.07.54.18.68.21.12.58.07.68-.18.52-1.19.97-2.41,1.32-3.67.18-.62-.79-.89-.96-.27Z"/>
    <path class="cls-1" d="M82.97,156.95c-4.7,3.55-9.4,7.11-14.09,10.66-.51.38,0,1.25.5.86,4.7-3.55,9.4-7.11,14.09-10.66.51-.38,0-1.25-.5-.86Z"/>
    <path class="cls-1" d="M109.17,22.09c-.5,1.73-1.1,3.42-1.79,5.08-.16.03-.29.13-.35.34-.09.36-.18.72-.27,1.08-.13.53.67.92.91.39.98-2.14,1.8-4.35,2.45-6.62.18-.62-.79-.88-.96-.27Z"/>
    <path class="cls-1" d="M111.31,18.19c.02,2.55-.42,5.06-1.28,7.45-.22.61.75.87.96.27.89-2.47,1.33-5.09,1.32-7.72,0-.64-1-.64-1,0Z"/>
    <path class="cls-1" d="M107.88,163.87c-.24-.07-.57.08-.62.35-.31,1.89-1.01,3.67-2.07,5.26-.36.54.51,1.04.86.5,1.1-1.65,1.85-3.54,2.17-5.5.04-.27-.07-.54-.35-.62Z"/>
    <path class="cls-1" d="M141.17,77.64c-.19-.19-.52-.2-.71,0l-3.57,3.77c-.19.2-.19.51,0,.71.19.19.52.2.71,0,1.19-1.26,2.38-2.51,3.57-3.77.19-.2.19-.51,0-.71Z"/>
    <path class="cls-1" d="M145.63,75.66c-.17-.17-.54-.21-.71,0-1.25,1.61-2.51,3.21-3.76,4.82-.17.21-.21.5,0,.71.17.17.54.21.71,0,1.25-1.61,2.51-3.21,3.76-4.82.17-.21.21-.5,0-.71Z"/>
    <path class="cls-1" d="M149.2,73.65c-.86,1.71-1.72,3.42-2.57,5.13-.29.57.57,1.08.86.5.86-1.71,1.72-3.42,2.57-5.13.29-.57-.57-1.08-.86-.5Z"/>
    <path class="cls-1" d="M154.25,71.83c-.28-.06-.52.08-.61.35-.05.14-.1.27-.15.41,0,0-.04.09-.02.06.01-.03-.02.05-.03.06-.03.07-.06.14-.1.21-.12.26-.26.52-.42.77-.14.22-.32.5-.46.67-.15.19-.37.45-.57.65-.18.19-.2.52,0,.71.2.18.51.2.71,0,.9-.93,1.58-2.04,1.99-3.27.08-.25-.1-.56-.35-.62Z"/>
    <path class="cls-1" d="M158.96,70.58c-.28.01-.48.22-.5.5,0,.05,0,.11-.01.16,0,.02,0,.06,0,.08.04-.08,0-.04,0,0-.02.11-.04.21-.07.31-.03.11-.06.22-.1.33-.02.05-.04.1-.06.15-.01.03-.03.06-.04.08-.09.2-.21.39-.33.57-.02.03-.11.14-.04.06-.03.04-.07.08-.1.12-.08.09-.16.18-.25.26-.19.18-.2.53,0,.71.2.19.5.19.71,0,.78-.74,1.24-1.77,1.31-2.85.02-.26-.24-.51-.5-.5Z"/>
    <path class="cls-1" d="M199.81,29.8c-2.56-3.45-5.83-6.35-9.58-8.46-1.97-1.11-4.14-2.17-6.41-2.45-1.8-.23-3.6.21-5.15,1.14-.45.27-.86.58-1.26.92-1.65-1.72-3.59-3.17-5.73-4.25-.16-.08-.31-.07-.43,0-2.71-3.27-5.92-6.06-9.84-7.87-5.02-2.31-10.61-2.59-16.06-2.49-5.21.1-10.55.36-15.54,2-3.19,1.05-6.45,2.78-8.78,5.29-3.13-3.02-7.85-4.23-12.02-2.66-2.32.87-4.35,2.45-5.73,4.51-1.6,2.38-2.09,5.29-2.15,8.11,0,.25,0,.49,0,.74-.06.16-.1.32-.14.48.03-1.55.14-3.08.27-4.5.06-.64-.94-.64-1,0-.32,3.71-.66,7.55.4,11.18.22.74.5,1.47.83,2.17.02.34.04.68.05,1.02.02.43.47.57.76.42.91,1.4,2.09,2.62,3.58,3.46.56.32,1.07-.55.5-.86-1.84-1.04-3.07-2.49-3.9-4.18-.05-1.01-.09-2.03-.14-3.05.55-.91.95-1.91,1.14-2.96.05-.27-.07-.54-.35-.62-.24-.07-.57.08-.61.35-.07.36-.16.72-.28,1.07-.01-.35-.03-.7-.05-1.05.72-.51,1.43-1.06,2.13-1.62-.21,2.1-.82,4.15-1.81,6.02-.3.57.56,1.07.86.5.38-.72.69-1.46.96-2.22.12.4.81.51.96,0,.68-2.34,1.52-4.64,2.52-6.87.09-.21.07-.45-.09-.6,2.85-3.1,4.91-6.79,5.12-11.18.74,0,1.48.05,2.22.22.47.1.94.24,1.39.41-.19,0-.38.11-.44.35-.5,2.04-1,4.08-1.5,6.12-.15.62.81.89.96.27.5-2.04,1-4.08,1.5-6.12.05-.19-.02-.34-.12-.45,1.31.54,2.52,1.3,3.53,2.3-.99,1.23-1.77,2.63-2.22,4.21-.03.1-.02.18,0,.26-1.61,1.44-3.06,3.06-4.31,4.84-.37.53.5,1.03.86.5,2.67-3.8,6.3-6.89,10.48-8.92,4.28-2.07,9.04-3.02,13.78-3.24,4.85-.23,9.77.21,14.53,1.17,4.82.97,9.53,2.54,13.82,4.98,1.82,1.03,3.73,2.36,5.26,3.97-1.2-.67-2.43-1.27-3.7-1.8-1.17-.76-2.36-1.5-3.64-2.05-2.05-.88-4.21-1.4-6.4-1.78-2.76-1.24-5.72-2.07-8.74-2.48-7.17-.97-14.64.23-21.15,3.39-7.21,3.5-13.22,9.15-17.94,15.56-5.01,6.8-8.67,14.52-11.44,22.47-3.21,9.2-5.19,18.82-5.89,28.54-.03.41-.04.81-.07,1.22-.49,1.1-.87,2.25-1.17,3.33-.05.19-.09.39-.14.58-.3.71-.56,1.44-.8,2.16.14-.1.29-.19.44-.28-.65,3.08-.82,6.23-.53,9.36-.1.19-.06.37.05.5.02.21.05.43.08.64,0-.01,0-.02.01-.03.11.91.31,1.82.58,2.7-.13.26.02.55.24.67.07.1.17.16.29.19.06.52.14,1.04.24,1.56-.08.1-.16.21-.25.31-.34.42.12,1,.51.85.26.97.6,1.93,1.02,2.84-.05.1-.09.2-.13.3-.21.47.3.88.65.72.32.6.68,1.19,1.07,1.75.17.24.36.45.54.68-.01.22-.03.44-.02.66.01.43.56.65.84.36,0,0,0,0,0,.01.48.53,1.04,1.05,1.78,1.16,1.25.18,2.13-.84,2.57-1.89-.23.02-.48.04-.73.04-.13,0-.25-.01-.37-.02-.16.29-.37.56-.64.73-.03.02-.07.02-.1.04.75-.9,1.41-1.86,1.97-2.87.13-.02.25-.09.34-.23,1.02-1.71,1.5-3.61,1.71-5.56.05-.08.1-.15.15-.23.15-.23.08-.44-.08-.58.1-1.44.07-2.9.02-4.33-.03-.64-1.03-.64-1,0,.02.5.04,1.01.05,1.52-.17.03-.33.12-.41.32-.32.78-.86,1.46-1.34,2.15-.49.71-.99,1.42-1.48,2.12l-3.07,4.39c-.24.34.04.67.36.72.02.05.05.1.09.14.17.18.54.21.71,0,.9-1.14,1.8-2.27,2.7-3.41.44-.56.89-1.12,1.33-1.68.08-.1.15-.2.23-.3-1.16,1.76-2.34,3.51-3.56,5.23-.37.53.5,1.03.86.5,1.05-1.49,2.07-2.99,3.08-4.51-.16.62-.36,1.23-.62,1.83-.14.02-.27.1-.34.23-.58,1.27-1.32,2.47-2.2,3.57-.23-.06-.46-.11-.67-.19-.11.23-.22.47-.32.71-.09-.09-.18-.17-.26-.26.17.02.35-.04.45-.24.04-.07.07-.14.11-.21-1.68-.63-2.8-1.96-3.35-3.51-.27-.41-.48-.85-.65-1.32.19.05.4,0,.51-.23,1.04-2.03,2.48-3.8,3.87-5.6.67-.86,1.33-1.73,1.92-2.65.29-.45.57-.91.82-1.38.24-.44.47-.9.82-1.26,0,0,0,.01,0,.02-.21.31-.43.63-.65.93-.15.2-.1.39.02.53.16.05.31.11.46.18.1,0,.21-.04.3-.12,0,.09.01.18.02.27.38.19.73.41,1.04.67,0-.07,0-.13,0-.2.04-.02.07-.04.11-.06,2.01-1.6,3.49-3.83,4.22-6.3.18-.62-.78-.88-.96-.27-.62,2.1-1.82,3.97-3.45,5.42-.02-.26-.04-.52-.06-.78,1.77-2.68,3.11-5.64,3.97-8.74.06-.22-.03-.4-.17-.51.16-.33.33-.67.49-1,.03-.06.04-.11.04-.17.67,2.02,1.04,4.18,1.35,6.19.58,3.74.72,7.54.5,11.33-.24-.26-.74-.27-.84.18-.78,3.73-2.99,7.08-6.14,9.23-.53.36-.03,1.23.5.86,3.14-2.14,5.42-5.39,6.4-9.05-.02.23-.02.47-.04.7-.05.5.55.6.84.32-.1,1.53-.24,3.06-.38,4.59.33-.11.68-.19,1.03-.27.03-.3.05-.6.08-.9.07.07.16.1.24.12-.04.1-.1.18-.14.28-.24.6.73.86.96.27,1.14-2.89,4.31-4.46,7.28-4.64,3.79-.23,7.38,1.53,10.62,3.31.56.31,1.07-.55.5-.86-3.52-1.93-7.52-3.86-11.65-3.4-1.1.12-2.17.42-3.18.86.14-.17.29-.34.42-.51.17-.21.21-.5,0-.71-.17-.17-.54-.21-.71,0-1.29,1.63-2.72,3.14-4.29,4.51.15-1.78.28-3.56.35-5.35.18.03.37-.02.5-.22,1.79-2.75,3.11-5.79,3.88-8.98.15-.63-.81-.89-.96-.27-.69,2.85-1.84,5.56-3.37,8.06.03-1.3.03-2.6-.03-3.89,1.93-2.41,3.32-5.21,4.02-8.23.15-.63-.82-.89-.96-.27-.59,2.52-1.66,4.91-3.17,7-.17-2.08-.47-4.14-1-6.16-.44-1.67-1.02-3.29-1.77-4.84-.03-.06-.06-.11-.09-.17-.27-.74-.59-1.45-.96-2.14.19-.28.37-.57.55-.86,1.04,1.51,2.3,2.85,3.75,3.98-.03.15,0,.31.12.43.14.14.4.18.59.08,1.05.74,2.17,1.39,3.36,1.89,3.91,1.66,8.35,1.79,12.38.44,1.87-.62,3.62-1.56,5.18-2.75-.68,3.82-.87,7.71-.62,11.58l-.2.28c-.13.16-.26.32-.38.49,0,.03,0,.05,0,.08l-.27.4c-.19.27-.05.54.18.66-.04.27-.09.54-.17.8.21-.26.42-.52.62-.78.09-.03.17-.09.23-.18.04-.05.07-.11.11-.16,0,.04,0,.08.01.12-.11.18-.24.36-.35.54-.24.4.14.77.5.73,0,.04,0,.08.01.12-.26.26-.51.52-.78.77-.47.44.24,1.15.71.71.09-.08.17-.17.25-.25.1.61.22,1.22.33,1.83-.02.12,0,.23.06.33.21,1.03.44,2.05.71,3.06.17.62,1.14.36.96-.27-.26-.96-.48-1.92-.67-2.89,1.82-1.79,3.34-3.85,4.53-6.1.12-.03.24-.11.29-.22.7-1.46,1.52-2.86,2.45-4.19.08-.11.09-.26.05-.39.98,1.42,1.79,2.95,2.43,4.55-.24-.06-.52.03-.63.32-1.15,3.13-2.66,6.12-4.48,8.91-.25.39.12.75.48.73-.24.37-.49.73-.73,1.1-.14.21-.28.44-.43.65-.04.09-.1.17-.18.23-.02,0-.02.01-.03.02-.04-.03-.09-.04-.14-.05-.67-1.67-.65-3.7-.44-5.37.08-.64-.92-.63-1,0-.32,2.51-.14,5.39,1.53,7.42-.04.04-.07.09-.11.13-.41.49.29,1.2.71.71.03-.04.06-.08.1-.12,1.51,1.24,3.82,1.66,5.56.73,1.09-.59,1.69-1.67,1.96-2.84.32-1.39.42-2.86.42-4.28,0-2.86-.54-5.73-1.56-8.4-.17-.44-.35-.87-.54-1.3.12,0,.24-.04.34-.15,1.81-1.94,3.29-4.17,4.37-6.59.11-.25.07-.53-.18-.68-.21-.13-.58-.07-.68.18-1.04,2.35-2.45,4.51-4.21,6.39-.02.02-.02.03-.03.05-.51-1-1.07-1.97-1.71-2.9.06-.06.11-.13.14-.21,1.01-2.42,1.48-5.05,1.39-7.68,0-.22-.13-.36-.29-.43.02-.16.06-.32.08-.49.04-.27-.26-.5-.5-.5-.3,0-.46.23-.5.5-.31,2.31-.92,4.58-1.79,6.74-.01.03,0,.06-.01.09-.29-.34-.58-.67-.89-.99-.1-.1-.21-.14-.32-.14,0-.02.01-.04.02-.06.25.2.69.17.8-.23.46-1.7.79-3.42.99-5.17.02-.2-.13-.38-.31-.46-.19-.33-.79-.38-.92.1-.55,1.99-1.11,3.97-1.66,5.96-.09-.04-.18-.05-.29-.02.04-.05.07-.11.09-.19.34-1.39.52-2.82.54-4.25,0-.64-.99-.64-1,0-.02,1.35-.19,2.68-.5,3.98-.1.43.31.68.63.6-.31.23-.58.51-.81.81,0,0-.01,0-.01.02,0,.01-.02.03-.03.04-.21.28-.41.58-.61.88.04-.17.08-.35.12-.52,0-.01,0-.02,0-.04.26-.03.42-.24.45-.49l.57-4.6c.03-.27-.25-.5-.5-.5-.3,0-.47.23-.5.5l-.04.36c-.09-.1-.21-.16-.36-.16-.25,0-.53.23-.5.5.12,1.18.08,2.38-.13,3.54-.03.17.01.33.12.46-.03.05-.06.1-.07.16-.25,1.29-.66,2.55-1.21,3.74.07-1.18.06-2.35-.03-3.52.26-1.13.53-2.25.85-3.37.18-.62-.79-.88-.96-.27-.16.57-.31,1.15-.45,1.73-.07-.01-.14-.01-.2,0-.07.02-.12.05-.17.09.35-3.08,1.01-6.12,1.96-9.08.25-.39.49-.79.71-1.21.3-.57-.56-1.07-.86-.5-.09.17-.2.34-.3.51-.14.04-.26.14-.32.31-.05.15-.09.3-.14.45-.74,1.14-1.6,2.21-2.57,3.17-.46.45.25,1.16.71.71.37-.36.72-.74,1.06-1.14-.2.75-.38,1.5-.54,2.26,0,0,0,0,0,0-3.06,2.68-7.08,4.17-11.14,4.17-3.39,0-6.7-1.09-9.46-3.03,1.08-1.5,1.84-3.21,2.16-5.04.05-.27-.07-.54-.35-.62-.24-.07-.57.08-.61.35-.3,1.7-.98,3.31-1.99,4.7-.16-.13-.33-.24-.48-.37-.75-.64-1.44-1.36-2.07-2.11.3,0,.59-.24.45-.6-.27-.7-.6-1.35-.99-1.97,1.5-2.57,2.77-5.27,3.79-8.07.22-.61-.75-.87-.96-.27-.93,2.57-2.11,5.04-3.46,7.42-.42-.57-.87-1.1-1.34-1.63,1.82-3.2,2.87-6.8,3.04-10.48.03-.64-.97-.64-1,0-.16,3.4-1.12,6.72-2.76,9.7-.49-.52-.99-1.04-1.48-1.56-.47-.5-.94-1.03-1.39-1.59,2.09-3.12,3.77-6.5,4.99-10.06.21-.61-.76-.87-.96-.27-1.15,3.35-2.73,6.52-4.67,9.47-.58-.83-1.07-1.71-1.39-2.64,1.63-5.47,5.61-10,7.14-15.53.17-.62-.79-.89-.96-.27-1.37,4.94-4.68,9.07-6.54,13.78,0-.35,0-.7.06-1.05.1-.63-.86-.9-.96-.27-.2,1.24-.09,2.35.21,3.38-.15.54-.28,1.08-.38,1.63-.11.63.85.9.96.27.02-.1.04-.2.06-.3.36.69.79,1.35,1.29,1.99.02.16.14.29.29.36,1.53,1.88,3.46,3.61,4.9,5.55-.35-.34-1.04.11-.76.63.15.28.32.54.49.81-.18.28-.36.56-.54.84-.14-.22-.28-.43-.44-.64-1.98-2.62-5.53-4.31-8.71-2.86-1.3.59-2.3,1.58-3.09,2.75.65-8.02,2.17-15.96,4.54-23.65,1.64-5.33,3.68-10.56,6.2-15.54.17.09.37.08.54-.11l19.49-22.43c.25-.29.1-.65-.15-.8.38-.24.74-.5,1.13-.73,5.03-3,10.72-4.73,16.54-5.1-4.39.5-8.69,1.88-12.48,4.14-1,.6-1.93,1.28-2.83,1.99-.17-.02-.35.04-.47.22-.09.13-.18.25-.27.38-4.12,3.5-7.19,8.05-10.18,12.6-.09.14-.18.27-.27.41-.64.67-1.27,1.35-1.93,2-.27.27-.13.62.12.77-3.4,5.21-6.73,10.47-9.7,15.94-3.52,6.49-6.53,13.31-8.39,20.47-.23.89-.44,1.79-.64,2.69-.14.63.83.9.96.27,3.13-14.34,10.89-27.02,18.82-39.17.29-.44.57-.89.86-1.33l1.77-1.63c.18.17.47.24.71.04,2.72-2.18,5.33-4.51,7.8-6.98,1.61-1.61,3.36-3.29,4.69-5.21.93-.85,1.85-1.71,2.78-2.56.17-.1.33-.2.5-.3-2.51,3.04-4.98,6.1-7.39,9.22-.39.51.48,1.01.86.5,1.02-1.33,2.07-2.64,3.11-3.95.18.14.44.19.65-.01,2.62-2.48,5.15-5.04,7.59-7.7.07-.07.1-.15.12-.23.11-.03.22-.08.33-.11.19,0,.38,0,.57,0-2.11,2.61-4.33,5.13-6.66,7.54-.45.46.26,1.17.71.71,2.45-2.55,4.79-5.2,7.01-7.96.07-.09.1-.19.11-.28.64,0,1.28.02,1.93.03-.05.06-.11.12-.16.18-.85.91-1.7,1.81-2.55,2.72l-5.03,5.37c-.44.47.27,1.18.71.71,1.59-1.7,3.18-3.39,4.76-5.09.78-.84,1.57-1.67,2.35-2.51.37-.39.77-.93,1.23-1.35,1.84.04,3.68.1,5.52.23-.65.76-1.2,1.61-1.61,2.53-.11.25-.07.54.18.68.21.12.57.07.68-.18.49-1.12,1.17-2.08,2.02-2.93.59.05,1.19.09,1.78.15-.04.03-.08.07-.11.12-.62,1.01-1.24,2.03-1.86,3.04-.14.22-.06.56.18.68.24.13.54.06.68-.18.62-1.01,1.24-2.03,1.86-3.04.1-.16.08-.38-.03-.54,1.95.22,3.88.5,5.8.89,1.22.62,2.41,1.31,3.53,2.11.18.13.36.11.5,0,.11.09.21.19.31.28.18-.28.36-.55.55-.82-.23-.19-.48-.36-.72-.55.59.17,1.18.36,1.76.56.74.25,1.48.53,2.2.83,1.91,1.23,3.79,2.53,5.96,3.24.07.12.15.24.22.37-.13.31-.23.62-.32.94-.03-.02-.05-.05-.08-.07-.24-.13-.54-.06-.68.18-.57.94-1.13,1.89-1.7,2.83-.13.22-.06.56.18.68.24.13.54.06.68-.18.45-.75.89-1.49,1.34-2.24-.06.41-.1.82-.1,1.24-.04.07-.07.15-.07.24-.02.59,0,1.18.03,1.77-.03.06-.05.13-.05.21-.06,1.47-.38,2.94-.96,4.3-.11.25-.07.54.18.68.21.12.58.07.68-.18.24-.56.43-1.14.59-1.72.07.32.16.63.24.94-.8,2.8-1.75,5.55-2.88,8.23-.22.53.64.87.91.39l.59-1.07c.09-.16.08-.31.01-.44.7-1.76,1.33-3.55,1.89-5.36.27.77.59,1.53.95,2.27-.03.06-.05.13-.04.22.05,3.07-.82,6.07-2.5,8.64-.34.55.51,1.04.86.5.2-.33.4-.65.6-.98.01-.02.01-.04.02-.06,1.12-2.03,1.78-4.29,1.96-6.6.43.73.91,1.43,1.42,2.12-.26-.18-.68-.14-.78.25-.57,2.05-1.26,4.06-2.06,6.04-.1.25.11.55.35.62.29.08.51-.1.61-.35.8-1.97,1.49-3.99,2.06-6.04.03-.12.02-.22-.02-.31.9,1.17,1.9,2.27,3.01,3.24.41.36.84.69,1.27,1.01-.22.03-.43.18-.42.47.04,1.86-.49,3.68-1.51,5.24-.35.54.51,1.04.86.5,1.11-1.7,1.69-3.72,1.65-5.75,0-.03-.01-.05-.02-.07.89.62,1.83,1.19,2.81,1.66.58.28,1.08-.58.5-.86-5.43-2.63-9.48-7.67-11.1-13.46.08-.28.17-.56.24-.85.11-.41-.27-.66-.59-.61-.15-.78-.27-1.56-.34-2.35.22-.08.39-.29.3-.57-.4-1.32-.37-2.67-.02-3.95.32.93.51,1.91.49,2.95-.01.64.99.64,1,0,.02-1.19-.19-2.31-.58-3.37.79,1.43,1.54,2.88,2.26,4.34.28.58,1.15.07.86-.5-.43-.88-.88-1.77-1.35-2.66.06.05.13.1.19.15.77.67,1.52,1.37,2.24,2.09,0,.03,0,.07,0,.1,1.02,5,4.4,9.41,8.94,11.73,1.78,2.95,3.42,5.98,5.02,9.03.3.57,1.16.07.86-.5-1.42-2.7-2.87-5.42-4.43-8.08.14-.08.25-.21.29-.35,1.32,2.11,3.46,4.49,6.1,3.5,2.72-1.02,2.92-4.58,2.4-6.98-.77-3.57-2.81-6.8-4.75-9.84-1.74-2.73-4.14-5.47-7.62-5.65-1.66-.08-3.23.58-4.22,1.93-.92,1.25-1.19,2.89-.47,4.29.29.57,1.16.07.86-.5-.56-1.09-.24-2.38.49-3.31.81-1.03,2.05-1.47,3.33-1.4,3.02.15,5.13,2.63,6.64,4.98,1.62,2.51,3.28,5.14,4.26,7.98.72,2.08,1.38,5.19-.37,6.98-2.43,2.48-5.23-1.41-6.28-3.31-.31-.56-1.18-.06-.86.5.05.1.11.2.17.3-.23-.1-.46-.21-.68-.32-2.84-4.7-6.07-9.16-10.1-12.91-1.01-.93-2.07-1.79-3.17-2.6-.16-.29-.33-.59-.5-.88.34-.55.74-1.05,1.18-1.52,1.15,1.32,2.13,2.78,2.9,4.37.28.58,1.14.07.86-.5-.8-1.65-1.83-3.18-3.04-4.56.07-.06.13-.12.21-.18,1.28-1,2.86-1.65,4.49-1.67,2.08-.03,4.1.9,5.91,1.82,3.45,1.76,6.53,4.21,9.05,7.15,2.62,3.05,5.06,6.93,5.46,11.02.22,2.23-.26,4.47-1.74,6.2-1.28,1.5-3.2,2.55-5.22,2.23-.63-.1-.9.86-.27.96.31.05.61.07.91.07,1.31-.7,2.72-1.22,4.17-1.5,1.58-1.25,2.71-3.14,3.05-5.13.77-4.62-1.61-9.23-4.29-12.83ZM105.03,27.49c.19-.91.33-1.83.37-2.76.35-.31.7-.63,1.04-.96-.51,1.22-.98,2.46-1.41,3.71ZM105.34,23.45c-.23-.37-.93-.3-.93.25,0,.19,0,.39,0,.58-.73.62-1.48,1.22-2.25,1.78,0-.12-.01-.24-.01-.36-.01-.37-.02-.74-.02-1.11.58-1.48,1.78-2.79,2.78-3.95,1.68-1.94,3.51-4.02,3.67-6.71.04-.64-.96-.64-1,0-.2,3.43-3.45,5.72-5.38,8.46.12-1.71.43-3.39,1.15-4.95,1.56-3.38,4.89-5.69,8.51-6.09-.25,4.9-3,8.89-6.5,12.11ZM102.24,105.36c.19-.28.39-.55.56-.84-.01.54-.05,1.08-.09,1.61-.12.19-.25.37-.37.56.13-.23.24-.47.32-.73.09-.33-.14-.56-.41-.6ZM141.91,108.43c.32-.48.65-.97.97-1.45-.89,1.61-1.92,3.13-3.05,4.57.7-1.04,1.39-2.08,2.09-3.12ZM146.01,105.8c.12,1.21.14,2.42.06,3.63-.08,1.26-.16,2.75-.83,3.85-1.09,1.76-3.69,1.54-5.19.49-.09-.06-.16-.14-.24-.21,1.55-1.94,2.96-3.98,4.19-6.13-.74,1.81-1.6,3.57-2.58,5.27-.32.56.54,1.06.86.5,1.14-1.98,2.12-4.04,2.95-6.17.1-.25-.11-.55-.35-.62-.14-.04-.27-.01-.37.05.21-.39.43-.77.62-1.16.1-.21.06-.4-.06-.54.01-.23-.13-.43-.32-.52.36-.51.67-1.07.7-1.64.26,1.05.46,2.11.56,3.19ZM144.8,100.44c.17.49.32.98.47,1.47-.31-.3-.98-.04-.83.48.13.45-.3.91-.53,1.26-.25.38-.5.75-.75,1.13-.36.54-.72,1.07-1.07,1.61,1.04-1.92,1.96-3.9,2.72-5.95ZM142.39,92.76c.22-.54.41-1.08.59-1.62-.19.84-.43,1.67-.74,2.49-.13-.17-.27-.34-.41-.51.25.04.46-.12.55-.35ZM141.22,93.95c.24.3.46.62.68.93,0,0-.02-.02-.02-.02-.25-.15-.53-.04-.68.18-.07.1-.13.21-.2.31-.08-.11-.21-.18-.34-.2.21-.39.41-.78.58-1.2ZM134.56,104.83c-.07-.38-.15-.77-.21-1.15.08-.02.15-.06.22-.14.43-.51.85-1.03,1.26-1.56.08-.04.15-.08.21-.17,1-1.4,2-2.8,3-4.2.2-.28.4-.56.6-.85-1.13,3-2.86,5.75-5.07,8.07ZM139.14,94.14c-.06.14-.12.28-.19.42-.02.02-.04.03-.05.06-1.24,2.18-2.65,4.27-4.23,6.22-.11.14-.16.31-.12.47-.15.17-.3.33-.45.49,0-.07-.01-.14-.02-.21,1.59-2.55,3.28-5.04,5.07-7.46ZM133.8,95.05c.06.06.13.11.22.14.04.01.08,0,.11,0,0,.45-.02.9-.05,1.34-.02.27.24.5.5.5.05,0,.09-.02.14-.03-.3.44-.6.87-.9,1.31-.04-1.09-.05-2.17-.02-3.26ZM93.09,90.49c.31-.1.62-.18.96-.24-.45.71-.89,1.41-1.34,2.12.11-.63.23-1.26.38-1.88ZM92.45,94.19c.17,0,.34-.08.44-.24.76-1.21,1.53-2.42,2.29-3.63.04-.07.06-.14.06-.22.24,0,.47.03.7.09.01,0,.02,0,.03,0-1.08,2.21-2.31,4.34-3.68,6.39.02-.8.07-1.6.16-2.4ZM92.32,98.96c-.02-.32-.04-.63-.04-.95.15,0,.31-.06.41-.21.03-.05.06-.09.09-.14.06-.02.12-.06.17-.12.84-1.06,1.64-2.15,2.42-3.26-.14.21-.27.42-.41.63-.88,1.35-1.76,2.7-2.64,4.05ZM92.9,103.2c-.23-.9-.37-1.83-.43-2.76.05-.05.11-.1.16-.15,1.1-1.69,2.2-3.37,3.3-5.06.17-.26.34-.53.52-.79-.26.51-.51,1.03-.79,1.52-.75,1.32-1.59,2.58-2.48,3.8.89-.92,1.68-1.92,2.54-2.88.62-.69,1.29-1.32,1.93-1.99.66-.69,1.13-1.23,1.59-2,.14-.23.34-.38.57-.48.18-.34.52-.59,1.01-.61.29.57.48,1.18.62,1.8-.17-.02-.34.04-.46.22-.17.26-.34.53-.51.79-2.71,2.69-5.24,5.55-7.58,8.57ZM99.02,90.26c.02-.05.04-.11.05-.16.3.16.59.36.85.59,0,0-.01,0-.02.02-.5.7-1,1.4-1.5,2.1.31-.77.54-1.55.63-2.35,0-.08,0-.14-.02-.2ZM93.7,105.27c-.02-.17-.05-.34-.07-.51-.02-.22-.16-.36-.33-.43.81-.9,1.6-1.82,2.39-2.74,0,0,0,.01,0,.02-.69.98-1.33,2-1.85,3.09-.11.23-.04.44.1.59-.08.1-.16.21-.24.31,0-.11,0-.21,0-.32ZM102.11,96.99c-.89.68-1.28,1.69-1.85,2.62-.63,1.04-1.35,2.02-2.1,2.98-1.41,1.82-2.88,3.61-3.96,5.66-.02-.07-.04-.15-.05-.22-.13-.34-.23-.69-.3-1.04,1.47-1.86,2.94-3.72,4.41-5.58,1.29-1.63,2.78-3.25,3.59-5.19.09.07.21.11.33.11.03.2.05.39.08.59-.05.02-.1.03-.16.08ZM97.38,81.82c2.02-1.44,4.44-1.09,6.37.15-2.05-.67-4.41-.29-6.31.77-.99.55-1.82,1.28-2.55,2.11.63-1.19,1.42-2.27,2.49-3.03ZM97.22,84.05c2.36-1.66,5.88-2.12,8.13-.02.38.36.71.77,1.02,1.2.03.06.06.11.11.15.44.64.81,1.32,1.15,2.01.01.03.02.07.03.11-.21-.23-.6-.29-.78.07-1.06,2.15-2.12,4.29-3.18,6.44-.24.48.32.9.67.7-.34.69-.71,1.36-1.1,2.02-.11-.86-.24-1.72-.44-2.55-.06-.27-.16-.54-.24-.81,1.74-2.67,2.71-5.79,2.8-8.98.02-.64-.98-.64-1,0-.07,2.76-.85,5.45-2.24,7.82-.1-.22-.18-.45-.3-.66,1.37-2.37,2.03-5.12,1.84-7.85-.04-.64-1.04-.64-1,0,.17,2.41-.35,4.8-1.47,6.92-.26-.32-.55-.62-.89-.88-.01-.01-.03-.02-.05-.03.89-1.75,1.14-3.78.66-5.7,0-.02-.02-.04-.03-.06-.01-.13-.02-.25-.04-.38-.04-.27-.38-.41-.62-.35-.28.08-.39.35-.35.62.27,1.76-.12,3.57-1.04,5.09-.11-.04-.23-.07-.35-.1.5-1.12.98-2.26,1.43-3.4.1-.25-.11-.55-.35-.62-.28-.08-.52.1-.62.35-.46,1.18-.96,2.34-1.48,3.49-.5-.02-1,.04-1.5.22-.14.05-.24.15-.29.26-.66-.09-1.33-.04-1.97.16,0,0-.01-.01-.02-.02-.12-.07-.26-.08-.4-.04.17-.39.35-.77.54-1.15.27.04.58-.12.59-.47,0-.21.02-.41.04-.62.72-1.14,1.59-2.16,2.7-2.94ZM106.87,41.37c.93-1.67,1.9-3.32,2.95-4.92,3.86-5.87,8.67-11.18,14.48-15.15-5.81,6.69-11.62,13.38-17.44,20.07ZM134.75,18.47c-.15-.04-.31-.02-.45.11l-.4.37c-.13.08-.26.14-.39.22-.19.12-.37.25-.56.37-.18-.31-.65-.44-.83-.03-.14.32-.29.63-.46.93-2.12,1.59-3.98,3.5-5.53,5.65l-3.95,3.64c2.02-2.46,3.9-5.03,5.67-7.68.38-.31.76-.62,1.16-.91,2.67-1.93,5.68-3.35,8.84-4.28,0,.04.02.08.04.12-.43.17-.85.37-1.27.56,0,0-.01,0-.02,0-.63.28-1.24.59-1.85.91ZM134.5,21.6c.87-1.06,1.73-2.12,2.61-3.17.26-.11.52-.22.78-.32-1.11,1.18-2.24,2.35-3.38,3.5ZM151.59,16.61s-.01.01-.02.02c-1.64-.12-3.28-.19-4.92-.25,0-.04,0-.07,0-.11,1.68-.03,3.37.08,5.06.26-.04.02-.09.04-.13.08ZM186.67,37.04c.48.7.93,1.42,1.38,2.14-3-2.03-5.27-5.03-6.38-8.49,1.82,1.99,3.48,4.12,5,6.35ZM119.57,17.66c.39-.92.9-1.78,1.51-2.56.2.24.39.48.57.74.07.1.15.15.24.18-.8.51-1.58,1.05-2.32,1.64ZM169.99,18.64c-4.15-2.86-9.05-4.72-13.92-5.91-4.93-1.2-10.07-1.81-15.14-1.76-4.95.05-9.96.79-14.55,2.69-1.31.54-2.58,1.19-3.79,1.91,0-.08-.02-.15-.08-.24-.24-.35-.51-.68-.79-.99,1.97-2.15,4.68-3.69,7.35-4.69,4.76-1.77,9.89-2.14,14.93-2.29,5.29-.15,10.76-.11,15.77,1.84,4.16,1.62,7.66,4.54,10.52,7.92,1.37,1.62,2.6,3.36,3.73,5.15-1.15-1.4-2.57-2.62-4.03-3.63ZM175.61,22.93c-.95-1.59-1.98-3.15-3.09-4.63,1.54.92,2.93,2.05,4.16,3.33-.39.41-.76.84-1.08,1.3Z"/>
  </g>
</svg>